<?xml version="1.0" encoding="utf-8"?>
<!-- Generator: Adobe Illustrator 23.0.5, SVG Export Plug-In . SVG Version: 6.00 Build 0)  -->
<svg version="1.1" id="Capa_1" xmlns="http://www.w3.org/2000/svg" xmlns:xlink="http://www.w3.org/1999/xlink" x="0px" y="0px"
	 viewBox="0 0 822.65 189.8" style="enable-background:new 0 0 822.65 189.8;" xml:space="preserve">
<style type="text/css">
	.st0{fill:url(#SVGID_1_);}
	.st1{fill:#FFFFFF;}
	.st2{fill:#230131;}
	.st3{fill:#CB88A1;}
	.st4{fill:#C24131;}
	.st5{fill:#BE1622;}
	.st6{fill:#935EA3;}
	.st7{fill:none;}
	.st8{fill:none;stroke:#FFFFFF;stroke-width:2;stroke-miterlimit:10;}
	.st9{fill:#E9B6A3;}
	.st10{opacity:0.9;fill:#230131;}
	.st11{opacity:0.24;fill:url(#SVGID_2_);}
	.st12{fill:#BF1A1B;}
	.st13{fill:#FFEC00;}
	.st14{fill:url(#SVGID_3_);}
	.st15{fill:url(#SVGID_4_);}
	.st16{fill:url(#SVGID_5_);}
	.st17{fill:url(#SVGID_6_);}
	.st18{fill:url(#SVGID_7_);}
	.st19{fill:url(#SVGID_8_);}
	.st20{fill:url(#SVGID_9_);}
	.st21{fill:url(#SVGID_10_);}
	.st22{fill:url(#SVGID_11_);}
	.st23{fill:url(#SVGID_12_);}
	.st24{fill:#E9C064;}
	.st25{fill:#E9C064;stroke:#FFFFFF;stroke-width:20;stroke-miterlimit:10;}
	.st26{clip-path:url(#SVGID_14_);}
	.st27{fill:url(#SVGID_15_);}
	.st28{fill:url(#SVGID_16_);}
	.st29{fill:url(#SVGID_17_);}
	.st30{fill:url(#SVGID_18_);}
	.st31{fill:url(#SVGID_19_);}
	.st32{fill:url(#SVGID_20_);}
	.st33{fill:url(#SVGID_21_);}
	.st34{fill:url(#SVGID_22_);}
	.st35{fill:url(#SVGID_23_);}
	.st36{fill:url(#SVGID_24_);}
	.st37{fill:url(#SVGID_25_);}
	.st38{fill:url(#SVGID_26_);}
	.st39{fill:url(#SVGID_27_);}
	.st40{opacity:0.24;fill:url(#SVGID_28_);}
	.st41{fill:url(#SVGID_29_);}
	.st42{fill:url(#SVGID_30_);}
	.st43{fill:url(#SVGID_31_);}
	.st44{opacity:0.24;fill:url(#SVGID_32_);}
	.st45{fill:url(#SVGID_33_);}
	.st46{fill:url(#SVGID_34_);}
	.st47{fill:url(#SVGID_35_);}
	.st48{opacity:0.24;fill:url(#SVGID_36_);}
	.st49{clip-path:url(#SVGID_38_);}
	.st50{opacity:0.63;clip-path:url(#SVGID_38_);fill:url(#SVGID_41_);}
	.st51{opacity:0;clip-path:url(#SVGID_38_);fill:url(#SVGID_42_);}
	.st52{opacity:0.22;clip-path:url(#SVGID_38_);fill:url(#SVGID_43_);}
	.st53{fill:url(#SVGID_44_);}
	.st54{clip-path:url(#SVGID_46_);}
	.st55{fill:url(#SVGID_47_);}
	.st56{fill:url(#SVGID_48_);}
	.st57{fill:url(#SVGID_49_);}
	.st58{fill:url(#SVGID_50_);}
	.st59{fill:url(#SVGID_51_);}
	.st60{fill:url(#SVGID_52_);}
	.st61{fill:url(#SVGID_53_);}
	.st62{fill:url(#SVGID_54_);}
	.st63{fill:url(#SVGID_55_);}
	.st64{fill:url(#SVGID_56_);}
	.st65{fill:url(#SVGID_57_);}
	.st66{clip-path:url(#SVGID_59_);}
	.st67{fill:#A1C538;}
	.st68{fill:#886FAE;}
	.st69{fill:#E9C063;}
	.st70{fill:url(#SVGID_60_);stroke:#230131;stroke-width:12;stroke-miterlimit:10;}
	.st71{clip-path:url(#SVGID_62_);}
	.st72{fill:url(#SVGID_63_);}
	.st73{opacity:0.5;}
	.st74{fill:#EDCD83;}
	.st75{opacity:0.62;clip-path:url(#SVGID_62_);fill:url(#SVGID_64_);}
	.st76{clip-path:url(#SVGID_62_);fill:url(#SVGID_65_);}
	.st77{fill:url(#SVGID_66_);}
	.st78{fill:#E9C064;stroke:#230131;stroke-width:20;stroke-miterlimit:10;}
	.st79{fill:url(#SVGID_67_);}
	.st80{fill:url(#SVGID_68_);}
	.st81{clip-path:url(#SVGID_62_);fill:url(#SVGID_69_);}
	.st82{fill:url(#SVGID_70_);}
	.st83{fill:url(#SVGID_71_);}
	.st84{opacity:0.34;fill:#230131;}
	.st85{fill:url(#SVGID_72_);}
	.st86{fill:url(#SVGID_73_);}
	.st87{fill:url(#SVGID_74_);}
	.st88{fill:url(#SVGID_75_);}
	.st89{fill:url(#SVGID_76_);}
	.st90{fill:url(#SVGID_77_);}
	.st91{fill:url(#SVGID_78_);}
	.st92{fill:url(#SVGID_79_);}
	.st93{fill:url(#SVGID_80_);}
	.st94{fill:url(#SVGID_81_);}
	.st95{fill:url(#SVGID_82_);}
	.st96{fill:url(#SVGID_83_);}
	.st97{clip-path:url(#SVGID_85_);}
	.st98{fill:url(#SVGID_86_);}
	.st99{fill:#D5A0B4;}
	.st100{fill:#D15F81;}
	.st101{fill:#F09C83;}
	.st102{opacity:0.62;clip-path:url(#SVGID_85_);fill:url(#SVGID_87_);}
	.st103{clip-path:url(#SVGID_85_);fill:url(#SVGID_88_);}
	.st104{fill:url(#SVGID_89_);}
	.st105{fill:url(#SVGID_90_);}
	.st106{fill:#CB88A1;stroke:#230131;stroke-width:20;stroke-miterlimit:10;}
	.st107{fill:url(#SVGID_91_);}
	.st108{clip-path:url(#SVGID_85_);fill:url(#SVGID_92_);}
	.st109{fill:url(#SVGID_93_);}
	.st110{fill:url(#SVGID_94_);}
	.st111{fill:url(#SVGID_95_);}
	.st112{fill:url(#SVGID_96_);}
	.st113{fill:url(#SVGID_97_);}
	.st114{fill:url(#SVGID_98_);}
	.st115{fill:url(#SVGID_99_);}
	.st116{fill:url(#SVGID_100_);}
	.st117{fill:url(#SVGID_101_);}
	.st118{fill:url(#SVGID_102_);}
	.st119{fill:url(#SVGID_103_);}
	.st120{clip-path:url(#SVGID_105_);}
	.st121{fill:url(#SVGID_106_);}
	.st122{fill:#CE675A;}
	.st123{fill:#DD4B1A;}
	.st124{fill:#F4971E;}
	.st125{opacity:0.62;clip-path:url(#SVGID_105_);fill:url(#SVGID_107_);}
	.st126{clip-path:url(#SVGID_105_);fill:url(#SVGID_108_);}
	.st127{fill:url(#SVGID_109_);}
	.st128{fill:url(#SVGID_110_);}
	.st129{fill:url(#SVGID_111_);}
	.st130{fill:#C24131;stroke:#230131;stroke-width:20;stroke-miterlimit:10;}
	.st131{clip-path:url(#SVGID_105_);fill:url(#SVGID_112_);}
	.st132{fill:url(#SVGID_113_);}
	.st133{fill:url(#SVGID_114_);}
	.st134{fill:url(#SVGID_115_);}
	.st135{fill:url(#SVGID_116_);}
	.st136{fill:url(#SVGID_117_);}
	.st137{fill:url(#SVGID_118_);}
	.st138{fill:url(#SVGID_119_);}
	.st139{fill:url(#SVGID_120_);}
	.st140{fill:url(#SVGID_121_);}
	.st141{fill:url(#SVGID_122_);}
	.st142{fill:url(#SVGID_123_);}
	.st143{fill:url(#SVGID_124_);}
	.st144{fill:url(#SVGID_125_);}
	.st145{opacity:0.35;}
	.st146{fill:#ECECEC;}
	.st147{fill:url(#SVGID_126_);}
	.st148{clip-path:url(#SVGID_128_);}
	.st149{fill:url(#SVGID_129_);}
	.st150{fill:#FBBA00;}
	.st151{opacity:0.62;fill:url(#SVGID_130_);}
	.st152{fill:url(#SVGID_131_);}
	.st153{fill:url(#SVGID_132_);}
	.st154{fill:url(#SVGID_133_);}
	.st155{fill:url(#SVGID_134_);}
	.st156{fill:url(#SVGID_135_);}
	.st157{fill:url(#SVGID_136_);}
	.st158{fill:url(#SVGID_137_);}
	.st159{fill:url(#SVGID_138_);}
	.st160{fill:url(#SVGID_139_);}
	.st161{fill:url(#SVGID_140_);}
	.st162{fill:url(#SVGID_143_);}
	.st163{fill:url(#SVGID_144_);}
	.st164{fill:url(#SVGID_145_);}
	.st165{fill:url(#SVGID_146_);}
	.st166{fill:url(#SVGID_147_);}
	.st167{fill:url(#SVGID_148_);}
	.st168{fill:url(#SVGID_149_);}
	.st169{fill:url(#SVGID_150_);}
	.st170{fill:url(#SVGID_151_);}
	.st171{fill:url(#SVGID_152_);}
	.st172{fill:url(#SVGID_155_);}
	.st173{fill:url(#SVGID_156_);}
	.st174{fill:url(#SVGID_157_);}
	.st175{fill:url(#SVGID_158_);}
	.st176{fill:url(#SVGID_159_);}
	.st177{fill:url(#SVGID_160_);}
	.st178{fill:url(#SVGID_161_);}
	.st179{fill:url(#SVGID_162_);}
	.st180{fill:url(#SVGID_163_);}
	.st181{fill:url(#SVGID_164_);}
	.st182{fill:url(#SVGID_167_);}
	.st183{fill:url(#SVGID_168_);}
	.st184{fill:url(#SVGID_169_);}
	.st185{fill:url(#SVGID_170_);}
	.st186{fill:url(#SVGID_171_);}
	.st187{fill:url(#SVGID_172_);}
	.st188{fill:url(#SVGID_173_);}
	.st189{fill:url(#SVGID_174_);}
	.st190{fill:url(#SVGID_175_);}
	.st191{fill:url(#SVGID_176_);}
	.st192{clip-path:url(#SVGID_178_);}
	.st193{clip-path:url(#SVGID_180_);}
	.st194{clip-path:url(#SVGID_188_);}
	.st195{clip-path:url(#SVGID_190_);}
	.st196{opacity:0.35;clip-path:url(#SVGID_192_);}
	.st197{clip-path:url(#SVGID_192_);fill:url(#SVGID_193_);}
	.st198{clip-path:url(#SVGID_192_);}
	.st199{clip-path:url(#SVGID_195_);fill:url(#SVGID_196_);}
	.st200{clip-path:url(#SVGID_198_);}
	.st201{opacity:0.62;clip-path:url(#SVGID_192_);fill:url(#SVGID_199_);}
	.st202{fill:url(#SVGID_200_);}
	.st203{fill:url(#SVGID_201_);}
	.st204{fill:url(#SVGID_202_);}
	.st205{fill:url(#SVGID_203_);}
	.st206{fill:url(#SVGID_204_);}
	.st207{fill:url(#SVGID_205_);}
	.st208{fill:url(#SVGID_206_);}
	.st209{fill:url(#SVGID_207_);}
	.st210{fill:url(#SVGID_208_);}
	.st211{fill:url(#SVGID_209_);}
	.st212{fill-rule:evenodd;clip-rule:evenodd;fill:#FFFFFF;}
	.st213{fill:#72BB6F;}
	.st214{fill:#1DBADF;}
	.st215{fill:url(#SVGID_212_);}
	.st216{fill:url(#SVGID_213_);}
	.st217{fill:url(#SVGID_214_);}
	.st218{fill:url(#SVGID_215_);}
	.st219{fill:url(#SVGID_216_);}
	.st220{fill:url(#SVGID_217_);}
	.st221{fill:url(#SVGID_218_);}
	.st222{fill:url(#SVGID_219_);}
	.st223{fill:url(#SVGID_220_);}
	.st224{fill:url(#SVGID_221_);}
	.st225{fill:url(#SVGID_224_);}
	.st226{fill:url(#SVGID_225_);}
	.st227{fill:url(#SVGID_226_);}
	.st228{fill:url(#SVGID_227_);}
	.st229{fill:url(#SVGID_228_);}
	.st230{fill:url(#SVGID_229_);}
	.st231{fill:url(#SVGID_230_);}
	.st232{fill:url(#SVGID_231_);}
	.st233{fill:url(#SVGID_232_);}
	.st234{fill:url(#SVGID_233_);}
	.st235{fill:url(#SVGID_236_);}
	.st236{fill:url(#SVGID_237_);}
	.st237{fill:url(#SVGID_238_);}
	.st238{fill:url(#SVGID_239_);}
	.st239{fill:url(#SVGID_240_);}
	.st240{fill:url(#SVGID_241_);}
	.st241{fill:url(#SVGID_242_);}
	.st242{fill:url(#SVGID_243_);}
	.st243{fill:url(#SVGID_244_);}
	.st244{fill:url(#SVGID_245_);}
	.st245{fill:url(#SVGID_248_);}
	.st246{fill:url(#SVGID_249_);}
	.st247{fill:url(#SVGID_250_);}
	.st248{fill:url(#SVGID_251_);}
	.st249{fill:url(#SVGID_252_);}
	.st250{fill:url(#SVGID_253_);}
	.st251{fill:url(#SVGID_254_);}
	.st252{fill:url(#SVGID_255_);}
	.st253{fill:url(#SVGID_256_);}
	.st254{fill:url(#SVGID_257_);}
	.st255{clip-path:url(#SVGID_259_);}
	.st256{clip-path:url(#SVGID_261_);}
	.st257{clip-path:url(#SVGID_269_);}
	.st258{clip-path:url(#SVGID_271_);}
	.st259{clip-path:url(#SVGID_273_);}
	.st260{fill:#230131;stroke:#230131;stroke-miterlimit:10;}
	.st261{fill:#350030;}
	.st262{fill:url(#SVGID_276_);}
	.st263{fill:url(#SVGID_277_);}
	.st264{fill:url(#SVGID_278_);}
	.st265{fill:url(#SVGID_279_);}
	.st266{fill:url(#SVGID_280_);}
	.st267{fill:url(#SVGID_281_);}
	.st268{fill:url(#SVGID_282_);}
	.st269{fill:url(#SVGID_283_);}
	.st270{fill:url(#SVGID_284_);}
	.st271{fill:url(#SVGID_285_);}
	.st272{fill:#FDCC68;}
	.st273{fill:#8CC15C;}
	.st274{fill:url(#SVGID_286_);}
	.st275{fill:url(#SVGID_287_);}
	.st276{fill:url(#SVGID_288_);}
</style>
<g>
	<g>
		<g>
			<path class="st1" d="M68.7,163.98L30.6,118.84c-3.09-3.66-2.63-9.13,1.03-12.22l76.59-64.65c3.66-3.09,9.13-2.63,12.22,1.03
				l38.09,45.13c3.09,3.66,2.63,9.13-1.03,12.22l-76.59,64.65C77.26,168.1,71.78,167.64,68.7,163.98z"/>
			<path class="st2" d="M75.84,169.8c-0.49,0-0.98-0.02-1.47-0.06c-4.56-0.39-8.7-2.52-11.65-6.02l-32.85-38.92
				c-2.95-3.5-4.36-7.94-3.98-12.5c0.39-4.56,2.53-8.7,6.02-11.65l70.39-59.41c3.5-2.95,7.94-4.37,12.5-3.98
				c4.56,0.39,8.7,2.53,11.65,6.02l32.85,38.92c2.95,3.5,4.36,7.94,3.98,12.5c-0.39,4.56-2.53,8.7-6.02,11.65l-70.38,59.41
				C83.74,168.39,79.87,169.8,75.84,169.8z M113.33,46c-1.96,0-3.84,0.68-5.36,1.96l-70.39,59.41c-1.7,1.43-2.74,3.45-2.93,5.66
				c-0.19,2.22,0.5,4.37,1.93,6.07l32.85,38.92c1.43,1.7,3.44,2.74,5.66,2.93c2.21,0.18,4.37-0.5,6.07-1.93l70.38-59.41
				c1.7-1.43,2.74-3.45,2.93-5.66c0.19-2.22-0.5-4.37-1.93-6.07L119.7,48.96c-1.43-1.7-3.44-2.74-5.66-2.93
				C113.8,46.01,113.56,46,113.33,46z"/>
		</g>
		<g>
			<polygon class="st24" points="92.26,155.43 59.91,82.76 96.88,51.56 129.23,124.23 			"/>
			<path class="st2" d="M90.63,162.58L54.54,81.53l43.98-37.12l36.08,81.05L90.63,162.58z M65.28,83.99l28.62,64.29L123.86,123
				L95.24,58.71L65.28,83.99z"/>
		</g>
		<g>
			<g>
				<path class="st1" d="M184.74,61.88c-4.25-5.03-1.03-7.75-5.28-12.79c-4.25-5.03-7.47-2.31-11.72-7.35
					c-4.25-5.04-1.03-7.76-5.28-12.79c-4.25-5.04-7.47-2.32-11.72-7.35"/>
			</g>
			<g>
				<path class="st2" d="M146.84,78.68c-1.27,0-2.51-0.55-3.37-1.56l-14.68-17.4c-1.16-1.37-1.37-3.31-0.53-4.89l18.59-35.28
					c0.68-1.3,1.97-2.17,3.42-2.33c1.45-0.16,2.89,0.42,3.84,1.54c1.29,1.53,2.18,1.81,3.8,2.31c2.1,0.65,4.97,1.54,7.92,5.04
					c2.96,3.5,3.35,6.48,3.64,8.66c0.22,1.68,0.35,2.6,1.64,4.13c1.29,1.53,2.18,1.81,3.8,2.31c2.1,0.65,4.97,1.54,7.92,5.04
					c2.96,3.5,3.35,6.48,3.64,8.66c0.22,1.68,0.34,2.6,1.64,4.13c0.94,1.12,1.27,2.64,0.87,4.05s-1.48,2.53-2.87,2.98l-37.9,12.4
					C147.76,78.61,147.29,78.68,146.84,78.68z M137.44,56.31l10.85,12.86l30.08-9.84c-0.37-1.22-0.51-2.32-0.64-3.26
					c-0.22-1.68-0.34-2.6-1.64-4.13c-1.29-1.53-2.18-1.81-3.79-2.31c-2.1-0.65-4.97-1.54-7.92-5.04c-2.96-3.5-3.35-6.48-3.64-8.66
					c-0.22-1.68-0.35-2.6-1.64-4.13c-1.29-1.53-2.19-1.81-3.8-2.31c-0.91-0.28-1.97-0.61-3.11-1.18L137.44,56.31z"/>
			</g>
		</g>
		<g>
			<g>
				<path class="st1" d="M4.41,145.11c4.25,5.03,1.03,7.75,5.28,12.79c4.25,5.03,7.47,2.31,11.72,7.35
					c4.25,5.04,1.03,7.76,5.28,12.79c4.25,5.04,7.47,2.32,11.72,7.35"/>
			</g>
			<g>
				<path class="st2" d="M38.4,189.8c-1.29,0-2.53-0.57-3.37-1.56c-1.29-1.53-2.18-1.81-3.8-2.31c-2.1-0.65-4.97-1.54-7.92-5.04
					c-2.96-3.5-3.35-6.48-3.64-8.66c-0.22-1.68-0.34-2.6-1.64-4.13c-1.29-1.53-2.18-1.81-3.8-2.31c-2.1-0.65-4.97-1.54-7.92-5.04
					c-2.96-3.5-3.35-6.48-3.64-8.66c-0.22-1.68-0.34-2.6-1.64-4.13c-0.94-1.12-1.27-2.64-0.87-4.05c0.4-1.41,1.48-2.53,2.87-2.98
					l37.9-12.4c1.7-0.56,3.58-0.03,4.74,1.35l14.68,17.4c1.16,1.37,1.37,3.31,0.53,4.89L42.3,187.44c-0.68,1.3-1.97,2.17-3.42,2.33
					C38.72,189.79,38.56,189.8,38.4,189.8z M10.77,147.66c0.37,1.22,0.51,2.32,0.64,3.26c0.22,1.68,0.34,2.6,1.64,4.13
					c1.29,1.53,2.18,1.81,3.79,2.31c2.1,0.65,4.97,1.54,7.92,5.04c2.96,3.5,3.35,6.48,3.64,8.66c0.22,1.68,0.34,2.6,1.64,4.13
					c1.29,1.53,2.18,1.81,3.8,2.31c0.91,0.28,1.97,0.61,3.11,1.18l14.76-28l-10.85-12.86L10.77,147.66z"/>
			</g>
		</g>
	</g>
	<g>
		<path class="st2" d="M369.84,15.72c3.49-2.88,6.99-5.32,10.48-7.29c4.86-2.88,9.76-5.01,14.7-6.38C399.96,0.68,405.09,0,410.41,0
			c6.23,0,11.43,1.86,15.61,5.58c4.18,3.72,6.27,8.24,6.27,13.56c0,4.56-1.56,8.51-4.67,11.85c-3.12,3.34-6.8,5.01-11.05,5.01
			c-2.58,0-4.22-0.42-4.9-1.25c-0.68-0.83-1.1-2.85-1.25-6.04c-0.15-1.06-0.95-2.01-2.39-2.85c-1.45-0.83-3.15-1.25-5.13-1.25
			c-3.19,0-6.72,1.06-10.6,3.19c-3.87,2.13-8.01,5.39-12.42,9.8c10.18,8.36,17.58,17.59,22.22,27.69
			c4.63,10.11,6.95,21.76,6.95,34.98c0,22.03-6.42,40.3-19.26,54.81c-12.84,14.51-28.91,21.76-48.2,21.76
			c-1.67,0-3.27-0.04-4.79-0.11c-1.52-0.08-3.04-0.19-4.56-0.34c-3.34-0.46-6.88-1.25-10.6-2.39c-3.72-1.14-8.7-2.92-14.93-5.36
			c-0.61-0.3-1.48-0.64-2.62-1.03c-1.14-0.38-2.47-0.87-3.99-1.48c-7.45,6.23-15.19,10.86-23.24,13.9
			c-8.05,3.04-16.86,4.56-26.44,4.56c-12.31,0-22.26-2.77-29.85-8.32c-7.6-5.54-11.39-12.8-11.39-21.76c0-7.9,3.11-14.55,9.34-19.94
			c6.23-5.39,13.98-8.09,23.25-8.09c0.91,0,1.86,0,2.85,0c0.99,0,1.94,0.08,2.85,0.23c5.92,0.31,12.46,1.41,19.6,3.3
			c7.14,1.9,17.32,5.13,30.54,9.69c0.76-1.06,1.48-2.13,2.17-3.19c0.68-1.06,1.33-2.13,1.94-3.19c0.61-0.91,1.17-1.82,1.71-2.73
			c0.53-0.91,1.03-1.9,1.48-2.96c1.52-3.04,3.19-6.8,5.01-11.28c1.82-4.48,4.18-10.52,7.06-18.12c1.97-5.32,3.61-9.57,4.9-12.76
			c1.29-3.19,2.47-6,3.53-8.43c0.15-0.46,0.34-0.95,0.57-1.48c0.23-0.53,0.49-1.03,0.8-1.48c0.46-0.91,0.91-1.86,1.37-2.85
			c0.46-0.99,0.99-2.01,1.6-3.08c-1.98-0.46-3.69-0.8-5.13-1.03c-1.45-0.23-2.77-0.42-3.99-0.57c-0.46,0-0.91,0-1.37,0
			c-0.46,0-0.91,0-1.37,0c-7.45,0-13.79,2.05-19.03,6.15c-5.24,4.1-7.86,9.04-7.86,14.81c0,2.89,0.95,5.09,2.85,6.61
			c1.9,1.52,4.59,2.36,8.09,2.51c2.28,0.15,3.91,0.57,4.9,1.25c0.99,0.68,1.48,1.86,1.48,3.53c0,0.46-0.04,0.88-0.11,1.25
			c-0.08,0.38-0.19,0.72-0.34,1.03c-1.06,3.95-4.67,7.67-10.82,11.17c-6.15,3.5-12.8,5.62-19.94,6.38c-0.91,0-1.79,0.04-2.62,0.11
			c-0.84,0.08-1.63,0.11-2.39,0.11c-10.79,0-19.68-3.45-26.66-10.37c-6.99-6.91-10.48-15.84-10.48-26.78
			c0-18.53,8.24-34.37,24.73-47.51c16.48-13.14,36.2-19.71,59.14-19.71c5.92,0,11.66,0.49,17.21,1.48
			c5.54,0.99,11.05,2.47,16.52,4.44c1.06,0.31,2.17,0.68,3.3,1.14c1.14,0.46,2.24,0.91,3.3,1.37
			C362.78,21.88,366.35,18.61,369.84,15.72z M277.66,155.31c-1.45-0.53-2.93-1.03-4.44-1.48c-3.04-0.91-5.96-1.71-8.77-2.39
			c-2.81-0.68-4.9-1.03-6.27-1.03c-2.13,0-4.03,0.68-5.7,2.05c-1.67,1.37-2.51,3.04-2.51,5.01c0,2.13,1.06,3.99,3.19,5.58
			c2.13,1.6,4.63,2.39,7.52,2.39c1.06,0,2.09-0.04,3.08-0.11c0.99-0.07,1.94-0.26,2.85-0.57c2.13-0.46,4.33-1.29,6.61-2.51
			c2.28-1.21,5.09-2.96,8.43-5.24C280.43,156.41,279.11,155.84,277.66,155.31z M325.52,148.24c1.59,0.38,3.08,0.65,4.44,0.8
			c0.46,0,0.87,0,1.25,0c0.38,0,0.8,0,1.25,0c8.96,0,16.75-4.18,23.36-12.53c6.61-8.35,9.91-18.15,9.91-29.4
			c0-5.77-1.14-11.09-3.42-15.95c-2.28-4.86-5.7-9.19-10.25-12.99c-0.76,1.37-1.45,2.55-2.05,3.53c-0.61,0.99-1.14,2.02-1.6,3.08
			c-0.15,0.15-0.31,0.34-0.46,0.57c-0.15,0.23-0.31,0.49-0.46,0.8c-0.46,0.91-0.91,1.9-1.37,2.96c-0.46,1.06-0.99,2.36-1.59,3.87
			c-0.15,0.31-0.27,0.53-0.34,0.68c-0.08,0.15-0.11,0.31-0.11,0.46c-0.15,0.31-0.57,1.37-1.25,3.19c-0.68,1.82-2.93,7.52-6.72,17.09
			c-1.52,3.65-2.89,6.84-4.1,9.57c-1.22,2.73-2.36,5.32-3.42,7.75c-0.76,1.37-1.48,2.66-2.17,3.87c-0.68,1.22-1.41,2.43-2.17,3.65
			c-0.76,1.22-1.52,2.43-2.28,3.65c-0.76,1.22-1.6,2.43-2.51,3.65C321.91,147.29,323.92,147.86,325.52,148.24z"/>
		<path class="st2" d="M504.07,137.19c-0.31,1.52-0.57,2.93-0.8,4.22c-0.23,1.29-0.34,2.24-0.34,2.85c0,1.98,0.61,3.61,1.82,4.9
			c1.21,1.29,2.74,1.94,4.56,1.94c0.76,0,1.52-0.11,2.28-0.34c0.76-0.23,1.59-0.49,2.51-0.8c1.06-0.46,2.05-0.8,2.96-1.03
			c0.91-0.23,1.67-0.34,2.28-0.34c0.91,0,1.75,0.38,2.51,1.14c0.76,0.76,1.14,1.6,1.14,2.51c0,1.22-0.38,2.55-1.14,3.99
			c-0.76,1.45-1.75,2.85-2.96,4.22c-0.91,1.06-1.98,2.13-3.19,3.19c-1.22,1.06-2.51,2.05-3.87,2.96c-2.13,1.52-4.37,2.85-6.72,3.99
			c-2.36,1.14-4.75,2.09-7.18,2.85c-2.43,0.76-4.83,1.33-7.18,1.71c-2.36,0.38-4.6,0.57-6.72,0.57c-5.47,0-9.88-1.37-13.22-4.1
			c-3.34-2.73-5.17-6.46-5.47-11.17c-2.28,1.98-4.64,3.84-7.06,5.58c-2.43,1.75-4.94,3.23-7.52,4.44c-3.34,1.82-6.61,3.15-9.8,3.99
			c-3.19,0.83-6.23,1.25-9.12,1.25c-5.78,0-10.71-1.71-14.81-5.13c-4.1-3.42-6.15-7.56-6.15-12.42c0-0.76,0.04-1.48,0.11-2.17
			c0.08-0.68,0.19-1.4,0.34-2.16l8.43-40.56c0.3-1.06,0.49-2.09,0.57-3.08c0.08-0.99,0.11-1.86,0.11-2.62
			c0-1.67-0.31-3.08-0.91-4.22c-0.61-1.14-1.67-2.24-3.19-3.3c-0.31-0.15-0.53-0.26-0.68-0.34c-0.15-0.07-0.38-0.19-0.68-0.34
			c1.52-1.21,3.04-2.35,4.56-3.42c1.52-1.06,3.11-2.13,4.79-3.19c3.65-2.13,7.29-3.8,10.94-5.01c3.65-1.21,6.99-1.82,10.03-1.82
			c4.1,0,7.33,1.1,9.69,3.3c2.35,2.2,3.53,5.28,3.53,9.23c0,0.61,0,1.06,0,1.37c0,0.31,0,0.61,0,0.91c0,0.15-0.04,0.27-0.11,0.34
			c-0.08,0.08-0.11,0.19-0.11,0.34l-6.61,31.68c-0.15,0.91-0.31,1.79-0.46,2.62c-0.15,0.84-0.23,1.48-0.23,1.94
			c0,1.82,0.57,3.27,1.71,4.33c1.14,1.06,2.62,1.6,4.44,1.6c3.19,0,5.77-1.1,7.75-3.3c1.97-2.2,3.57-5.73,4.79-10.6l3.87-16.41
			c0-0.15,0.04-0.34,0.11-0.57c0.07-0.23,0.11-0.42,0.11-0.57c0.3-0.91,0.49-1.82,0.57-2.73c0.08-0.91,0.11-1.67,0.11-2.28
			c0-1.52-0.27-2.73-0.8-3.65c-0.53-0.91-1.48-1.82-2.85-2.73c-0.31-0.3-0.68-0.57-1.14-0.8c-0.46-0.23-0.91-0.42-1.37-0.57
			c5.01-3.95,9.65-6.99,13.9-9.12c4.25-2.13,8.43-3.49,12.53-4.1c0.76,0,1.52-0.04,2.28-0.11c0.76-0.07,1.52-0.11,2.28-0.11
			c3.95,0,7.1,1.06,9.46,3.19c2.35,2.13,3.53,5.01,3.53,8.66c0,0.31,0,0.61,0,0.91c0,0.31-0.08,0.61-0.23,0.91
			c0,0.31-0.04,0.61-0.11,0.91c-0.08,0.31-0.11,0.61-0.11,0.91L504.07,137.19z"/>
		<path class="st2" d="M537.11,58.34c0.15-0.3,0.26-0.61,0.34-0.91c0.08-0.3,0.11-0.61,0.11-0.91c0.15-0.76,0.26-1.6,0.34-2.51
			c0.07-0.91,0.11-1.67,0.11-2.28c0-2.13-0.34-3.68-1.03-4.67c-0.68-0.99-2.01-1.86-3.99-2.62c2.58-2.43,5.35-4.59,8.32-6.49
			c2.96-1.9,5.96-3.45,9-4.67c2.13-0.76,4.25-1.37,6.38-1.82c2.13-0.46,4.18-0.68,6.15-0.68c4.25,0,7.63,1.06,10.14,3.19
			c2.51,2.13,3.76,4.94,3.76,8.43c0,0.31,0,0.65,0,1.03c0,0.38-0.08,0.72-0.23,1.03c0,0.46-0.04,0.88-0.11,1.25
			c-0.08,0.38-0.11,0.72-0.11,1.03l-20.74,93.43c0,0.31-0.04,0.57-0.11,0.8c-0.08,0.23-0.11,0.49-0.11,0.8
			c0,0.46-0.04,0.95-0.11,1.48c-0.08,0.53-0.11,1.1-0.11,1.71c0,1.82,0.64,3.3,1.94,4.44c1.29,1.14,2.92,1.71,4.9,1.71
			c0.3,0,0.64,0,1.03,0c0.38,0,0.8-0.07,1.25-0.23c0.3,0,0.64-0.07,1.03-0.23c0.38-0.15,0.72-0.3,1.03-0.46
			c1.21-0.46,2.28-0.83,3.19-1.14c0.91-0.3,1.59-0.46,2.05-0.46c1.06-0.15,1.97,0.19,2.73,1.03c0.76,0.84,1.14,1.79,1.14,2.85v0.23
			c-0.15,1.52-0.84,3.23-2.05,5.13c-1.22,1.9-2.96,3.84-5.24,5.81c-0.61,0.61-1.25,1.18-1.94,1.71c-0.68,0.53-1.41,1.1-2.17,1.71
			c-2.73,1.82-5.62,3.38-8.66,4.67c-3.04,1.29-6.15,2.24-9.34,2.85c-1.52,0.3-2.96,0.53-4.33,0.68c-1.37,0.15-2.73,0.23-4.1,0.23
			c-6.23,0-11.36-1.75-15.38-5.24c-4.03-3.49-6.04-8.05-6.04-13.67c0-0.46,0-0.95,0-1.48c0-0.53,0.08-1.03,0.23-1.48
			c0-0.46,0.04-0.91,0.11-1.37c0.08-0.46,0.19-0.91,0.34-1.37L537.11,58.34z"/>
		<path class="st2" d="M613.34,110.07c-2.81,3.8-4.22,8.58-4.22,14.36c0,6.38,1.82,11.47,5.47,15.27c3.65,3.8,8.58,5.7,14.81,5.7
			c1.06,0,1.94,0,2.62,0s1.4-0.07,2.17-0.23c1.37-0.15,2.96-0.61,4.79-1.37c1.82-0.76,4.86-2.13,9.12-4.1
			c0.46-0.15,0.91-0.3,1.37-0.46c0.46-0.15,0.83-0.3,1.14-0.46c0.76-0.15,1.44-0.26,2.05-0.34c0.61-0.07,1.21-0.11,1.82-0.11
			c1.82,0,3.23,0.49,4.22,1.48c0.99,0.99,1.48,2.47,1.48,4.44c0,2.28-0.95,4.71-2.85,7.29c-1.9,2.58-4.83,5.62-8.77,9.12
			c-3.95,3.34-7.98,6.15-12.08,8.43c-4.1,2.28-8.2,4.03-12.31,5.24c-2.43,0.76-4.9,1.33-7.41,1.71c-2.51,0.38-4.98,0.57-7.41,0.57
			c-11.55,0-21.23-3.68-29.06-11.05c-7.83-7.37-11.74-16.37-11.74-27c0-14.28,5.73-26.85,17.21-37.72
			c11.47-10.86,24.8-16.29,39.99-16.29c9.12,0,16.56,2.2,22.33,6.61c5.77,4.41,8.66,10.11,8.66,17.09c0,5.17-1.75,9.5-5.24,12.99
			c-3.5,3.5-7.83,5.24-12.99,5.24c-4.71,0-8.55-1.4-11.51-4.22c-2.96-2.81-4.44-6.34-4.44-10.6c0-0.61,0.04-1.18,0.11-1.71
			c0.07-0.53,0.11-1.1,0.11-1.71c0.3-0.76,0.68-1.67,1.14-2.73c0.46-1.06,1.14-2.43,2.05-4.1
			C620.37,103.39,616.15,106.27,613.34,110.07z"/>
		<path class="st2" d="M693.21,142.17c0,2.9,1.1,5.22,3.3,6.98c2.2,1.75,4.97,2.63,8.32,2.63c1.82,0,3.95-0.26,6.38-0.8
			c2.43-0.53,4.86-1.33,7.29-2.39c0.91-0.3,1.82-0.64,2.73-1.03c0.91-0.38,1.82-0.8,2.74-1.25c0.3-0.15,0.53-0.26,0.68-0.34
			c0.15-0.07,0.3-0.19,0.46-0.34c0.3-0.15,0.95-0.49,1.94-1.03c0.99-0.53,3.53-2.09,7.63-4.67c0.61-0.3,1.21-0.57,1.82-0.8
			c0.61-0.23,1.21-0.42,1.82-0.57c0.3-0.15,0.61-0.23,0.91-0.23c0.3,0,0.6,0,0.91,0c1.52,0,2.77,0.46,3.76,1.37
			c0.99,0.91,1.48,2.2,1.48,3.87c0,2.43-1.06,5.09-3.19,7.98c-2.13,2.89-5.17,5.93-9.12,9.12c-6.69,5.17-13.48,9.08-20.4,11.74
			c-6.92,2.66-13.87,3.99-20.85,3.99c-11.55,0-21-3.43-28.37-10.28c-7.37-6.85-11.05-15.84-11.05-26.96
			c0-14.47,6.04-27.11,18.12-37.92S696.71,85,712.81,85c8.66,0,15.76,2.21,21.31,6.63c5.54,4.42,8.32,10.14,8.32,17.15
			c0,8.69-4.6,16.04-13.79,22.07c-9.19,6.02-21,9.41-35.44,10.18V142.17z M709.28,116.68c2.96-1.67,4.44-3.8,4.44-6.38
			c0-1.52-0.46-2.77-1.37-3.76c-0.91-0.99-2.05-1.48-3.42-1.48c-2.89,0-5.55,1.37-7.98,4.1c-2.43,2.73-4.25,6.53-5.47,11.39
			C701.72,119.64,706.32,118.35,709.28,116.68z"/>
		<path class="st2" d="M812.63,90.93c6.68,3.65,10.03,8.2,10.03,13.67c0,2.89-1.1,5.47-3.3,7.75c-2.2,2.28-4.82,3.42-7.86,3.42
			c-0.46,0-0.95-0.04-1.48-0.11c-0.53-0.07-1.03-0.19-1.48-0.34c-1.52-0.3-3.04-1.03-4.56-2.17c-1.52-1.14-3.42-2.7-5.7-4.67
			c-1.98-1.97-3.65-3.38-5.01-4.22c-1.37-0.83-2.66-1.25-3.87-1.25c-1.22,0-2.28,0.34-3.19,1.03c-0.91,0.68-1.37,1.56-1.37,2.62
			c0,1.06,0.42,2.16,1.25,3.3c0.83,1.14,2.01,2.32,3.53,3.53c0.15,0,0.23,0.08,0.23,0.23c0.15,0,0.64,0.23,1.48,0.68
			c0.83,0.46,3.68,2.05,8.55,4.79c5.77,3.19,10.14,6.76,13.1,10.71c2.96,3.95,4.44,8.36,4.44,13.22c0,9.72-4.18,17.63-12.53,23.7
			c-8.36,6.08-19.14,9.12-32.36,9.12c-10.64,0-19.37-2.09-26.21-6.27s-10.25-9.61-10.25-16.29c0-4.25,1.33-7.78,3.99-10.6
			c2.66-2.81,5.96-4.22,9.91-4.22c1.37,0,2.58,0.08,3.65,0.23c1.06,0.15,2.13,0.46,3.19,0.91c1.67,0.76,3.42,2.02,5.24,3.76
			c1.82,1.75,4.18,4.14,7.06,7.18c0.46,0.61,0.95,1.14,1.48,1.6c0.53,0.46,1.1,0.91,1.71,1.37c1.37,1.06,2.7,1.86,3.99,2.39
			c1.29,0.53,2.47,0.8,3.53,0.8c1.21,0,2.35-0.49,3.42-1.48c1.06-0.99,1.6-2.09,1.6-3.3c0-0.46,0-0.87,0-1.25
			c0-0.38-0.08-0.72-0.23-1.03c-0.46-0.91-1.56-2.01-3.3-3.3c-1.75-1.29-4.98-3.45-9.69-6.49c-4.25-2.73-7.71-5.16-10.37-7.29
			c-2.66-2.13-4.75-4.18-6.27-6.15c-1.37-1.97-2.36-3.99-2.96-6.04c-0.61-2.05-0.91-4.37-0.91-6.95c0-7.75,3.61-14.36,10.82-19.83
			c7.21-5.47,15.84-8.2,25.87-8.2C797.66,85.46,805.94,87.28,812.63,90.93z"/>
	</g>
</g>
</svg>
