<?xml version="1.0" encoding="utf-8"?>
<!-- Generator: Adobe Illustrator 23.0.5, SVG Export Plug-In . SVG Version: 6.00 Build 0)  -->
<svg version="1.1" id="Capa_1" xmlns="http://www.w3.org/2000/svg" xmlns:xlink="http://www.w3.org/1999/xlink" x="0px" y="0px"
	 viewBox="0 0 923.59 226.21" style="enable-background:new 0 0 923.59 226.21;" xml:space="preserve">
<style type="text/css">
	.st0{fill:url(#SVGID_1_);}
	.st1{fill:#FFFFFF;}
	.st2{fill:#230131;}
	.st3{fill:#CB88A1;}
	.st4{fill:#C24131;}
	.st5{fill:#BE1622;}
	.st6{fill:#935EA3;}
	.st7{fill:none;}
	.st8{fill:none;stroke:#FFFFFF;stroke-width:2;stroke-miterlimit:10;}
	.st9{fill:#E9B6A3;}
	.st10{opacity:0.9;fill:#230131;}
	.st11{opacity:0.24;fill:url(#SVGID_2_);}
	.st12{fill:#BF1A1B;}
	.st13{fill:#FFEC00;}
	.st14{fill:url(#SVGID_3_);}
	.st15{fill:url(#SVGID_4_);}
	.st16{fill:url(#SVGID_5_);}
	.st17{fill:url(#SVGID_6_);}
	.st18{fill:url(#SVGID_7_);}
	.st19{fill:url(#SVGID_8_);}
	.st20{fill:url(#SVGID_9_);}
	.st21{fill:url(#SVGID_10_);}
	.st22{fill:url(#SVGID_11_);}
	.st23{fill:url(#SVGID_12_);}
	.st24{fill:#E9C064;}
	.st25{fill:#E9C064;stroke:#FFFFFF;stroke-width:20;stroke-miterlimit:10;}
	.st26{clip-path:url(#SVGID_14_);}
	.st27{fill:url(#SVGID_15_);}
	.st28{fill:url(#SVGID_16_);}
	.st29{fill:url(#SVGID_17_);}
	.st30{fill:url(#SVGID_18_);}
	.st31{fill:url(#SVGID_19_);}
	.st32{fill:url(#SVGID_20_);}
	.st33{fill:url(#SVGID_21_);}
	.st34{fill:url(#SVGID_22_);}
	.st35{fill:url(#SVGID_23_);}
	.st36{fill:url(#SVGID_24_);}
	.st37{fill:url(#SVGID_25_);}
	.st38{fill:url(#SVGID_26_);}
	.st39{fill:url(#SVGID_27_);}
	.st40{opacity:0.24;fill:url(#SVGID_28_);}
	.st41{fill:url(#SVGID_29_);}
	.st42{fill:url(#SVGID_30_);}
	.st43{fill:url(#SVGID_31_);}
	.st44{opacity:0.24;fill:url(#SVGID_32_);}
	.st45{fill:url(#SVGID_33_);}
	.st46{fill:url(#SVGID_34_);}
	.st47{fill:url(#SVGID_35_);}
	.st48{opacity:0.24;fill:url(#SVGID_36_);}
	.st49{clip-path:url(#SVGID_38_);}
	.st50{opacity:0.63;clip-path:url(#SVGID_38_);fill:url(#SVGID_41_);}
	.st51{opacity:0;clip-path:url(#SVGID_38_);fill:url(#SVGID_42_);}
	.st52{opacity:0.22;clip-path:url(#SVGID_38_);fill:url(#SVGID_43_);}
	.st53{fill:url(#SVGID_44_);}
	.st54{clip-path:url(#SVGID_46_);}
	.st55{fill:url(#SVGID_47_);}
	.st56{fill:url(#SVGID_48_);}
	.st57{fill:url(#SVGID_49_);}
	.st58{fill:url(#SVGID_50_);}
	.st59{fill:url(#SVGID_51_);}
	.st60{fill:url(#SVGID_52_);}
	.st61{fill:url(#SVGID_53_);}
	.st62{fill:url(#SVGID_54_);}
	.st63{fill:url(#SVGID_55_);}
	.st64{fill:url(#SVGID_56_);}
	.st65{fill:url(#SVGID_57_);}
	.st66{clip-path:url(#SVGID_59_);}
	.st67{fill:#A1C538;}
	.st68{fill:#886FAE;}
	.st69{fill:#E9C063;}
	.st70{fill:url(#SVGID_60_);stroke:#230131;stroke-width:12;stroke-miterlimit:10;}
	.st71{clip-path:url(#SVGID_62_);}
	.st72{fill:url(#SVGID_63_);}
	.st73{opacity:0.5;}
	.st74{fill:#EDCD83;}
	.st75{opacity:0.62;clip-path:url(#SVGID_62_);fill:url(#SVGID_64_);}
	.st76{clip-path:url(#SVGID_62_);fill:url(#SVGID_65_);}
	.st77{fill:url(#SVGID_66_);}
	.st78{fill:#E9C064;stroke:#230131;stroke-width:20;stroke-miterlimit:10;}
	.st79{fill:url(#SVGID_67_);}
	.st80{fill:url(#SVGID_68_);}
	.st81{clip-path:url(#SVGID_62_);fill:url(#SVGID_69_);}
	.st82{fill:url(#SVGID_70_);}
	.st83{fill:url(#SVGID_71_);}
	.st84{opacity:0.34;fill:#230131;}
	.st85{fill:url(#SVGID_72_);}
	.st86{fill:url(#SVGID_73_);}
	.st87{fill:url(#SVGID_74_);}
	.st88{fill:url(#SVGID_75_);}
	.st89{fill:url(#SVGID_76_);}
	.st90{fill:url(#SVGID_77_);}
	.st91{fill:url(#SVGID_78_);}
	.st92{fill:url(#SVGID_79_);}
	.st93{fill:url(#SVGID_80_);}
	.st94{fill:url(#SVGID_81_);}
	.st95{fill:url(#SVGID_82_);}
	.st96{fill:url(#SVGID_83_);}
	.st97{clip-path:url(#SVGID_85_);}
	.st98{fill:url(#SVGID_86_);}
	.st99{fill:#D5A0B4;}
	.st100{fill:#D15F81;}
	.st101{fill:#F09C83;}
	.st102{opacity:0.62;clip-path:url(#SVGID_85_);fill:url(#SVGID_87_);}
	.st103{clip-path:url(#SVGID_85_);fill:url(#SVGID_88_);}
	.st104{fill:url(#SVGID_89_);}
	.st105{fill:url(#SVGID_90_);}
	.st106{fill:#CB88A1;stroke:#230131;stroke-width:20;stroke-miterlimit:10;}
	.st107{fill:url(#SVGID_91_);}
	.st108{clip-path:url(#SVGID_85_);fill:url(#SVGID_92_);}
	.st109{fill:url(#SVGID_93_);}
	.st110{fill:url(#SVGID_94_);}
	.st111{fill:url(#SVGID_95_);}
	.st112{fill:url(#SVGID_96_);}
	.st113{fill:url(#SVGID_97_);}
	.st114{fill:url(#SVGID_98_);}
	.st115{fill:url(#SVGID_99_);}
	.st116{fill:url(#SVGID_100_);}
	.st117{fill:url(#SVGID_101_);}
	.st118{fill:url(#SVGID_102_);}
	.st119{fill:url(#SVGID_103_);}
	.st120{clip-path:url(#SVGID_105_);}
	.st121{fill:url(#SVGID_106_);}
	.st122{fill:#CE675A;}
	.st123{fill:#DD4B1A;}
	.st124{fill:#F4971E;}
	.st125{opacity:0.62;clip-path:url(#SVGID_105_);fill:url(#SVGID_107_);}
	.st126{clip-path:url(#SVGID_105_);fill:url(#SVGID_108_);}
	.st127{fill:url(#SVGID_109_);}
	.st128{fill:url(#SVGID_110_);}
	.st129{fill:url(#SVGID_111_);}
	.st130{fill:#C24131;stroke:#230131;stroke-width:20;stroke-miterlimit:10;}
	.st131{clip-path:url(#SVGID_105_);fill:url(#SVGID_112_);}
	.st132{fill:url(#SVGID_113_);}
	.st133{fill:url(#SVGID_114_);}
	.st134{fill:url(#SVGID_115_);}
	.st135{fill:url(#SVGID_116_);}
	.st136{fill:url(#SVGID_117_);}
	.st137{fill:url(#SVGID_118_);}
	.st138{fill:url(#SVGID_119_);}
	.st139{fill:url(#SVGID_120_);}
	.st140{fill:url(#SVGID_121_);}
	.st141{fill:url(#SVGID_122_);}
	.st142{fill:url(#SVGID_123_);}
	.st143{fill:url(#SVGID_124_);}
	.st144{fill:url(#SVGID_125_);}
	.st145{opacity:0.35;}
	.st146{fill:#ECECEC;}
	.st147{fill:url(#SVGID_126_);}
	.st148{clip-path:url(#SVGID_128_);}
	.st149{fill:url(#SVGID_129_);}
	.st150{fill:#FBBA00;}
	.st151{opacity:0.62;fill:url(#SVGID_130_);}
	.st152{fill:url(#SVGID_131_);}
	.st153{fill:url(#SVGID_132_);}
	.st154{fill:url(#SVGID_133_);}
	.st155{fill:url(#SVGID_134_);}
	.st156{fill:url(#SVGID_135_);}
	.st157{fill:url(#SVGID_136_);}
	.st158{fill:url(#SVGID_137_);}
	.st159{fill:url(#SVGID_138_);}
	.st160{fill:url(#SVGID_139_);}
	.st161{fill:url(#SVGID_140_);}
	.st162{fill:url(#SVGID_143_);}
	.st163{fill:url(#SVGID_144_);}
	.st164{fill:url(#SVGID_145_);}
	.st165{fill:url(#SVGID_146_);}
	.st166{fill:url(#SVGID_147_);}
	.st167{fill:url(#SVGID_148_);}
	.st168{fill:url(#SVGID_149_);}
	.st169{fill:url(#SVGID_150_);}
	.st170{fill:url(#SVGID_151_);}
	.st171{fill:url(#SVGID_152_);}
	.st172{fill:url(#SVGID_155_);}
	.st173{fill:url(#SVGID_156_);}
	.st174{fill:url(#SVGID_157_);}
	.st175{fill:url(#SVGID_158_);}
	.st176{fill:url(#SVGID_159_);}
	.st177{fill:url(#SVGID_160_);}
	.st178{fill:url(#SVGID_161_);}
	.st179{fill:url(#SVGID_162_);}
	.st180{fill:url(#SVGID_163_);}
	.st181{fill:url(#SVGID_164_);}
	.st182{fill:url(#SVGID_167_);}
	.st183{fill:url(#SVGID_168_);}
	.st184{fill:url(#SVGID_169_);}
	.st185{fill:url(#SVGID_170_);}
	.st186{fill:url(#SVGID_171_);}
	.st187{fill:url(#SVGID_172_);}
	.st188{fill:url(#SVGID_173_);}
	.st189{fill:url(#SVGID_174_);}
	.st190{fill:url(#SVGID_175_);}
	.st191{fill:url(#SVGID_176_);}
	.st192{clip-path:url(#SVGID_178_);}
	.st193{clip-path:url(#SVGID_180_);}
	.st194{clip-path:url(#SVGID_188_);}
	.st195{clip-path:url(#SVGID_190_);}
	.st196{opacity:0.35;clip-path:url(#SVGID_192_);}
	.st197{clip-path:url(#SVGID_192_);fill:url(#SVGID_193_);}
	.st198{clip-path:url(#SVGID_192_);}
	.st199{clip-path:url(#SVGID_195_);fill:url(#SVGID_196_);}
	.st200{clip-path:url(#SVGID_198_);}
	.st201{opacity:0.62;clip-path:url(#SVGID_192_);fill:url(#SVGID_199_);}
	.st202{fill:url(#SVGID_200_);}
	.st203{fill:url(#SVGID_201_);}
	.st204{fill:url(#SVGID_202_);}
	.st205{fill:url(#SVGID_203_);}
	.st206{fill:url(#SVGID_204_);}
	.st207{fill:url(#SVGID_205_);}
	.st208{fill:url(#SVGID_206_);}
	.st209{fill:url(#SVGID_207_);}
	.st210{fill:url(#SVGID_208_);}
	.st211{fill:url(#SVGID_209_);}
	.st212{fill-rule:evenodd;clip-rule:evenodd;fill:#FFFFFF;}
	.st213{fill:#72BB6F;}
	.st214{fill:#1DBADF;}
	.st215{fill:url(#SVGID_212_);}
	.st216{fill:url(#SVGID_213_);}
	.st217{fill:url(#SVGID_214_);}
	.st218{fill:url(#SVGID_215_);}
	.st219{fill:url(#SVGID_216_);}
	.st220{fill:url(#SVGID_217_);}
	.st221{fill:url(#SVGID_218_);}
	.st222{fill:url(#SVGID_219_);}
	.st223{fill:url(#SVGID_220_);}
	.st224{fill:url(#SVGID_221_);}
	.st225{fill:url(#SVGID_224_);}
	.st226{fill:url(#SVGID_225_);}
	.st227{fill:url(#SVGID_226_);}
	.st228{fill:url(#SVGID_227_);}
	.st229{fill:url(#SVGID_228_);}
	.st230{fill:url(#SVGID_229_);}
	.st231{fill:url(#SVGID_230_);}
	.st232{fill:url(#SVGID_231_);}
	.st233{fill:url(#SVGID_232_);}
	.st234{fill:url(#SVGID_233_);}
	.st235{fill:url(#SVGID_236_);}
	.st236{fill:url(#SVGID_237_);}
	.st237{fill:url(#SVGID_238_);}
	.st238{fill:url(#SVGID_239_);}
	.st239{fill:url(#SVGID_240_);}
	.st240{fill:url(#SVGID_241_);}
	.st241{fill:url(#SVGID_242_);}
	.st242{fill:url(#SVGID_243_);}
	.st243{fill:url(#SVGID_244_);}
	.st244{fill:url(#SVGID_245_);}
	.st245{fill:url(#SVGID_248_);}
	.st246{fill:url(#SVGID_249_);}
	.st247{fill:url(#SVGID_250_);}
	.st248{fill:url(#SVGID_251_);}
	.st249{fill:url(#SVGID_252_);}
	.st250{fill:url(#SVGID_253_);}
	.st251{fill:url(#SVGID_254_);}
	.st252{fill:url(#SVGID_255_);}
	.st253{fill:url(#SVGID_256_);}
	.st254{fill:url(#SVGID_257_);}
	.st255{clip-path:url(#SVGID_259_);}
	.st256{clip-path:url(#SVGID_261_);}
	.st257{clip-path:url(#SVGID_269_);}
	.st258{clip-path:url(#SVGID_271_);}
	.st259{clip-path:url(#SVGID_273_);}
	.st260{fill:#230131;stroke:#230131;stroke-miterlimit:10;}
	.st261{fill:#350030;}
	.st262{fill:url(#SVGID_276_);}
	.st263{fill:url(#SVGID_277_);}
	.st264{fill:url(#SVGID_278_);}
	.st265{fill:url(#SVGID_279_);}
	.st266{fill:url(#SVGID_280_);}
	.st267{fill:url(#SVGID_281_);}
	.st268{fill:url(#SVGID_282_);}
	.st269{fill:url(#SVGID_283_);}
	.st270{fill:url(#SVGID_284_);}
	.st271{fill:url(#SVGID_285_);}
	.st272{fill:#FDCC68;}
	.st273{fill:#8CC15C;}
	.st274{fill:url(#SVGID_286_);}
	.st275{fill:url(#SVGID_287_);}
	.st276{fill:url(#SVGID_288_);}
</style>
<g>
	<g>
		<g>
			<path class="st1" d="M36.59,4.71L36.59,4.71c-3.83,1.14-6.02,5.17-4.88,9l25.32,85.34c1.14,3.83,5.17,6.02,9,4.88l0,0
				c3.83-1.14,6.02-5.17,4.88-9L45.6,9.59C44.46,5.76,40.43,3.57,36.59,4.71z"/>
			<path class="st2" d="M63.96,108.64c-1.91,0-3.81-0.48-5.54-1.41c-2.73-1.48-4.73-3.94-5.61-6.92L27.49,14.96
				c-0.88-2.98-0.55-6.13,0.93-8.86c1.48-2.73,3.94-4.73,6.92-5.61c2.98-0.89,6.13-0.56,8.86,0.93c2.73,1.48,4.73,3.94,5.61,6.92
				l25.32,85.34c1.83,6.16-1.7,12.65-7.85,14.48C66.19,108.48,65.08,108.64,63.96,108.64z M38.66,8.81c-0.27,0-0.54,0.04-0.81,0.12
				l0,0c-0.73,0.22-1.32,0.7-1.68,1.37c-0.36,0.67-0.44,1.43-0.23,2.16L61.26,97.8c0.22,0.73,0.7,1.32,1.37,1.68
				c0.67,0.36,1.43,0.44,2.16,0.23c1.5-0.44,2.36-2.03,1.91-3.53L41.37,10.84c-0.22-0.73-0.7-1.32-1.37-1.69
				C39.59,8.93,39.12,8.81,38.66,8.81z"/>
		</g>
		<g>
			<path class="st4" d="M139.1,121.7c12.7,42.78-9.19,77.06-45.53,87.85c-36.34,10.78-73.38-6.01-86.08-48.79
				c-12.7-42.78,15.64-55.31,51.99-66.09C95.82,83.88,126.4,78.92,139.1,121.7z"/>
			<path class="st2" d="M71.97,217.2c-31.73,0-58.43-20.55-68.71-55.19c-6.33-21.32-3.47-37.5,8.75-49.45
				c10.23-10.01,25.87-16.09,46.21-22.12c20.34-6.03,36.76-9.48,50.8-6.67c16.75,3.36,27.98,15.35,34.3,36.67l0,0
				c12.67,42.71-7.27,81.09-48.5,93.32C87.03,216.09,79.36,217.2,71.97,217.2z M98.36,91.73c-10.34,0-22.78,2.75-37.63,7.16
				c-40.85,12.12-59.64,24.82-49.02,60.62c11.2,37.74,44.35,56.58,80.6,45.82c36.26-10.76,53.76-44.63,42.56-82.37l0,0
				C128.11,100.17,116.46,91.73,98.36,91.73z"/>
		</g>
		<g>
			<path class="st2" d="M100.39,211.53c-1.27,0-2.54-0.55-3.41-1.61c-1.54-1.88-1.27-4.66,0.62-6.2
				c12.7-10.41,14.25-28.9,5.04-59.96c-8.36-28.17-22.95-46.41-32.23-47.78c-2.41-0.35-4.07-2.59-3.72-5c0.35-2.41,2.59-4.07,5-3.72
				c14.39,2.12,30.58,24.32,39.39,53.99c10.37,34.94,7.93,56.31-7.9,69.28C102.36,211.2,101.38,211.53,100.39,211.53z"/>
		</g>
		<g>
			<g>
				<path class="st1" d="M128.94,126.64c-8.06-27.16-24.73-31.34-45.57-27.85c8.97,8.73,17.82,24.59,23.49,43.71
					c5.89,19.85,7.7,35.34,4.62,47.14C128.71,176.04,136.85,153.32,128.94,126.64z"/>
				<path class="st2" d="M103.9,201.23l3.31-12.7c2.74-10.51,1.24-25.16-4.58-44.78c-5.24-17.66-13.59-33.29-22.35-41.8l-6.23-6.06
					l8.57-1.44c16.9-2.83,40.54-2.71,50.52,30.94l0,0c7.94,26.76,0.86,52.08-18.95,67.71L103.9,201.23z M92.26,102.23
					c7.57,9.82,14.24,23.56,18.82,39.02c4.3,14.49,6.37,26.35,6.29,36.31c10.27-13.16,12.98-30.67,7.34-49.66l0,0
					C119.19,109.28,109.5,101.44,92.26,102.23z"/>
			</g>
		</g>
		<g>
			<path class="st2" d="M33.41,120.02c0.76,2.55-0.7,5.23-3.25,5.98c-2.55,0.76-5.23-0.7-5.98-3.25c-0.76-2.55,0.7-5.23,3.25-5.98
				C29.98,116.02,32.66,117.47,33.41,120.02z"/>
		</g>
		<g>
			<path class="st2" d="M26.3,140.45c0.76,2.55-0.7,5.23-3.25,5.98s-5.23-0.7-5.98-3.25c-0.76-2.55,0.7-5.23,3.25-5.98
				C22.86,136.45,25.54,137.9,26.3,140.45z"/>
		</g>
		<g>
			<path class="st2" d="M46.91,144.38c0.76,2.55-0.7,5.23-3.25,5.98c-2.55,0.76-5.23-0.7-5.98-3.25c-0.76-2.55,0.7-5.23,3.25-5.98
				S46.15,141.83,46.91,144.38z"/>
		</g>
		<g>
			<path class="st2" d="M74.17,166.4c0.76,2.55-0.7,5.23-3.25,5.98c-2.55,0.76-5.23-0.7-5.98-3.25c-0.76-2.55,0.7-5.23,3.25-5.98
				C70.73,162.4,73.41,163.85,74.17,166.4z"/>
		</g>
		<g>
			<path class="st2" d="M30.57,162.69c0.76,2.55-0.7,5.23-3.25,5.98c-2.55,0.76-5.23-0.7-5.98-3.25c-0.76-2.55,0.7-5.23,3.25-5.98
				S29.81,160.15,30.57,162.69z"/>
		</g>
		<g>
			<path class="st2" d="M52.17,166.33c0.76,2.55-0.7,5.23-3.25,5.98s-5.23-0.7-5.98-3.25c-0.76-2.55,0.7-5.23,3.25-5.98
				C48.74,162.32,51.42,163.78,52.17,166.33z"/>
		</g>
		<g>
			<g>
				<path class="st4" d="M188.32,162.14l-111,27.04c5.93,24.35,35.59,38.04,66.24,30.58C174.21,212.29,194.25,186.49,188.32,162.14z
					"/>
				<path class="st2" d="M126.74,226.21c-9.7,0-19.08-1.96-27.43-5.81c-13.76-6.35-23.09-17.07-26.28-30.18l-1.04-4.28l119.57-29.12
					l1.04,4.28c3.19,13.11-0.17,26.92-9.46,38.89c-9.06,11.66-22.75,20.21-38.54,24.05C138.63,225.49,132.63,226.21,126.74,226.21z
					 M82.93,192.34c3.37,8.55,10.37,15.57,20.08,20.06c11.61,5.36,25.64,6.45,39.5,3.08c13.86-3.38,25.82-10.8,33.67-20.9
					c6.56-8.45,9.54-17.9,8.61-27.04L82.93,192.34z"/>
			</g>
			<g>
				<path class="st1" d="M177.01,164.89l-88.4,21.53c4.39,18.01,27.73,27.78,52.14,21.84C165.17,202.32,181.4,182.9,177.01,164.89z"
					/>
				<path class="st2" d="M126.45,214.41c-7.44,0-14.6-1.35-20.98-4.03c-11.17-4.68-18.68-12.82-21.14-22.92l-1.04-4.28l96.96-23.62
					l1.04,4.28c2.46,10.1-0.46,20.78-8.23,30.08c-7.45,8.91-18.55,15.52-31.27,18.62C136.66,213.79,131.49,214.41,126.45,214.41z
					 M94.39,189.55c2.63,5.42,7.64,9.85,14.48,12.71c8.99,3.76,19.94,4.37,30.84,1.72c10.9-2.65,20.34-8.23,26.59-15.71
					c4.76-5.69,7.17-11.93,7.01-17.95L94.39,189.55z"/>
			</g>
			<g>
				<path class="st5" d="M135.5,186.71c-5.93,1.44-11.33,0.14-12.07-2.91c-0.74-3.05,3.46-6.69,9.38-8.14
					c5.93-1.44,11.33-0.14,12.07,2.91C145.63,181.62,141.43,185.26,135.5,186.71z"/>
				<path class="st2" d="M130.79,191.7c-1.52,0-2.97-0.16-4.3-0.48c-3.91-0.94-6.58-3.27-7.34-6.38
					c-1.38-5.68,3.92-11.34,12.62-13.46c3.53-0.86,7.11-0.94,10.06-0.23c3.91,0.94,6.58,3.27,7.34,6.38
					c0.76,3.11-0.55,6.41-3.58,9.04c-2.29,1.99-5.5,3.56-9.04,4.42C134.6,191.46,132.65,191.7,130.79,191.7z M128.34,182.6
					c1.16,0.32,3.28,0.52,6.12-0.17c2.83-0.69,4.63-1.85,5.51-2.66c-1.15-0.32-3.28-0.52-6.12,0.17
					C131.02,180.63,129.22,181.79,128.34,182.6z"/>
			</g>
		</g>
	</g>
	<g>
		<g>
			<path class="st2" d="M281.85,105.32c2.27,0.04,4.62,0.66,7.05,1.85c10.24-0.92,18.88-1.45,25.94-1.61
				c10.96,0.44,20.02,0.66,27.19,0.66l0.06,0.48l-3.83,0.24v0.24h4.36c-0.68,0.72-3.39,1.55-8.13,2.51
				c-2.71,0.96-5.96,1.73-9.74,2.33l0.06,0.24l13.03,0.66l0.12,0.48h-3.17c-0.44,0.04-0.66,0.18-0.66,0.42v0.06h3.88l0.12,0.48
				c-3.51,1.08-14.02,2.69-31.55,4.84c-4.9,0.12-9.06,0.18-12.49,0.18l-0.78,0.24c-0.48-0.16-1.02-0.24-1.61-0.24h-3.53
				c-0.52,0.28-1.29,1.59-2.33,3.94c0.04,0.2,0.98,0.98,2.81,2.33c-0.48,0.16-0.86,0.24-1.13,0.24l0.06,0.18l1.37,0.96
				c-3.23,9.56-4.84,14.62-4.84,15.18v0.06l5.8-0.48l0.06,0.24c1.23-0.32,3.54-0.48,6.93-0.48h1.97c1.51,0,8.19,0.7,20.02,2.09h0.36
				l0.12,0.48c-0.2,0-0.98,0.06-2.33,0.18l0.06,0.24h2.75l0.06,0.48c-5.66,1.16-9.36,2.23-11.12,3.23c-2.99,0.48-6.26,1.1-9.8,1.85
				l0.06,0.24h0.78l0.06,0.24c-8.13,3.82-14.68,5.74-19.66,5.74c-1.87,10.28-4.76,19.36-8.67,27.25l0.06,0.42
				c4.14-0.44,8.03-0.66,11.65-0.66c14.22,0.28,22.61,0.42,25.16,0.42h3.53l0.12,0.48c-0.36,0-1.65,0.08-3.88,0.24l0.06,0.24h3.11
				l0.06,0.24v0.06c0,0.24-0.36,0.36-1.08,0.36v0.24l2.45,0.24l0.06,0.48h-0.42c-0.32,0-1.59,0.08-3.83,0.24v0.24
				c3.87,0,7.55,0.08,11.06,0.24l0.06,0.42c-2.23,0.16-3.51,0.24-3.83,0.24v0.24h3.95l0.06,0.48c-3.55,0.88-10.34,2.09-20.38,3.65
				c-0.52,0.44-6.39,1.83-17.63,4.18c-2.91,1.39-12.29,2.85-28.15,4.36c-2.19,0-3.29,0.36-3.29,1.08v0.12
				c-0.24,0.6-0.56,0.9-0.96,0.9h-0.42l-0.24-1.14h-0.36l-0.18,1.14h-0.78c-1.04-1.28-1.6-2.11-1.67-2.51l-0.36-1.61l-0.9-0.72
				l-0.06-0.24l0.3-0.48c-1.99,0-3.85-0.76-5.56-2.27c-0.36,0-0.8-0.24-1.31-0.72l-0.06-0.48v-0.24c0-0.84,1.04-2.05,3.11-3.65
				c1.16-1.63,2.77-2.71,4.84-3.23c2.67-9.08,5.2-19.38,7.59-30.9c4.74-12.95,10.04-25.72,15.9-38.31H269
				c-1.63-0.32-2.49-0.64-2.57-0.96l0.18-1.14c-1.04,0-1.62-0.24-1.73-0.72v-0.24c0-0.64,0.36-1.39,1.08-2.27
				c-0.32-0.28-0.5-0.58-0.54-0.9h1.13l-0.48-0.48l-0.06-0.48c1.87-1.83,5.6-2.75,11.17-2.75c0.72-1.23,1.91-1.85,3.59-1.85
				c0,0.16,0.14,0.24,0.42,0.24C281.2,105.48,281.41,105.32,281.85,105.32z M263.51,182.36v0.12c0,0.48-0.38,1.22-1.13,2.21h1.2
				c0.48,0,0.72-0.14,0.72-0.42v-0.06l-0.42-1.85H263.51z"/>
			<path class="st2" d="M389.07,105.26h0.72l-0.42,2.39h0.36l0.54-1.2l0.12-0.72h0.72c0.2,0,0.3,0.62,0.3,1.85
				c0,3.35-0.74,11.18-2.21,23.49c-1.2,6.61-3.49,18.33-6.87,35.14h-0.36l0.24,0.48c0,0.16-0.12,0.24-0.36,0.24V167
				c0,0.12,0.1,0.18,0.3,0.18c-0.64,2.39-1.06,4.14-1.26,5.26l-0.18,0.96c-0.08,0.36-0.26,0.68-0.54,0.96v0.06
				c0,0.12,0.1,0.18,0.3,0.18c-0.6,2.15-1,3.75-1.2,4.78l-1.25,7.17l-0.6,1.43l0.3,0.48c-0.2,1.2-1.38,3.82-3.53,7.89l1.14,5.74
				c-0.76-0.36-1.34-1.16-1.73-2.39h-0.36l-0.06,0.48c0.48,0.72,0.72,1.33,0.72,1.85c0,0.12-0.02,0.22-0.06,0.3
				c-1.47-1.2-2.53-1.91-3.17-2.15H370l-3.05,0.96c-4.42,0-7.07-2.39-7.95-7.17c-0.04-0.68-0.06-1.31-0.06-1.91
				c0-1.16,0.08-2.19,0.24-3.11l0.84-5.02l-10.16-22.95h-0.36c-0.12,0.72-0.32,1.19-0.6,1.43v0.06c0,0.12,0.1,0.18,0.3,0.18
				c-0.04,0.32-0.18,0.48-0.42,0.48c-0.96,4.02-1.63,7.21-2.03,9.56l-1.49,8.37c-0.08,0.56-0.32,1.28-0.72,2.15v0.06
				c0,0.12,0.1,0.18,0.3,0.18l-0.54,1.2l-0.12,0.72c-1.16,6.53-2.79,9.8-4.9,9.8c-0.2,0-0.94,0.08-2.21,0.24l-0.24-0.48l-0.78,0.24
				c-0.16,0-0.9-0.56-2.21-1.67l-0.42,0.48l0.9,0.96c-0.64,0.08-1.75,1.11-3.35,3.11l-2.69,0.96h-2.81
				c-3.79-0.88-5.68-2.75-5.68-5.62c0-0.4,0.04-0.84,0.12-1.31l1.13-6.45c0.04-0.16,0.18-0.24,0.42-0.24c0-0.16-0.12-0.24-0.36-0.24
				c12.63-36.97,20.24-58.73,22.83-65.26c0.2,0,0.36-0.24,0.48-0.72c-0.52-0.92-0.78-2.65-0.78-5.2v-0.54c0.52,0,1.2-0.48,2.03-1.43
				c0.92,0,1.39-0.08,1.43-0.24l-0.12-1.2c0.76,0,1.51-1.04,2.27-3.11h0.72l-0.12,0.72h0.72l0.06-0.48H351l3.53,2.39l0.18-1.2h0.72
				c0.04,0.44,0.06,0.84,0.06,1.2s-0.02,0.68-0.06,0.96h0.36c0.24-1.43,0.6-2.15,1.08-2.15c0.99,0.8,1.53,5.18,1.61,13.15
				c4.94,19.12,7.61,30.2,8.01,33.23h0.36l0.54-1.2l3.35-12.91h0.36v-0.06c0-0.12-0.1-0.18-0.3-0.18c1.79-4.82,3.8-11.67,6.04-20.56
				h0.72c0.12-0.6,0.72-2.59,1.79-5.98h0.72l-0.18,0.96l-0.06,2.39h0.36l0.42-2.39c0.12-0.32,0.38-0.48,0.78-0.48h0.36
				c0.28,1.35,0.42,2.71,0.42,4.06c0,1.04-0.08,2.07-0.24,3.11h0.36C383.41,119.45,385.68,113.87,389.07,105.26z"/>
			<path class="st2" d="M433.23,108.43h0.3l22.17,4.3c13.51,3.51,21.63,6.69,24.38,9.56c2.47,3.11,3.71,5.26,3.71,6.45
				c0,0.48,0.1,0.9,0.3,1.25c-0.84,0.32-1.26,0.64-1.26,0.96c0.24,0.4,0.36,0.7,0.36,0.9l-1.26,1.25h-0.6v-0.66h-0.36v0.66
				c0.24,2.55,0.36,3.98,0.36,4.3c-0.84,1.79-1.87,3.03-3.11,3.71h-1.85c-1.07,0-1.99-0.32-2.75-0.96
				c-0.36,0.24-0.78,0.36-1.26,0.36c0-0.32-0.52-0.64-1.55-0.96c-0.2,0-0.3,0.1-0.3,0.3c-4.78-1.23-9.3-1.85-13.57-1.85h-0.3
				l-2.15,0.3v-0.3l-0.66,0.3h-0.3c-8.13,0-17.89,2.47-29.29,7.41c-3.51,5.46-5.26,9.98-5.26,13.57v1.55
				c0.48,7.61,1.31,11.41,2.51,11.41c4.22,1.63,8.74,2.45,13.57,2.45c0.64,0,4.54-0.82,11.71-2.45c7.01,0,20.98-4.52,41.89-13.57
				c0.04-0.2,1.79-1.14,5.26-2.81l0.3,0.66c-5.62,2.87-8.59,4.3-8.9,4.3l0.3,0.6c-1.04,0.56-1.55,0.98-1.55,1.25h0.6l10.52-4v0.3
				c-0.4,0.48-3.69,2.01-9.86,4.6l-0.66,1.25h0.3c2.63-1.2,4.6-2.01,5.92-2.45v0.3l-8.37,4.6h0.66c2.75-0.72,6.43-2.25,11.05-4.6
				v0.3c-0.56,0.84-2.61,1.97-6.15,3.41v0.3h0.3c4.7-1.83,7.49-2.75,8.37-2.75l-2.21,1.85h0.36c0.56-0.44,1.28-0.66,2.15-0.66
				c0,0.96-4.42,5.28-13.27,12.97c-2.51,2.47-7.97,5.96-16.38,10.46c-3.27,1.24-12.31,3.51-27.13,6.81v0.3h-0.3
				c-7.13,0-16.08-2.77-26.83-8.31c-4.9-4.22-8.59-8.23-11.06-12.01c-3.11-1.95-4.66-6.08-4.66-12.37c-1-1.99-1.49-4.24-1.49-6.75
				v-1.85c0-7.89,3.29-15.2,9.86-21.93h0.3v-0.3h-0.3c-4.5,1.75-8.21,3.81-11.12,6.16c0-0.4-0.2-0.6-0.6-0.6
				c0,0.32-0.94,1.14-2.81,2.45l-0.3-0.6c4.66-4.1,9.18-8.21,13.57-12.31c0.52-0.44,0.94-0.66,1.25-0.66l-0.36-0.6
				c1.12-1.43,3.38-3.07,6.81-4.9v-0.36h-0.6l-1.26,0.66l-0.3-0.66c12.67-5.74,22.43-8.61,29.29-8.61c0-0.28,1.33-0.48,4-0.6v-0.36
				c-5.9-1.43-9.28-2.15-10.16-2.15V108.43z M402.93,141.66c1.24-0.8,1.95-1.2,2.15-1.2v-0.24h-0.24
				C403.65,140.82,403.01,141.3,402.93,141.66z"/>
			<path class="st2" d="M532.08,94.8c3.31,1.2,5,3.41,5.08,6.63c0.2,0,0.3,0.06,0.3,0.18l0.06,2.39v0.06
				c0,3.27-4.56,19.36-13.69,48.29h0.3c5.34-0.8,8.94-1.2,10.82-1.2h1.85c3.82-12.51,6.61-24.68,8.37-36.52v-0.06
				c0-1.47,1.02-2.65,3.05-3.53c0,0.24,0.3,0.48,0.9,0.72c1.79-0.84,2.69-2.13,2.69-3.88v-0.12c0.56-1.39,1.15-2.09,1.79-2.09h1.55
				c0.08-0.36,0.6-0.68,1.55-0.96c0.2,0.28,0.3,0.52,0.3,0.72l1.55-0.24c2.31,1.63,3.48,3.59,3.53,5.86c0.28,0,0.58-0.46,0.9-1.37
				l1.55,0.24c0.04-0.32,0.24-0.48,0.6-0.48c0,0.16,0.1,0.24,0.3,0.24l-0.24,1.14v0.24h0.3l1.55-0.24c0.84,0.8,1.25,1.28,1.25,1.43
				c0,0.16-0.1,0.24-0.3,0.24c0.44,1.35,0.66,2.13,0.66,2.33v0.06c0,2.23-2.89,14.88-8.67,37.95c-1.79,9.56-5.06,19.38-9.8,29.46
				l-4.06,11.35h-0.6l0.78-4v-0.24h-0.3l-1.14,3.76h-0.6c0-0.16,0.1-0.24,0.3-0.24c-0.24-0.36-0.48-1.37-0.72-3.05h0.3l-0.3-0.48
				l1.79-16.55v-0.42h-0.36c-1.67,6.89-4.64,15.76-8.91,26.59c-0.76,2.55-1.13,4.04-1.13,4.48h-0.6l-0.06-1.61l0.24-1.43v-0.24h-0.3
				c-0.36,1.27-0.54,2.23-0.54,2.87h-0.6c-0.68-1.67-1.02-2.95-1.02-3.82l-0.06-0.9c0-0.88,0.08-1.99,0.24-3.35v-0.24h-0.3
				l-3.53,8.31h-0.6l1.43-4.96v-0.24h-0.36c-1,2.99-1.67,4.48-2.03,4.48h-0.3l0.24-1.67v-1.85l4.84-30h-0.3
				c-7.13,2.11-11.73,3.69-13.8,4.72c0,0.76-4.24,12.95-12.73,36.58h-0.6v-0.24c0-0.36,0.18-1.53,0.54-3.53v-0.24h-0.3
				c-0.52,2.51-1.02,3.77-1.49,3.77c-0.44-1.87-0.66-2.97-0.66-3.29v-0.24c0-0.92,0.14-3.21,0.42-6.87l-0.6,0.24l-1.02-3.05
				c0.16-3.07,0.5-6.61,1.02-10.64v-0.24h-0.36c-2.31,5.34-4.66,10.46-7.05,15.36h-0.6l1.14-4v-0.24h-0.3
				c-0.96,2.35-1.44,3.69-1.44,4h-0.66l-0.06-2.81v-0.06c0-1.63,2.21-12.79,6.63-33.47c5.7-20.36,12.59-42.53,20.68-66.52
				c0.72-1.08,1.63-1.61,2.75-1.61c0.4,0.16,0.7,0.24,0.9,0.24c0.2-0.48,0.82-0.72,1.85-0.72c0,0.32,0.1,0.48,0.3,0.48l1.25-0.48
				c0.28,0.16,0.8,0.24,1.55,0.24c-0.24-0.32-0.36-0.56-0.36-0.72C529.47,95.04,530.61,94.8,532.08,94.8z"/>
			<path class="st2" d="M575.65,120.8h0.72c0.96,1,1.79,1.49,2.51,1.49c0.76-0.84,1.91-1.25,3.47-1.25h0.24v0.18
				c0,0.56,0.22,0.84,0.66,0.84c0.04-0.32,0.2-0.48,0.48-0.48c-0.04,0.28-0.06,0.5-0.06,0.66c0,0.36,0.06,0.54,0.18,0.54l1.25-0.24
				v0.06c0,0.36,0.38,0.6,1.14,0.72l0.24-0.54c0.96,0.12,1.43,0.3,1.43,0.54l0.96-0.54c0,0.16,0.08,0.24,0.24,0.24l-0.3,0.54
				l1.14,0.96c-0.32,0.08-0.68,0.5-1.08,1.25c0.8,0,1.2,0.98,1.2,2.93c-0.32,3.39-6.49,25.6-18.53,66.64l-10.04,24.92h-0.48v-0.24
				l0.48-2.21v-0.24h-0.24c-0.4,1-0.64,1.81-0.72,2.45h-0.48c-0.16-1.08-0.24-1.83-0.24-2.27v-0.18l0.36-3.94
				c-0.52-1.95-0.78-4.04-0.78-6.27c0-0.84,0.04-1.71,0.12-2.63l0.78-9.38v-0.12c0-0.24-0.14-0.36-0.42-0.36l-3.77,10.1h-0.48
				c0.04-0.32,0.4-1.71,1.08-4.18l0.06-0.24h-0.24l-1.31,3.71h-0.48c0.04-0.4,0.08-1.63,0.12-3.71
				c4.18-24.34,8.17-42.53,11.95-54.56c1.75-5.58,3.69-13.31,5.8-23.19c1,0,1.85-0.58,2.57-1.73L575.65,120.8z M590.47,93.85
				c0.6,0.24,0.9,0.48,0.9,0.72c0.16,0,0.24-0.08,0.24-0.24c0.88,0.16,1.51,0.24,1.91,0.24l0.48-0.24c0.68,0,1.02,0.44,1.02,1.31
				v0.42l0.54-0.24h0.24c0.8,0.2,1.2,1,1.2,2.39v0.6c-0.48,5.42-2.65,10.1-6.51,14.04c-1.71,0.52-3.13,1.25-4.24,2.21l-0.24-0.48
				l-0.48,0.24c-0.84-1.47-1.65-2.21-2.45-2.21c-2.47,1.79-3.82,2.69-4.06,2.69l0.06-0.24c0.16-0.32,0.26-0.56,0.3-0.72
				c-0.32,0-0.5,0.24-0.54,0.72h-0.48l-0.12-1.25c0.12-1.51,0.18-3.51,0.18-5.98v-1.91c1.83-5.02,3.03-7.81,3.59-8.37
				c0.64,0,1-0.5,1.08-1.49l0.54-0.24l-0.06,0.72h0.72c0.32,0,0.5-0.24,0.54-0.72h0.48c0,0.68,0.2,1.02,0.6,1.02
				c0.64,0,1.02-0.66,1.13-1.97h0.96c0.68,0.64,1.05,0.96,1.13,0.96h0.24v-0.24l-0.12-1.25C589.77,94.01,590.19,93.85,590.47,93.85z
				"/>
			<path class="st2" d="M625.01,92.18h0.24l0.84,0.54l1.25-0.18l-0.06,0.18l0.54-0.18h0.48c1.15,1.47,1.73,2.69,1.73,3.65
				c0,0.2-0.02,0.38-0.06,0.54c-9.2,23.15-16.54,44.5-21.99,64.07l-6.69,23.85c-2.79,10-5.98,17.73-9.56,23.19h-0.48l0.36-1.25
				h-0.24l-0.6,1.25h-0.48c-0.4-0.44-0.6-1.06-0.6-1.85c0-0.2,0.02-0.44,0.06-0.72l0.3-0.9h-0.24l-0.48,1.67h-0.48l0.18-2.39h-0.48
				c-0.76,2.19-1.24,3.65-1.44,4.36h-0.48l0.36-2.15h-0.24l-0.66,2.33h-0.48l0.12-0.36h-0.24l-2.09,7.41h-0.48
				c0.08-0.28,0.24-1.43,0.48-3.47h-0.24l-0.36,1.31c-0.24,1.47-0.38,2.25-0.42,2.33h-0.48c-0.4-2.63-0.6-4.86-0.6-6.69
				c0-1.55,0.14-2.83,0.42-3.82c0.32-10.72,1.35-19.22,3.11-25.52l-0.06-0.72h0.24l-0.12-0.36l0.9-3.23
				c0.04-0.12,0.06-0.22,0.06-0.3c0-0.16-0.04-0.3-0.12-0.42l0.36-0.36c0.96-6.22,1.63-10.02,2.03-11.42l0.72-2.75
				c0.04-0.12,0.06-0.24,0.06-0.36c0-0.12-0.02-0.24-0.06-0.36c0.2-0.2,0.34-0.44,0.42-0.72l1.02-3.59c0.08-0.2,0.12-0.38,0.12-0.54
				c0-0.16-0.04-0.28-0.12-0.36l0.54-1.14l0.48-1.61c0.04-0.16,0.06-0.28,0.06-0.36c0-0.12-0.04-0.18-0.12-0.18l0.42-0.72
				c3.79-13.47,10.06-29.32,18.83-47.57l0.54-0.18h0.48l0.6,0.36h0.48c0.8-1.08,1.99-3.37,3.59-6.87c2.31-1.35,3.55-2.03,3.71-2.03
				h0.72l0.42,0.18l1.08-0.36c0.24,0.12,0.46,0.18,0.66,0.18C623.3,92.97,624.06,92.49,625.01,92.18z"/>
			<path class="st2" d="M662.48,106.76h3.41c5.46,0,10.5,3.75,15.12,11.24c1.08,0.88,2.43,3.82,4.06,8.84
				c1.63,1.28,3.17,4.86,4.6,10.76h0.3l-0.3,0.48c0,0.16,0.1,0.24,0.3,0.24l-0.3,0.48v2.87c0,2.59-0.2,5.78-0.6,9.56l1.85,6.22
				c0,5.94-4.12,14.3-12.37,25.1l-7.11,5.98l-0.6-0.24c-8.72,4.78-14.3,7.17-16.73,7.17v-0.48l1.55-0.24v-0.24h-0.3
				c-3.55,0.8-6.95,1.2-10.22,1.2c-10.4,0-19.04-5.82-25.94-17.45h-0.3v2.15h-0.66c0-0.4-0.2-1.51-0.6-3.35h-0.3v2.87h-0.6
				c-1.87-2.67-2.81-8.49-2.81-17.45v-0.72c0-9.48,3.09-20.72,9.26-33.71c5.5-8.73,12.51-14.3,21.04-16.73
				C653.78,108.27,659.85,106.76,662.48,106.76z M617.36,176.32v0.48h0.3v-0.48H617.36z M633.5,166.82h-0.6v-0.24
				c-0.16-1.27-0.24-2.07-0.24-2.39h-0.3v2.63c0,0.52,0.66,1.67,1.97,3.47c0,1.43,2.05,3.47,6.16,6.1c1.87,0.28,3.56,0.42,5.08,0.42
				h0.24c8.21,0,15.52-3.05,21.93-9.14c3.74-4.02,5.62-10.1,5.62-18.23v-3.05c0-0.48,0.1-0.84,0.3-1.08l-0.3-1.31v-5.2
				c-1.51-4.1-3.76-6.85-6.75-8.25c-3.31-1.31-6.02-1.97-8.13-1.97c-3.39,0-8.9,2.09-16.55,6.28c-2.43,1.08-3.64,3.47-3.64,7.17
				C635.09,155.64,633.5,163.91,633.5,166.82z M690.33,138.31h0.6v0.48h-0.6V138.31z"/>
			<path class="st2" d="M771.19,107.53v0.66l-2.99,0.9v0.36h0.9c0.8-0.44,1.49-0.66,2.09-0.66v0.66c-1.43,1.31-5.8,4.46-13.09,9.44
				l-3.88,3.47c0.2,0,0.3,0.1,0.3,0.3c-1.12,0.64-1.89,0.96-2.33,0.96v0.3h0.3c1.07-0.2,1.85-0.3,2.33-0.3
				c-2.31,2.67-8.45,7.81-18.41,15.42c-2.87,1.75-5.56,3.65-8.07,5.68c3.5,0.04,12.13,2.67,25.88,7.89
				c4.78,1.67,7.17,3.37,7.17,5.08c0.2,0,0.4,0.3,0.6,0.9c-0.2,0.44-0.3,0.76-0.3,0.96c0.4,0.08,0.6,0.3,0.6,0.66v0.3
				c0,0.16-0.3,0.48-0.9,0.96c0.4,0.68,0.6,1.29,0.6,1.85l-1.2,0.66l0.3,0.66v0.3c-4.14,5.1-9.9,10.14-17.27,15.12
				c-7.05,4.94-15.48,9.78-25.28,14.52c-1.79,1.55-6.36,4.16-13.69,7.83c-8.77,5.26-13.63,7.89-14.58,7.89c0-0.44,1-1.18,2.99-2.21
				v-0.3h-0.3c-1.47,0.72-2.57,1.35-3.29,1.91h-0.3v-0.36c0-0.88,3.67-4.64,11-11.3h-0.3c-3.82,1.67-6.1,2.51-6.81,2.51
				c0.04-0.52,1.14-1.25,3.29-2.21v-0.3h-0.3c-1.59,0.84-2.69,1.26-3.29,1.26h-0.3c1.63-2.23,6.39-6.65,14.28-13.27
				c2.87-3.11,10-9.62,21.4-19.54l5.08-5.68v-0.3h-0.3c-8.45-1.67-13.71-2.51-15.78-2.51c-2.79,0.2-5.46,0.3-8.01,0.3
				c-5.66,0-9.04-1.06-10.16-3.17c-0.44,0-1.31-0.62-2.63-1.85c0,0.4-0.2,0.6-0.6,0.6c-0.4-0.52-0.6-0.94-0.6-1.26h-0.3v0.3
				c0.2,0.4,0.3,0.84,0.3,1.31h-0.3c-1.99-1.23-2.99-2.93-2.99-5.08c0-8.76,6.73-16.85,20.2-24.26
				c16.61-9.68,27.63-14.52,33.05-14.52h0.9c1.2,0,3.48,0.22,6.87,0.66C758.7,110.16,764.74,109.01,771.19,107.53z"/>
			<path class="st2" d="M814.88,106.76h3.41c5.46,0,10.5,3.75,15.12,11.24c1.08,0.88,2.43,3.82,4.06,8.84
				c1.63,1.28,3.17,4.86,4.6,10.76h0.3l-0.3,0.48c0,0.16,0.1,0.24,0.3,0.24l-0.3,0.48v2.87c0,2.59-0.2,5.78-0.6,9.56l1.85,6.22
				c0,5.94-4.12,14.3-12.37,25.1l-7.11,5.98l-0.6-0.24c-8.72,4.78-14.3,7.17-16.73,7.17v-0.48l1.55-0.24v-0.24h-0.3
				c-3.55,0.8-6.95,1.2-10.22,1.2c-10.4,0-19.04-5.82-25.94-17.45h-0.3v2.15h-0.66c0-0.4-0.2-1.51-0.6-3.35h-0.3v2.87h-0.6
				c-1.87-2.67-2.81-8.49-2.81-17.45v-0.72c0-9.48,3.09-20.72,9.26-33.71c5.5-8.73,12.51-14.3,21.04-16.73
				C806.17,108.27,812.25,106.76,814.88,106.76z M769.76,176.32v0.48h0.3v-0.48H769.76z M785.9,166.82h-0.6v-0.24
				c-0.16-1.27-0.24-2.07-0.24-2.39h-0.3v2.63c0,0.52,0.66,1.67,1.97,3.47c0,1.43,2.05,3.47,6.16,6.1c1.87,0.28,3.56,0.42,5.08,0.42
				h0.24c8.21,0,15.52-3.05,21.93-9.14c3.74-4.02,5.62-10.1,5.62-18.23v-3.05c0-0.48,0.1-0.84,0.3-1.08l-0.3-1.31v-5.2
				c-1.51-4.1-3.76-6.85-6.75-8.25c-3.31-1.31-6.02-1.97-8.13-1.97c-3.39,0-8.9,2.09-16.55,6.28c-2.43,1.08-3.64,3.47-3.64,7.17
				C787.49,155.64,785.9,163.91,785.9,166.82z M842.73,138.31h0.6v0.48h-0.6V138.31z"/>
			<path class="st2" d="M923.59,107.53v0.66l-2.99,0.9v0.36h0.9c0.8-0.44,1.49-0.66,2.09-0.66v0.66c-1.43,1.31-5.8,4.46-13.09,9.44
				l-3.88,3.47c0.2,0,0.3,0.1,0.3,0.3c-1.12,0.64-1.89,0.96-2.33,0.96v0.3h0.3c1.08-0.2,1.85-0.3,2.33-0.3
				c-2.31,2.67-8.45,7.81-18.41,15.42c-2.87,1.75-5.56,3.65-8.07,5.68c3.51,0.04,12.13,2.67,25.88,7.89
				c4.78,1.67,7.17,3.37,7.17,5.08c0.2,0,0.4,0.3,0.6,0.9c-0.2,0.44-0.3,0.76-0.3,0.96c0.4,0.08,0.6,0.3,0.6,0.66v0.3
				c0,0.16-0.3,0.48-0.9,0.96c0.4,0.68,0.6,1.29,0.6,1.85l-1.2,0.66l0.3,0.66v0.3c-4.14,5.1-9.9,10.14-17.27,15.12
				c-7.05,4.94-15.48,9.78-25.28,14.52c-1.79,1.55-6.36,4.16-13.69,7.83c-8.77,5.26-13.63,7.89-14.58,7.89
				c0-0.44,0.99-1.18,2.99-2.21v-0.3h-0.3c-1.47,0.72-2.57,1.35-3.29,1.91h-0.3v-0.36c0-0.88,3.66-4.64,11-11.3h-0.3
				c-3.82,1.67-6.1,2.51-6.81,2.51c0.04-0.52,1.13-1.25,3.29-2.21v-0.3h-0.3c-1.6,0.84-2.69,1.26-3.29,1.26h-0.3
				c1.63-2.23,6.39-6.65,14.28-13.27c2.87-3.11,10-9.62,21.39-19.54l5.08-5.68v-0.3h-0.3c-8.45-1.67-13.71-2.51-15.78-2.51
				c-2.79,0.2-5.46,0.3-8.01,0.3c-5.66,0-9.04-1.06-10.16-3.17c-0.44,0-1.31-0.62-2.63-1.85c0,0.4-0.2,0.6-0.6,0.6
				c-0.4-0.52-0.6-0.94-0.6-1.26h-0.3v0.3c0.2,0.4,0.3,0.84,0.3,1.31h-0.3c-1.99-1.23-2.99-2.93-2.99-5.08
				c0-8.76,6.73-16.85,20.2-24.26c16.62-9.68,27.63-14.52,33.05-14.52h0.9c1.2,0,3.49,0.22,6.87,0.66
				C911.1,110.16,917.14,109.01,923.59,107.53z"/>
		</g>
	</g>
</g>
</svg>
