<?xml version="1.0" encoding="utf-8"?>
<!-- Generator: Adobe Illustrator 23.0.5, SVG Export Plug-In . SVG Version: 6.00 Build 0)  -->
<svg version="1.1" id="Capa_1" xmlns="http://www.w3.org/2000/svg" xmlns:xlink="http://www.w3.org/1999/xlink" x="0px" y="0px"
	 viewBox="0 0 597.25 172.16" style="enable-background:new 0 0 597.25 172.16;" xml:space="preserve">
<style type="text/css">
	.st0{fill:url(#SVGID_1_);}
	.st1{fill:#FFFFFF;}
	.st2{fill:#230131;}
	.st3{fill:#CB88A1;}
	.st4{fill:#C24131;}
	.st5{fill:#BE1622;}
	.st6{fill:#935EA3;}
	.st7{fill:none;}
	.st8{fill:none;stroke:#FFFFFF;stroke-width:2;stroke-miterlimit:10;}
	.st9{fill:#E9B6A3;}
	.st10{opacity:0.9;fill:#230131;}
	.st11{opacity:0.24;fill:url(#SVGID_2_);}
	.st12{fill:#BF1A1B;}
	.st13{fill:#FFEC00;}
	.st14{fill:url(#SVGID_3_);}
	.st15{fill:url(#SVGID_4_);}
	.st16{fill:url(#SVGID_5_);}
	.st17{fill:url(#SVGID_6_);}
	.st18{fill:url(#SVGID_7_);}
	.st19{fill:url(#SVGID_8_);}
	.st20{fill:url(#SVGID_9_);}
	.st21{fill:url(#SVGID_10_);}
	.st22{fill:url(#SVGID_11_);}
	.st23{fill:url(#SVGID_12_);}
	.st24{fill:#E9C064;}
	.st25{fill:#E9C064;stroke:#FFFFFF;stroke-width:20;stroke-miterlimit:10;}
	.st26{clip-path:url(#SVGID_14_);}
	.st27{fill:url(#SVGID_15_);}
	.st28{fill:url(#SVGID_16_);}
	.st29{fill:url(#SVGID_17_);}
	.st30{fill:url(#SVGID_18_);}
	.st31{fill:url(#SVGID_19_);}
	.st32{fill:url(#SVGID_20_);}
	.st33{fill:url(#SVGID_21_);}
	.st34{fill:url(#SVGID_22_);}
	.st35{fill:url(#SVGID_23_);}
	.st36{fill:url(#SVGID_24_);}
	.st37{fill:url(#SVGID_25_);}
	.st38{fill:url(#SVGID_26_);}
	.st39{fill:url(#SVGID_27_);}
	.st40{opacity:0.24;fill:url(#SVGID_28_);}
	.st41{fill:url(#SVGID_29_);}
	.st42{fill:url(#SVGID_30_);}
	.st43{fill:url(#SVGID_31_);}
	.st44{opacity:0.24;fill:url(#SVGID_32_);}
	.st45{fill:url(#SVGID_33_);}
	.st46{fill:url(#SVGID_34_);}
	.st47{fill:url(#SVGID_35_);}
	.st48{opacity:0.24;fill:url(#SVGID_36_);}
	.st49{clip-path:url(#SVGID_38_);}
	.st50{opacity:0.63;clip-path:url(#SVGID_38_);fill:url(#SVGID_41_);}
	.st51{opacity:0;clip-path:url(#SVGID_38_);fill:url(#SVGID_42_);}
	.st52{opacity:0.22;clip-path:url(#SVGID_38_);fill:url(#SVGID_43_);}
	.st53{fill:url(#SVGID_44_);}
	.st54{clip-path:url(#SVGID_46_);}
	.st55{fill:url(#SVGID_47_);}
	.st56{fill:url(#SVGID_48_);}
	.st57{fill:url(#SVGID_49_);}
	.st58{fill:url(#SVGID_50_);}
	.st59{fill:url(#SVGID_51_);}
	.st60{fill:url(#SVGID_52_);}
	.st61{fill:url(#SVGID_53_);}
	.st62{fill:url(#SVGID_54_);}
	.st63{fill:url(#SVGID_55_);}
	.st64{fill:url(#SVGID_56_);}
	.st65{fill:url(#SVGID_57_);}
	.st66{clip-path:url(#SVGID_59_);}
	.st67{fill:#A1C538;}
	.st68{fill:#886FAE;}
	.st69{fill:#E9C063;}
	.st70{fill:url(#SVGID_60_);stroke:#230131;stroke-width:12;stroke-miterlimit:10;}
	.st71{clip-path:url(#SVGID_62_);}
	.st72{fill:url(#SVGID_63_);}
	.st73{opacity:0.5;}
	.st74{fill:#EDCD83;}
	.st75{opacity:0.62;clip-path:url(#SVGID_62_);fill:url(#SVGID_64_);}
	.st76{clip-path:url(#SVGID_62_);fill:url(#SVGID_65_);}
	.st77{fill:url(#SVGID_66_);}
	.st78{fill:#E9C064;stroke:#230131;stroke-width:20;stroke-miterlimit:10;}
	.st79{fill:url(#SVGID_67_);}
	.st80{fill:url(#SVGID_68_);}
	.st81{clip-path:url(#SVGID_62_);fill:url(#SVGID_69_);}
	.st82{fill:url(#SVGID_70_);}
	.st83{fill:url(#SVGID_71_);}
	.st84{opacity:0.34;fill:#230131;}
	.st85{fill:url(#SVGID_72_);}
	.st86{fill:url(#SVGID_73_);}
	.st87{fill:url(#SVGID_74_);}
	.st88{fill:url(#SVGID_75_);}
	.st89{fill:url(#SVGID_76_);}
	.st90{fill:url(#SVGID_77_);}
	.st91{fill:url(#SVGID_78_);}
	.st92{fill:url(#SVGID_79_);}
	.st93{fill:url(#SVGID_80_);}
	.st94{fill:url(#SVGID_81_);}
	.st95{fill:url(#SVGID_82_);}
	.st96{fill:url(#SVGID_83_);}
	.st97{clip-path:url(#SVGID_85_);}
	.st98{fill:url(#SVGID_86_);}
	.st99{fill:#D5A0B4;}
	.st100{fill:#D15F81;}
	.st101{fill:#F09C83;}
	.st102{opacity:0.62;clip-path:url(#SVGID_85_);fill:url(#SVGID_87_);}
	.st103{clip-path:url(#SVGID_85_);fill:url(#SVGID_88_);}
	.st104{fill:url(#SVGID_89_);}
	.st105{fill:url(#SVGID_90_);}
	.st106{fill:#CB88A1;stroke:#230131;stroke-width:20;stroke-miterlimit:10;}
	.st107{fill:url(#SVGID_91_);}
	.st108{clip-path:url(#SVGID_85_);fill:url(#SVGID_92_);}
	.st109{fill:url(#SVGID_93_);}
	.st110{fill:url(#SVGID_94_);}
	.st111{fill:url(#SVGID_95_);}
	.st112{fill:url(#SVGID_96_);}
	.st113{fill:url(#SVGID_97_);}
	.st114{fill:url(#SVGID_98_);}
	.st115{fill:url(#SVGID_99_);}
	.st116{fill:url(#SVGID_100_);}
	.st117{fill:url(#SVGID_101_);}
	.st118{fill:url(#SVGID_102_);}
	.st119{fill:url(#SVGID_103_);}
	.st120{clip-path:url(#SVGID_105_);}
	.st121{fill:url(#SVGID_106_);}
	.st122{fill:#CE675A;}
	.st123{fill:#DD4B1A;}
	.st124{fill:#F4971E;}
	.st125{opacity:0.62;clip-path:url(#SVGID_105_);fill:url(#SVGID_107_);}
	.st126{clip-path:url(#SVGID_105_);fill:url(#SVGID_108_);}
	.st127{fill:url(#SVGID_109_);}
	.st128{fill:url(#SVGID_110_);}
	.st129{fill:url(#SVGID_111_);}
	.st130{fill:#C24131;stroke:#230131;stroke-width:20;stroke-miterlimit:10;}
	.st131{clip-path:url(#SVGID_105_);fill:url(#SVGID_112_);}
	.st132{fill:url(#SVGID_113_);}
	.st133{fill:url(#SVGID_114_);}
	.st134{fill:url(#SVGID_115_);}
	.st135{fill:url(#SVGID_116_);}
	.st136{fill:url(#SVGID_117_);}
	.st137{fill:url(#SVGID_118_);}
	.st138{fill:url(#SVGID_119_);}
	.st139{fill:url(#SVGID_120_);}
	.st140{fill:url(#SVGID_121_);}
	.st141{fill:url(#SVGID_122_);}
	.st142{fill:url(#SVGID_123_);}
	.st143{fill:url(#SVGID_124_);}
	.st144{fill:url(#SVGID_125_);}
	.st145{opacity:0.35;}
	.st146{fill:#ECECEC;}
	.st147{fill:url(#SVGID_126_);}
	.st148{clip-path:url(#SVGID_128_);}
	.st149{fill:url(#SVGID_129_);}
	.st150{fill:#FBBA00;}
	.st151{opacity:0.62;fill:url(#SVGID_130_);}
	.st152{fill:url(#SVGID_131_);}
	.st153{fill:url(#SVGID_132_);}
	.st154{fill:url(#SVGID_133_);}
	.st155{fill:url(#SVGID_134_);}
	.st156{fill:url(#SVGID_135_);}
	.st157{fill:url(#SVGID_136_);}
	.st158{fill:url(#SVGID_137_);}
	.st159{fill:url(#SVGID_138_);}
	.st160{fill:url(#SVGID_139_);}
	.st161{fill:url(#SVGID_140_);}
	.st162{fill:url(#SVGID_143_);}
	.st163{fill:url(#SVGID_144_);}
	.st164{fill:url(#SVGID_145_);}
	.st165{fill:url(#SVGID_146_);}
	.st166{fill:url(#SVGID_147_);}
	.st167{fill:url(#SVGID_148_);}
	.st168{fill:url(#SVGID_149_);}
	.st169{fill:url(#SVGID_150_);}
	.st170{fill:url(#SVGID_151_);}
	.st171{fill:url(#SVGID_152_);}
	.st172{fill:url(#SVGID_155_);}
	.st173{fill:url(#SVGID_156_);}
	.st174{fill:url(#SVGID_157_);}
	.st175{fill:url(#SVGID_158_);}
	.st176{fill:url(#SVGID_159_);}
	.st177{fill:url(#SVGID_160_);}
	.st178{fill:url(#SVGID_161_);}
	.st179{fill:url(#SVGID_162_);}
	.st180{fill:url(#SVGID_163_);}
	.st181{fill:url(#SVGID_164_);}
	.st182{fill:url(#SVGID_167_);}
	.st183{fill:url(#SVGID_168_);}
	.st184{fill:url(#SVGID_169_);}
	.st185{fill:url(#SVGID_170_);}
	.st186{fill:url(#SVGID_171_);}
	.st187{fill:url(#SVGID_172_);}
	.st188{fill:url(#SVGID_173_);}
	.st189{fill:url(#SVGID_174_);}
	.st190{fill:url(#SVGID_175_);}
	.st191{fill:url(#SVGID_176_);}
	.st192{clip-path:url(#SVGID_178_);}
	.st193{clip-path:url(#SVGID_180_);}
	.st194{clip-path:url(#SVGID_188_);}
	.st195{clip-path:url(#SVGID_190_);}
	.st196{opacity:0.35;clip-path:url(#SVGID_192_);}
	.st197{clip-path:url(#SVGID_192_);fill:url(#SVGID_193_);}
	.st198{clip-path:url(#SVGID_192_);}
	.st199{clip-path:url(#SVGID_195_);fill:url(#SVGID_196_);}
	.st200{clip-path:url(#SVGID_198_);}
	.st201{opacity:0.62;clip-path:url(#SVGID_192_);fill:url(#SVGID_199_);}
	.st202{fill:url(#SVGID_200_);}
	.st203{fill:url(#SVGID_201_);}
	.st204{fill:url(#SVGID_202_);}
	.st205{fill:url(#SVGID_203_);}
	.st206{fill:url(#SVGID_204_);}
	.st207{fill:url(#SVGID_205_);}
	.st208{fill:url(#SVGID_206_);}
	.st209{fill:url(#SVGID_207_);}
	.st210{fill:url(#SVGID_208_);}
	.st211{fill:url(#SVGID_209_);}
	.st212{fill-rule:evenodd;clip-rule:evenodd;fill:#FFFFFF;}
	.st213{fill:#72BB6F;}
	.st214{fill:#1DBADF;}
	.st215{fill:url(#SVGID_212_);}
	.st216{fill:url(#SVGID_213_);}
	.st217{fill:url(#SVGID_214_);}
	.st218{fill:url(#SVGID_215_);}
	.st219{fill:url(#SVGID_216_);}
	.st220{fill:url(#SVGID_217_);}
	.st221{fill:url(#SVGID_218_);}
	.st222{fill:url(#SVGID_219_);}
	.st223{fill:url(#SVGID_220_);}
	.st224{fill:url(#SVGID_221_);}
	.st225{fill:url(#SVGID_224_);}
	.st226{fill:url(#SVGID_225_);}
	.st227{fill:url(#SVGID_226_);}
	.st228{fill:url(#SVGID_227_);}
	.st229{fill:url(#SVGID_228_);}
	.st230{fill:url(#SVGID_229_);}
	.st231{fill:url(#SVGID_230_);}
	.st232{fill:url(#SVGID_231_);}
	.st233{fill:url(#SVGID_232_);}
	.st234{fill:url(#SVGID_233_);}
	.st235{fill:url(#SVGID_236_);}
	.st236{fill:url(#SVGID_237_);}
	.st237{fill:url(#SVGID_238_);}
	.st238{fill:url(#SVGID_239_);}
	.st239{fill:url(#SVGID_240_);}
	.st240{fill:url(#SVGID_241_);}
	.st241{fill:url(#SVGID_242_);}
	.st242{fill:url(#SVGID_243_);}
	.st243{fill:url(#SVGID_244_);}
	.st244{fill:url(#SVGID_245_);}
	.st245{fill:url(#SVGID_248_);}
	.st246{fill:url(#SVGID_249_);}
	.st247{fill:url(#SVGID_250_);}
	.st248{fill:url(#SVGID_251_);}
	.st249{fill:url(#SVGID_252_);}
	.st250{fill:url(#SVGID_253_);}
	.st251{fill:url(#SVGID_254_);}
	.st252{fill:url(#SVGID_255_);}
	.st253{fill:url(#SVGID_256_);}
	.st254{fill:url(#SVGID_257_);}
	.st255{clip-path:url(#SVGID_259_);}
	.st256{clip-path:url(#SVGID_261_);}
	.st257{clip-path:url(#SVGID_269_);}
	.st258{clip-path:url(#SVGID_271_);}
	.st259{clip-path:url(#SVGID_273_);}
	.st260{fill:#230131;stroke:#230131;stroke-miterlimit:10;}
	.st261{fill:#350030;}
	.st262{fill:url(#SVGID_276_);}
	.st263{fill:url(#SVGID_277_);}
	.st264{fill:url(#SVGID_278_);}
	.st265{fill:url(#SVGID_279_);}
	.st266{fill:url(#SVGID_280_);}
	.st267{fill:url(#SVGID_281_);}
	.st268{fill:url(#SVGID_282_);}
	.st269{fill:url(#SVGID_283_);}
	.st270{fill:url(#SVGID_284_);}
	.st271{fill:url(#SVGID_285_);}
	.st272{fill:#FDCC68;}
	.st273{fill:#8CC15C;}
	.st274{fill:url(#SVGID_286_);}
	.st275{fill:url(#SVGID_287_);}
	.st276{fill:url(#SVGID_288_);}
</style>
<g>
	<path class="st2" d="M185.86,41.56c0,9.13-2.17,17.44-6.5,24.92c-4.33,7.48-10.04,13.9-17.12,19.25
		c-7.08,5.35-15.08,9.45-23.97,12.28c-8.9,2.83-17.91,4.25-27.04,4.25c-3.46,0-6.85-0.24-10.16-0.71c-2.52,4.57-5,9.01-7.44,13.34
		c-2.44,4.33-4.84,8.31-7.2,11.93c3.31,1.26,5.94,2.87,7.91,4.84c1.97,1.97,2.95,4.06,2.95,6.26c0,1.1-0.4,1.65-1.18,1.65
		c-0.32,0-0.79-0.16-1.42-0.47c-0.32-0.16-0.63-0.24-0.95-0.24c-3.78-2.68-7.79-4.49-12.04-5.43c-5.2,7.08-10.59,13.11-16.18,18.07
		c-5.59,4.96-11.1,8.97-16.53,12.04c-5.43,3.07-10.67,5.27-15.71,6.61c-5.04,1.34-9.68,2.01-13.93,2.01
		C6.46,172.16,0,168.23,0,160.36c0-5.35,2.28-10.27,6.85-14.76c4.56-4.49,10.19-8.34,16.89-11.57c6.69-3.23,13.85-5.7,21.49-7.44
		c7.63-1.73,14.6-2.6,20.9-2.6c1.42,0,2.72,0,3.9,0s2.32,0.08,3.42,0.24c2.52-4.22,5.04-8.59,7.56-13.12
		c2.52-4.53,4.88-8.9,7.08-13.12c-2.21-0.78-4.17-1.79-5.9-3.04c-1.58-1.1-2.99-2.51-4.25-4.25c-1.26-1.73-1.89-3.78-1.89-6.14
		c0-0.79,0.16-1.49,0.47-2.13c0.63-1.26,1.33-1.89,2.13-1.89c1.1,0,2.04,0.55,2.83,1.65c0.47,0.63,0.86,1.26,1.18,1.89
		c1.89,1.73,3.5,2.99,4.84,3.78c1.34,0.79,2.79,1.58,4.37,2.36c4.25-8.82,8.82-17.12,13.7-24.92c4.88-7.79,9.84-14.68,14.88-20.66
		c5.04-5.98,10.04-10.71,15-14.17c4.96-3.46,9.56-5.2,13.82-5.2c0.31,0,0.75,0.04,1.3,0.12c0.55,0.08,0.83,0.44,0.83,1.06
		c0,0.47-0.47,1.18-1.42,2.13c-0.47,0.47-1.03,0.87-1.65,1.18c-4.1,2.83-8.42,6.93-12.99,12.28c-3.94,4.57-8.46,10.86-13.58,18.89
		c-5.12,8.03-10.43,18.34-15.94,30.94l-0.95,2.13c1.26,0.32,2.52,0.47,3.78,0.47c1.26,0,2.52,0,3.78,0c7.56,0,14.88-1.22,21.96-3.67
		s13.42-6,19.01-10.66c5.59-4.66,10.07-10.34,13.46-17.05c3.38-6.71,5.08-14.32,5.08-22.85c0-5.21-0.99-9.59-2.95-13.14
		c-1.97-3.55-4.49-6.55-7.56-9c-3.07-2.45-6.54-4.38-10.39-5.8c-3.86-1.42-7.72-2.49-11.57-3.2c-3.86-0.71-7.48-1.18-10.86-1.42
		c-3.39-0.24-6.18-0.36-8.38-0.36c-12.13,0-23.46,1.46-34.01,4.37c-10.55,2.92-19.68,6.65-27.4,11.22
		c-7.72,4.57-13.78,9.65-18.18,15.23c-4.41,5.59-6.61,11.06-6.61,16.41c0,3.62,1.06,6.14,3.19,7.56c2.13,1.42,5.86,2.13,11.22,2.13
		c2.83,0,6.18-0.51,10.04-1.54c3.86-1.02,7.83-2.56,11.93-4.61c4.09-2.04,8.27-4.64,12.52-7.79c4.25-3.15,8.11-6.85,11.57-11.1
		l0.94-0.94c0.47-0.47,1.02-0.71,1.65-0.71c0.63,0,0.94,0.87,0.94,2.6c-0.63,4.1-2.8,8.31-6.49,12.63
		c-3.7,4.33-8.19,8.23-13.46,11.69c-5.28,3.47-10.98,6.3-17.12,8.5c-6.14,2.21-11.89,3.31-17.24,3.31c-7.72,0-13.27-1.54-16.65-4.61
		c-3.39-3.07-5.08-7.12-5.08-12.16c0-7.56,2.56-14.88,7.68-21.96c5.11-7.08,12.2-13.42,21.25-19.01
		c9.05-5.59,19.87-10.07,32.47-13.46C95.96,1.69,109.66,0,124.46,0c8.34,0,16.21,0.94,23.62,2.83c7.4,1.89,13.89,4.61,19.48,8.15
		c5.59,3.54,10.04,7.91,13.34,13.11C184.21,29.28,185.86,35.11,185.86,41.56z M69.2,131.31c-10.86,0-19.8,1.14-26.8,3.42
		c-7.01,2.28-12.56,4.92-16.65,7.91c-4.1,2.99-6.93,5.98-8.5,8.97c-1.58,2.99-2.36,5.11-2.36,6.38c0,2.36,0.95,3.93,2.83,4.72
		c1.89,0.79,3.93,1.18,6.14,1.18c6.61,0,12.63-1.69,18.07-5.08c5.43-3.39,10.19-7.13,14.29-11.22
		C60.93,142.72,65.26,137.29,69.2,131.31z"/>
	<path class="st2" d="M257.42,102.73c0,0.79-0.16,1.69-0.47,2.72c-0.32,1.03-1.03,2.24-2.13,3.66c-3.94,5.04-7.83,9.13-11.69,12.28
		c-3.86,3.15-7.52,5.63-10.98,7.44c-3.46,1.81-6.73,3.03-9.8,3.66c-3.07,0.63-5.87,0.94-8.38,0.94c-1.26,0-2.44,0-3.54,0
		c-1.1,0-2.28-0.08-3.54-0.24c-2.99,4.25-6.54,8.11-10.63,11.57c-3.46,2.99-7.56,5.7-12.28,8.15c-4.72,2.44-10,3.66-15.82,3.66
		c-1.89,0-3.98-0.32-6.26-0.94c-2.28-0.63-4.37-1.73-6.26-3.31c-1.89-1.58-3.46-3.7-4.72-6.38c-1.26-2.68-1.89-5.98-1.89-9.92
		c0-6.61,1.65-13.62,4.96-21.02c3.31-7.4,7.56-14.25,12.75-20.55c5.2-6.3,10.98-11.53,17.36-15.7c6.38-4.17,12.63-6.26,18.77-6.26
		c1.1,0,2.32,0.12,3.66,0.35c1.34,0.24,2.56,0.67,3.66,1.3c1.1,0.63,2.04,1.53,2.83,2.72c0.79,1.18,1.18,2.64,1.18,4.37
		c0,0.94-0.24,1.58-0.71,1.89c-0.47,0.32-0.87,0.47-1.18,0.47c-0.95,0-1.81-0.39-2.6-1.18c-0.79-0.79-2.36-1.18-4.72-1.18
		c-3.94,0-8.38,1.78-13.34,5.33c-4.96,3.56-9.61,8.02-13.93,13.39c-4.33,5.37-7.95,11.26-10.86,17.66
		c-2.92,6.4-4.37,12.52-4.37,18.37c0,5.06,1.18,8.45,3.54,10.19c2.36,1.73,4.88,2.61,7.56,2.61c3.62,0,7-0.87,10.16-2.61
		c3.15-1.74,5.9-3.71,8.27-5.93c2.83-2.53,5.43-5.37,7.79-8.54c-2.99-1.74-5.31-3.48-6.97-5.22c-1.65-1.74-2.48-4.66-2.48-8.77
		c0-3.63,0.86-7.15,2.6-10.55c1.73-3.4,3.93-6.4,6.61-9.01c2.67-2.61,5.59-4.74,8.74-6.4c3.15-1.66,6.06-2.49,8.74-2.49
		c1.57,0,2.91,0.48,4.01,1.43c1.1,0.95,1.65,2.69,1.65,5.23c0,2.38-0.55,5.23-1.65,8.56c-1.1,3.33-2.28,6.58-3.54,9.75
		c-1.58,3.65-3.39,7.45-5.43,11.41h4.25c2.36,0,4.88-0.35,7.56-1.07c2.68-0.72,5.59-2.03,8.74-3.93c3.15-1.9,6.5-4.56,10.04-7.98
		s7.36-7.75,11.45-12.99c0.16,0,0.31-0.08,0.47-0.24c0.15-0.16,0.39-0.24,0.71-0.24c0.94,0,1.57,0.55,1.89,1.65
		C257.34,101.47,257.42,102.1,257.42,102.73z M213.96,100.37c0-1.26-0.24-1.97-0.71-2.13c-0.32-0.16-0.55-0.24-0.71-0.24
		c-0.94,0-2.17,0.39-3.66,1.18c-1.5,0.79-2.88,1.93-4.13,3.42c-1.26,1.5-2.36,3.35-3.31,5.55c-0.94,2.21-1.42,4.65-1.42,7.32
		c0,2.21,0.47,3.9,1.42,5.08c0.95,1.18,2.2,2.17,3.78,2.95c1.73-2.99,3.22-5.9,4.49-8.74c1.1-2.52,2.08-5.08,2.95-7.68
		C213.53,104.5,213.96,102.26,213.96,100.37z"/>
	<path class="st2" d="M327.56,104.62c-6.61,9.45-13.31,16.14-20.07,20.07c-6.77,3.94-15.04,5.9-24.8,5.9
		c-2.83,5.83-6.3,11.1-10.39,15.82c-3.62,4.09-8.07,7.79-13.34,11.1c-5.28,3.31-11.61,4.96-19.01,4.96c-4.09,0-7.08-0.71-8.97-2.13
		s-2.83-3.23-2.83-5.43c0-3.94,1.38-7.71,4.13-11.34c2.76-3.62,6.34-6.85,10.75-9.68c4.41-2.83,9.25-5.16,14.52-6.97
		c5.27-1.81,10.51-2.95,15.71-3.42c2.36-5.67,4.33-10.98,5.9-15.94c1.57-4.96,2.91-9.25,4.01-12.87c1.26-4.25,2.2-8.18,2.83-11.81
		c0-0.79-0.24-1.18-0.71-1.18c-0.16,0-0.32,0.08-0.47,0.24c-1.73,0.94-3.7,2.21-5.9,3.78c-2.21,1.58-4.41,3.31-6.61,5.2
		c-2.21,1.89-4.29,3.78-6.26,5.67c-1.97,1.89-3.66,3.62-5.08,5.2c-1.58,1.73-3.03,3.31-4.37,4.72c-1.34,1.42-2.48,2.76-3.42,4.01
		c-1.1,1.42-2.13,2.68-3.07,3.78c-0.47,0.47-0.94,0.71-1.42,0.71c-0.47,0-0.87-0.24-1.18-0.71c-0.16-0.31-0.32-0.55-0.47-0.71v-0.47
		c0-0.16-0.04-0.35-0.12-0.59c-0.08-0.24-0.12-0.51-0.12-0.83c0-1.57,0.39-3.15,1.18-4.72c0.47-0.79,1.1-1.65,1.89-2.6
		c0.79-0.79,1.69-1.73,2.72-2.83c1.02-1.1,2.16-2.36,3.42-3.78c2.52-2.68,5.67-5.7,9.45-9.09c3.78-3.38,7.95-6.73,12.52-10.04
		c4.56-3.31,9.48-6.34,14.76-9.09c5.27-2.75,10.59-4.76,15.94-6.02c0.79,0,1.97,0.39,3.54,1.18c1.57,0.79,2.36,2.13,2.36,4.01
		c0,0.16-0.16,0.39-0.47,0.71c-0.47,0.47-1.1,0.71-1.89,0.71c-2.21,0.63-4.25,1.5-6.14,2.6c-1.73,0.94-3.31,2.17-4.72,3.66
		c-1.42,1.5-2.52,3.35-3.31,5.55c-0.32,0.94-0.63,1.97-0.94,3.07c-0.32,0.94-0.59,1.93-0.83,2.95c-0.24,1.03-0.51,1.93-0.83,2.72
		c-1.1,5.99-2.52,11.77-4.25,17.36c-1.73,5.59-3.46,10.67-5.2,15.23c3.15,0,6.02-0.24,8.62-0.71s5.27-1.49,8.03-3.07
		c2.75-1.57,5.79-3.9,9.09-6.97c3.31-3.07,7.08-7.2,11.34-12.4l0.47-0.47c0.16-0.16,0.47-0.24,0.95-0.24c0.63,0,1.18,0.24,1.65,0.71
		c0.31,0.32,0.63,0.83,0.95,1.54C327.4,102.38,327.56,103.36,327.56,104.62z M270.17,131.07c-1.58,0-4.06,0.51-7.44,1.54
		c-3.39,1.03-6.81,2.44-10.27,4.25c-3.46,1.81-6.5,3.98-9.09,6.49c-2.6,2.52-3.9,5.27-3.9,8.27c0,1.42,0.35,2.32,1.06,2.72
		c0.71,0.39,2.01,0.75,3.9,1.06c3.62,0,6.97-1.26,10.04-3.78c3.07-2.52,5.79-5.35,8.15-8.5
		C265.45,139.5,267.97,135.48,270.17,131.07z"/>
	<path class="st2" d="M424.86,40.15c0,1.1-0.39,1.65-1.18,1.65c-0.79,0-1.42-0.2-1.89-0.59c-0.47-0.39-1.22-0.86-2.24-1.42
		c-1.03-0.55-2.56-1.02-4.61-1.42c-2.05-0.39-5.12-0.59-9.21-0.59c-3.15,0-6.46,0.16-9.92,0.47c-3.46,0.32-6.81,0.67-10.04,1.06
		c-3.23,0.39-6.26,0.83-9.09,1.3s-5.2,0.87-7.08,1.18c-9.29,14.17-17.63,27.55-25.03,40.15c-3.15,5.35-6.22,10.83-9.21,16.41
		c-2.99,5.59-5.67,10.98-8.03,16.18c-2.36,5.2-4.29,10-5.79,14.41c-1.5,4.41-2.24,8.11-2.24,11.1c0,1.73,0.24,3.31,0.71,4.72
		c0.47,1.42,2.13,2.13,4.96,2.13c1.57,0,3.62-0.63,6.14-1.89c2.52-1.26,5.71-3.5,9.56-6.73c3.86-3.23,8.46-7.63,13.82-13.23
		c5.35-5.59,11.57-12.71,18.66-21.37c0-0.16,0.08-0.31,0.24-0.47c0.16-0.16,0.39-0.24,0.71-0.24c0.16,0,0.51,0.32,1.06,0.94
		c0.55,0.63,0.83,1.58,0.83,2.83c0,0.79-0.16,1.73-0.47,2.83c-0.32,1.1-1.1,2.44-2.36,4.01c-7.56,9.92-14.41,17.75-20.55,23.5
		c-6.14,5.75-11.54,10.04-16.18,12.87c-4.65,2.83-8.46,4.64-11.45,5.43c-2.99,0.79-5.04,1.18-6.14,1.18c-4.57,0-7.68-1.5-9.33-4.49
		c-1.65-2.99-2.48-6.14-2.48-9.45c0-4.25,0.94-9.21,2.83-14.88s4.33-11.69,7.32-18.07c2.99-6.38,6.34-12.83,10.04-19.37
		c3.7-6.53,7.28-12.75,10.75-18.66c3.46-5.9,6.73-11.3,9.8-16.18c3.07-4.88,5.39-8.82,6.97-11.81c-2.21,0.32-4.37,0.47-6.49,0.47
		c-2.13,0-4.06,0-5.79,0c-6.14,0-11.22-0.39-15.23-1.18c-4.01-0.79-7.17-1.77-9.45-2.95c-2.28-1.18-3.9-2.48-4.84-3.9
		s-1.42-2.75-1.42-4.01c0-1.73,0.32-2.99,0.94-3.78c0.63-0.79,1.18-1.18,1.65-1.18c0.94,0,1.73,0.47,2.36,1.42
		c1.1,1.73,2.99,3.31,5.67,4.72c2.2,1.26,5.27,2.36,9.21,3.31c3.93,0.94,9.05,1.42,15.35,1.42c3.62,0,7.63-0.24,12.04-0.71
		c2.83-4.62,5.55-8.9,8.15-12.84c2.6-3.93,5-7.24,7.2-9.92c0.47-0.79,1.18-1.49,2.13-2.13c0.79-0.47,1.93-0.9,3.42-1.3
		c1.5-0.39,3.34-0.59,5.55-0.59c1.57,0,2.56,0.2,2.95,0.59c0.39,0.39,0.59,0.75,0.59,1.06v0.71c0,0.16-0.08,0.32-0.24,0.47
		c-2.36,3.31-4.76,6.77-7.2,10.39c-2.44,3.62-4.92,7.32-7.44,11.1c2.36-0.49,5.11-1.01,8.27-1.58c3.15-0.57,6.41-1.1,9.8-1.58
		c3.38-0.49,6.69-0.89,9.92-1.22c3.22-0.32,6.1-0.49,8.62-0.49c0.94,0,2.24,0.08,3.9,0.24s3.27,0.57,4.84,1.22
		c1.57,0.65,2.91,1.66,4.01,3.04C424.3,35.88,424.86,37.76,424.86,40.15z"/>
	<path class="st2" d="M451.78,104.38c0,0.79-0.2,1.81-0.59,3.07c-0.4,1.26-1.22,2.68-2.48,4.25c-5.67,7.56-11.49,14.21-17.48,19.96
		c-5.99,5.75-11.02,10.12-15.12,13.11c-5.04,3.62-9.05,5.86-12.04,6.73c-2.99,0.86-5.43,1.3-7.32,1.3c-4.88,0-8.11-1.34-9.68-4.01
		c-1.58-2.68-2.36-5.59-2.36-8.74c0-4.72,1.14-9.88,3.42-15.47c2.28-5.59,4.84-10.82,7.68-15.7c3.31-5.67,7-11.34,11.1-17
		c0.16,0,0.24-0.08,0.24-0.24v-0.47c0-0.31-0.32-0.47-0.95-0.47c-6.77,1.73-12.52,2.76-17.24,3.07c-2.83,3.94-5.2,7.17-7.08,9.68
		c-1.89,2.52-3.54,4.61-4.96,6.26c-1.42,1.65-2.64,2.99-3.66,4.01c-1.03,1.03-2.09,2.01-3.19,2.95c-0.16,0.16-0.39,0.32-0.71,0.47
		c-0.63,0.32-1.1,0.47-1.42,0.47c-0.63,0-1.03-0.39-1.18-1.18c-0.16-0.79-0.24-1.49-0.24-2.13c0-0.79,0.08-1.45,0.24-2.01
		c0.16-0.55,0.39-1.06,0.71-1.53c0.31-0.63,0.63-1.1,0.94-1.42c2.52-2.83,4.49-5.2,5.9-7.08c1.42-1.89,2.56-3.46,3.42-4.72
		c0.86-1.26,1.45-2.24,1.77-2.95c0.31-0.71,0.55-1.22,0.71-1.54c-2.52-0.47-4.45-1.22-5.79-2.24c-1.34-1.02-2.32-2.13-2.95-3.31
		c-0.63-1.18-1.03-2.32-1.18-3.42c-0.16-1.1-0.24-2.04-0.24-2.83c0-3.31,1.06-6.61,3.19-9.92c2.13-3.31,4.72-6.3,7.79-8.97
		c3.07-2.68,6.34-4.84,9.8-6.49c3.46-1.65,6.53-2.48,9.21-2.48c2.2,0,3.58,0.47,4.13,1.42c0.55,0.94,0.83,1.97,0.83,3.07
		c0,2.21-0.59,4.88-1.77,8.03c-1.18,3.15-2.48,6.3-3.9,9.45c-1.73,3.62-3.62,7.32-5.67,11.1c4.25-0.16,8.18-1.06,11.81-2.72
		c3.62-1.65,6.77-3.5,9.45-5.55c3.15-2.36,5.98-4.96,8.5-7.79c1.42-1.26,3.23-1.89,5.43-1.89c1.89,0,3.5,0.28,4.84,0.83
		c1.34,0.55,2.01,1.14,2.01,1.77c0,0.47-0.24,0.94-0.71,1.42l-0.71,0.71c-3.31,5.04-7.13,10.47-11.45,16.3
		c-4.33,5.83-8.38,11.65-12.16,17.48c-3.78,5.83-6.97,11.42-9.56,16.77c-2.6,5.35-3.9,10.16-3.9,14.41c0,1.42,0.2,2.72,0.59,3.9
		c0.39,1.18,1.85,1.77,4.37,1.77c0.95,0,1.97-0.12,3.07-0.35c1.1-0.24,2.4-0.75,3.9-1.54c1.5-0.79,3.27-2.01,5.31-3.66
		c2.04-1.65,4.56-3.9,7.56-6.73c3.15-3.15,6.97-7.12,11.45-11.93c4.49-4.8,9.72-10.98,15.71-18.54c0-0.16,0.08-0.31,0.24-0.47
		c0.15-0.16,0.39-0.24,0.71-0.24l0.47,0.47c0.31,0.16,0.55,0.47,0.71,0.94C451.62,102.73,451.78,103.6,451.78,104.38z M394.63,65.42
		c0-1.26-0.28-1.97-0.83-2.13c-0.55-0.16-1.06-0.24-1.54-0.24c-1.1,0-2.4,0.59-3.9,1.77c-1.5,1.18-2.92,2.6-4.25,4.25
		c-1.34,1.65-2.44,3.39-3.31,5.2c-0.87,1.81-1.3,3.35-1.3,4.61c0,1.58,0.35,2.8,1.06,3.66c0.71,0.87,1.45,1.53,2.24,2.01
		c0.94,0.63,1.97,1.03,3.07,1.18c1.73-2.83,3.22-5.59,4.49-8.27c1.1-2.2,2.08-4.45,2.95-6.73
		C394.19,68.45,394.63,66.68,394.63,65.42z"/>
	<path class="st2" d="M523.33,106.75c0,0.79-0.35,2.01-1.06,3.66c-0.71,1.65-1.62,3.27-2.72,4.84c-2.52,3.78-5.98,7.99-10.39,12.63
		c-4.41,4.65-9.33,9.01-14.76,13.11c-5.43,4.1-11.18,7.56-17.24,10.39c-6.06,2.83-12.08,4.25-18.07,4.25c-1.89,0-4.1-0.2-6.61-0.59
		c-2.52-0.39-4.88-1.3-7.08-2.72c-2.21-1.42-4.1-3.54-5.67-6.38s-2.36-6.77-2.36-11.81c0-7.56,1.69-15,5.08-22.32
		c3.38-7.32,7.71-13.89,12.99-19.72c5.27-5.82,11.06-10.51,17.36-14.05c6.29-3.54,12.36-5.31,18.18-5.31c3.31,0,6.1,0.79,8.38,2.36
		c2.28,1.58,3.42,4.49,3.42,8.74c0,3.78-1.22,7.91-3.66,12.4c-2.44,4.49-5.87,8.7-10.27,12.63c-4.41,3.94-9.56,7.28-15.47,10.04
		c-5.9,2.76-12.32,4.29-19.25,4.6c-0.16-0.15-0.32-0.15-0.47,0l-0.47,0.94c-1.26,3.62-1.89,7.01-1.89,10.16
		c0,2.52,0.35,4.61,1.06,6.26c0.71,1.65,1.65,2.92,2.83,3.78c1.18,0.87,2.48,1.46,3.9,1.77c1.42,0.32,2.75,0.47,4.02,0.47
		c2.83,0,6.06-0.51,9.68-1.54c3.62-1.02,7.79-3.07,12.52-6.14c4.72-3.07,9.96-7.36,15.71-12.87c5.75-5.51,12.08-12.83,19.01-21.96
		c0.16-0.31,0.31-0.55,0.47-0.71c0.31-0.31,0.63-0.47,0.94-0.47c0.31,0,0.71,0.28,1.18,0.83
		C523.1,104.58,523.33,105.49,523.33,106.75z M493.11,83.37c0-0.94-0.35-1.77-1.06-2.48c-0.71-0.71-1.69-1.06-2.95-1.06
		c-2.99,0-6.26,1.42-9.8,4.25c-3.54,2.83-6.93,6.18-10.16,10.04c-3.23,3.86-6.02,7.83-8.38,11.93c-2.36,4.1-3.94,7.4-4.72,9.92
		c0,0.32,0.08,0.55,0.24,0.71l0.24,0.24c4.25-0.47,8.54-1.89,12.87-4.25c4.33-2.36,8.27-5.11,11.81-8.27
		c3.54-3.15,6.41-6.61,8.62-10.39C492,90.21,493.11,86.67,493.11,83.37z"/>
	<path class="st2" d="M597.25,104.62c-6.61,9.45-13.31,16.14-20.07,20.07c-6.77,3.94-15.04,5.9-24.8,5.9
		c-2.83,5.83-6.3,11.1-10.39,15.82c-3.62,4.09-8.07,7.79-13.34,11.1c-5.28,3.31-11.61,4.96-19.01,4.96c-4.09,0-7.08-0.71-8.97-2.13
		s-2.83-3.23-2.83-5.43c0-3.94,1.38-7.71,4.13-11.34c2.76-3.62,6.34-6.85,10.75-9.68c4.41-2.83,9.25-5.16,14.52-6.97
		c5.27-1.81,10.51-2.95,15.71-3.42c2.36-5.67,4.33-10.98,5.9-15.94c1.57-4.96,2.91-9.25,4.01-12.87c1.26-4.25,2.2-8.18,2.83-11.81
		c0-0.79-0.24-1.18-0.71-1.18c-0.16,0-0.32,0.08-0.47,0.24c-1.73,0.94-3.7,2.21-5.9,3.78c-2.21,1.58-4.41,3.31-6.61,5.2
		c-2.21,1.89-4.29,3.78-6.26,5.67c-1.97,1.89-3.66,3.62-5.08,5.2c-1.58,1.73-3.03,3.31-4.37,4.72c-1.34,1.42-2.48,2.76-3.42,4.01
		c-1.1,1.42-2.13,2.68-3.07,3.78c-0.47,0.47-0.94,0.71-1.42,0.71c-0.47,0-0.87-0.24-1.18-0.71c-0.16-0.31-0.32-0.55-0.47-0.71v-0.47
		c0-0.16-0.04-0.35-0.12-0.59c-0.08-0.24-0.12-0.51-0.12-0.83c0-1.57,0.39-3.15,1.18-4.72c0.47-0.79,1.1-1.65,1.89-2.6
		c0.79-0.79,1.69-1.73,2.72-2.83c1.02-1.1,2.16-2.36,3.42-3.78c2.52-2.68,5.67-5.7,9.45-9.09c3.78-3.38,7.95-6.73,12.52-10.04
		c4.56-3.31,9.48-6.34,14.76-9.09c5.27-2.75,10.59-4.76,15.94-6.02c0.79,0,1.97,0.39,3.54,1.18c1.57,0.79,2.36,2.13,2.36,4.01
		c0,0.16-0.16,0.39-0.47,0.71c-0.47,0.47-1.1,0.71-1.89,0.71c-2.21,0.63-4.25,1.5-6.14,2.6c-1.73,0.94-3.31,2.17-4.72,3.66
		c-1.42,1.5-2.52,3.35-3.31,5.55c-0.32,0.94-0.63,1.97-0.94,3.07c-0.32,0.94-0.59,1.93-0.83,2.95c-0.24,1.03-0.51,1.93-0.83,2.72
		c-1.1,5.99-2.52,11.77-4.25,17.36c-1.73,5.59-3.46,10.67-5.2,15.23c3.15,0,6.02-0.24,8.62-0.71s5.27-1.49,8.03-3.07
		c2.75-1.57,5.79-3.9,9.09-6.97c3.31-3.07,7.08-7.2,11.34-12.4l0.47-0.47c0.16-0.16,0.47-0.24,0.95-0.24c0.63,0,1.18,0.24,1.65,0.71
		c0.31,0.32,0.63,0.83,0.95,1.54C597.09,102.38,597.25,103.36,597.25,104.62z M539.86,131.07c-1.58,0-4.06,0.51-7.44,1.54
		c-3.39,1.03-6.81,2.44-10.27,4.25c-3.46,1.81-6.5,3.98-9.09,6.49c-2.6,2.52-3.9,5.27-3.9,8.27c0,1.42,0.35,2.32,1.06,2.72
		c0.71,0.39,2.01,0.75,3.9,1.06c3.62,0,6.97-1.26,10.04-3.78c3.07-2.52,5.79-5.35,8.15-8.5
		C535.14,139.5,537.66,135.48,539.86,131.07z"/>
</g>
</svg>
