<svg width="281" height="281" viewBox="0 0 281 281" fill="none" xmlns="http://www.w3.org/2000/svg">
<path d="M140.41 280.89C217.73 280.89 280.41 218.21 280.41 140.89C280.41 63.5701 217.73 0.890015 140.41 0.890015C63.09 0.890015 0.409912 63.5701 0.409912 140.89C0.409912 218.21 63.09 280.89 140.41 280.89Z" fill="#E9C064"/>
<path d="M114.628 201.142L76.6814 156.182C73.6031 152.536 74.0613 147.087 77.7075 144.008L154.009 79.6021C157.655 76.5237 163.104 76.982 166.183 80.6282L204.129 125.588C207.207 129.234 206.749 134.684 203.103 137.762L126.802 202.168C123.155 205.246 117.706 204.788 114.628 201.142Z" fill="white"/>
<path d="M121.741 206.94C121.252 206.94 120.764 206.92 120.276 206.88C115.733 206.492 111.609 204.37 108.67 200.883L75.944 162.11C73.0052 158.623 71.6005 154.2 71.979 149.657C72.3676 145.114 74.4995 140.99 77.9763 138.051L148.101 78.8648C151.588 75.926 156.011 74.5113 160.554 74.8998C165.097 75.2884 169.221 77.4203 172.16 80.8971L204.886 119.67C207.825 123.157 209.229 127.58 208.851 132.123C208.462 136.666 206.33 140.79 202.854 143.729L132.739 202.915C129.621 205.535 125.765 206.94 121.741 206.94ZM159.089 83.6168C157.137 83.6168 155.264 84.2943 153.749 85.5694L83.6249 144.755C81.9314 146.18 80.8953 148.192 80.706 150.394C80.5167 152.606 81.2041 154.748 82.6287 156.441L115.355 195.214C116.779 196.908 118.782 197.944 120.993 198.133C123.195 198.313 125.347 197.635 127.041 196.211L197.155 137.025C198.849 135.6 199.885 133.588 200.074 131.386C200.263 129.174 199.576 127.032 198.151 125.339L165.425 86.5657C164.001 84.8721 161.998 83.836 159.787 83.6467C159.567 83.6268 159.328 83.6168 159.089 83.6168Z" fill="#1D1D1B"/>
<path d="M138.109 192.624L105.881 120.238L142.711 89.1459L174.939 161.542L138.109 192.624Z" fill="#E9C064"/>
<path d="M136.475 199.747L100.531 119.003L144.345 82.0229L180.289 162.767L136.475 199.747ZM111.23 121.464L139.742 185.511L169.589 160.316L141.077 96.2689L111.23 121.464Z" fill="#1D1D1B"/>
<path d="M230.24 99.427C226.006 94.416 229.214 91.7062 224.98 86.6852C220.746 81.6742 217.538 84.3839 213.304 79.363C209.07 74.342 212.278 71.6322 208.044 66.6212C203.81 61.6002 200.602 64.3099 196.368 59.2989" fill="white"/>
<path d="M192.473 116.174C191.208 116.174 189.972 115.626 189.116 114.619L174.491 97.2851C173.335 95.9202 173.126 93.9876 173.963 92.4135L192.483 57.2666C193.16 55.9715 194.445 55.1048 195.89 54.9454C197.335 54.786 198.769 55.3638 199.716 56.4796C201.001 58.0038 201.887 58.2827 203.501 58.7808C205.593 59.4284 208.452 60.315 211.391 63.8018C214.34 67.2886 214.729 70.2574 215.018 72.4292C215.237 74.1028 215.366 75.0194 216.651 76.5436C217.937 78.0678 218.823 78.3468 220.437 78.8449C222.529 79.4924 225.388 80.3791 228.327 83.8659C231.276 87.3527 231.665 90.3214 231.953 92.4932C232.173 94.1669 232.292 95.0834 233.587 96.6076C234.524 97.7234 234.853 99.2377 234.454 100.642C234.056 102.047 232.98 103.163 231.595 103.611L193.838 115.964C193.389 116.104 192.931 116.174 192.473 116.174ZM183.108 93.878L193.917 106.689L223.884 96.8866C223.515 95.6712 223.376 94.5753 223.246 93.6389C223.027 91.9652 222.908 91.0487 221.613 89.5245C220.328 88.0002 219.441 87.7213 217.837 87.2232C215.745 86.5756 212.886 85.689 209.947 82.2022C206.998 78.7154 206.609 75.7466 206.321 73.5748C206.101 71.9012 205.972 70.9847 204.687 69.4604C203.402 67.9362 202.505 67.6572 200.901 67.1591C199.994 66.8802 198.938 66.5514 197.803 65.9836L183.108 93.878Z" fill="#1D1D1B"/>
<path d="M50.5801 182.353C54.814 187.364 51.6062 190.074 55.8402 195.095C60.0741 200.106 63.282 197.396 67.516 202.417C71.7499 207.438 68.5421 210.148 72.7761 215.159C77.01 220.18 80.2179 217.47 84.4519 222.481" fill="white"/>
<path d="M84.4518 226.865C83.1667 226.865 81.9313 226.297 81.0945 225.31C79.8094 223.786 78.9227 223.507 77.3088 223.009C75.2167 222.362 72.3576 221.475 69.4187 217.988C66.4699 214.501 66.0813 211.533 65.7924 209.361C65.5733 207.687 65.4537 206.771 64.1586 205.246C62.8735 203.722 61.9868 203.443 60.3729 202.945C58.2809 202.298 55.4217 201.411 52.4828 197.924C49.534 194.437 49.1454 191.469 48.8565 189.297C48.6374 187.623 48.5178 186.707 47.2227 185.182C46.2863 184.067 45.9575 182.552 46.356 181.148C46.7545 179.743 47.8304 178.627 49.2152 178.179L86.9722 165.826C88.6658 165.268 90.5387 165.796 91.6944 167.171L106.319 184.505C107.475 185.87 107.684 187.802 106.847 189.376L88.3271 224.523C87.6497 225.818 86.3646 226.685 84.92 226.845C84.7606 226.855 84.6012 226.865 84.4518 226.865ZM56.926 184.893C57.2946 186.109 57.4341 187.205 57.5636 188.141C57.7827 189.815 57.9023 190.731 59.1974 192.256C60.4825 193.78 61.3692 194.059 62.9731 194.557C65.0652 195.204 67.9244 196.091 70.8632 199.578C73.8121 203.065 74.2006 206.033 74.4895 208.205C74.7087 209.879 74.8282 210.795 76.1233 212.32C77.4085 213.844 78.2951 214.123 79.909 214.621C80.8156 214.9 81.8716 215.229 83.0073 215.796L97.7116 187.902L86.9025 175.091L56.926 184.893Z" fill="#1D1D1B"/>
</svg>
