<svg width="281" height="281" viewBox="0 0 281 281" fill="none" xmlns="http://www.w3.org/2000/svg">
<path d="M140.41 280.89C217.73 280.89 280.41 218.21 280.41 140.89C280.41 63.5701 217.73 0.890015 140.41 0.890015C63.09 0.890015 0.409912 63.5701 0.409912 140.89C0.409912 218.21 63.09 280.89 140.41 280.89Z" fill="#C24131"/>
<path d="M90.3097 27.848C86.4941 28.9837 84.3124 32.9985 85.4481 36.814L110.673 121.832C111.808 125.648 115.823 127.829 119.639 126.694C123.454 125.558 125.636 121.543 124.5 117.728L99.2758 32.7096C98.14 28.894 94.1252 26.7123 90.3097 27.848Z" fill="white"/>
<path d="M117.577 131.396C115.674 131.396 113.781 130.918 112.057 129.991C109.338 128.517 107.345 126.066 106.469 123.097L81.244 38.0792C80.3674 35.1105 80.6961 31.9723 82.1705 29.2526C83.645 26.5329 86.0957 24.5405 89.0644 23.6638C92.0332 22.7772 95.1713 23.1059 97.891 24.5903C100.611 26.0647 102.603 28.5154 103.48 31.4842L128.704 116.502C130.527 122.639 127.011 129.105 120.884 130.928C119.798 131.227 118.682 131.396 117.577 131.396ZM92.362 31.9425C92.093 31.9425 91.824 31.9823 91.555 32.062C90.8278 32.2812 90.24 32.7594 89.8813 33.4268C89.5227 34.0943 89.443 34.8514 89.6522 35.5787L114.877 120.597C115.096 121.324 115.574 121.912 116.242 122.271C116.909 122.629 117.666 122.709 118.393 122.5C119.888 122.061 120.745 120.477 120.296 118.983L95.0717 33.9648C94.8525 33.2376 94.3743 32.6498 93.7069 32.2812C93.2884 32.052 92.8302 31.9425 92.362 31.9425Z" fill="#1D1D1B"/>
<path d="M192.423 144.407C205.075 187.025 183.268 221.176 147.065 231.925C110.862 242.675 73.9615 225.938 61.3094 183.319C48.6573 140.701 76.8904 128.218 113.103 117.479C149.306 106.719 179.771 101.778 192.423 144.407Z" fill="#C24131"/>
<path d="M125.556 239.537C93.9458 239.537 67.3465 219.064 57.1053 184.555C50.7992 163.315 53.6484 147.196 65.8223 135.291C76.0137 125.319 91.5947 119.262 111.858 113.255C132.121 107.247 148.479 103.81 162.466 106.61C179.153 109.957 190.341 121.902 196.637 143.142C209.259 185.69 189.395 223.926 148.32 236.11C140.549 238.431 132.918 239.537 125.556 239.537ZM151.837 114.54C141.536 114.54 129.143 117.279 114.349 121.673C73.6527 133.747 54.9335 146.399 65.5135 182.064C76.6712 219.662 109.696 238.431 145.81 227.711C181.933 216.992 199.367 183.25 188.209 145.652C181.484 122.958 169.878 114.54 151.837 114.54Z" fill="#1D1D1B"/>
<path d="M153.869 233.888C152.604 233.888 151.339 233.34 150.472 232.284C148.938 230.411 149.207 227.642 151.09 226.107C163.742 215.737 165.286 197.316 156.111 166.374C147.782 138.31 133.247 120.139 124.002 118.774C121.601 118.425 119.947 116.194 120.296 113.793C120.645 111.392 122.876 109.738 125.277 110.087C139.613 112.199 155.742 134.315 164.519 163.873C174.85 198.681 172.419 219.971 156.649 232.892C155.832 233.559 154.845 233.888 153.869 233.888Z" fill="#1D1D1B"/>
<path d="M182.301 149.318C174.272 122.261 157.665 118.096 136.903 121.573C145.839 130.27 154.656 146.07 160.305 165.118C166.173 184.893 167.976 200.325 164.907 212.081C182.072 198.532 190.192 175.898 182.301 149.318Z" fill="white"/>
<path d="M157.356 223.637L160.653 210.985C163.383 200.514 161.889 185.92 156.091 166.374C150.87 148.78 142.552 133.209 133.825 124.731L127.618 118.694L136.156 117.259C152.992 114.44 176.543 114.56 186.486 148.083C194.396 174.742 187.342 199.966 167.607 215.537L157.356 223.637ZM145.76 125C153.301 134.783 159.946 148.471 164.509 163.873C168.793 178.308 170.855 190.124 170.775 200.046C181.006 186.936 183.706 169.492 178.087 150.573C172.588 132.024 162.945 124.223 145.76 125Z" fill="#1D1D1B"/>
<path d="M87.1418 142.723C87.8989 145.263 86.4444 147.933 83.9041 148.681C81.3637 149.438 78.6938 147.983 77.9466 145.443C77.1994 142.902 78.644 140.233 81.1843 139.485C83.7148 138.738 86.3847 140.193 87.1418 142.723Z" fill="#1D1D1B"/>
<path d="M80.0485 163.076C80.8056 165.616 79.3511 168.286 76.8107 169.033C74.2703 169.781 71.6005 168.336 70.8533 165.796C70.0961 163.255 71.5506 160.585 74.091 159.838C76.6314 159.091 79.3013 160.536 80.0485 163.076Z" fill="#1D1D1B"/>
<path d="M100.581 166.991C101.338 169.532 99.8833 172.201 97.343 172.949C94.8026 173.706 92.1327 172.251 91.3855 169.711C90.6284 167.171 92.0829 164.501 94.6233 163.753C97.1636 163.006 99.8236 164.451 100.581 166.991Z" fill="#1D1D1B"/>
<path d="M127.738 188.928C128.495 191.469 127.041 194.138 124.5 194.886C121.96 195.643 119.29 194.188 118.543 191.648C117.786 189.107 119.24 186.438 121.78 185.69C124.321 184.943 126.991 186.398 127.738 188.928Z" fill="#1D1D1B"/>
<path d="M84.3024 185.242C85.0595 187.783 83.605 190.452 81.0646 191.2C78.5243 191.957 75.8544 190.502 75.1072 187.962C74.3501 185.421 75.8045 182.752 78.3449 182.004C80.8853 181.257 83.5552 182.702 84.3024 185.242Z" fill="#1D1D1B"/>
<path d="M105.831 188.858C106.588 191.399 105.134 194.069 102.593 194.816C100.053 195.563 97.3829 194.119 96.6358 191.578C95.8786 189.038 97.3331 186.368 99.8735 185.621C102.404 184.874 105.074 186.318 105.831 188.858Z" fill="#1D1D1B"/>
<path d="M241.458 184.684L130.876 211.622C136.784 235.88 166.332 249.519 196.866 242.087C227.401 234.645 247.365 208.942 241.458 184.684Z" fill="#C24131"/>
<path d="M180.12 248.513C170.456 248.513 161.112 246.56 152.793 242.725C139.085 236.398 129.79 225.719 126.612 212.658L125.576 208.394L244.695 179.384L245.731 183.648C248.909 196.709 245.562 210.467 236.307 222.392C227.281 234.008 213.643 242.525 197.912 246.351C191.965 247.795 185.978 248.513 180.12 248.513ZM136.465 214.77C139.822 223.288 146.796 230.282 156.469 234.755C168.035 240.094 182.013 241.18 195.82 237.823C209.628 234.456 221.543 227.064 229.363 217.002C235.899 208.584 238.867 199.169 237.941 190.064L136.465 214.77Z" fill="#1D1D1B"/>
<path d="M230.2 187.424L142.134 208.873C146.507 226.815 169.759 236.548 194.077 230.63C218.395 224.713 234.564 205.366 230.2 187.424Z" fill="white"/>
<path d="M179.831 236.757C172.419 236.757 165.286 235.412 158.93 232.742C147.802 228.08 140.321 219.971 137.87 209.909L136.834 205.645L233.428 182.114L234.464 186.378C236.915 196.44 234.006 207.079 226.265 216.344C218.843 225.221 207.785 231.806 195.113 234.894C189.992 236.139 184.852 236.757 179.831 236.757ZM147.892 211.991C150.512 217.39 155.503 221.804 162.317 224.653C171.273 228.399 182.182 229.006 193.041 226.366C203.9 223.726 213.304 218.167 219.531 210.716C224.273 205.047 226.674 198.831 226.514 192.833L147.892 211.991Z" fill="#1D1D1B"/>
<path d="M188.847 209.162C182.939 210.596 177.559 209.301 176.822 206.263C176.085 203.224 180.269 199.598 186.167 198.153C192.075 196.719 197.454 198.014 198.191 201.052C198.929 204.091 194.744 207.727 188.847 209.162Z" fill="#BE1622"/>
<path d="M184.144 214.133C182.63 214.133 181.186 213.973 179.861 213.655C175.965 212.718 173.305 210.397 172.548 207.299C171.174 201.64 176.454 196.001 185.121 193.889C188.637 193.033 192.204 192.953 195.143 193.66C199.038 194.597 201.698 196.918 202.455 200.016C203.212 203.114 201.907 206.402 198.889 209.022C196.607 211.005 193.409 212.569 189.883 213.425C187.95 213.894 185.997 214.133 184.144 214.133ZM181.714 205.067C182.869 205.386 184.981 205.585 187.811 204.898C190.63 204.21 192.423 203.055 193.3 202.248C192.154 201.929 190.032 201.73 187.203 202.417C184.374 203.104 182.59 204.26 181.714 205.067Z" fill="#1D1D1B"/>
</svg>
