<svg width="281" height="281" viewBox="0 0 281 281" fill="none" xmlns="http://www.w3.org/2000/svg">
<path d="M140.41 280.89C217.73 280.89 280.41 218.21 280.41 140.89C280.41 63.5701 217.73 0.890015 140.41 0.890015C63.09 0.890015 0.409912 63.5701 0.409912 140.89C0.409912 218.21 63.09 280.89 140.41 280.89Z" fill="#CB88A1"/>
<path d="M116.511 172.633L96.2361 174.819L102.842 236.088L123.117 233.902L116.511 172.633Z" fill="white"/>
<path d="M162.285 174.492L141.962 172.814L136.89 234.231L157.213 235.909L162.285 174.492Z" fill="white"/>
<path d="M204.852 169.745L189.545 166.123L174.577 229.368L189.884 232.991L204.852 169.745Z" fill="white"/>
<path d="M170.327 242.535H110.483C95.3207 242.535 82.2702 231.716 79.4608 216.823L67.6555 154.329C67.4164 153.044 67.7551 151.719 68.5919 150.713C69.4288 149.707 70.6641 149.129 71.9692 149.129H208.841C210.146 149.129 211.391 149.707 212.218 150.713C213.055 151.719 213.394 153.044 213.155 154.329L201.349 216.823C198.54 231.726 185.489 242.535 170.327 242.535ZM77.2691 157.896L88.0881 215.189C90.1204 225.948 99.5448 233.758 110.493 233.758H170.337C181.285 233.758 190.71 225.948 192.732 215.189L203.551 157.896H77.2691Z" fill="#1D1D1B"/>
<path d="M217.877 148.013C217.877 163.116 183.198 175.35 140.41 175.35C97.6221 175.35 62.9434 163.106 62.9434 148.013C62.9434 132.91 97.6221 88.7075 140.41 88.7075C183.198 88.6976 217.877 132.91 217.877 148.013Z" fill="#CB88A1"/>
<path d="M140.41 179.743C100.73 179.743 58.55 168.625 58.55 148.013C58.55 138.419 68.4625 122.569 82.6488 109.469C92.8303 100.075 113.861 84.3142 140.4 84.3142C166.94 84.3142 187.98 100.075 198.152 109.469C212.338 122.569 222.25 138.419 222.25 148.013C222.27 168.615 180.09 179.743 140.41 179.743ZM140.41 93.0909C98.4191 93.0909 67.3268 136.527 67.3268 148.013C67.3268 158.852 98.5785 170.966 140.41 170.966C182.242 170.966 213.493 158.852 213.493 148.013C213.493 142.026 205.354 128.049 192.214 115.924C182.979 107.397 163.961 93.0909 140.41 93.0909Z" fill="#1D1D1B"/>
<path d="M187.522 140.223H93.2984C82.4993 140.223 73.7424 131.466 73.7424 120.667C73.7424 109.867 82.4993 101.111 93.2984 101.111H187.522C198.321 101.111 207.078 109.867 207.078 120.667C207.078 131.466 198.321 140.223 187.522 140.223Z" fill="white"/>
<path d="M187.522 144.606H93.2985C80.0985 144.606 69.3591 133.867 69.3591 120.667C69.3591 107.467 80.0985 96.7272 93.2985 96.7272H187.522C200.722 96.7272 211.461 107.467 211.461 120.667C211.461 133.867 200.722 144.606 187.522 144.606ZM93.2985 105.504C84.9401 105.504 78.1359 112.308 78.1359 120.667C78.1359 129.025 84.9401 135.829 93.2985 135.829H187.522C195.88 135.829 202.684 129.025 202.684 120.667C202.684 112.308 195.88 105.504 187.522 105.504H93.2985Z" fill="#1D1D1B"/>
<path d="M165.007 113.703L110.941 109.539C100.172 108.712 92.1227 99.3074 92.9495 88.5382C93.7764 77.769 103.181 69.7194 113.95 70.5463L168.015 74.7105C178.785 75.5374 186.834 84.9418 186.007 95.711C185.18 106.48 175.776 114.54 165.007 113.703Z" fill="white"/>
<path d="M166.551 118.156C165.923 118.156 165.306 118.136 164.678 118.086L110.613 113.922C104.237 113.434 98.4289 110.485 94.2746 105.633C90.1104 100.782 88.088 94.5952 88.5862 88.2194C89.6023 75.0592 101.139 65.1766 114.299 66.1828L168.364 70.347C174.74 70.8352 180.548 73.784 184.702 78.6357C188.867 83.4873 190.889 89.6739 190.391 96.0497C189.903 102.426 186.954 108.234 182.102 112.388C177.709 116.144 172.259 118.156 166.551 118.156ZM165.346 109.329C169.38 109.638 173.305 108.363 176.374 105.723C179.452 103.083 181.315 99.417 181.624 95.3723C182.271 87.0339 176.005 79.7315 167.667 79.084L113.601 74.9197C105.253 74.2722 97.9607 80.5385 97.3131 88.8769C97.0043 92.9116 98.2795 96.8368 100.919 99.9051C103.559 102.983 107.236 104.846 111.27 105.155L165.346 109.329Z" fill="#1D1D1B"/>
<path d="M165.664 60.6338C165.664 60.6338 164.758 60.1556 162.975 59.8069C162.895 59.787 162.805 59.7671 162.726 59.7472L162.357 59.6874C149.227 56.8681 139.374 45.2122 139.374 31.2351C123.295 31.2351 110.264 44.2658 110.264 60.3449L110.294 66.2924C110.165 72.7978 114.777 78.6157 121.392 79.7813L158.083 86.217C165.395 87.5021 172.349 82.6106 173.634 75.3083C174.74 69.0221 171.283 63.0148 165.664 60.6338Z" fill="white"/>
<path d="M160.444 90.7996C159.408 90.7996 158.372 90.71 157.326 90.5306L120.635 84.095C111.928 82.5708 105.731 75.0393 105.911 66.2027L105.881 60.3648C105.881 41.8748 120.914 26.8417 139.384 26.8417H143.777V31.2351C143.777 42.7814 151.946 52.923 163.214 55.3837L163.941 55.5331C165.754 55.8818 166.98 56.3998 167.518 56.6589C175.099 59.9564 179.393 67.9162 177.968 76.0654C177.141 80.7576 174.551 84.8422 170.646 87.5718C167.607 89.6938 164.071 90.7996 160.444 90.7996ZM135.329 35.9473C123.614 37.8899 114.658 48.0813 114.658 60.3349L114.688 66.2625C114.598 70.8551 117.736 74.6707 122.149 75.4477L158.84 81.8834C161.211 82.3018 163.622 81.7638 165.595 80.3791C167.577 78.9943 168.892 76.9122 169.311 74.5412C170.038 70.3769 167.836 66.3223 163.951 64.6685L163.682 64.549C163.562 64.4992 163.044 64.29 162.148 64.1206L161.441 63.9811C147.673 61.0223 137.292 49.6155 135.329 35.9473Z" fill="#1D1D1B"/>
<path d="M140.41 240.862C137.989 240.862 136.017 238.899 136.017 236.468V175.35C136.017 172.929 137.979 170.956 140.41 170.956C142.841 170.956 144.804 172.919 144.804 175.35V236.468C144.794 238.899 142.831 240.862 140.41 240.862Z" fill="#1D1D1B"/>
<path d="M122.418 242.535C120.157 242.535 118.234 240.802 118.045 238.51L112.834 175.011C112.635 172.6 114.438 170.478 116.849 170.279C119.26 170.089 121.382 171.883 121.581 174.294L126.792 237.793C126.991 240.204 125.188 242.326 122.777 242.525C122.657 242.535 122.538 242.535 122.418 242.535Z" fill="#1D1D1B"/>
<path d="M104.775 240.862C102.643 240.862 100.78 239.307 100.442 237.146L90.1505 170.707C89.7819 168.316 91.4157 166.065 93.8166 165.696C96.1976 165.327 98.4591 166.961 98.8277 169.362L109.119 235.801C109.487 238.192 107.854 240.443 105.453 240.812C105.223 240.842 105.004 240.862 104.775 240.862Z" fill="#1D1D1B"/>
<path d="M158.402 242.525C158.283 242.525 158.163 242.515 158.044 242.505C155.633 242.306 153.829 240.184 154.029 237.773L159.239 174.274C159.438 171.863 161.57 170.06 163.971 170.259C166.382 170.458 168.185 172.58 167.986 174.991L162.776 238.491C162.576 240.782 160.664 242.525 158.402 242.525Z" fill="#1D1D1B"/>
<path d="M176.045 240.852C175.816 240.852 175.597 240.832 175.368 240.802C172.977 240.433 171.333 238.192 171.702 235.791L181.993 169.352C182.361 166.961 184.623 165.318 187.004 165.686C189.395 166.055 191.038 168.296 190.67 170.697L180.379 237.136C180.04 239.297 178.167 240.852 176.045 240.852Z" fill="#1D1D1B"/>
</svg>
