<?xml version="1.0" encoding="utf-8"?>
<!-- Generator: Adobe Illustrator 23.0.5, SVG Export Plug-In . SVG Version: 6.00 Build 0)  -->
<svg version="1.1" id="Capa_1" xmlns="http://www.w3.org/2000/svg" xmlns:xlink="http://www.w3.org/1999/xlink" x="0px" y="0px"
	 viewBox="0 0 557.5 850.72" style="enable-background:new 0 0 557.5 850.72;" xml:space="preserve">
<style type="text/css">
	.st0{fill:url(#SVGID_1_);}
	.st1{fill:#FFFFFF;}
	.st2{fill:#230131;}
	.st3{fill:#CB88A1;}
	.st4{fill:#C24131;}
	.st5{fill:#BE1622;}
	.st6{fill:#935EA3;}
	.st7{fill:none;}
	.st8{fill:none;stroke:#FFFFFF;stroke-width:2;stroke-miterlimit:10;}
	.st9{fill:#E9B6A3;}
	.st10{opacity:0.9;fill:#230131;}
	.st11{opacity:0.24;fill:url(#SVGID_2_);}
	.st12{fill:#BF1A1B;}
	.st13{fill:#FFEC00;}
	.st14{fill:url(#SVGID_3_);}
	.st15{fill:url(#SVGID_4_);}
	.st16{fill:url(#SVGID_5_);}
	.st17{fill:url(#SVGID_6_);}
	.st18{fill:url(#SVGID_7_);}
	.st19{fill:url(#SVGID_8_);}
	.st20{fill:url(#SVGID_9_);}
	.st21{fill:url(#SVGID_10_);}
	.st22{fill:url(#SVGID_11_);}
	.st23{fill:url(#SVGID_12_);}
	.st24{fill:#E9C064;}
	.st25{fill:#E9C064;stroke:#FFFFFF;stroke-width:20;stroke-miterlimit:10;}
	.st26{clip-path:url(#SVGID_14_);}
	.st27{fill:url(#SVGID_15_);}
	.st28{fill:url(#SVGID_16_);}
	.st29{fill:url(#SVGID_17_);}
	.st30{fill:url(#SVGID_18_);}
	.st31{fill:url(#SVGID_19_);}
	.st32{fill:url(#SVGID_20_);}
	.st33{fill:url(#SVGID_21_);}
	.st34{fill:url(#SVGID_22_);}
	.st35{fill:url(#SVGID_23_);}
	.st36{fill:url(#SVGID_24_);}
	.st37{fill:url(#SVGID_25_);}
	.st38{fill:url(#SVGID_26_);}
	.st39{fill:url(#SVGID_27_);}
	.st40{opacity:0.24;fill:url(#SVGID_28_);}
	.st41{fill:url(#SVGID_29_);}
	.st42{fill:url(#SVGID_30_);}
	.st43{fill:url(#SVGID_31_);}
	.st44{opacity:0.24;fill:url(#SVGID_32_);}
	.st45{fill:url(#SVGID_33_);}
	.st46{fill:url(#SVGID_34_);}
	.st47{fill:url(#SVGID_35_);}
	.st48{opacity:0.24;fill:url(#SVGID_36_);}
	.st49{clip-path:url(#SVGID_38_);}
	.st50{opacity:0.63;clip-path:url(#SVGID_38_);fill:url(#SVGID_41_);}
	.st51{opacity:0;clip-path:url(#SVGID_38_);fill:url(#SVGID_42_);}
	.st52{opacity:0.22;clip-path:url(#SVGID_38_);fill:url(#SVGID_43_);}
	.st53{fill:url(#SVGID_44_);}
	.st54{clip-path:url(#SVGID_46_);}
	.st55{fill:url(#SVGID_47_);}
	.st56{fill:url(#SVGID_48_);}
	.st57{fill:url(#SVGID_49_);}
	.st58{fill:url(#SVGID_50_);}
	.st59{fill:url(#SVGID_51_);}
	.st60{fill:url(#SVGID_52_);}
	.st61{fill:url(#SVGID_53_);}
	.st62{fill:url(#SVGID_54_);}
	.st63{fill:url(#SVGID_55_);}
	.st64{fill:url(#SVGID_56_);}
	.st65{fill:url(#SVGID_57_);}
	.st66{clip-path:url(#SVGID_59_);}
	.st67{fill:#A1C538;}
	.st68{fill:#886FAE;}
	.st69{fill:#E9C063;}
	.st70{fill:url(#SVGID_60_);stroke:#230131;stroke-width:12;stroke-miterlimit:10;}
	.st71{clip-path:url(#SVGID_62_);}
	.st72{fill:url(#SVGID_63_);}
	.st73{opacity:0.5;}
	.st74{fill:#EDCD83;}
	.st75{opacity:0.62;clip-path:url(#SVGID_62_);fill:url(#SVGID_64_);}
	.st76{clip-path:url(#SVGID_62_);fill:url(#SVGID_65_);}
	.st77{fill:url(#SVGID_66_);}
	.st78{fill:#E9C064;stroke:#230131;stroke-width:20;stroke-miterlimit:10;}
	.st79{fill:url(#SVGID_67_);}
	.st80{fill:url(#SVGID_68_);}
	.st81{clip-path:url(#SVGID_62_);fill:url(#SVGID_69_);}
	.st82{fill:url(#SVGID_70_);}
	.st83{fill:url(#SVGID_71_);}
	.st84{opacity:0.34;fill:#230131;}
	.st85{fill:url(#SVGID_72_);}
	.st86{fill:url(#SVGID_73_);}
	.st87{fill:url(#SVGID_74_);}
	.st88{fill:url(#SVGID_75_);}
	.st89{fill:url(#SVGID_76_);}
	.st90{fill:url(#SVGID_77_);}
	.st91{fill:url(#SVGID_78_);}
	.st92{fill:url(#SVGID_79_);}
	.st93{fill:url(#SVGID_80_);}
	.st94{fill:url(#SVGID_81_);}
	.st95{fill:url(#SVGID_82_);}
	.st96{fill:url(#SVGID_83_);}
	.st97{clip-path:url(#SVGID_85_);}
	.st98{fill:url(#SVGID_86_);}
	.st99{fill:#D5A0B4;}
	.st100{fill:#D15F81;}
	.st101{fill:#F09C83;}
	.st102{opacity:0.62;clip-path:url(#SVGID_85_);fill:url(#SVGID_87_);}
	.st103{clip-path:url(#SVGID_85_);fill:url(#SVGID_88_);}
	.st104{fill:url(#SVGID_89_);}
	.st105{fill:url(#SVGID_90_);}
	.st106{fill:#CB88A1;stroke:#230131;stroke-width:20;stroke-miterlimit:10;}
	.st107{fill:url(#SVGID_91_);}
	.st108{clip-path:url(#SVGID_85_);fill:url(#SVGID_92_);}
	.st109{fill:url(#SVGID_93_);}
	.st110{fill:url(#SVGID_94_);}
	.st111{fill:url(#SVGID_95_);}
	.st112{fill:url(#SVGID_96_);}
	.st113{fill:url(#SVGID_97_);}
	.st114{fill:url(#SVGID_98_);}
	.st115{fill:url(#SVGID_99_);}
	.st116{fill:url(#SVGID_100_);}
	.st117{fill:url(#SVGID_101_);}
	.st118{fill:url(#SVGID_102_);}
	.st119{fill:url(#SVGID_103_);}
	.st120{clip-path:url(#SVGID_105_);}
	.st121{fill:url(#SVGID_106_);}
	.st122{fill:#CE675A;}
	.st123{fill:#DD4B1A;}
	.st124{fill:#F4971E;}
	.st125{opacity:0.62;clip-path:url(#SVGID_105_);fill:url(#SVGID_107_);}
	.st126{clip-path:url(#SVGID_105_);fill:url(#SVGID_108_);}
	.st127{fill:url(#SVGID_109_);}
	.st128{fill:url(#SVGID_110_);}
	.st129{fill:url(#SVGID_111_);}
	.st130{fill:#C24131;stroke:#230131;stroke-width:20;stroke-miterlimit:10;}
	.st131{clip-path:url(#SVGID_105_);fill:url(#SVGID_112_);}
	.st132{fill:url(#SVGID_113_);}
	.st133{fill:url(#SVGID_114_);}
	.st134{fill:url(#SVGID_115_);}
	.st135{fill:url(#SVGID_116_);}
	.st136{fill:url(#SVGID_117_);}
	.st137{fill:url(#SVGID_118_);}
	.st138{fill:url(#SVGID_119_);}
	.st139{fill:url(#SVGID_120_);}
	.st140{fill:url(#SVGID_121_);}
	.st141{fill:url(#SVGID_122_);}
	.st142{fill:url(#SVGID_123_);}
	.st143{fill:url(#SVGID_124_);}
	.st144{fill:url(#SVGID_125_);}
	.st145{opacity:0.35;}
	.st146{fill:#ECECEC;}
	.st147{fill:url(#SVGID_126_);}
	.st148{clip-path:url(#SVGID_128_);}
	.st149{fill:url(#SVGID_129_);}
	.st150{fill:#FBBA00;}
	.st151{opacity:0.62;fill:url(#SVGID_130_);}
	.st152{fill:url(#SVGID_131_);}
	.st153{fill:url(#SVGID_132_);}
	.st154{fill:url(#SVGID_133_);}
	.st155{fill:url(#SVGID_134_);}
	.st156{fill:url(#SVGID_135_);}
	.st157{fill:url(#SVGID_136_);}
	.st158{fill:url(#SVGID_137_);}
	.st159{fill:url(#SVGID_138_);}
	.st160{fill:url(#SVGID_139_);}
	.st161{fill:url(#SVGID_140_);}
	.st162{fill:url(#SVGID_143_);}
	.st163{fill:url(#SVGID_144_);}
	.st164{fill:url(#SVGID_145_);}
	.st165{fill:url(#SVGID_146_);}
	.st166{fill:url(#SVGID_147_);}
	.st167{fill:url(#SVGID_148_);}
	.st168{fill:url(#SVGID_149_);}
	.st169{fill:url(#SVGID_150_);}
	.st170{fill:url(#SVGID_151_);}
	.st171{fill:url(#SVGID_152_);}
	.st172{fill:url(#SVGID_155_);}
	.st173{fill:url(#SVGID_156_);}
	.st174{fill:url(#SVGID_157_);}
	.st175{fill:url(#SVGID_158_);}
	.st176{fill:url(#SVGID_159_);}
	.st177{fill:url(#SVGID_160_);}
	.st178{fill:url(#SVGID_161_);}
	.st179{fill:url(#SVGID_162_);}
	.st180{fill:url(#SVGID_163_);}
	.st181{fill:url(#SVGID_164_);}
	.st182{fill:url(#SVGID_167_);}
	.st183{fill:url(#SVGID_168_);}
	.st184{fill:url(#SVGID_169_);}
	.st185{fill:url(#SVGID_170_);}
	.st186{fill:url(#SVGID_171_);}
	.st187{fill:url(#SVGID_172_);}
	.st188{fill:url(#SVGID_173_);}
	.st189{fill:url(#SVGID_174_);}
	.st190{fill:url(#SVGID_175_);}
	.st191{fill:url(#SVGID_176_);}
	.st192{clip-path:url(#SVGID_178_);}
	.st193{clip-path:url(#SVGID_180_);}
	.st194{clip-path:url(#SVGID_188_);}
	.st195{clip-path:url(#SVGID_190_);}
	.st196{opacity:0.35;clip-path:url(#SVGID_192_);}
	.st197{clip-path:url(#SVGID_192_);fill:url(#SVGID_193_);}
	.st198{clip-path:url(#SVGID_192_);}
	.st199{clip-path:url(#SVGID_195_);fill:url(#SVGID_196_);}
	.st200{clip-path:url(#SVGID_198_);}
	.st201{opacity:0.62;clip-path:url(#SVGID_192_);fill:url(#SVGID_199_);}
	.st202{fill:url(#SVGID_200_);}
	.st203{fill:url(#SVGID_201_);}
	.st204{fill:url(#SVGID_202_);}
	.st205{fill:url(#SVGID_203_);}
	.st206{fill:url(#SVGID_204_);}
	.st207{fill:url(#SVGID_205_);}
	.st208{fill:url(#SVGID_206_);}
	.st209{fill:url(#SVGID_207_);}
	.st210{fill:url(#SVGID_208_);}
	.st211{fill:url(#SVGID_209_);}
	.st212{fill-rule:evenodd;clip-rule:evenodd;fill:#FFFFFF;}
	.st213{fill:#72BB6F;}
	.st214{fill:#1DBADF;}
	.st215{fill:url(#SVGID_212_);}
	.st216{fill:url(#SVGID_213_);}
	.st217{fill:url(#SVGID_214_);}
	.st218{fill:url(#SVGID_215_);}
	.st219{fill:url(#SVGID_216_);}
	.st220{fill:url(#SVGID_217_);}
	.st221{fill:url(#SVGID_218_);}
	.st222{fill:url(#SVGID_219_);}
	.st223{fill:url(#SVGID_220_);}
	.st224{fill:url(#SVGID_221_);}
	.st225{fill:url(#SVGID_224_);}
	.st226{fill:url(#SVGID_225_);}
	.st227{fill:url(#SVGID_226_);}
	.st228{fill:url(#SVGID_227_);}
	.st229{fill:url(#SVGID_228_);}
	.st230{fill:url(#SVGID_229_);}
	.st231{fill:url(#SVGID_230_);}
	.st232{fill:url(#SVGID_231_);}
	.st233{fill:url(#SVGID_232_);}
	.st234{fill:url(#SVGID_233_);}
	.st235{fill:url(#SVGID_236_);}
	.st236{fill:url(#SVGID_237_);}
	.st237{fill:url(#SVGID_238_);}
	.st238{fill:url(#SVGID_239_);}
	.st239{fill:url(#SVGID_240_);}
	.st240{fill:url(#SVGID_241_);}
	.st241{fill:url(#SVGID_242_);}
	.st242{fill:url(#SVGID_243_);}
	.st243{fill:url(#SVGID_244_);}
	.st244{fill:url(#SVGID_245_);}
	.st245{fill:url(#SVGID_248_);}
	.st246{fill:url(#SVGID_249_);}
	.st247{fill:url(#SVGID_250_);}
	.st248{fill:url(#SVGID_251_);}
	.st249{fill:url(#SVGID_252_);}
	.st250{fill:url(#SVGID_253_);}
	.st251{fill:url(#SVGID_254_);}
	.st252{fill:url(#SVGID_255_);}
	.st253{fill:url(#SVGID_256_);}
	.st254{fill:url(#SVGID_257_);}
	.st255{clip-path:url(#SVGID_259_);}
	.st256{clip-path:url(#SVGID_261_);}
	.st257{clip-path:url(#SVGID_269_);}
	.st258{clip-path:url(#SVGID_271_);}
	.st259{clip-path:url(#SVGID_273_);}
	.st260{clip-path:url(#SVGID_275_);}
	.st261{fill:#230131;stroke:#230131;stroke-miterlimit:10;}
	.st262{fill:#350030;}
	.st263{fill:url(#SVGID_278_);}
	.st264{fill:url(#SVGID_279_);}
	.st265{fill:url(#SVGID_280_);}
	.st266{fill:url(#SVGID_281_);}
	.st267{fill:url(#SVGID_282_);}
	.st268{fill:url(#SVGID_283_);}
	.st269{fill:url(#SVGID_284_);}
	.st270{fill:url(#SVGID_285_);}
	.st271{fill:url(#SVGID_286_);}
	.st272{fill:url(#SVGID_287_);}
	.st273{fill:#FDCC68;}
	.st274{fill:#8CC15C;}
	.st275{fill:url(#SVGID_288_);}
	.st276{fill:url(#SVGID_289_);}
	.st277{fill:url(#SVGID_290_);}
</style>
<g>
	<path class="st4" d="M497.41,850.72H59.91c-33.14,0-60-26.86-60-60V60c0-33.14,26.86-60,60-60l437.5,0c33.14,0,60,26.86,60,60
		v730.72C557.41,823.86,530.55,850.72,497.41,850.72z"/>
</g>
<g>
	<path class="st2" d="M229.15,590.41c0.18-1.6,0.64-3.93,1.38-7l-7.14,11.9c0.9-2.24,1.35-4.07,1.35-5.48
		c0-1.42-0.45-2.41-1.35-2.98c1.29,0.84,1.93,1.32,1.93,1.43c0,0.02-0.02,0.03-0.06,0.03v0.28h-0.39c-1.54,1.86-2.52,2.78-2.92,2.78
		c-0.15,0-0.22-0.12-0.22-0.36c0-0.68,0.61-2.33,1.82-4.96c0.5-3.75,3.1-11.59,7.8-23.53v-0.14h-0.19c-1.29,2.61-4.08,5.7-8.38,9.26
		c-1.29,0.4-1.93,0.66-1.93,0.77v1.27h-0.36v-1.41h-0.19c-0.13,0.48-0.19,0.82-0.19,1.02h-0.39c-0.39-0.84-1.34-5.34-2.87-13.48
		h-0.19c-0.75,2.98-2.47,7.6-5.15,13.86c-0.62,0.96-0.94,2.32-0.94,4.11c-0.42,0.37-0.94,1.83-1.54,4.38l-1.52,1.41
		c0,0.13-0.26,0.3-0.77,0.52c-2.11,3.64-3.58,5.66-4.41,6.06l4.35-7.8l-4.6,7.94c1.71-4.41,2.56-6.73,2.56-6.97h-0.39
		c0,0.51-1.07,2.67-3.2,6.48l-0.94-0.25l-0.63-0.61c0.64-3.56,0.96-5.95,0.96-7.17c0-0.64,0.63-3.64,1.9-8.98
		c0-5.57,3.5-17.64,10.5-36.21c0.64-0.95,1.47-1.43,2.48-1.43c0,0.15,0.38,0.37,1.13,0.66c0.81-2.66,1.51-4,2.09-4h0.58v0.28
		c0.26,0,0.39-0.17,0.39-0.52h1.32c0,0.26,0.45,0.51,1.35,0.77c0-0.09,0.06-0.14,0.19-0.14c1.27,0.42,1.9,1.58,1.9,3.47v8.74
		c0,2.22,0.06,4.06,0.19,5.51c-0.13,0.94-0.19,2.66-0.19,5.15v5.26c0.26-0.09,2.29-2.92,6.09-8.49c2.68-3.34,6.5-7.75,11.46-13.23
		h0.17l-0.94,1.41v0.14h0.19c1.27-1.93,2.29-4.33,3.06-7.19c0.18-0.42,0.37-0.63,0.55-0.63c0.17,0.09,0.49,0.14,0.96,0.14
		c0.06-0.35,0.25-0.52,0.58-0.52c1.14,0.28,1.71,0.58,1.71,0.91h0.58c1.65,0.26,2.48,0.6,2.48,1.02c0.18,0,0.37,0.13,0.55,0.39
		c0,0.07-0.06,0.11-0.19,0.11l0.19,0.66c0,1.01-2.03,6.61-6.09,16.81c-2.72,6.41-4.68,12.07-5.9,16.98
		c-0.18,0.77-0.35,1.52-0.5,2.23c-0.24,1.12-0.42,2.2-0.55,3.22c-0.13,0.83-0.22,1.63-0.28,2.4c0.02-0.02,0.04-0.03,0.06-0.03
		c0.07,0,0.11,0.12,0.11,0.36c0,0.22-0.04,0.57-0.11,1.05c-0.22,1.47-0.82,4.12-1.79,7.94h-0.39v-0.5h-0.19v0.5h-0.39
		c-1.05,3.07-2.07,4.7-3.06,4.91l-0.94,0.5l2.48-5.02l-3.36,7.94l2.98-8.18h-0.19v0.39h-0.19c-0.15,0-0.38,0.22-0.69,0.66
		c-0.46,0.7-1.1,1.91-1.93,3.64l0.63-2.81l0.22-0.99l0.33-1.49l0.11-0.41l-0.03,0.33l-0.14,0.99l-0.14,1.07l-0.41,3.06l-0.47,3.47
		l-0.88-0.11l-0.96-0.14l0.74-1.63l-0.94,1.24l0.74-0.47h-0.19c-0.13,0-0.22-0.07-0.28-0.22c-0.07-0.18-0.11-0.47-0.11-0.85v-0.44
		C229.07,591.13,229.1,590.79,229.15,590.41z M223.53,559.05v0.63c0.13,0.77,0.19,1.25,0.19,1.43h0.19v-0.66
		c-0.13-0.75-0.19-1.22-0.19-1.41H223.53z"/>
	<path class="st2" d="M260.68,542.6c1.05,0.02,2.13,0.3,3.25,0.85c4.72-0.42,8.71-0.67,11.96-0.74c5.05,0.2,9.23,0.3,12.54,0.3
		l0.03,0.22l-1.76,0.11v0.11h2.01c-0.31,0.33-1.56,0.72-3.75,1.16c-1.25,0.44-2.75,0.8-4.49,1.07l0.03,0.11l6.01,0.3l0.06,0.22
		h-1.46c-0.2,0.02-0.3,0.08-0.3,0.19v0.03h1.79l0.05,0.22c-1.62,0.5-6.47,1.24-14.55,2.23c-2.26,0.05-4.18,0.08-5.76,0.08
		l-0.36,0.11c-0.22-0.07-0.47-0.11-0.74-0.11h-1.63c-0.24,0.13-0.6,0.73-1.07,1.82c0.02,0.09,0.45,0.45,1.3,1.07
		c-0.22,0.07-0.4,0.11-0.52,0.11l0.03,0.08l0.63,0.44c-1.49,4.41-2.23,6.74-2.23,7v0.03l2.67-0.22l0.03,0.11
		c0.57-0.15,1.63-0.22,3.2-0.22h0.91c0.7,0,3.78,0.32,9.23,0.96h0.17l0.06,0.22c-0.09,0-0.45,0.03-1.07,0.08l0.03,0.11h1.27
		l0.03,0.22c-2.61,0.53-4.32,1.03-5.13,1.49c-1.38,0.22-2.88,0.51-4.52,0.85l0.03,0.11h0.36l0.03,0.11
		c-3.75,1.76-6.77,2.65-9.07,2.65c-0.86,4.74-2.2,8.93-4,12.57l0.03,0.19c1.91-0.2,3.7-0.3,5.37-0.3c6.56,0.13,10.43,0.19,11.6,0.19
		h1.63l0.06,0.22c-0.17,0-0.76,0.04-1.79,0.11l0.03,0.11h1.43l0.03,0.11v0.03c0,0.11-0.17,0.17-0.5,0.17v0.11l1.13,0.11l0.03,0.22
		h-0.19c-0.15,0-0.73,0.04-1.76,0.11v0.11c1.78,0,3.48,0.04,5.1,0.11l0.03,0.19c-1.03,0.07-1.62,0.11-1.76,0.11v0.11h1.82l0.03,0.22
		c-1.64,0.4-4.77,0.96-9.4,1.68c-0.24,0.2-2.95,0.85-8.13,1.93c-1.34,0.64-5.67,1.31-12.98,2.01c-1.01,0-1.52,0.17-1.52,0.5v0.06
		c-0.11,0.28-0.26,0.41-0.44,0.41h-0.19l-0.11-0.52h-0.17l-0.08,0.52h-0.36c-0.48-0.59-0.74-0.97-0.77-1.16l-0.17-0.74l-0.41-0.33
		l-0.03-0.11l0.14-0.22c-0.92,0-1.77-0.35-2.56-1.05c-0.17,0-0.37-0.11-0.61-0.33l-0.03-0.22v-0.11c0-0.39,0.48-0.95,1.43-1.68
		c0.53-0.75,1.28-1.25,2.23-1.49c1.23-4.19,2.4-8.94,3.5-14.25c2.19-5.97,4.63-11.86,7.33-17.66h-0.17
		c-0.75-0.15-1.15-0.29-1.19-0.44l0.08-0.52c-0.48,0-0.74-0.11-0.8-0.33v-0.11c0-0.29,0.17-0.64,0.5-1.05
		c-0.15-0.13-0.23-0.27-0.25-0.41h0.52l-0.22-0.22l-0.03-0.22c0.86-0.84,2.58-1.27,5.15-1.27c0.33-0.57,0.88-0.85,1.65-0.85
		c0,0.07,0.06,0.11,0.19,0.11C260.37,542.67,260.47,542.6,260.68,542.6z M252.22,578.12v0.05c0,0.22-0.17,0.56-0.52,1.02h0.55
		c0.22,0,0.33-0.06,0.33-0.19v-0.03l-0.19-0.85H252.22z"/>
	<path class="st2" d="M315.52,543.62v0.3l-1.38,0.41v0.17h0.41c0.37-0.2,0.69-0.3,0.96-0.3v0.3c-0.66,0.61-2.67,2.06-6.04,4.35
		l-1.79,1.6c0.09,0,0.14,0.05,0.14,0.14c-0.51,0.29-0.87,0.44-1.07,0.44v0.14h0.14c0.5-0.09,0.85-0.14,1.07-0.14
		c-1.07,1.23-3.9,3.6-8.49,7.11c-1.32,0.81-2.56,1.68-3.72,2.62c1.62,0.02,5.59,1.23,11.93,3.64c2.2,0.77,3.31,1.55,3.31,2.34
		c0.09,0,0.18,0.14,0.28,0.41c-0.09,0.2-0.14,0.35-0.14,0.44c0.18,0.04,0.28,0.14,0.28,0.3v0.14c0,0.07-0.14,0.22-0.41,0.44
		c0.18,0.31,0.28,0.6,0.28,0.85l-0.55,0.3l0.14,0.3v0.14c-1.91,2.35-4.57,4.68-7.96,6.97c-3.25,2.28-7.14,4.51-11.66,6.7
		c-0.83,0.72-2.93,1.92-6.31,3.61c-4.04,2.42-6.28,3.64-6.72,3.64c0-0.2,0.46-0.54,1.38-1.02v-0.14h-0.14
		c-0.68,0.33-1.18,0.62-1.52,0.88h-0.14v-0.17c0-0.4,1.69-2.14,5.07-5.21h-0.14c-1.76,0.77-2.81,1.16-3.14,1.16
		c0.02-0.24,0.52-0.58,1.52-1.02v-0.14h-0.14c-0.74,0.39-1.24,0.58-1.52,0.58h-0.14c0.75-1.03,2.95-3.07,6.59-6.12
		c1.32-1.43,4.61-4.44,9.87-9.01l2.34-2.62v-0.14h-0.14c-3.9-0.77-6.32-1.16-7.28-1.16c-1.29,0.09-2.52,0.14-3.69,0.14
		c-2.61,0-4.17-0.49-4.68-1.46c-0.2,0-0.61-0.28-1.21-0.85c0,0.18-0.09,0.28-0.28,0.28c-0.18-0.24-0.28-0.43-0.28-0.58h-0.14v0.14
		c0.09,0.18,0.14,0.39,0.14,0.61h-0.14c-0.92-0.57-1.38-1.35-1.38-2.34c0-4.04,3.1-7.77,9.31-11.19c7.66-4.46,12.74-6.7,15.24-6.7
		H304c0.55,0,1.61,0.1,3.17,0.3C309.76,544.83,312.54,544.3,315.52,543.62z"/>
	<path class="st2" d="M340.18,541.61c0.04,0.17,0.17,0.25,0.39,0.25c0.26-0.09,0.45-0.14,0.58-0.14c1.3,0.85,1.96,2.23,1.96,4.16
		v0.3c-1.54,11.17-2.36,18-2.45,20.5c1.58-0.33,2.48-0.5,2.7-0.5c0,0.09-0.39,0.29-1.16,0.61h0.19c0.51-0.17,0.96-0.25,1.35-0.25
		c-0.31,0.33-1.49,0.99-3.53,1.98c-0.22,2.55-0.34,4.24-0.36,5.07h-0.19c0,0.07,0.05,0.11,0.17,0.11
		c-1.69,11.81-2.54,17.95-2.54,18.41h-0.39v-0.22c0-0.42-0.05-1.05-0.14-1.87h-0.19l-0.06,2.09h-0.39v-0.39
		c-0.37,0-0.58,0.74-0.63,2.23h-0.39l-0.14-1.49h-0.19l-0.06,1.38h-0.39c-0.61-0.88-1.19-2.29-1.76-4.22h-0.19l-0.03,0.39h-0.36
		l0.06-1.98h-0.19l-0.25,1.49v0.11h-0.39c-0.5-1.23-0.74-3.09-0.74-5.57c0-0.46,0.01-0.95,0.03-1.46h-0.39v0.36h-0.39l0.22-0.85
		l0.06-1.13h-0.19c-0.02,0.18-0.17,0.76-0.44,1.74h-0.39v-0.33c0-0.39-0.11-0.85-0.33-1.41c0.4-4.46,0.62-7.01,0.66-7.63
		c-5.05,2.54-8.75,3.9-11.08,4.08c-2.33,3.01-4.39,5.11-6.17,6.28l-2.29-0.11h-0.77l-0.39,0.11c-0.11-0.15-0.17-0.31-0.17-0.5
		l-0.39,0.14c-1.21-1.05-1.82-1.85-1.82-2.42v-0.41c0.09-2.76,5.73-10.54,16.92-23.34c0.72-1.01,4.03-4.68,9.95-11
		c0.07-1.98,1.26-2.98,3.55-2.98l0.19,0.25l-0.19,0.25h0.74c0.04-0.72,0.5-1.3,1.41-1.74c0.26,0.09,0.45,0.14,0.58,0.14
		C339.41,541.97,339.66,541.81,340.18,541.61z M331.53,559.52c-0.02,0.51-2.44,4.05-7.28,10.61c1.93-0.66,3.86-1.16,5.79-1.49v-0.11
		l1.65-8.9l0.03-0.11H331.53z M332.52,547.42c0,0.13-0.28,0.58-0.83,1.35v0.11h0.19c0-0.18,0.27-0.5,0.8-0.96l0.03-0.5H332.52z"/>
	<path class="st2" d="M90.29,625.82c1.67,0.03,3.4,0.48,5.19,1.36c7.53-0.67,13.89-1.07,19.07-1.19c8.06,0.32,14.72,0.48,20,0.48
		l0.04,0.35l-2.81,0.18v0.18h3.21c-0.5,0.53-2.49,1.14-5.98,1.85c-1.99,0.7-4.38,1.27-7.16,1.71l0.04,0.18l9.58,0.48l0.09,0.35
		h-2.33c-0.32,0.03-0.48,0.13-0.48,0.31v0.04h2.86l0.09,0.35c-2.58,0.79-10.31,1.98-23.2,3.56c-3.6,0.09-6.67,0.13-9.18,0.13
		l-0.57,0.18c-0.35-0.12-0.75-0.18-1.19-0.18h-2.59c-0.38,0.21-0.95,1.17-1.71,2.9c0.03,0.15,0.72,0.72,2.07,1.71
		c-0.35,0.12-0.63,0.18-0.83,0.18l0.04,0.13l1.01,0.7c-2.37,7.03-3.56,10.75-3.56,11.16v0.04l4.26-0.35l0.04,0.18
		c0.91-0.23,2.61-0.35,5.1-0.35h1.45c1.11,0,6.02,0.51,14.72,1.54h0.26l0.09,0.35c-0.15,0-0.72,0.04-1.71,0.13l0.04,0.18h2.02
		l0.04,0.35c-4.16,0.85-6.89,1.64-8.17,2.37c-2.2,0.35-4.6,0.81-7.21,1.36l0.04,0.18h0.57l0.04,0.18
		c-5.98,2.81-10.8,4.22-14.46,4.22c-1.38,7.56-3.5,14.24-6.37,20.04l0.04,0.31c3.05-0.32,5.9-0.48,8.57-0.48
		c10.46,0.21,16.63,0.31,18.5,0.31h2.59l0.09,0.35c-0.26,0-1.22,0.06-2.86,0.18l0.04,0.18H112l0.04,0.18v0.04
		c0,0.18-0.26,0.26-0.79,0.26v0.18l1.8,0.18l0.04,0.35h-0.31c-0.23,0-1.17,0.06-2.81,0.18v0.18c2.84,0,5.55,0.06,8.13,0.18
		l0.04,0.31c-1.64,0.12-2.58,0.18-2.81,0.18v0.18h2.9l0.04,0.35c-2.61,0.64-7.6,1.54-14.99,2.68c-0.38,0.32-4.7,1.35-12.96,3.08
		c-2.14,1.03-9.04,2.09-20.7,3.21c-1.61,0-2.42,0.26-2.42,0.79v0.09c-0.18,0.44-0.41,0.66-0.7,0.66h-0.31l-0.18-0.83h-0.26
		l-0.13,0.83h-0.57c-0.76-0.94-1.17-1.55-1.23-1.85l-0.26-1.19l-0.66-0.53l-0.04-0.18l0.22-0.35c-1.46,0-2.83-0.56-4.09-1.67
		c-0.26,0-0.59-0.18-0.97-0.53l-0.04-0.35v-0.18c0-0.62,0.76-1.51,2.29-2.68c0.85-1.2,2.04-1.99,3.56-2.37
		c1.96-6.68,3.82-14.25,5.58-22.72c3.49-9.52,7.38-18.91,11.69-28.17h-0.26c-1.2-0.23-1.83-0.47-1.89-0.7l0.13-0.83
		c-0.76,0-1.19-0.18-1.27-0.53v-0.18c0-0.47,0.26-1.02,0.79-1.67c-0.23-0.2-0.37-0.42-0.4-0.66h0.83l-0.35-0.35l-0.04-0.35
		c1.38-1.35,4.12-2.02,8.22-2.02c0.53-0.91,1.41-1.36,2.64-1.36c0,0.12,0.1,0.18,0.31,0.18C89.81,625.94,89.97,625.82,90.29,625.82z
		 M76.8,682.46v0.09c0,0.35-0.28,0.89-0.83,1.63h0.88c0.35,0,0.53-0.1,0.53-0.31v-0.04l-0.31-1.36H76.8z"/>
	<path class="st2" d="M169.13,625.77h0.53l-0.31,1.76h0.26l0.4-0.88l0.09-0.53h0.53c0.15,0,0.22,0.45,0.22,1.36
		c0,2.46-0.54,8.22-1.63,17.27c-0.88,4.86-2.56,13.48-5.05,25.84h-0.26l0.18,0.35c0,0.12-0.09,0.18-0.26,0.18v0.04
		c0,0.09,0.07,0.13,0.22,0.13c-0.47,1.76-0.78,3.05-0.92,3.87l-0.13,0.7c-0.06,0.26-0.19,0.5-0.4,0.7v0.04
		c0,0.09,0.07,0.13,0.22,0.13c-0.44,1.58-0.73,2.75-0.88,3.52l-0.92,5.27l-0.44,1.05l0.22,0.35c-0.15,0.88-1.01,2.81-2.59,5.8
		l0.83,4.22c-0.56-0.26-0.98-0.85-1.27-1.76h-0.26l-0.04,0.35c0.35,0.53,0.53,0.98,0.53,1.36c0,0.09-0.02,0.16-0.04,0.22
		c-1.08-0.88-1.86-1.41-2.33-1.58h-0.48l-2.24,0.7c-3.25,0-5.2-1.76-5.84-5.27c-0.03-0.5-0.04-0.97-0.04-1.41
		c0-0.85,0.06-1.61,0.18-2.29l0.62-3.69l-7.47-16.88h-0.26c-0.09,0.53-0.23,0.88-0.44,1.05v0.04c0,0.09,0.07,0.13,0.22,0.13
		c-0.03,0.23-0.13,0.35-0.31,0.35c-0.7,2.96-1.2,5.3-1.49,7.03l-1.1,6.15c-0.06,0.41-0.23,0.94-0.53,1.58v0.04
		c0,0.09,0.07,0.13,0.22,0.13l-0.4,0.88l-0.09,0.53c-0.85,4.81-2.05,7.21-3.6,7.21c-0.15,0-0.69,0.06-1.63,0.18l-0.18-0.35
		l-0.57,0.18c-0.12,0-0.66-0.41-1.63-1.23l-0.31,0.35l0.66,0.7c-0.47,0.06-1.29,0.82-2.46,2.29l-1.98,0.7h-2.07
		c-2.78-0.64-4.17-2.02-4.17-4.13c0-0.29,0.03-0.62,0.09-0.97l0.83-4.75c0.03-0.12,0.13-0.18,0.31-0.18c0-0.12-0.09-0.18-0.26-0.18
		c9.29-27.19,14.88-43.18,16.79-47.99c0.15,0,0.26-0.18,0.35-0.53c-0.38-0.67-0.57-1.95-0.57-3.82v-0.4c0.38,0,0.88-0.35,1.49-1.05
		c0.67,0,1.03-0.06,1.05-0.18l-0.09-0.88c0.56,0,1.11-0.76,1.67-2.29h0.53l-0.09,0.53h0.53l0.04-0.35h0.26l2.59,1.76l0.13-0.88h0.53
		c0.03,0.32,0.04,0.62,0.04,0.88s-0.02,0.5-0.04,0.7h0.26c0.18-1.05,0.44-1.58,0.79-1.58c0.73,0.59,1.13,3.81,1.19,9.67
		c3.63,14.06,5.6,22.21,5.89,24.43h0.26l0.4-0.88l2.46-9.49h0.26v-0.04c0-0.09-0.07-0.13-0.22-0.13c1.32-3.54,2.8-8.58,4.44-15.12
		h0.53c0.09-0.44,0.53-1.9,1.32-4.39h0.53l-0.13,0.7l-0.04,1.76h0.26l0.31-1.76c0.09-0.23,0.28-0.35,0.57-0.35h0.26
		c0.2,1,0.31,1.99,0.31,2.99c0,0.76-0.06,1.52-0.18,2.29h0.26C164.97,636.2,166.64,632.1,169.13,625.77z"/>
	<path class="st2" d="M201.61,628.1h0.22l16.3,3.16c9.93,2.58,15.91,4.92,17.93,7.03c1.82,2.29,2.72,3.87,2.72,4.75
		c0,0.35,0.07,0.66,0.22,0.92c-0.62,0.23-0.92,0.47-0.92,0.7c0.18,0.29,0.26,0.51,0.26,0.66l-0.92,0.92h-0.44v-0.48h-0.26v0.48
		c0.18,1.88,0.26,2.93,0.26,3.16c-0.62,1.32-1.38,2.23-2.29,2.72h-1.36c-0.79,0-1.47-0.23-2.02-0.7c-0.26,0.18-0.57,0.26-0.92,0.26
		c0-0.23-0.38-0.47-1.14-0.7c-0.15,0-0.22,0.07-0.22,0.22c-3.52-0.91-6.84-1.36-9.98-1.36h-0.22l-1.58,0.22v-0.22l-0.48,0.22h-0.22
		c-5.98,0-13.15,1.82-21.53,5.45c-2.58,4.01-3.87,7.34-3.87,9.98v1.14c0.35,5.6,0.97,8.39,1.85,8.39c3.1,1.2,6.43,1.8,9.98,1.8
		c0.47,0,3.34-0.6,8.61-1.8c5.16,0,15.42-3.32,30.81-9.98c0.03-0.15,1.32-0.83,3.87-2.07l0.22,0.48c-4.13,2.11-6.31,3.16-6.55,3.16
		l0.22,0.44c-0.76,0.41-1.14,0.72-1.14,0.92h0.44l7.73-2.94v0.22c-0.29,0.35-2.71,1.48-7.25,3.38l-0.48,0.92h0.22
		c1.93-0.88,3.38-1.48,4.35-1.8v0.22l-6.15,3.38h0.48c2.02-0.53,4.73-1.65,8.13-3.38v0.22c-0.41,0.62-1.92,1.45-4.53,2.5v0.22h0.22
		c3.46-1.35,5.51-2.02,6.15-2.02l-1.63,1.36h0.26c0.41-0.32,0.94-0.48,1.58-0.48c0,0.7-3.25,3.88-9.76,9.54
		c-1.85,1.82-5.86,4.38-12.04,7.69c-2.4,0.91-9.05,2.58-19.95,5.01v0.22h-0.22c-5.24,0-11.82-2.04-19.73-6.11
		c-3.6-3.1-6.31-6.05-8.13-8.83c-2.29-1.44-3.43-4.47-3.43-9.1c-0.73-1.46-1.1-3.12-1.1-4.97v-1.36c0-5.8,2.42-11.18,7.25-16.13
		h0.22v-0.22h-0.22c-3.31,1.29-6.04,2.8-8.17,4.53c0-0.29-0.15-0.44-0.44-0.44c0,0.23-0.69,0.83-2.07,1.8l-0.22-0.44
		c3.43-3.02,6.75-6.03,9.98-9.05c0.38-0.32,0.69-0.48,0.92-0.48l-0.26-0.44c0.82-1.05,2.49-2.26,5.01-3.6v-0.26h-0.44l-0.92,0.48
		l-0.22-0.48c9.32-4.22,16.49-6.33,21.53-6.33c0-0.2,0.98-0.35,2.94-0.44v-0.26c-4.34-1.05-6.83-1.58-7.47-1.58V628.1z
		 M179.33,652.54c0.91-0.59,1.44-0.88,1.58-0.88v-0.18h-0.18C179.85,651.92,179.39,652.27,179.33,652.54z"/>
	<path class="st2" d="M274.29,618.08c2.43,0.88,3.68,2.5,3.74,4.88c0.15,0,0.22,0.04,0.22,0.13l0.04,1.76v0.04
		c0,2.4-3.35,14.24-10.06,35.51h0.22c3.93-0.59,6.58-0.88,7.95-0.88h1.36c2.81-9.2,4.86-18.15,6.15-26.85v-0.04
		c0-1.08,0.75-1.95,2.24-2.59c0,0.18,0.22,0.35,0.66,0.53c1.32-0.62,1.98-1.57,1.98-2.86v-0.09c0.41-1.02,0.85-1.54,1.32-1.54h1.14
		c0.06-0.26,0.44-0.5,1.14-0.7c0.15,0.21,0.22,0.38,0.22,0.53l1.14-0.18c1.7,1.2,2.56,2.64,2.59,4.31c0.2,0,0.42-0.34,0.66-1.01
		l1.14,0.18c0.03-0.23,0.18-0.35,0.44-0.35c0,0.12,0.07,0.18,0.22,0.18l-0.18,0.83v0.18h0.22l1.14-0.18
		c0.62,0.59,0.92,0.94,0.92,1.05c0,0.12-0.07,0.18-0.22,0.18c0.32,1,0.48,1.57,0.48,1.71v0.04c0,1.64-2.12,10.94-6.37,27.91
		c-1.32,7.03-3.72,14.25-7.21,21.67l-2.99,8.35h-0.44l0.57-2.94v-0.18h-0.22l-0.83,2.77h-0.44c0-0.12,0.07-0.18,0.22-0.18
		c-0.18-0.26-0.35-1.01-0.53-2.24h0.22l-0.22-0.35l1.32-12.17v-0.31h-0.26c-1.23,5.07-3.41,11.59-6.55,19.56
		c-0.56,1.87-0.83,2.97-0.83,3.3h-0.44l-0.04-1.19l0.18-1.05v-0.18h-0.22c-0.26,0.94-0.4,1.64-0.4,2.11h-0.44
		c-0.5-1.23-0.75-2.17-0.75-2.81l-0.04-0.66c0-0.64,0.06-1.47,0.18-2.46v-0.18h-0.22l-2.59,6.11h-0.44l1.05-3.65v-0.18h-0.26
		c-0.73,2.2-1.23,3.3-1.49,3.3h-0.22l0.18-1.23v-1.36l3.56-22.06h-0.22c-5.24,1.55-8.63,2.71-10.15,3.47
		c0,0.56-3.12,9.52-9.36,26.89h-0.44v-0.18c0-0.26,0.13-1.13,0.4-2.59v-0.18h-0.22c-0.38,1.85-0.75,2.77-1.1,2.77
		c-0.32-1.38-0.48-2.18-0.48-2.42v-0.18c0-0.67,0.1-2.36,0.31-5.05l-0.44,0.18l-0.75-2.24c0.12-2.26,0.37-4.86,0.75-7.82v-0.18
		h-0.26c-1.7,3.93-3.43,7.69-5.19,11.29h-0.44l0.83-2.94v-0.18h-0.22c-0.7,1.73-1.05,2.71-1.05,2.94h-0.48l-0.04-2.07v-0.04
		c0-1.2,1.63-9.4,4.88-24.61c4.19-14.97,9.26-31.27,15.21-48.91c0.53-0.79,1.2-1.19,2.02-1.19c0.29,0.12,0.51,0.18,0.66,0.18
		c0.15-0.35,0.6-0.53,1.36-0.53c0,0.23,0.07,0.35,0.22,0.35l0.92-0.35c0.2,0.12,0.59,0.18,1.14,0.18c-0.18-0.23-0.26-0.41-0.26-0.53
		C272.37,618.26,273.21,618.08,274.29,618.08z"/>
	<path class="st2" d="M306.33,637.2h0.53c0.7,0.73,1.32,1.1,1.85,1.1c0.56-0.62,1.41-0.92,2.55-0.92h0.18v0.13
		c0,0.41,0.16,0.62,0.48,0.62c0.03-0.23,0.15-0.35,0.35-0.35c-0.03,0.21-0.04,0.37-0.04,0.48c0,0.26,0.04,0.4,0.13,0.4l0.92-0.18
		v0.04c0,0.26,0.28,0.44,0.83,0.53l0.18-0.4c0.7,0.09,1.05,0.22,1.05,0.4l0.7-0.4c0,0.12,0.06,0.18,0.18,0.18l-0.22,0.4l0.83,0.7
		c-0.23,0.06-0.5,0.37-0.79,0.92c0.59,0,0.88,0.72,0.88,2.15c-0.23,2.49-4.78,18.82-13.62,49l-7.38,18.33h-0.35v-0.18l0.35-1.63
		v-0.18h-0.18c-0.29,0.73-0.47,1.33-0.53,1.8h-0.35c-0.12-0.79-0.18-1.35-0.18-1.67v-0.13l0.26-2.9c-0.38-1.44-0.57-2.97-0.57-4.61
		c0-0.62,0.03-1.26,0.09-1.93l0.57-6.9v-0.09c0-0.18-0.1-0.26-0.31-0.26l-2.77,7.43h-0.35c0.03-0.23,0.29-1.26,0.79-3.08l0.04-0.18
		h-0.18l-0.97,2.72h-0.35c0.03-0.29,0.06-1.2,0.09-2.72c3.08-17.9,6.01-31.27,8.79-40.12c1.29-4.1,2.71-9.78,4.26-17.05
		c0.73,0,1.36-0.42,1.89-1.27L306.33,637.2z M317.23,617.38c0.44,0.18,0.66,0.35,0.66,0.53c0.12,0,0.18-0.06,0.18-0.18
		c0.64,0.12,1.11,0.18,1.41,0.18l0.35-0.18c0.5,0,0.75,0.32,0.75,0.97v0.31l0.4-0.18h0.18c0.59,0.15,0.88,0.73,0.88,1.76v0.44
		c-0.35,3.98-1.95,7.43-4.79,10.33c-1.26,0.38-2.3,0.92-3.12,1.63l-0.18-0.35l-0.35,0.18c-0.62-1.08-1.22-1.63-1.8-1.63
		c-1.82,1.32-2.81,1.98-2.99,1.98l0.04-0.18c0.12-0.23,0.19-0.41,0.22-0.53c-0.23,0-0.37,0.18-0.4,0.53h-0.35l-0.09-0.92
		c0.09-1.11,0.13-2.58,0.13-4.39v-1.41c1.35-3.69,2.23-5.74,2.64-6.15c0.47,0,0.73-0.37,0.79-1.1l0.4-0.18l-0.04,0.53h0.53
		c0.23,0,0.37-0.18,0.4-0.53h0.35c0,0.5,0.15,0.75,0.44,0.75c0.47,0,0.75-0.48,0.83-1.45h0.7c0.5,0.47,0.78,0.7,0.83,0.7h0.18v-0.18
		l-0.09-0.92C316.72,617.5,317.02,617.38,317.23,617.38z"/>
	<path class="st2" d="M342.63,616.15h0.18l0.62,0.4l0.92-0.13l-0.04,0.13l0.4-0.13h0.35c0.85,1.08,1.27,1.98,1.27,2.68
		c0,0.15-0.02,0.28-0.04,0.4c-6.77,17.02-12.16,32.73-16.17,47.11l-4.92,17.53c-2.05,7.35-4.39,13.04-7.03,17.05h-0.35l0.26-0.92
		h-0.18l-0.44,0.92h-0.35c-0.29-0.32-0.44-0.78-0.44-1.36c0-0.15,0.01-0.32,0.04-0.53l0.22-0.66h-0.18l-0.35,1.23h-0.35l0.13-1.76
		h-0.35c-0.56,1.61-0.91,2.68-1.05,3.21h-0.35l0.26-1.58h-0.18l-0.48,1.71h-0.35l0.09-0.26h-0.18l-1.54,5.45h-0.35
		c0.06-0.21,0.18-1.05,0.35-2.55h-0.18l-0.26,0.97c-0.18,1.08-0.28,1.65-0.31,1.71h-0.35c-0.29-1.93-0.44-3.57-0.44-4.92
		c0-1.14,0.1-2.08,0.31-2.81c0.23-7.88,1-14.14,2.29-18.76l-0.04-0.53h0.18l-0.09-0.26l0.66-2.37c0.03-0.09,0.04-0.16,0.04-0.22
		c0-0.12-0.03-0.22-0.09-0.31l0.26-0.26c0.7-4.57,1.2-7.37,1.49-8.39l0.53-2.02c0.03-0.09,0.04-0.18,0.04-0.26s-0.02-0.18-0.04-0.26
		c0.15-0.15,0.25-0.32,0.31-0.53l0.75-2.64c0.06-0.15,0.09-0.28,0.09-0.4c0-0.12-0.03-0.2-0.09-0.26l0.4-0.83l0.35-1.19
		c0.03-0.12,0.04-0.2,0.04-0.26c0-0.09-0.03-0.13-0.09-0.13l0.31-0.53c2.78-9.9,7.4-21.56,13.84-34.98l0.4-0.13h0.35l0.44,0.26h0.35
		c0.59-0.79,1.46-2.48,2.64-5.05c1.7-1,2.61-1.49,2.72-1.49h0.53l0.31,0.13l0.79-0.26c0.18,0.09,0.34,0.13,0.48,0.13
		C341.37,616.74,341.93,616.39,342.63,616.15z"/>
	<path class="st2" d="M370.18,626.87h2.5c4.01,0,7.72,2.75,11.12,8.26c0.79,0.65,1.79,2.81,2.99,6.5c1.2,0.94,2.33,3.57,3.38,7.91
		h0.22l-0.22,0.35c0,0.12,0.07,0.18,0.22,0.18l-0.22,0.35v2.11c0,1.9-0.15,4.25-0.44,7.03l1.36,4.57c0,4.37-3.03,10.52-9.1,18.46
		l-5.23,4.39l-0.44-0.18c-6.42,3.52-10.52,5.27-12.3,5.27v-0.35l1.14-0.18v-0.18h-0.22c-2.61,0.59-5.11,0.88-7.51,0.88
		c-7.65,0-14-4.28-19.07-12.83h-0.22v1.58h-0.48c0-0.29-0.15-1.11-0.44-2.46H337v2.11h-0.44c-1.38-1.96-2.07-6.24-2.07-12.83v-0.53
		c0-6.97,2.27-15.23,6.81-24.79c4.04-6.42,9.2-10.52,15.47-12.3C363.78,627.99,368.25,626.87,370.18,626.87z M337,678.03v0.35h0.22
		v-0.35H337z M348.87,671.04h-0.44v-0.18c-0.12-0.94-0.18-1.52-0.18-1.76h-0.22v1.93c0,0.38,0.48,1.23,1.45,2.55
		c0,1.05,1.51,2.55,4.53,4.48c1.38,0.21,2.62,0.31,3.74,0.31h0.18c6.03,0,11.41-2.24,16.13-6.72c2.75-2.96,4.13-7.43,4.13-13.4
		v-2.24c0-0.35,0.07-0.62,0.22-0.79l-0.22-0.97v-3.82c-1.11-3.02-2.77-5.04-4.97-6.06c-2.43-0.97-4.42-1.45-5.98-1.45
		c-2.49,0-6.55,1.54-12.17,4.61c-1.79,0.79-2.68,2.55-2.68,5.27C350.04,662.82,348.87,668.9,348.87,671.04z M390.66,650.08h0.44
		v0.35h-0.44V650.08z"/>
	<path class="st2" d="M450.12,627.44v0.48l-2.2,0.66v0.26h0.66c0.59-0.32,1.1-0.48,1.54-0.48v0.48c-1.05,0.97-4.26,3.28-9.62,6.94
		l-2.86,2.55c0.15,0,0.22,0.07,0.22,0.22c-0.82,0.47-1.39,0.7-1.71,0.7v0.22h0.22c0.79-0.15,1.36-0.22,1.71-0.22
		c-1.7,1.96-6.21,5.74-13.54,11.34c-2.11,1.29-4.09,2.68-5.93,4.17c2.58,0.03,8.92,1.96,19.03,5.8c3.52,1.23,5.27,2.48,5.27,3.74
		c0.15,0,0.29,0.22,0.44,0.66c-0.15,0.32-0.22,0.56-0.22,0.7c0.29,0.06,0.44,0.22,0.44,0.48v0.22c0,0.12-0.22,0.35-0.66,0.7
		c0.29,0.5,0.44,0.95,0.44,1.36l-0.88,0.48l0.22,0.48v0.22c-3.05,3.75-7.28,7.46-12.7,11.12c-5.19,3.63-11.38,7.19-18.59,10.68
		c-1.32,1.14-4.67,3.06-10.06,5.76c-6.45,3.87-10.02,5.8-10.72,5.8c0-0.32,0.73-0.86,2.2-1.63v-0.22h-0.22
		c-1.08,0.53-1.89,1-2.42,1.41h-0.22v-0.26c0-0.64,2.7-3.41,8.09-8.31h-0.22c-2.81,1.23-4.48,1.85-5.01,1.85
		c0.03-0.38,0.83-0.92,2.42-1.63v-0.22h-0.22c-1.17,0.62-1.98,0.92-2.42,0.92h-0.22c1.2-1.64,4.7-4.89,10.5-9.76
		c2.11-2.29,7.35-7.08,15.73-14.37l3.74-4.17v-0.22h-0.22c-6.21-1.23-10.08-1.85-11.6-1.85c-2.05,0.15-4.01,0.22-5.89,0.22
		c-4.16,0-6.65-0.78-7.47-2.33c-0.32,0-0.97-0.45-1.93-1.36c0,0.29-0.15,0.44-0.44,0.44c-0.29-0.38-0.44-0.69-0.44-0.92h-0.22v0.22
		c0.15,0.29,0.22,0.62,0.22,0.97h-0.22c-1.47-0.91-2.2-2.15-2.2-3.74c0-6.44,4.95-12.39,14.85-17.84
		c12.22-7.12,20.32-10.68,24.3-10.68h0.66c0.88,0,2.56,0.16,5.05,0.48C440.93,629.38,445.37,628.53,450.12,627.44z"/>
	<path class="st2" d="M489.45,624.24c0.06,0.26,0.26,0.4,0.62,0.4c0.41-0.15,0.72-0.22,0.92-0.22c2.08,1.35,3.12,3.56,3.12,6.64
		v0.48c-2.46,17.81-3.76,28.71-3.91,32.7c2.52-0.53,3.96-0.79,4.31-0.79c0,0.15-0.62,0.47-1.85,0.97h0.31
		c0.82-0.26,1.54-0.4,2.15-0.4c-0.5,0.53-2.37,1.58-5.63,3.16c-0.35,4.07-0.54,6.77-0.57,8.09h-0.31c0,0.12,0.09,0.18,0.26,0.18
		c-2.7,18.84-4.04,28.62-4.04,29.36h-0.62v-0.35c0-0.67-0.07-1.67-0.22-2.99h-0.31l-0.09,3.34h-0.62v-0.62
		c-0.59,0-0.92,1.19-1.01,3.56h-0.62l-0.22-2.37h-0.31l-0.09,2.2h-0.62c-0.97-1.41-1.9-3.65-2.81-6.72h-0.31l-0.04,0.62h-0.57
		l0.09-3.16h-0.31l-0.4,2.37v0.18h-0.62c-0.79-1.96-1.19-4.92-1.19-8.88c0-0.73,0.01-1.51,0.04-2.33h-0.62v0.57h-0.62l0.35-1.36
		l0.09-1.8h-0.31c-0.03,0.29-0.26,1.22-0.7,2.77h-0.62v-0.53c0-0.62-0.18-1.36-0.53-2.24c0.64-7.12,1-11.18,1.05-12.17
		c-8.06,4.04-13.95,6.21-17.67,6.5c-3.72,4.81-7,8.15-9.84,10.02l-3.65-0.18h-1.23l-0.62,0.18c-0.18-0.23-0.26-0.5-0.26-0.79
		l-0.62,0.22c-1.93-1.67-2.9-2.96-2.9-3.87v-0.66c0.15-4.39,9.14-16.8,26.98-37.22c1.14-1.61,6.43-7.46,15.86-17.53
		c0.12-3.16,2.01-4.75,5.67-4.75l0.31,0.4l-0.31,0.4h1.19c0.06-1.14,0.81-2.07,2.24-2.77c0.41,0.15,0.72,0.22,0.92,0.22
		C488.22,624.82,488.63,624.56,489.45,624.24z M475.65,652.8c-0.03,0.82-3.9,6.46-11.6,16.92c3.08-1.05,6.15-1.85,9.23-2.37v-0.18
		l2.64-14.19l0.04-0.18H475.65z M477.23,633.51c0,0.21-0.44,0.92-1.32,2.15v0.18h0.31c0-0.29,0.42-0.81,1.27-1.54l0.04-0.79H477.23z
		"/>
</g>
<g>
	<g>
		<path class="st1" d="M185.12,99.96L185.12,99.96c-6.68,1.98-10.49,9-8.51,15.68l44.13,148.71c1.98,6.68,9,10.49,15.68,8.51l0,0
			c6.68-1.98,10.49-9,8.51-15.68l-44.13-148.71C198.82,101.79,191.8,97.98,185.12,99.96z"/>
		<path class="st2" d="M232.81,281.07c-3.33,0-6.63-0.83-9.65-2.46c-4.77-2.58-8.24-6.87-9.78-12.07l-44.13-148.71
			c-1.54-5.2-0.97-10.68,1.62-15.45c2.58-4.77,6.87-8.24,12.06-9.78c5.2-1.54,10.68-0.97,15.45,1.62c4.77,2.58,8.24,6.87,9.78,12.07
			l44.13,148.71c3.18,10.73-2.96,22.04-13.68,25.23C236.7,280.79,234.75,281.07,232.81,281.07z M188.72,107.11
			c-0.47,0-0.95,0.07-1.41,0.21l0,0c-1.26,0.37-2.31,1.22-2.94,2.38c-0.63,1.16-0.77,2.5-0.39,3.76l44.13,148.71
			c0.37,1.26,1.22,2.31,2.38,2.94c1.16,0.63,2.5,0.77,3.76,0.39c2.61-0.77,4.11-3.53,3.33-6.14l-44.13-148.71
			c-0.37-1.27-1.22-2.31-2.38-2.94C190.33,107.31,189.53,107.11,188.72,107.11z"/>
	</g>
	<g>
		<path class="st4" d="M363.73,303.83c22.12,74.55-16.01,134.28-79.34,153.07s-127.87-10.47-149.99-85.02
			c-22.12-74.55,27.26-96.38,90.59-115.17C288.32,237.92,341.61,229.27,363.73,303.83z"/>
		<path class="st2" d="M246.77,470.23c-55.28,0-101.82-35.8-119.73-96.17c-11.02-37.15-6.04-65.34,15.24-86.16
			c17.83-17.45,45.09-28.03,80.53-38.55c35.44-10.52,64.06-16.51,88.52-11.61c29.19,5.85,48.75,26.75,59.77,63.9l0,0
			c22.08,74.43-12.67,141.3-84.52,162.62C273,468.29,259.65,470.23,246.77,470.23z M292.74,251.6c-18.02,0-39.7,4.79-65.57,12.47
			c-71.17,21.12-103.92,43.26-85.42,105.63c19.51,65.76,77.27,98.6,140.45,79.85c63.18-18.75,93.68-77.77,74.17-143.53l0,0
			C344.59,266.31,324.29,251.6,292.74,251.6z"/>
	</g>
	<g>
		<path class="st2" d="M296.29,460.35c-2.22,0-4.43-0.96-5.94-2.81c-2.69-3.28-2.21-8.12,1.07-10.8
			c22.13-18.14,24.84-50.36,8.78-104.49c-14.57-49.08-39.99-80.87-56.15-83.25c-4.2-0.62-7.09-4.52-6.48-8.71
			c0.61-4.2,4.51-7.09,8.71-6.48c25.07,3.69,53.29,42.37,68.64,94.07c18.07,60.88,13.82,98.12-13.77,120.73
			C299.72,459.78,298,460.35,296.29,460.35z"/>
	</g>
	<g>
		<g>
			<path class="st1" d="M346.03,312.43c-14.04-47.32-43.09-54.61-79.41-48.52c15.63,15.21,31.05,42.85,40.94,76.16
				c10.26,34.59,13.41,61.58,8.05,82.14C345.63,398.51,359.82,358.91,346.03,312.43z"/>
			<path class="st2" d="M302.4,442.41l5.77-22.14c4.78-18.31,2.17-43.83-7.98-78.02c-9.13-30.77-23.69-58-38.94-72.84l-10.85-10.57
				l14.94-2.5c29.45-4.93,70.64-4.73,88.04,53.91l0,0c13.84,46.64,1.49,90.75-33.03,117.99L302.4,442.41z M282.12,269.9
				c13.19,17.12,24.81,41.05,32.8,67.99c7.49,25.24,11.1,45.92,10.96,63.27c17.9-22.92,22.62-53.44,12.8-86.54l0,0
				C329.05,282.18,312.17,268.52,282.12,269.9z"/>
		</g>
	</g>
	<g>
		<path class="st2" d="M179.58,300.9c1.32,4.44-1.21,9.11-5.66,10.43c-4.44,1.32-9.11-1.21-10.43-5.66
			c-1.32-4.44,1.21-9.11,5.66-10.43C173.59,293.92,178.26,296.45,179.58,300.9z"/>
	</g>
	<g>
		<path class="st2" d="M167.18,336.49c1.32,4.44-1.21,9.11-5.66,10.43c-4.44,1.32-9.11-1.21-10.43-5.66
			c-1.32-4.44,1.21-9.11,5.66-10.43C161.19,329.52,165.86,332.05,167.18,336.49z"/>
	</g>
	<g>
		<path class="st2" d="M203.09,343.34c1.32,4.44-1.21,9.11-5.66,10.43c-4.44,1.32-9.11-1.21-10.43-5.66
			c-1.32-4.44,1.21-9.11,5.66-10.43C197.1,336.36,201.77,338.9,203.09,343.34z"/>
	</g>
	<g>
		<path class="st2" d="M250.6,381.71c1.32,4.44-1.21,9.11-5.66,10.43c-4.44,1.32-9.11-1.21-10.43-5.66
			c-1.32-4.44,1.21-9.11,5.66-10.43C244.61,374.74,249.28,377.27,250.6,381.71z"/>
	</g>
	<g>
		<path class="st2" d="M174.62,375.25c1.32,4.44-1.21,9.11-5.66,10.43c-4.44,1.32-9.11-1.21-10.43-5.66
			c-1.32-4.44,1.21-9.11,5.66-10.43C168.63,368.28,173.3,370.81,174.62,375.25z"/>
	</g>
	<g>
		<path class="st2" d="M212.27,381.58c1.32,4.44-1.21,9.11-5.66,10.43c-4.44,1.32-9.11-1.21-10.43-5.66
			c-1.32-4.44,1.21-9.11,5.66-10.43C206.28,374.61,210.95,377.14,212.27,381.58z"/>
	</g>
	<g>
		<g>
			<path class="st4" d="M449.5,374.28L256.07,421.4c10.34,42.44,62.02,66.29,115.43,53.28C424.91,461.67,459.83,416.72,449.5,374.28
				z"/>
			<path class="st2" d="M342.21,485.92c-16.9,0-33.25-3.41-47.8-10.12c-23.97-11.07-40.24-29.74-45.8-52.59l-1.82-7.46l208.34-50.75
				l1.82,7.46c5.56,22.85-0.29,46.91-16.49,67.76c-15.79,20.33-39.64,35.21-67.15,41.91C362.93,484.67,352.46,485.92,342.21,485.92z
				 M265.85,426.91c5.88,14.89,18.06,27.13,34.99,34.95c20.23,9.34,44.68,11.24,68.83,5.36c24.16-5.88,44.99-18.82,58.66-36.41
				c11.44-14.72,16.63-31.2,15-47.12L265.85,426.91z"/>
		</g>
		<g>
			<path class="st1" d="M429.8,379.08L275.76,416.6c7.64,31.38,48.32,48.41,90.86,38.05C409.16,444.29,437.44,410.46,429.8,379.08z"
				/>
			<path class="st2" d="M341.7,465.37c-12.96,0-25.44-2.36-36.56-7.01c-19.47-8.15-32.55-22.34-36.84-39.94l-1.82-7.46l168.96-41.15
				l1.82,7.46c4.29,17.6-0.8,36.22-14.34,52.41c-12.98,15.52-32.33,27.04-54.48,32.44C359.49,464.29,350.49,465.37,341.7,465.37z
				 M285.84,422.05c4.59,9.44,13.31,17.16,25.23,22.15c15.66,6.56,34.74,7.62,53.73,3c18.99-4.63,35.45-14.35,46.34-27.37
				c8.29-9.92,12.49-20.78,12.22-31.28L285.84,422.05z"/>
		</g>
		<g>
			<path class="st5" d="M357.47,417.09c-10.32,2.51-19.74,0.24-21.04-5.07c-1.3-5.32,6.02-11.67,16.35-14.18
				c10.32-2.51,19.74-0.24,21.04,5.07C375.12,408.23,367.8,414.58,357.47,417.09z"/>
			<path class="st2" d="M349.26,425.79c-2.65,0-5.18-0.28-7.49-0.84c-6.81-1.64-11.47-5.69-12.79-11.12
				c-2.41-9.9,6.84-19.76,21.99-23.45c6.16-1.5,12.39-1.64,17.52-0.4c6.81,1.64,11.47,5.7,12.79,11.12
				c1.32,5.42-0.95,11.17-6.25,15.75c-3.99,3.46-9.59,6.2-15.74,7.7C355.9,425.38,352.49,425.79,349.26,425.79z M345,409.94
				c2.01,0.55,5.72,0.9,10.66-0.3c4.94-1.2,8.07-3.22,9.6-4.64c-2.01-0.55-5.71-0.9-10.66,0.3
				C349.66,406.5,346.53,408.52,345,409.94z"/>
		</g>
	</g>
</g>
</svg>
