<?xml version="1.0" encoding="utf-8"?>
<!-- Generator: Adobe Illustrator 23.0.5, SVG Export Plug-In . SVG Version: 6.00 Build 0)  -->
<svg version="1.1" id="Capa_1" xmlns="http://www.w3.org/2000/svg" xmlns:xlink="http://www.w3.org/1999/xlink" x="0px" y="0px"
	 viewBox="0 0 557.5 850.72" style="enable-background:new 0 0 557.5 850.72;" xml:space="preserve">
<style type="text/css">
	.st0{fill:url(#SVGID_1_);}
	.st1{fill:#FFFFFF;}
	.st2{fill:#230131;}
	.st3{fill:#CB88A1;}
	.st4{fill:#C24131;}
	.st5{fill:#BE1622;}
	.st6{fill:#935EA3;}
	.st7{fill:none;}
	.st8{fill:none;stroke:#FFFFFF;stroke-width:2;stroke-miterlimit:10;}
	.st9{fill:#E9B6A3;}
	.st10{opacity:0.9;fill:#230131;}
	.st11{opacity:0.24;fill:url(#SVGID_2_);}
	.st12{fill:#BF1A1B;}
	.st13{fill:#FFEC00;}
	.st14{fill:url(#SVGID_3_);}
	.st15{fill:url(#SVGID_4_);}
	.st16{fill:url(#SVGID_5_);}
	.st17{fill:url(#SVGID_6_);}
	.st18{fill:url(#SVGID_7_);}
	.st19{fill:url(#SVGID_8_);}
	.st20{fill:url(#SVGID_9_);}
	.st21{fill:url(#SVGID_10_);}
	.st22{fill:url(#SVGID_11_);}
	.st23{fill:url(#SVGID_12_);}
	.st24{fill:#E9C064;}
	.st25{fill:#E9C064;stroke:#FFFFFF;stroke-width:20;stroke-miterlimit:10;}
	.st26{clip-path:url(#SVGID_14_);}
	.st27{fill:url(#SVGID_15_);}
	.st28{fill:url(#SVGID_16_);}
	.st29{fill:url(#SVGID_17_);}
	.st30{fill:url(#SVGID_18_);}
	.st31{fill:url(#SVGID_19_);}
	.st32{fill:url(#SVGID_20_);}
	.st33{fill:url(#SVGID_21_);}
	.st34{fill:url(#SVGID_22_);}
	.st35{fill:url(#SVGID_23_);}
	.st36{fill:url(#SVGID_24_);}
	.st37{fill:url(#SVGID_25_);}
	.st38{fill:url(#SVGID_26_);}
	.st39{fill:url(#SVGID_27_);}
	.st40{opacity:0.24;fill:url(#SVGID_28_);}
	.st41{fill:url(#SVGID_29_);}
	.st42{fill:url(#SVGID_30_);}
	.st43{fill:url(#SVGID_31_);}
	.st44{opacity:0.24;fill:url(#SVGID_32_);}
	.st45{fill:url(#SVGID_33_);}
	.st46{fill:url(#SVGID_34_);}
	.st47{fill:url(#SVGID_35_);}
	.st48{opacity:0.24;fill:url(#SVGID_36_);}
	.st49{clip-path:url(#SVGID_38_);}
	.st50{opacity:0.63;clip-path:url(#SVGID_38_);fill:url(#SVGID_41_);}
	.st51{opacity:0;clip-path:url(#SVGID_38_);fill:url(#SVGID_42_);}
	.st52{opacity:0.22;clip-path:url(#SVGID_38_);fill:url(#SVGID_43_);}
	.st53{fill:url(#SVGID_44_);}
	.st54{clip-path:url(#SVGID_46_);}
	.st55{fill:url(#SVGID_47_);}
	.st56{fill:url(#SVGID_48_);}
	.st57{fill:url(#SVGID_49_);}
	.st58{fill:url(#SVGID_50_);}
	.st59{fill:url(#SVGID_51_);}
	.st60{fill:url(#SVGID_52_);}
	.st61{fill:url(#SVGID_53_);}
	.st62{fill:url(#SVGID_54_);}
	.st63{fill:url(#SVGID_55_);}
	.st64{fill:url(#SVGID_56_);}
	.st65{fill:url(#SVGID_57_);}
	.st66{clip-path:url(#SVGID_59_);}
	.st67{fill:#A1C538;}
	.st68{fill:#886FAE;}
	.st69{fill:#E9C063;}
	.st70{fill:url(#SVGID_60_);stroke:#230131;stroke-width:12;stroke-miterlimit:10;}
	.st71{clip-path:url(#SVGID_62_);}
	.st72{fill:url(#SVGID_63_);}
	.st73{opacity:0.5;}
	.st74{fill:#EDCD83;}
	.st75{opacity:0.62;clip-path:url(#SVGID_62_);fill:url(#SVGID_64_);}
	.st76{clip-path:url(#SVGID_62_);fill:url(#SVGID_65_);}
	.st77{fill:url(#SVGID_66_);}
	.st78{fill:#E9C064;stroke:#230131;stroke-width:20;stroke-miterlimit:10;}
	.st79{fill:url(#SVGID_67_);}
	.st80{fill:url(#SVGID_68_);}
	.st81{clip-path:url(#SVGID_62_);fill:url(#SVGID_69_);}
	.st82{fill:url(#SVGID_70_);}
	.st83{fill:url(#SVGID_71_);}
	.st84{opacity:0.34;fill:#230131;}
	.st85{fill:url(#SVGID_72_);}
	.st86{fill:url(#SVGID_73_);}
	.st87{fill:url(#SVGID_74_);}
	.st88{fill:url(#SVGID_75_);}
	.st89{fill:url(#SVGID_76_);}
	.st90{fill:url(#SVGID_77_);}
	.st91{fill:url(#SVGID_78_);}
	.st92{fill:url(#SVGID_79_);}
	.st93{fill:url(#SVGID_80_);}
	.st94{fill:url(#SVGID_81_);}
	.st95{fill:url(#SVGID_82_);}
	.st96{fill:url(#SVGID_83_);}
	.st97{clip-path:url(#SVGID_85_);}
	.st98{fill:url(#SVGID_86_);}
	.st99{fill:#D5A0B4;}
	.st100{fill:#D15F81;}
	.st101{fill:#F09C83;}
	.st102{opacity:0.62;clip-path:url(#SVGID_85_);fill:url(#SVGID_87_);}
	.st103{clip-path:url(#SVGID_85_);fill:url(#SVGID_88_);}
	.st104{fill:url(#SVGID_89_);}
	.st105{fill:url(#SVGID_90_);}
	.st106{fill:#CB88A1;stroke:#230131;stroke-width:20;stroke-miterlimit:10;}
	.st107{fill:url(#SVGID_91_);}
	.st108{clip-path:url(#SVGID_85_);fill:url(#SVGID_92_);}
	.st109{fill:url(#SVGID_93_);}
	.st110{fill:url(#SVGID_94_);}
	.st111{fill:url(#SVGID_95_);}
	.st112{fill:url(#SVGID_96_);}
	.st113{fill:url(#SVGID_97_);}
	.st114{fill:url(#SVGID_98_);}
	.st115{fill:url(#SVGID_99_);}
	.st116{fill:url(#SVGID_100_);}
	.st117{fill:url(#SVGID_101_);}
	.st118{fill:url(#SVGID_102_);}
	.st119{fill:url(#SVGID_103_);}
	.st120{clip-path:url(#SVGID_105_);}
	.st121{fill:url(#SVGID_106_);}
	.st122{fill:#CE675A;}
	.st123{fill:#DD4B1A;}
	.st124{fill:#F4971E;}
	.st125{opacity:0.62;clip-path:url(#SVGID_105_);fill:url(#SVGID_107_);}
	.st126{clip-path:url(#SVGID_105_);fill:url(#SVGID_108_);}
	.st127{fill:url(#SVGID_109_);}
	.st128{fill:url(#SVGID_110_);}
	.st129{fill:url(#SVGID_111_);}
	.st130{fill:#C24131;stroke:#230131;stroke-width:20;stroke-miterlimit:10;}
	.st131{clip-path:url(#SVGID_105_);fill:url(#SVGID_112_);}
	.st132{fill:url(#SVGID_113_);}
	.st133{fill:url(#SVGID_114_);}
	.st134{fill:url(#SVGID_115_);}
	.st135{fill:url(#SVGID_116_);}
	.st136{fill:url(#SVGID_117_);}
	.st137{fill:url(#SVGID_118_);}
	.st138{fill:url(#SVGID_119_);}
	.st139{fill:url(#SVGID_120_);}
	.st140{fill:url(#SVGID_121_);}
	.st141{fill:url(#SVGID_122_);}
	.st142{fill:url(#SVGID_123_);}
	.st143{fill:url(#SVGID_124_);}
	.st144{fill:url(#SVGID_125_);}
	.st145{opacity:0.35;}
	.st146{fill:#ECECEC;}
	.st147{fill:url(#SVGID_126_);}
	.st148{clip-path:url(#SVGID_128_);}
	.st149{fill:url(#SVGID_129_);}
	.st150{fill:#FBBA00;}
	.st151{opacity:0.62;fill:url(#SVGID_130_);}
	.st152{fill:url(#SVGID_131_);}
	.st153{fill:url(#SVGID_132_);}
	.st154{fill:url(#SVGID_133_);}
	.st155{fill:url(#SVGID_134_);}
	.st156{fill:url(#SVGID_135_);}
	.st157{fill:url(#SVGID_136_);}
	.st158{fill:url(#SVGID_137_);}
	.st159{fill:url(#SVGID_138_);}
	.st160{fill:url(#SVGID_139_);}
	.st161{fill:url(#SVGID_140_);}
	.st162{fill:url(#SVGID_143_);}
	.st163{fill:url(#SVGID_144_);}
	.st164{fill:url(#SVGID_145_);}
	.st165{fill:url(#SVGID_146_);}
	.st166{fill:url(#SVGID_147_);}
	.st167{fill:url(#SVGID_148_);}
	.st168{fill:url(#SVGID_149_);}
	.st169{fill:url(#SVGID_150_);}
	.st170{fill:url(#SVGID_151_);}
	.st171{fill:url(#SVGID_152_);}
	.st172{fill:url(#SVGID_155_);}
	.st173{fill:url(#SVGID_156_);}
	.st174{fill:url(#SVGID_157_);}
	.st175{fill:url(#SVGID_158_);}
	.st176{fill:url(#SVGID_159_);}
	.st177{fill:url(#SVGID_160_);}
	.st178{fill:url(#SVGID_161_);}
	.st179{fill:url(#SVGID_162_);}
	.st180{fill:url(#SVGID_163_);}
	.st181{fill:url(#SVGID_164_);}
	.st182{fill:url(#SVGID_167_);}
	.st183{fill:url(#SVGID_168_);}
	.st184{fill:url(#SVGID_169_);}
	.st185{fill:url(#SVGID_170_);}
	.st186{fill:url(#SVGID_171_);}
	.st187{fill:url(#SVGID_172_);}
	.st188{fill:url(#SVGID_173_);}
	.st189{fill:url(#SVGID_174_);}
	.st190{fill:url(#SVGID_175_);}
	.st191{fill:url(#SVGID_176_);}
	.st192{clip-path:url(#SVGID_178_);}
	.st193{clip-path:url(#SVGID_180_);}
	.st194{clip-path:url(#SVGID_188_);}
	.st195{clip-path:url(#SVGID_190_);}
	.st196{opacity:0.35;clip-path:url(#SVGID_192_);}
	.st197{clip-path:url(#SVGID_192_);fill:url(#SVGID_193_);}
	.st198{clip-path:url(#SVGID_192_);}
	.st199{clip-path:url(#SVGID_195_);fill:url(#SVGID_196_);}
	.st200{clip-path:url(#SVGID_198_);}
	.st201{opacity:0.62;clip-path:url(#SVGID_192_);fill:url(#SVGID_199_);}
	.st202{fill:url(#SVGID_200_);}
	.st203{fill:url(#SVGID_201_);}
	.st204{fill:url(#SVGID_202_);}
	.st205{fill:url(#SVGID_203_);}
	.st206{fill:url(#SVGID_204_);}
	.st207{fill:url(#SVGID_205_);}
	.st208{fill:url(#SVGID_206_);}
	.st209{fill:url(#SVGID_207_);}
	.st210{fill:url(#SVGID_208_);}
	.st211{fill:url(#SVGID_209_);}
	.st212{fill-rule:evenodd;clip-rule:evenodd;fill:#FFFFFF;}
	.st213{fill:#72BB6F;}
	.st214{fill:#1DBADF;}
	.st215{fill:url(#SVGID_212_);}
	.st216{fill:url(#SVGID_213_);}
	.st217{fill:url(#SVGID_214_);}
	.st218{fill:url(#SVGID_215_);}
	.st219{fill:url(#SVGID_216_);}
	.st220{fill:url(#SVGID_217_);}
	.st221{fill:url(#SVGID_218_);}
	.st222{fill:url(#SVGID_219_);}
	.st223{fill:url(#SVGID_220_);}
	.st224{fill:url(#SVGID_221_);}
	.st225{fill:url(#SVGID_224_);}
	.st226{fill:url(#SVGID_225_);}
	.st227{fill:url(#SVGID_226_);}
	.st228{fill:url(#SVGID_227_);}
	.st229{fill:url(#SVGID_228_);}
	.st230{fill:url(#SVGID_229_);}
	.st231{fill:url(#SVGID_230_);}
	.st232{fill:url(#SVGID_231_);}
	.st233{fill:url(#SVGID_232_);}
	.st234{fill:url(#SVGID_233_);}
	.st235{fill:url(#SVGID_236_);}
	.st236{fill:url(#SVGID_237_);}
	.st237{fill:url(#SVGID_238_);}
	.st238{fill:url(#SVGID_239_);}
	.st239{fill:url(#SVGID_240_);}
	.st240{fill:url(#SVGID_241_);}
	.st241{fill:url(#SVGID_242_);}
	.st242{fill:url(#SVGID_243_);}
	.st243{fill:url(#SVGID_244_);}
	.st244{fill:url(#SVGID_245_);}
	.st245{fill:url(#SVGID_248_);}
	.st246{fill:url(#SVGID_249_);}
	.st247{fill:url(#SVGID_250_);}
	.st248{fill:url(#SVGID_251_);}
	.st249{fill:url(#SVGID_252_);}
	.st250{fill:url(#SVGID_253_);}
	.st251{fill:url(#SVGID_254_);}
	.st252{fill:url(#SVGID_255_);}
	.st253{fill:url(#SVGID_256_);}
	.st254{fill:url(#SVGID_257_);}
	.st255{clip-path:url(#SVGID_259_);}
	.st256{clip-path:url(#SVGID_261_);}
	.st257{clip-path:url(#SVGID_269_);}
	.st258{clip-path:url(#SVGID_271_);}
	.st259{clip-path:url(#SVGID_273_);}
	.st260{clip-path:url(#SVGID_275_);}
	.st261{fill:#230131;stroke:#230131;stroke-miterlimit:10;}
	.st262{fill:#350030;}
	.st263{fill:url(#SVGID_278_);}
	.st264{fill:url(#SVGID_279_);}
	.st265{fill:url(#SVGID_280_);}
	.st266{fill:url(#SVGID_281_);}
	.st267{fill:url(#SVGID_282_);}
	.st268{fill:url(#SVGID_283_);}
	.st269{fill:url(#SVGID_284_);}
	.st270{fill:url(#SVGID_285_);}
	.st271{fill:url(#SVGID_286_);}
	.st272{fill:url(#SVGID_287_);}
	.st273{fill:#FDCC68;}
	.st274{fill:#8CC15C;}
	.st275{fill:url(#SVGID_288_);}
	.st276{fill:url(#SVGID_289_);}
	.st277{fill:url(#SVGID_290_);}
</style>
<g>
	<g>
		<g>
			<defs>
				<path id="SVGID_274_" d="M497.41,850.72H59.91c-33.14,0-60-26.86-60-60V60c0-33.14,26.86-60,60-60l437.5,0
					c33.14,0,60,26.86,60,60v730.72C557.41,823.86,530.55,850.72,497.41,850.72z"/>
			</defs>
			<clipPath id="SVGID_1_">
				<use xlink:href="#SVGID_274_"  style="overflow:visible;"/>
			</clipPath>
			<g style="clip-path:url(#SVGID_1_);">
				<path class="st24" d="M828.97,93.28c183.42,307.84,82.57,706.08-225.27,889.51c-101.54,60.51-212.92,90.06-323.19,91.47
					l-8.93-648.86L828.97,93.28z"/>
				<path class="st4" d="M280.54,1074.19c-358.31,4.93-652.77-281.53-657.7-639.84c-1.63-118.19,28.47-229.43,93.28-327.88
					l566.39,316.69L280.54,1074.19z"/>
				<path class="st3" d="M828.97,93.28C645.54-214.56,247.3-315.41-60.54-131.99C-123.53-94.46-250.56,29.37-294.81,108.7
					l577.3,314.44L828.97,93.28z"/>
			</g>
		</g>
	</g>
	<g>
		<path class="st2" d="M230.76,572.27c0.5-1.92,1.23-3.26,2.19-4c0.96-0.75,2.4-1.12,4.32-1.12h3.47c2.06,0,3.65,0.61,4.75,1.81
			c1.1,1.21,1.65,2.83,1.65,4.86v27.65c0,1.81-0.49,3.18-1.47,4.11c-0.98,0.92-2.32,1.39-4.03,1.39c-1.71,0-3.05-0.46-4.03-1.39
			c-0.98-0.92-1.47-2.29-1.47-4.11v-18.68h-0.11l-5.55,20.76c-0.36,1.28-0.88,2.17-1.57,2.67s-1.79,0.75-3.28,0.75
			s-2.59-0.25-3.28-0.75s-1.22-1.39-1.57-2.67l-5.55-20.76h-0.11v18.68c0,1.81-0.49,3.18-1.47,4.11c-0.98,0.92-2.32,1.39-4.03,1.39
			c-1.71,0-3.05-0.46-4.03-1.39c-0.98-0.92-1.47-2.29-1.47-4.11v-27.65c0-2.03,0.55-3.65,1.65-4.86c1.1-1.21,2.69-1.81,4.75-1.81
			H214c1.92,0,3.36,0.37,4.32,1.12s1.69,2.08,2.19,4l5.07,19.05h0.11L230.76,572.27z"/>
		<path class="st2" d="M280.04,603.09c-0.52,0.73-1.34,1.39-2.48,1.97c-1.14,0.59-2.63,1.05-4.48,1.39
			c-1.85,0.34-4.06,0.51-6.62,0.51c-2.24,0-4.31-0.29-6.19-0.88c-1.89-0.59-3.54-1.48-4.96-2.7c-1.42-1.21-2.53-2.74-3.31-4.59
			c-0.78-1.85-1.17-4.02-1.17-6.51c0-2.46,0.39-4.61,1.17-6.46c0.78-1.85,1.89-3.38,3.31-4.59c1.42-1.21,3.08-2.11,4.96-2.69
			c1.89-0.59,3.95-0.88,6.19-0.88c2.88,0,5.36,0.43,7.45,1.28c2.08,0.85,3.74,1.95,4.99,3.28c1.24,1.33,2.15,2.71,2.72,4.14
			c0.57,1.42,0.85,2.72,0.85,3.9c0,1.64-0.4,2.79-1.2,3.47c-0.8,0.68-2.09,1.01-3.87,1.01h-15.58c0.14,1.78,0.72,3.19,1.73,4.24
			c1.01,1.05,2.39,1.57,4.14,1.57c0.92,0,1.77-0.15,2.53-0.45c0.76-0.3,1.68-0.75,2.75-1.36c0.92-0.53,1.72-0.93,2.37-1.2
			c0.66-0.27,1.34-0.4,2.05-0.4c0.92,0,1.73,0.37,2.4,1.12c0.68,0.75,1.01,1.58,1.01,2.51
			C280.82,601.59,280.56,602.36,280.04,603.09z M272.12,589.29c0-1.81-0.48-3.14-1.44-3.98c-0.96-0.84-2.19-1.25-3.68-1.25
			c-1.39,0-2.58,0.42-3.58,1.25c-1,0.84-1.53,2.16-1.6,3.98H272.12z"/>
		<path class="st2" d="M300.14,597.19c-0.5-0.43-1.44-0.78-2.83-1.07l-3.26-0.69c-3.81-0.82-6.48-1.93-8.03-3.34
			c-1.55-1.41-2.32-3.19-2.32-5.36c0-1.14,0.23-2.24,0.69-3.31c0.46-1.07,1.24-2.04,2.32-2.91c1.08-0.87,2.54-1.56,4.38-2.08
			c1.83-0.52,4.06-0.77,6.7-0.77c1.67,0,3.3,0.12,4.88,0.35c1.58,0.23,3.01,0.61,4.27,1.12c1.26,0.52,2.27,1.16,3.02,1.92
			c0.75,0.77,1.12,1.66,1.12,2.7c0,0.96-0.34,1.77-1.01,2.43c-0.68,0.66-1.55,0.99-2.61,0.99c-0.75,0-1.41-0.12-1.97-0.37
			c-0.57-0.25-1.25-0.62-2.03-1.12c-1-0.6-1.93-1.08-2.8-1.41c-0.87-0.34-1.93-0.51-3.18-0.51c-2.06,0-3.1,0.66-3.1,1.97
			c0,0.57,0.22,1.01,0.67,1.31c0.44,0.3,1.36,0.61,2.75,0.93l4.64,1.01c3.17,0.71,5.59,1.73,7.26,3.07
			c1.67,1.33,2.51,3.09,2.51,5.26c0,1.28-0.27,2.5-0.8,3.66s-1.38,2.18-2.53,3.07c-1.16,0.89-2.72,1.6-4.7,2.13
			c-1.97,0.53-4.35,0.8-7.12,0.8c-1.81,0-3.52-0.13-5.12-0.4s-3.02-0.68-4.27-1.25c-1.25-0.57-2.22-1.29-2.94-2.16
			c-0.71-0.87-1.07-1.86-1.07-2.96c0-0.92,0.38-1.72,1.15-2.38c0.76-0.66,1.68-0.99,2.75-0.99c0.6,0,1.16,0.13,1.68,0.4
			c0.52,0.27,1.15,0.67,1.89,1.2c1.07,0.82,2.05,1.43,2.96,1.84c0.91,0.41,2.02,0.61,3.34,0.61c1.1,0,1.96-0.22,2.56-0.67
			c0.6-0.44,0.91-0.95,0.91-1.52C300.88,598.12,300.63,597.62,300.14,597.19z"/>
		<path class="st2" d="M344.43,598.1c0,0.68,0.05,1.65,0.16,2.94c0.11,0.93,0.16,1.6,0.16,2.03c0,1.28-0.5,2.25-1.49,2.91
			c-1,0.66-2.21,0.99-3.63,0.99c-1.78,0-3.1-0.39-3.95-1.17c-0.85-0.78-1.39-1.87-1.6-3.26c-1,1.53-2.38,2.65-4.14,3.36
			c-1.76,0.71-3.66,1.07-5.68,1.07c-3.2,0-5.74-0.7-7.61-2.11c-1.87-1.4-2.8-3.58-2.8-6.54c0-1.21,0.23-2.3,0.69-3.28
			c0.46-0.98,1.24-1.86,2.32-2.64c1.08-0.78,2.54-1.41,4.38-1.89c1.83-0.48,4.08-0.81,6.75-0.99c2.13-0.14,3.63-0.41,4.48-0.8
			c0.85-0.39,1.28-1.03,1.28-1.92c0-1.81-1.48-2.72-4.43-2.72c-1.1,0-2.04,0.17-2.8,0.51c-0.77,0.34-1.65,0.86-2.64,1.57
			c-0.82,0.57-1.52,1-2.11,1.28c-0.59,0.29-1.27,0.43-2.05,0.43c-2.31,0-3.47-1.14-3.47-3.42c0-2.03,1.26-3.66,3.79-4.91
			c2.53-1.25,5.73-1.87,9.61-1.87c1.67,0,3.34,0.12,5.02,0.35c1.67,0.23,3.26,0.65,4.75,1.25c1.49,0.61,2.7,1.45,3.63,2.54
			c0.92,1.09,1.39,2.45,1.39,4.08V598.1z M333.76,593.72c-0.43,0.46-0.99,0.79-1.68,0.99c-0.69,0.2-1.59,0.38-2.7,0.56
			c-1.35,0.21-2.26,0.41-2.72,0.59c-1,0.39-1.49,1.16-1.49,2.29c0,0.78,0.33,1.43,0.99,1.95c0.66,0.52,1.45,0.77,2.38,0.77
			c1.53,0,2.78-0.4,3.76-1.2c0.98-0.8,1.47-1.73,1.47-2.8V593.72z"/>
		<path class="st2" d="M58.33,653.46c1.6-3.81,3.81-7,6.64-9.56c2.83-2.56,6.01-4.47,9.56-5.72c3.55-1.25,7.27-1.88,11.16-1.88
			c3.31,0,6.41,0.44,9.32,1.32c2.91,0.88,5.45,2.09,7.64,3.64c2.19,1.55,3.88,3.29,5.08,5.24c1.2,1.95,1.8,3.96,1.8,6.04
			c0,2.29-0.81,4.19-2.44,5.68c-1.63,1.49-3.72,2.24-6.28,2.24c-1.71,0-3-0.29-3.88-0.88c-0.88-0.59-1.93-1.89-3.16-3.92
			c-1.17-1.87-2.44-3.16-3.8-3.88c-1.36-0.72-3.11-1.08-5.24-1.08c-2.99,0-5.47,1.4-7.44,4.2c-1.97,2.8-2.96,6.65-2.96,11.56
			c0,4.85,0.96,8.69,2.88,11.52c1.92,2.83,4.75,4.24,8.48,4.24c1.71,0,3.13-0.39,4.28-1.16c1.15-0.77,2.63-2.41,4.44-4.92
			c1.81-2.56,4.05-3.84,6.72-3.84c2.45,0,4.49,0.76,6.12,2.28c1.63,1.52,2.44,3.45,2.44,5.8c0,2.4-0.73,4.61-2.2,6.64
			c-1.47,2.03-3.4,3.75-5.8,5.16c-2.4,1.41-5.01,2.51-7.84,3.28c-2.83,0.77-5.55,1.16-8.16,1.16c-4,0-7.77-0.61-11.32-1.84
			c-3.55-1.23-6.71-3.08-9.48-5.56c-2.77-2.48-4.96-5.64-6.56-9.48c-1.6-3.84-2.4-8.27-2.4-13.28
			C55.93,661.61,56.73,657.28,58.33,653.46z"/>
		<path class="st2" d="M113.45,664.62c1.17-2.77,2.83-5.07,4.96-6.88c2.13-1.81,4.61-3.16,7.44-4.04c2.83-0.88,5.92-1.32,9.28-1.32
			c3.36,0,6.45,0.44,9.28,1.32c2.83,0.88,5.31,2.23,7.44,4.04c2.13,1.81,3.79,4.11,4.96,6.88c1.17,2.77,1.76,6,1.76,9.68
			c0,3.73-0.59,6.99-1.76,9.76c-1.17,2.77-2.83,5.07-4.96,6.88c-2.13,1.81-4.61,3.16-7.44,4.04c-2.83,0.88-5.92,1.32-9.28,1.32
			c-3.36,0-6.45-0.44-9.28-1.32c-2.83-0.88-5.31-2.23-7.44-4.04c-2.13-1.81-3.79-4.11-4.96-6.88c-1.17-2.77-1.76-6.03-1.76-9.76
			C111.69,670.62,112.27,667.4,113.45,664.62z M140.29,666.22c-1.2-1.87-2.92-2.8-5.16-2.8s-3.96,0.93-5.16,2.8
			c-1.2,1.87-1.8,4.72-1.8,8.56c0,6.99,2.32,10.48,6.96,10.48c4.64,0,6.96-3.49,6.96-10.48
			C142.09,670.94,141.49,668.09,140.29,666.22z"/>
		<path class="st2" d="M217.77,672.38c0-2.56-0.44-4.37-1.32-5.44c-0.88-1.07-2.25-1.6-4.12-1.6c-1.44,0-2.72,0.69-3.84,2.08
			c-1.12,1.39-1.68,3.2-1.68,5.44v15.28c0,2.67-0.75,4.69-2.24,6.08c-1.49,1.39-3.49,2.08-6,2.08c-2.51,0-4.51-0.69-6-2.08
			c-1.49-1.39-2.24-3.41-2.24-6.08v-15.76c0-2.56-0.44-4.37-1.32-5.44c-0.88-1.07-2.25-1.6-4.12-1.6c-1.44,0-2.72,0.69-3.84,2.08
			c-1.12,1.39-1.68,3.2-1.68,5.44v15.28c0,2.67-0.75,4.69-2.24,6.08c-1.49,1.39-3.49,2.08-6,2.08c-2.51,0-4.51-0.69-6-2.08
			c-1.49-1.39-2.24-3.41-2.24-6.08v-27.92c0-5.23,2.64-7.84,7.92-7.84c2.35,0,4.09,0.64,5.24,1.92c1.15,1.28,1.85,3.23,2.12,5.84
			h0.16c2.83-5.17,7.36-7.76,13.6-7.76c2.93,0,5.56,0.68,7.88,2.04c2.32,1.36,3.83,3.37,4.52,6.04c1.71-2.88,3.71-4.95,6-6.2
			c2.29-1.25,4.93-1.88,7.92-1.88c5.39,0,9.4,1.48,12.04,4.44c2.64,2.96,3.96,6.87,3.96,11.72v19.6c0,2.67-0.75,4.69-2.24,6.08
			c-1.49,1.39-3.49,2.08-6,2.08c-2.51,0-4.51-0.69-6-2.08c-1.49-1.39-2.24-3.41-2.24-6.08V672.38z"/>
		<path class="st2" d="M239.45,644.86c0-2.77,0.68-4.84,2.04-6.2c1.36-1.36,3.35-2.04,5.96-2.04c2.61,0,4.6,0.68,5.96,2.04
			c1.36,1.36,2.04,3.43,2.04,6.2v13.92h0.16c1.28-2.03,2.88-3.6,4.8-4.72c1.92-1.12,4.19-1.68,6.8-1.68c3.25,0,6.07,0.71,8.44,2.12
			c2.37,1.41,4.28,3.25,5.72,5.52c1.44,2.27,2.48,4.64,3.12,7.12c0.64,2.48,0.96,4.84,0.96,7.08c0,6.77-1.68,12.15-5.04,16.12
			c-3.36,3.97-7.92,5.96-13.68,5.96c-2.72,0-5.33-0.64-7.84-1.92c-2.51-1.28-4.08-3.15-4.72-5.6h-0.16c0,2.19-0.63,3.99-1.88,5.4
			c-1.25,1.41-3.03,2.12-5.32,2.12c-4.91,0-7.36-2.67-7.36-8V644.86z M256.81,681.66c1.07,1.76,2.75,2.64,5.04,2.64
			c1.33,0,2.47-0.27,3.4-0.8c0.93-0.53,1.67-1.25,2.2-2.16c0.53-0.91,0.92-1.92,1.16-3.04c0.24-1.12,0.36-2.29,0.36-3.52
			c0-2.72-0.59-4.97-1.76-6.76c-1.17-1.79-3.07-2.68-5.68-2.68c-1.87,0-3.39,0.8-4.56,2.4c-1.17,1.6-1.76,3.81-1.76,6.64
			C255.21,677.48,255.74,679.9,256.81,681.66z"/>
		<path class="st2" d="M289.77,660.54c0-2.67,0.75-4.69,2.24-6.08c1.49-1.39,3.49-2.08,6-2.08c2.51,0,4.51,0.69,6,2.08
			c1.49,1.39,2.24,3.41,2.24,6.08v27.6c0,2.67-0.75,4.69-2.24,6.08c-1.49,1.39-3.49,2.08-6,2.08c-2.51,0-4.51-0.69-6-2.08
			c-1.49-1.39-2.24-3.41-2.24-6.08V660.54z M292.49,636.06c1.49-1.49,3.33-2.24,5.52-2.24c2.19,0,4.03,0.75,5.52,2.24
			c1.49,1.49,2.24,3.33,2.24,5.52c0,2.19-0.75,4.03-2.24,5.52c-1.49,1.49-3.33,2.24-5.52,2.24c-2.19,0-4.03-0.75-5.52-2.24
			c-1.49-1.49-2.24-3.33-2.24-5.52C290.25,639.4,290.99,637.56,292.49,636.06z"/>
		<path class="st2" d="M340.08,672.38c0-4.69-2.03-7.04-6.08-7.04c-1.97,0-3.48,0.72-4.52,2.16c-1.04,1.44-1.56,3.44-1.56,6v14.64
			c0,2.67-0.75,4.69-2.24,6.08c-1.49,1.39-3.49,2.08-6,2.08c-2.51,0-4.51-0.69-6-2.08c-1.49-1.39-2.24-3.41-2.24-6.08v-27.92
			c0-5.23,2.64-7.84,7.92-7.84c2.35,0,4.09,0.64,5.24,1.92c1.15,1.28,1.85,3.23,2.12,5.84h0.16c2.83-5.17,7.36-7.76,13.6-7.76
			c5.44,0,9.48,1.48,12.12,4.44s3.96,6.87,3.96,11.72v19.6c0,2.67-0.75,4.69-2.24,6.08c-1.49,1.39-3.49,2.08-6,2.08
			c-2.51,0-4.51-0.69-6-2.08c-1.49-1.39-2.24-3.41-2.24-6.08V672.38z"/>
		<path class="st2" d="M406.64,683.02c0,1.01,0.08,2.48,0.24,4.4c0.16,1.39,0.24,2.4,0.24,3.04c0,1.92-0.75,3.37-2.24,4.36
			c-1.49,0.99-3.31,1.48-5.44,1.48c-2.67,0-4.64-0.59-5.92-1.76c-1.28-1.17-2.08-2.8-2.4-4.88c-1.49,2.29-3.56,3.97-6.2,5.04
			c-2.64,1.07-5.48,1.6-8.52,1.6c-4.8,0-8.6-1.05-11.4-3.16c-2.8-2.11-4.2-5.37-4.2-9.8c0-1.81,0.35-3.45,1.04-4.92
			c0.69-1.47,1.85-2.79,3.48-3.96c1.63-1.17,3.81-2.12,6.56-2.84c2.75-0.72,6.12-1.21,10.12-1.48c3.2-0.21,5.44-0.61,6.72-1.2
			c1.28-0.59,1.92-1.55,1.92-2.88c0-2.72-2.21-4.08-6.64-4.08c-1.65,0-3.05,0.25-4.2,0.76c-1.15,0.51-2.47,1.29-3.96,2.36
			c-1.23,0.85-2.28,1.49-3.16,1.92c-0.88,0.43-1.91,0.64-3.08,0.64c-3.47,0-5.2-1.71-5.2-5.12c0-3.04,1.89-5.49,5.68-7.36
			c3.79-1.87,8.59-2.8,14.4-2.8c2.51,0,5.01,0.17,7.52,0.52c2.51,0.35,4.88,0.97,7.12,1.88c2.24,0.91,4.05,2.17,5.44,3.8
			c1.39,1.63,2.08,3.67,2.08,6.12V683.02z M390.64,676.46c-0.64,0.69-1.48,1.19-2.52,1.48c-1.04,0.29-2.39,0.57-4.04,0.84
			c-2.03,0.32-3.39,0.61-4.08,0.88c-1.49,0.59-2.24,1.73-2.24,3.44c0,1.17,0.49,2.15,1.48,2.92c0.99,0.77,2.17,1.16,3.56,1.16
			c2.29,0,4.17-0.6,5.64-1.8c1.47-1.2,2.2-2.6,2.2-4.2V676.46z"/>
		<path class="st2" d="M440.72,644.86c0-2.77,0.68-4.84,2.04-6.2c1.36-1.36,3.35-2.04,5.96-2.04c2.61,0,4.6,0.68,5.96,2.04
			c1.36,1.36,2.04,3.43,2.04,6.2v43.44c0,5.33-2.45,8-7.36,8c-2.29,0-4.07-0.71-5.32-2.12c-1.25-1.41-1.88-3.21-1.88-5.4H442
			c-0.64,2.45-2.21,4.32-4.72,5.6c-2.51,1.28-5.12,1.92-7.84,1.92c-5.76,0-10.32-1.99-13.68-5.96c-3.36-3.97-5.04-9.35-5.04-16.12
			c0-2.24,0.32-4.6,0.96-7.08c0.64-2.48,1.69-4.85,3.16-7.12c1.47-2.27,3.37-4.11,5.72-5.52c2.35-1.41,5.15-2.12,8.4-2.12
			c2.61,0,4.88,0.56,6.8,1.68c1.92,1.12,3.52,2.69,4.8,4.72h0.16V644.86z M439.2,667.74c-1.17-1.6-2.69-2.4-4.56-2.4
			c-2.61,0-4.51,0.89-5.68,2.68c-1.17,1.79-1.76,4.04-1.76,6.76c0,1.23,0.12,2.39,0.36,3.48c0.24,1.09,0.63,2.11,1.16,3.04
			c0.53,0.93,1.27,1.67,2.2,2.2c0.93,0.53,2.07,0.8,3.4,0.8c2.29,0,3.97-0.88,5.04-2.64c1.07-1.76,1.6-4.19,1.6-7.28
			C440.96,671.56,440.38,669.34,439.2,667.74z"/>
		<path class="st2" d="M506.8,683.02c0,1.01,0.08,2.48,0.24,4.4c0.16,1.39,0.24,2.4,0.24,3.04c0,1.92-0.75,3.37-2.24,4.36
			c-1.49,0.99-3.31,1.48-5.44,1.48c-2.67,0-4.64-0.59-5.92-1.76c-1.28-1.17-2.08-2.8-2.4-4.88c-1.49,2.29-3.56,3.97-6.2,5.04
			c-2.64,1.07-5.48,1.6-8.52,1.6c-4.8,0-8.6-1.05-11.4-3.16c-2.8-2.11-4.2-5.37-4.2-9.8c0-1.81,0.35-3.45,1.04-4.92
			c0.69-1.47,1.85-2.79,3.48-3.96c1.63-1.17,3.81-2.12,6.56-2.84c2.75-0.72,6.12-1.21,10.12-1.48c3.2-0.21,5.44-0.61,6.72-1.2
			c1.28-0.59,1.92-1.55,1.92-2.88c0-2.72-2.21-4.08-6.64-4.08c-1.65,0-3.05,0.25-4.2,0.76c-1.15,0.51-2.47,1.29-3.96,2.36
			c-1.23,0.85-2.28,1.49-3.16,1.92c-0.88,0.43-1.91,0.64-3.08,0.64c-3.47,0-5.2-1.71-5.2-5.12c0-3.04,1.89-5.49,5.68-7.36
			c3.79-1.87,8.59-2.8,14.4-2.8c2.51,0,5.01,0.17,7.52,0.52c2.51,0.35,4.88,0.97,7.12,1.88c2.24,0.91,4.05,2.17,5.44,3.8
			c1.39,1.63,2.08,3.67,2.08,6.12V683.02z M490.8,676.46c-0.64,0.69-1.48,1.19-2.52,1.48c-1.04,0.29-2.39,0.57-4.04,0.84
			c-2.03,0.32-3.39,0.61-4.08,0.88c-1.49,0.59-2.24,1.73-2.24,3.44c0,1.17,0.49,2.15,1.48,2.92c0.99,0.77,2.17,1.16,3.56,1.16
			c2.29,0,4.17-0.6,5.64-1.8c1.47-1.2,2.2-2.6,2.2-4.2V676.46z"/>
	</g>
	<g>
		<polygon class="st24" points="266.91,480.66 235.8,488.91 253.02,517.25 264.01,528.97 280.97,504.98 274.09,485.67 		"/>
		<path class="st24" d="M386.84,373.01l-13.65,29.86l12.82,25.33l33.91-17.1c0,0-8.78-13.6-10.66-15.15
			c-1.88-1.55-17.4-22.94-17.4-22.94H386.84z"/>
		<g>
			<path class="st1" d="M370.71,372.1H258.4c-9.25,0-16.99-7.03-17.87-16.24l-6.07-63.64c-1.01-10.54,7.28-19.65,17.87-19.65h124.46
				c10.59,0,18.87,9.11,17.87,19.65l-6.07,63.64C387.7,365.07,379.96,372.1,370.71,372.1z"/>
			<polygon class="st3" points="270.22,310.27 279.06,372.1 314.55,368.95 317.88,311.39 			"/>
			<path class="st3" d="M352.98,312.29l-2.07,56.66c0,0,26.71-2.32,28.41-1.92c1.7,0.4,8.89-21.16,10.31-22.3
				c1.42-1.14-1.29-45.65-1.29-45.65L352.98,312.29z"/>
			<path class="st2" d="M370.71,380H258.39c-13.39,0-24.46-10.06-25.73-23.39l-6.07-63.64c-0.69-7.23,1.72-14.47,6.6-19.84
				c4.89-5.38,11.86-8.46,19.12-8.46h124.46c7.27,0,14.24,3.08,19.13,8.46c4.89,5.38,7.29,12.61,6.6,19.84l-6.07,63.64
				C395.17,369.94,384.11,380,370.71,380z M252.32,280.47c-2.87,0-5.51,1.17-7.43,3.29c-1.93,2.12-2.84,4.86-2.57,7.72l6.07,63.64
				c0.5,5.19,4.8,9.1,10.01,9.1h112.32c5.21,0,9.51-3.91,10.01-9.1l6.07-63.64c0.27-2.85-0.64-5.59-2.57-7.71
				c-1.93-2.12-4.57-3.29-7.44-3.29H252.32z"/>
			<g>
				<path class="st3" d="M416.17,271.03c0,22.79-45.5,41.26-101.62,41.26s-101.62-18.47-101.62-41.26s45.5-72.28,101.62-72.28
					S416.17,248.24,416.17,271.03z"/>
				<path class="st2" d="M314.55,320.18c-53.09,0-109.51-17.23-109.51-49.16c0-27.1,49.58-80.18,109.51-80.18
					s109.51,53.09,109.51,80.18C424.07,302.96,367.64,320.18,314.55,320.18z M314.55,206.64c-52.16,0-93.72,46.24-93.72,64.39
					c0,15.75,40.08,33.36,93.72,33.36s93.72-17.61,93.72-33.36C408.27,252.88,366.71,206.64,314.55,206.64z"/>
			</g>
			<g>
				<path class="st1" d="M389.87,249.44H239.24c-3.52,0-6.38-2.86-6.38-6.38v-27.64c0-3.52,2.86-6.38,6.38-6.38h150.63
					c3.52,0,6.38,2.86,6.38,6.38v27.64C396.25,246.58,393.39,249.44,389.87,249.44z"/>
				<path class="st2" d="M379.46,257.33H249.65c-13.61,0-24.69-11.07-24.69-24.69v-6.82c0-13.61,11.07-24.69,24.69-24.69h129.81
					c13.61,0,24.69,11.07,24.69,24.69v6.82C404.15,246.26,393.07,257.33,379.46,257.33z M249.65,216.94c-4.9,0-8.89,3.99-8.89,8.89
					v6.82c0,4.9,3.99,8.89,8.89,8.89h129.81c4.9,0,8.89-3.99,8.89-8.89v-6.82c0-4.9-3.99-8.89-8.89-8.89H249.65z"/>
			</g>
			<g>
				<path class="st1" d="M356.82,177.49c0,0-1.62-0.86-4.81-1.48c-0.15-0.03-0.29-0.08-0.45-0.1l-0.65-0.11
					c-23.47-5.03-41.07-25.87-41.07-50.84c-28.73,0-52.01,23.29-52.01,52.01l0.05,10.62c-0.23,11.63,8.01,22.02,19.82,24.09
					l65.56,11.5c13.06,2.29,25.5-6.44,27.79-19.49v0C373.03,192.5,366.86,181.76,356.82,177.49z"/>
				<path class="st2" d="M347.49,231.46c-1.85,0-3.71-0.16-5.58-0.49l-65.56-11.5c-15.58-2.74-26.67-16.21-26.35-32.03l-0.05-10.43
					c0-33.07,26.88-59.95,59.91-59.95h7.9v7.9c0,20.61,14.58,38.71,34.69,43.09l1.29,0.26c3.25,0.62,5.45,1.55,6.42,2.02
					c13.58,5.9,21.26,20.15,18.7,34.74c-1.47,8.39-6.12,15.71-13.1,20.6C360.31,229.48,353.98,231.46,347.49,231.46z M302.56,133.46
					c-20.87,3.48-36.83,21.67-36.83,43.52l0.05,10.59c-0.16,8.18,5.43,14.97,13.29,16.35l65.56,11.5c4.23,0.75,8.51-0.21,12.03-2.68
					c3.52-2.47,5.87-6.16,6.61-10.4c1.3-7.41-2.63-14.64-9.55-17.58l-0.49-0.22c-0.21-0.09-1.13-0.46-2.72-0.76l-1.26-0.25
					C324.65,178.25,306.1,157.87,302.56,133.46z"/>
			</g>
			<g>
				<g>
					
						<rect x="267.56" y="309.87" transform="matrix(0.9933 -0.1154 0.1154 0.9933 -37.5241 34.0694)" class="st2" width="15.79" height="62.44"/>
				</g>
				<g>
					
						<rect x="322.43" y="333.2" transform="matrix(0.1154 -0.9933 0.9933 0.1154 -25.9815 653.0087)" class="st2" width="62.44" height="15.79"/>
				</g>
				<g>
					<rect x="306.66" y="312.29" class="st2" width="15.79" height="59.81"/>
				</g>
			</g>
		</g>
		<g>
			<g>
				<path class="st1" d="M109.85,167.43L109.85,167.43c-7.53,2.33-12.24,8.76-10.5,14.37l38.59,124.81
					c1.73,5.61,9.25,8.26,16.78,5.93l0,0c7.53-2.33,12.24-8.76,10.5-14.37l-38.59-124.81C124.9,167.76,117.39,165.1,109.85,167.43z"
					/>
				<path class="st2" d="M150.14,321.29c-9.23,0.36-17.28-4.37-19.74-12.34L91.81,184.13c-3.06-9.93,3.84-20.58,15.72-24.25
					c11.88-3.67,23.59,1.22,26.66,11.14l38.59,124.81c3.06,9.93-3.84,20.58-15.72,24.25C154.72,320.81,152.39,321.2,150.14,321.29z
					 M114.94,174.49c-0.82,0.03-1.74,0.18-2.75,0.49l0,0c-4.07,1.26-5.44,3.99-5.29,4.49l38.59,124.81c0.15,0.5,2.84,1.98,6.9,0.72
					c4.07-1.26,5.45-3.99,5.29-4.49L119.09,175.7C118.98,175.32,117.43,174.39,114.94,174.49z"/>
			</g>
			<path class="st4" d="M246.12,333.67c16.45,53.2-10.37,96.27-55.56,110.25c-45.19,13.97-91.64-6.45-108.09-59.65
				c-16.45-53.2,18.73-69.23,63.92-83.2C191.59,287.1,229.67,280.48,246.12,333.67z"/>
			<polygon class="st1" points="171.51,299.08 205.04,347.04 216.36,402.87 243.11,401.93 248.66,361.15 234.27,309.17 
				206.32,289.21 173.5,293.65 			"/>
			<path class="st2" d="M166.73,456c-15.73,0.61-31.02-2.66-44.62-9.71c-22.37-11.59-38.69-32.23-47.18-59.69
				c-20.23-65.44,33.55-82.07,69.13-93.08c25.63-7.92,46.39-12.51,64.43-9.1c21.91,4.13,36.68,19.48,45.17,46.92
				c8.49,27.46,6.67,53.71-5.25,75.9c-11.24,20.92-30.96,36.63-55.52,44.22C184.18,454.16,175.39,455.67,166.73,456z M192.93,299.13
				c-12.43,0.48-27.03,4.18-44.2,9.49c-50.33,15.56-71.95,30.5-58.71,73.32c7.21,23.33,20.82,40.73,39.35,50.33
				c17.38,9.01,38.29,10.46,58.86,4.1c20.57-6.36,37-19.36,46.27-36.61c9.88-18.39,11.29-40.44,4.08-63.76l0,0
				c-8.78-28.4-23.04-34.18-33-36.06C201.63,299.2,197.42,298.96,192.93,299.13z"/>
			<g>
				<path class="st2" d="M199.36,448.69c-2.36,0.09-4.73-0.87-6.36-2.82c-2.8-3.34-2.37-8.32,0.97-11.13
					c14.85-12.46,16.3-34.77,4.68-72.33c-10.41-33.66-28.3-56.04-38.91-57.48c-4.32-0.59-7.35-4.56-6.76-8.89
					c0.58-4.32,4.56-7.35,8.89-6.77c22.15,3,42.01,36.55,51.88,68.46c9.26,29.96,16.54,67.16-9.62,89.1
					C202.73,448.02,201.05,448.62,199.36,448.69z"/>
			</g>
			<g>
				<circle class="st2" cx="113.88" cy="377.06" r="10.03"/>
			</g>
			<g>
				<circle class="st2" cx="145.83" cy="366.41" r="10.03"/>
			</g>
			<g>
				<circle class="st2" cx="119.44" cy="342.12" r="10.03"/>
			</g>
			<g>
				<g>
					<path class="st1" d="M291.73,395.95l-141.88,13.8c3.03,31.13,37.24,53.27,76.42,49.46
						C265.46,455.4,294.76,427.08,291.73,395.95z"/>
					<path class="st2" d="M217.6,467.53c-39.41,0-72.41-24.19-75.61-57.02l-0.76-7.86l157.6-15.33l0.77,7.86
						c3.44,35.41-29.11,67.66-72.55,71.88C223.86,467.38,220.71,467.53,217.6,467.53z M159.31,416.77
						c7.13,22.54,34.87,37.63,66.21,34.59c31.3-3.05,55.64-23.2,58.3-46.7L159.31,416.77z"/>
				</g>
			</g>
		</g>
		<g>
			<g>
				<path class="st1" d="M298.94,511.61l-36.66-48.22c-2.9-3.81-2.16-9.25,1.65-12.15l81.53-62.04c3.81-2.9,9.25-2.16,12.15,1.65
					l36.66,48.22c2.9,3.81,2.16,9.25-1.65,12.15l-81.53,62.04C307.28,516.16,301.84,515.42,298.94,511.61z"/>
				<path class="st2" d="M308.6,517.25c-1.4,0-2.8-0.1-4.2-0.29c-8.13-1.11-15.35-5.31-20.32-11.85l-19.53-25.69
					c-10.25-13.48-7.62-32.79,5.85-43.04l59-44.9c6.53-4.97,14.59-7.1,22.74-5.99c8.13,1.11,15.35,5.31,20.32,11.85l19.53,25.69
					c10.25,13.48,7.62,32.79-5.85,43.04l-59,44.9C321.74,515.08,315.28,517.25,308.6,517.25z M347.98,401
					c-3.24,0-6.38,1.05-9.01,3.05l-59,44.9c-6.55,4.98-7.82,14.37-2.84,20.91l19.53,25.69c2.42,3.18,5.92,5.22,9.87,5.76
					c3.95,0.54,7.88-0.5,11.05-2.91l59-44.9c6.55-4.98,7.82-14.36,2.84-20.91l-19.53-25.69c-2.41-3.17-5.92-5.22-9.87-5.76
					C349.34,401.05,348.65,401,347.98,401z"/>
			</g>
			<g>
				<polygon class="st24" points="323.26,504 294.06,428.3 333.29,398.45 362.49,474.15 				"/>
				<path class="st2" d="M323.26,511.89c-0.72,0-1.44-0.1-2.15-0.3c-2.39-0.68-4.32-2.44-5.22-4.76l-29.2-75.69
					c-1.26-3.28-0.21-7,2.59-9.13l39.23-29.85c1.98-1.51,4.55-1.99,6.93-1.31c2.39,0.68,4.32,2.44,5.22,4.76l29.2,75.69
					c1.26,3.28,0.21,7-2.59,9.13l-39.22,29.85C326.65,511.34,324.97,511.89,323.26,511.89z M303.56,431l23.28,60.35l26.14-19.89
					L329.7,411.1L303.56,431z"/>
			</g>
			<g>
				<g>
					<path class="st1" d="M422.17,413.54c-4.07-5.35-0.65-7.95-4.71-13.3c-4.06-5.35-7.48-2.74-11.55-8.09
						c-4.07-5.35-0.65-7.95-4.72-13.3c-4.07-5.35-7.49-2.75-11.55-8.1"/>
				</g>
				<g>
					<path class="st2" d="M382.96,432.09c-2.43,0-4.77-1.12-6.29-3.12l-14.05-18.48c-1.94-2.56-2.14-6.04-0.51-8.81l20.73-34.96
						c1.34-2.26,3.72-3.71,6.34-3.86c2.65-0.15,5.15,1.01,6.74,3.1c0.64,0.84,0.76,0.88,2.21,1.42c2.35,0.86,5.91,2.17,9.34,6.68
						c3.43,4.51,3.74,8.29,3.94,10.79c0.13,1.55,0.14,1.67,0.77,2.51c0.63,0.84,0.76,0.88,2.21,1.41c2.35,0.86,5.91,2.17,9.34,6.68
						c3.43,4.51,3.74,8.29,3.94,10.79c0.13,1.55,0.14,1.67,0.77,2.51c1.59,2.09,2.03,4.83,1.19,7.32c-0.85,2.49-2.87,4.39-5.41,5.08
						l-39.21,10.65C384.35,432,383.65,432.09,382.96,432.09z M378.42,405.17l7.61,10.01l25.97-7.06c-0.02-0.2-0.03-0.4-0.05-0.59
						c-0.13-1.55-0.14-1.67-0.77-2.51c-0.63-0.83-0.75-0.88-2.21-1.41c-2.35-0.86-5.91-2.17-9.34-6.68
						c-3.43-4.51-3.74-8.29-3.94-10.79c-0.13-1.55-0.14-1.68-0.77-2.51c-0.63-0.84-0.75-0.88-2.21-1.42
						c-0.18-0.06-0.36-0.13-0.55-0.2L378.42,405.17z"/>
				</g>
			</g>
			<g>
				<g>
					<path class="st1" d="M234.37,488.91c4.07,5.35,0.65,7.95,4.71,13.3c4.06,5.35,7.48,2.74,11.55,8.09
						c4.07,5.35,0.65,7.95,4.72,13.3c4.07,5.35,7.49,2.75,11.55,8.1"/>
				</g>
				<g>
					<path class="st2" d="M266.91,539.6c-2.46,0-4.79-1.15-6.29-3.12c-0.63-0.84-0.76-0.88-2.21-1.42
						c-2.35-0.86-5.91-2.17-9.34-6.68c-3.43-4.51-3.74-8.29-3.94-10.79c-0.13-1.55-0.14-1.67-0.77-2.51
						c-0.63-0.83-0.75-0.88-2.21-1.41c-2.35-0.86-5.91-2.17-9.34-6.68c-3.43-4.51-3.74-8.29-3.94-10.79
						c-0.13-1.55-0.14-1.67-0.77-2.51c-1.59-2.09-2.04-4.84-1.19-7.32c0.85-2.49,2.87-4.39,5.41-5.08l39.21-10.65
						c3.09-0.84,6.41,0.28,8.35,2.84l14.05,18.48c1.95,2.56,2.15,6.04,0.51,8.81l-20.73,34.96c-1.34,2.26-3.71,3.71-6.34,3.86
						C267.21,539.6,267.06,539.6,266.91,539.6z M244.55,494.33c0.02,0.2,0.03,0.4,0.05,0.59c0.13,1.55,0.14,1.67,0.77,2.51
						c0.63,0.83,0.75,0.88,2.21,1.41c2.35,0.86,5.91,2.17,9.34,6.68c3.43,4.51,3.74,8.29,3.94,10.79c0.13,1.55,0.14,1.68,0.77,2.52
						c0.64,0.84,0.76,0.88,2.21,1.42c0.17,0.06,0.36,0.13,0.55,0.2l13.73-23.16l-7.61-10.01L244.55,494.33z"/>
				</g>
			</g>
		</g>
	</g>
</g>
</svg>
