<?xml version="1.0" encoding="utf-8"?>
<!-- Generator: Adobe Illustrator 23.0.5, SVG Export Plug-In . SVG Version: 6.00 Build 0)  -->
<svg version="1.1" id="Capa_1" xmlns="http://www.w3.org/2000/svg" xmlns:xlink="http://www.w3.org/1999/xlink" x="0px" y="0px"
	 viewBox="0 0 763.71 377.59" style="enable-background:new 0 0 763.71 377.59;" xml:space="preserve">
<style type="text/css">
	.st0{fill:url(#SVGID_1_);}
	.st1{fill:#FFFFFF;}
	.st2{fill:#230131;}
	.st3{fill:#CB88A1;}
	.st4{fill:#C24131;}
	.st5{fill:#BE1622;}
	.st6{fill:#935EA3;}
	.st7{fill:none;}
	.st8{fill:none;stroke:#FFFFFF;stroke-width:2;stroke-miterlimit:10;}
	.st9{fill:#E9B6A3;}
	.st10{opacity:0.9;fill:#230131;}
	.st11{opacity:0.24;fill:url(#SVGID_2_);}
	.st12{fill:#BF1A1B;}
	.st13{fill:#FFEC00;}
	.st14{fill:url(#SVGID_3_);}
	.st15{fill:url(#SVGID_4_);}
	.st16{fill:url(#SVGID_5_);}
	.st17{fill:url(#SVGID_6_);}
	.st18{fill:url(#SVGID_7_);}
	.st19{fill:url(#SVGID_8_);}
	.st20{fill:url(#SVGID_9_);}
	.st21{fill:url(#SVGID_10_);}
	.st22{fill:url(#SVGID_11_);}
	.st23{fill:url(#SVGID_12_);}
	.st24{fill:#E9C064;}
	.st25{fill:#E9C064;stroke:#FFFFFF;stroke-width:20;stroke-miterlimit:10;}
	.st26{clip-path:url(#SVGID_14_);}
	.st27{fill:url(#SVGID_15_);}
	.st28{fill:url(#SVGID_16_);}
	.st29{fill:url(#SVGID_17_);}
	.st30{fill:url(#SVGID_18_);}
	.st31{fill:url(#SVGID_19_);}
	.st32{fill:url(#SVGID_20_);}
	.st33{fill:url(#SVGID_21_);}
	.st34{fill:url(#SVGID_22_);}
	.st35{fill:url(#SVGID_23_);}
	.st36{fill:url(#SVGID_24_);}
	.st37{fill:url(#SVGID_25_);}
	.st38{fill:url(#SVGID_26_);}
	.st39{fill:url(#SVGID_27_);}
	.st40{opacity:0.24;fill:url(#SVGID_28_);}
	.st41{fill:url(#SVGID_29_);}
	.st42{fill:url(#SVGID_30_);}
	.st43{fill:url(#SVGID_31_);}
	.st44{opacity:0.24;fill:url(#SVGID_32_);}
	.st45{fill:url(#SVGID_33_);}
	.st46{fill:url(#SVGID_34_);}
	.st47{fill:url(#SVGID_35_);}
	.st48{opacity:0.24;fill:url(#SVGID_36_);}
	.st49{clip-path:url(#SVGID_38_);}
	.st50{opacity:0.63;clip-path:url(#SVGID_38_);fill:url(#SVGID_41_);}
	.st51{opacity:0;clip-path:url(#SVGID_38_);fill:url(#SVGID_42_);}
	.st52{opacity:0.22;clip-path:url(#SVGID_38_);fill:url(#SVGID_43_);}
	.st53{fill:url(#SVGID_44_);}
	.st54{clip-path:url(#SVGID_46_);}
	.st55{fill:url(#SVGID_47_);}
	.st56{fill:url(#SVGID_48_);}
	.st57{fill:url(#SVGID_49_);}
	.st58{fill:url(#SVGID_50_);}
	.st59{fill:url(#SVGID_51_);}
	.st60{fill:url(#SVGID_52_);}
	.st61{fill:url(#SVGID_53_);}
	.st62{fill:url(#SVGID_54_);}
	.st63{fill:url(#SVGID_55_);}
	.st64{fill:url(#SVGID_56_);}
	.st65{fill:url(#SVGID_57_);}
	.st66{clip-path:url(#SVGID_59_);}
	.st67{fill:#A1C538;}
	.st68{fill:#886FAE;}
	.st69{fill:#E9C063;}
	.st70{fill:url(#SVGID_60_);stroke:#230131;stroke-width:12;stroke-miterlimit:10;}
	.st71{clip-path:url(#SVGID_62_);}
	.st72{fill:url(#SVGID_63_);}
	.st73{opacity:0.5;}
	.st74{fill:#EDCD83;}
	.st75{opacity:0.62;clip-path:url(#SVGID_62_);fill:url(#SVGID_64_);}
	.st76{clip-path:url(#SVGID_62_);fill:url(#SVGID_65_);}
	.st77{fill:url(#SVGID_66_);}
	.st78{fill:#E9C064;stroke:#230131;stroke-width:20;stroke-miterlimit:10;}
	.st79{fill:url(#SVGID_67_);}
	.st80{fill:url(#SVGID_68_);}
	.st81{clip-path:url(#SVGID_62_);fill:url(#SVGID_69_);}
	.st82{fill:url(#SVGID_70_);}
	.st83{fill:url(#SVGID_71_);}
	.st84{opacity:0.34;fill:#230131;}
	.st85{fill:url(#SVGID_72_);}
	.st86{fill:url(#SVGID_73_);}
	.st87{fill:url(#SVGID_74_);}
	.st88{fill:url(#SVGID_75_);}
	.st89{fill:url(#SVGID_76_);}
	.st90{fill:url(#SVGID_77_);}
	.st91{fill:url(#SVGID_78_);}
	.st92{fill:url(#SVGID_79_);}
	.st93{fill:url(#SVGID_80_);}
	.st94{fill:url(#SVGID_81_);}
	.st95{fill:url(#SVGID_82_);}
	.st96{fill:url(#SVGID_83_);}
	.st97{clip-path:url(#SVGID_85_);}
	.st98{fill:url(#SVGID_86_);}
	.st99{fill:#D5A0B4;}
	.st100{fill:#D15F81;}
	.st101{fill:#F09C83;}
	.st102{opacity:0.62;clip-path:url(#SVGID_85_);fill:url(#SVGID_87_);}
	.st103{clip-path:url(#SVGID_85_);fill:url(#SVGID_88_);}
	.st104{fill:url(#SVGID_89_);}
	.st105{fill:url(#SVGID_90_);}
	.st106{fill:#CB88A1;stroke:#230131;stroke-width:20;stroke-miterlimit:10;}
	.st107{fill:url(#SVGID_91_);}
	.st108{clip-path:url(#SVGID_85_);fill:url(#SVGID_92_);}
	.st109{fill:url(#SVGID_93_);}
	.st110{fill:url(#SVGID_94_);}
	.st111{fill:url(#SVGID_95_);}
	.st112{fill:url(#SVGID_96_);}
	.st113{fill:url(#SVGID_97_);}
	.st114{fill:url(#SVGID_98_);}
	.st115{fill:url(#SVGID_99_);}
	.st116{fill:url(#SVGID_100_);}
	.st117{fill:url(#SVGID_101_);}
	.st118{fill:url(#SVGID_102_);}
	.st119{fill:url(#SVGID_103_);}
	.st120{clip-path:url(#SVGID_105_);}
	.st121{fill:url(#SVGID_106_);}
	.st122{fill:#CE675A;}
	.st123{fill:#DD4B1A;}
	.st124{fill:#F4971E;}
	.st125{opacity:0.62;clip-path:url(#SVGID_105_);fill:url(#SVGID_107_);}
	.st126{clip-path:url(#SVGID_105_);fill:url(#SVGID_108_);}
	.st127{fill:url(#SVGID_109_);}
	.st128{fill:url(#SVGID_110_);}
	.st129{fill:url(#SVGID_111_);}
	.st130{fill:#C24131;stroke:#230131;stroke-width:20;stroke-miterlimit:10;}
	.st131{clip-path:url(#SVGID_105_);fill:url(#SVGID_112_);}
	.st132{fill:url(#SVGID_113_);}
	.st133{fill:url(#SVGID_114_);}
	.st134{fill:url(#SVGID_115_);}
	.st135{fill:url(#SVGID_116_);}
	.st136{fill:url(#SVGID_117_);}
	.st137{fill:url(#SVGID_118_);}
	.st138{fill:url(#SVGID_119_);}
	.st139{fill:url(#SVGID_120_);}
	.st140{fill:url(#SVGID_121_);}
	.st141{fill:url(#SVGID_122_);}
	.st142{fill:url(#SVGID_123_);}
	.st143{fill:url(#SVGID_124_);}
	.st144{fill:url(#SVGID_125_);}
	.st145{opacity:0.35;}
	.st146{fill:#ECECEC;}
	.st147{fill:url(#SVGID_126_);}
	.st148{clip-path:url(#SVGID_128_);}
	.st149{fill:url(#SVGID_129_);}
	.st150{fill:#FBBA00;}
	.st151{opacity:0.62;fill:url(#SVGID_130_);}
	.st152{fill:url(#SVGID_131_);}
	.st153{fill:url(#SVGID_132_);}
	.st154{fill:url(#SVGID_133_);}
	.st155{fill:url(#SVGID_134_);}
	.st156{fill:url(#SVGID_135_);}
	.st157{fill:url(#SVGID_136_);}
	.st158{fill:url(#SVGID_137_);}
	.st159{fill:url(#SVGID_138_);}
	.st160{fill:url(#SVGID_139_);}
	.st161{fill:url(#SVGID_140_);}
	.st162{fill:url(#SVGID_143_);}
	.st163{fill:url(#SVGID_144_);}
	.st164{fill:url(#SVGID_145_);}
	.st165{fill:url(#SVGID_146_);}
	.st166{fill:url(#SVGID_147_);}
	.st167{fill:url(#SVGID_148_);}
	.st168{fill:url(#SVGID_149_);}
	.st169{fill:url(#SVGID_150_);}
	.st170{fill:url(#SVGID_151_);}
	.st171{fill:url(#SVGID_152_);}
	.st172{fill:url(#SVGID_155_);}
	.st173{fill:url(#SVGID_156_);}
	.st174{fill:url(#SVGID_157_);}
	.st175{fill:url(#SVGID_158_);}
	.st176{fill:url(#SVGID_159_);}
	.st177{fill:url(#SVGID_160_);}
	.st178{fill:url(#SVGID_161_);}
	.st179{fill:url(#SVGID_162_);}
	.st180{fill:url(#SVGID_163_);}
	.st181{fill:url(#SVGID_164_);}
	.st182{fill:url(#SVGID_167_);}
	.st183{fill:url(#SVGID_168_);}
	.st184{fill:url(#SVGID_169_);}
	.st185{fill:url(#SVGID_170_);}
	.st186{fill:url(#SVGID_171_);}
	.st187{fill:url(#SVGID_172_);}
	.st188{fill:url(#SVGID_173_);}
	.st189{fill:url(#SVGID_174_);}
	.st190{fill:url(#SVGID_175_);}
	.st191{fill:url(#SVGID_176_);}
	.st192{clip-path:url(#SVGID_178_);}
	.st193{clip-path:url(#SVGID_180_);}
	.st194{clip-path:url(#SVGID_188_);}
	.st195{clip-path:url(#SVGID_190_);}
	.st196{opacity:0.35;clip-path:url(#SVGID_192_);}
	.st197{clip-path:url(#SVGID_192_);fill:url(#SVGID_193_);}
	.st198{clip-path:url(#SVGID_192_);}
	.st199{clip-path:url(#SVGID_195_);fill:url(#SVGID_196_);}
	.st200{clip-path:url(#SVGID_198_);}
	.st201{opacity:0.62;clip-path:url(#SVGID_192_);fill:url(#SVGID_199_);}
	.st202{fill:url(#SVGID_200_);}
	.st203{fill:url(#SVGID_201_);}
	.st204{fill:url(#SVGID_202_);}
	.st205{fill:url(#SVGID_203_);}
	.st206{fill:url(#SVGID_204_);}
	.st207{fill:url(#SVGID_205_);}
	.st208{fill:url(#SVGID_206_);}
	.st209{fill:url(#SVGID_207_);}
	.st210{fill:url(#SVGID_208_);}
	.st211{fill:url(#SVGID_209_);}
	.st212{fill-rule:evenodd;clip-rule:evenodd;fill:#FFFFFF;}
	.st213{fill:#72BB6F;}
	.st214{fill:#1DBADF;}
	.st215{fill:url(#SVGID_212_);}
	.st216{fill:url(#SVGID_213_);}
	.st217{fill:url(#SVGID_214_);}
	.st218{fill:url(#SVGID_215_);}
	.st219{fill:url(#SVGID_216_);}
	.st220{fill:url(#SVGID_217_);}
	.st221{fill:url(#SVGID_218_);}
	.st222{fill:url(#SVGID_219_);}
	.st223{fill:url(#SVGID_220_);}
	.st224{fill:url(#SVGID_221_);}
	.st225{fill:url(#SVGID_224_);}
	.st226{fill:url(#SVGID_225_);}
	.st227{fill:url(#SVGID_226_);}
	.st228{fill:url(#SVGID_227_);}
	.st229{fill:url(#SVGID_228_);}
	.st230{fill:url(#SVGID_229_);}
	.st231{fill:url(#SVGID_230_);}
	.st232{fill:url(#SVGID_231_);}
	.st233{fill:url(#SVGID_232_);}
	.st234{fill:url(#SVGID_233_);}
	.st235{fill:url(#SVGID_236_);}
	.st236{fill:url(#SVGID_237_);}
	.st237{fill:url(#SVGID_238_);}
	.st238{fill:url(#SVGID_239_);}
	.st239{fill:url(#SVGID_240_);}
	.st240{fill:url(#SVGID_241_);}
	.st241{fill:url(#SVGID_242_);}
	.st242{fill:url(#SVGID_243_);}
	.st243{fill:url(#SVGID_244_);}
	.st244{fill:url(#SVGID_245_);}
	.st245{fill:url(#SVGID_248_);}
	.st246{fill:url(#SVGID_249_);}
	.st247{fill:url(#SVGID_250_);}
	.st248{fill:url(#SVGID_251_);}
	.st249{fill:url(#SVGID_252_);}
	.st250{fill:url(#SVGID_253_);}
	.st251{fill:url(#SVGID_254_);}
	.st252{fill:url(#SVGID_255_);}
	.st253{fill:url(#SVGID_256_);}
	.st254{fill:url(#SVGID_257_);}
	.st255{clip-path:url(#SVGID_259_);}
	.st256{clip-path:url(#SVGID_261_);}
	.st257{clip-path:url(#SVGID_269_);}
	.st258{clip-path:url(#SVGID_271_);}
	.st259{clip-path:url(#SVGID_273_);}
	.st260{fill:#230131;stroke:#230131;stroke-miterlimit:10;}
	.st261{fill:#350030;}
	.st262{fill:url(#SVGID_276_);}
	.st263{fill:url(#SVGID_277_);}
	.st264{fill:url(#SVGID_278_);}
	.st265{fill:url(#SVGID_279_);}
	.st266{fill:url(#SVGID_280_);}
	.st267{fill:url(#SVGID_281_);}
	.st268{fill:url(#SVGID_282_);}
	.st269{fill:url(#SVGID_283_);}
	.st270{fill:url(#SVGID_284_);}
	.st271{fill:url(#SVGID_285_);}
	.st272{fill:#FDCC68;}
	.st273{fill:#8CC15C;}
	.st274{fill:url(#SVGID_286_);}
	.st275{fill:url(#SVGID_287_);}
	.st276{fill:url(#SVGID_288_);}
	.st277{fill:url(#SVGID_289_);}
</style>
<g>
	<linearGradient id="SVGID_1_" gradientUnits="userSpaceOnUse" x1="381.8543" y1="377.5857" x2="381.8543" y2="0">
		<stop  offset="0" style="stop-color:#FBBA00"/>
		<stop  offset="0.5056" style="stop-color:#72BB6F"/>
		<stop  offset="1" style="stop-color:#1DBADF"/>
	</linearGradient>
	<path class="st0" d="M381.85,0C170.96,0,0,169.05,0,377.59h763.71C763.71,169.05,592.75,0,381.85,0z"/>
	<g>
		<g>
			<g>
				<path class="st2" d="M289.31,333.27H277.5c-12.22,0-22.17-9.94-22.17-22.17v-95.78c0-12.22,9.94-22.17,22.17-22.17h11.81
					c12.22,0,22.17,9.95,22.17,22.17v95.78C311.48,323.32,301.54,333.27,289.31,333.27z M277.5,205.89c-5.2,0-9.43,4.23-9.43,9.43
					v95.78c0,5.2,4.23,9.43,9.43,9.43h11.81c5.2,0,9.43-4.23,9.43-9.43v-95.78c0-5.2-4.23-9.43-9.43-9.43H277.5z"/>
			</g>
			<g>
				<path class="st2" d="M486.2,333.27h-11.81c-12.22,0-22.17-9.94-22.17-22.17v-95.78c0-12.22,9.95-22.17,22.17-22.17h11.81
					c12.22,0,22.17,9.95,22.17,22.17v95.78C508.37,323.32,498.43,333.27,486.2,333.27z M474.39,205.89c-5.2,0-9.43,4.23-9.43,9.43
					v95.78c0,5.2,4.23,9.43,9.43,9.43h11.81c5.2,0,9.43-4.23,9.43-9.43v-95.78c0-5.2-4.23-9.43-9.43-9.43H474.39z"/>
			</g>
		</g>
		<g>
			<path class="st1" d="M536.57,199.52v35.81c0,8.85-6.32,16.56-15.06,18c-24.49,4.02-29.43,17.44-62.31,17.44
				c-38.68,0-38.68-18.57-77.36-18.57c-38.68,0-38.68,18.57-77.35,18.57c-32.88,0-37.81-13.41-62.3-17.44
				c-8.74-1.44-15.06-9.14-15.06-18v-35.81l0,0c0-16.39,13.29-29.68,29.68-29.68h250.07C523.28,169.83,536.57,183.12,536.57,199.52
				L536.57,199.52L536.57,199.52z"/>
			<path class="st2" d="M459.21,277.13c-20.79,0-31.29-5.04-41.44-9.91c-9.27-4.45-18.03-8.66-35.92-8.66
				c-17.89,0-26.65,4.2-35.92,8.66c-10.15,4.87-20.64,9.91-41.43,9.91s-31.28-5.04-41.43-9.91c-6.54-3.14-12.71-6.1-21.9-7.61
				c-11.82-1.94-20.39-12.15-20.39-24.28v-35.81c0-19.88,16.17-36.05,36.05-36.05h250.07c19.88,0,36.05,16.17,36.05,36.05v35.81
				c0,12.13-8.58,22.34-20.39,24.28c-9.19,1.51-15.36,4.47-21.9,7.61C490.49,272.09,480,277.13,459.21,277.13z M381.85,245.82
				c20.79,0,31.28,5.04,41.44,9.91c9.27,4.45,18.03,8.66,35.93,8.66s26.65-4.2,35.93-8.66c7.06-3.39,14.36-6.89,25.35-8.7
				c5.54-0.91,9.72-5.95,9.72-11.71v-35.81c0-12.85-10.46-23.31-23.31-23.31H256.82c-12.86,0-23.31,10.46-23.31,23.31v35.81
				c0,5.77,4.18,10.8,9.72,11.71c10.99,1.81,18.29,5.31,25.35,8.7c9.27,4.45,18.03,8.66,35.92,8.66c17.89,0,26.65-4.2,35.92-8.66
				C350.56,250.86,361.06,245.82,381.85,245.82z"/>
		</g>
	</g>
</g>
</svg>
