<?xml version="1.0" encoding="utf-8"?>
<!-- Generator: Adobe Illustrator 23.0.5, SVG Export Plug-In . SVG Version: 6.00 Build 0)  -->
<svg version="1.1" id="Capa_1" xmlns="http://www.w3.org/2000/svg" xmlns:xlink="http://www.w3.org/1999/xlink" x="0px" y="0px"
	 viewBox="0 0 557.5 850.72" style="enable-background:new 0 0 557.5 850.72;" xml:space="preserve">
<style type="text/css">
	.st0{fill:url(#SVGID_1_);}
	.st1{fill:#FFFFFF;}
	.st2{fill:#230131;}
	.st3{fill:#CB88A1;}
	.st4{fill:#C24131;}
	.st5{fill:#BE1622;}
	.st6{fill:#935EA3;}
	.st7{fill:none;}
	.st8{fill:none;stroke:#FFFFFF;stroke-width:2;stroke-miterlimit:10;}
	.st9{fill:#E9B6A3;}
	.st10{opacity:0.9;fill:#230131;}
	.st11{opacity:0.24;fill:url(#SVGID_2_);}
	.st12{fill:#BF1A1B;}
	.st13{fill:#FFEC00;}
	.st14{fill:url(#SVGID_3_);}
	.st15{fill:url(#SVGID_4_);}
	.st16{fill:url(#SVGID_5_);}
	.st17{fill:url(#SVGID_6_);}
	.st18{fill:url(#SVGID_7_);}
	.st19{fill:url(#SVGID_8_);}
	.st20{fill:url(#SVGID_9_);}
	.st21{fill:url(#SVGID_10_);}
	.st22{fill:url(#SVGID_11_);}
	.st23{fill:url(#SVGID_12_);}
	.st24{fill:#E9C064;}
	.st25{fill:#E9C064;stroke:#FFFFFF;stroke-width:20;stroke-miterlimit:10;}
	.st26{clip-path:url(#SVGID_14_);}
	.st27{fill:url(#SVGID_15_);}
	.st28{fill:url(#SVGID_16_);}
	.st29{fill:url(#SVGID_17_);}
	.st30{fill:url(#SVGID_18_);}
	.st31{fill:url(#SVGID_19_);}
	.st32{fill:url(#SVGID_20_);}
	.st33{fill:url(#SVGID_21_);}
	.st34{fill:url(#SVGID_22_);}
	.st35{fill:url(#SVGID_23_);}
	.st36{fill:url(#SVGID_24_);}
	.st37{fill:url(#SVGID_25_);}
	.st38{fill:url(#SVGID_26_);}
	.st39{fill:url(#SVGID_27_);}
	.st40{opacity:0.24;fill:url(#SVGID_28_);}
	.st41{fill:url(#SVGID_29_);}
	.st42{fill:url(#SVGID_30_);}
	.st43{fill:url(#SVGID_31_);}
	.st44{opacity:0.24;fill:url(#SVGID_32_);}
	.st45{fill:url(#SVGID_33_);}
	.st46{fill:url(#SVGID_34_);}
	.st47{fill:url(#SVGID_35_);}
	.st48{opacity:0.24;fill:url(#SVGID_36_);}
	.st49{clip-path:url(#SVGID_38_);}
	.st50{opacity:0.63;clip-path:url(#SVGID_38_);fill:url(#SVGID_41_);}
	.st51{opacity:0;clip-path:url(#SVGID_38_);fill:url(#SVGID_42_);}
	.st52{opacity:0.22;clip-path:url(#SVGID_38_);fill:url(#SVGID_43_);}
	.st53{fill:url(#SVGID_44_);}
	.st54{clip-path:url(#SVGID_46_);}
	.st55{fill:url(#SVGID_47_);}
	.st56{fill:url(#SVGID_48_);}
	.st57{fill:url(#SVGID_49_);}
	.st58{fill:url(#SVGID_50_);}
	.st59{fill:url(#SVGID_51_);}
	.st60{fill:url(#SVGID_52_);}
	.st61{fill:url(#SVGID_53_);}
	.st62{fill:url(#SVGID_54_);}
	.st63{fill:url(#SVGID_55_);}
	.st64{fill:url(#SVGID_56_);}
	.st65{fill:url(#SVGID_57_);}
	.st66{clip-path:url(#SVGID_59_);}
	.st67{fill:#A1C538;}
	.st68{fill:#886FAE;}
	.st69{fill:#E9C063;}
	.st70{fill:url(#SVGID_60_);stroke:#230131;stroke-width:12;stroke-miterlimit:10;}
	.st71{clip-path:url(#SVGID_62_);}
	.st72{fill:url(#SVGID_63_);}
	.st73{opacity:0.5;}
	.st74{fill:#EDCD83;}
	.st75{opacity:0.62;clip-path:url(#SVGID_62_);fill:url(#SVGID_64_);}
	.st76{clip-path:url(#SVGID_62_);fill:url(#SVGID_65_);}
	.st77{fill:url(#SVGID_66_);}
	.st78{fill:#E9C064;stroke:#230131;stroke-width:20;stroke-miterlimit:10;}
	.st79{fill:url(#SVGID_67_);}
	.st80{fill:url(#SVGID_68_);}
	.st81{clip-path:url(#SVGID_62_);fill:url(#SVGID_69_);}
	.st82{fill:url(#SVGID_70_);}
	.st83{fill:url(#SVGID_71_);}
	.st84{opacity:0.34;fill:#230131;}
	.st85{fill:url(#SVGID_72_);}
	.st86{fill:url(#SVGID_73_);}
	.st87{fill:url(#SVGID_74_);}
	.st88{fill:url(#SVGID_75_);}
	.st89{fill:url(#SVGID_76_);}
	.st90{fill:url(#SVGID_77_);}
	.st91{fill:url(#SVGID_78_);}
	.st92{fill:url(#SVGID_79_);}
	.st93{fill:url(#SVGID_80_);}
	.st94{fill:url(#SVGID_81_);}
	.st95{fill:url(#SVGID_82_);}
	.st96{fill:url(#SVGID_83_);}
	.st97{clip-path:url(#SVGID_85_);}
	.st98{fill:url(#SVGID_86_);}
	.st99{fill:#D5A0B4;}
	.st100{fill:#D15F81;}
	.st101{fill:#F09C83;}
	.st102{opacity:0.62;clip-path:url(#SVGID_85_);fill:url(#SVGID_87_);}
	.st103{clip-path:url(#SVGID_85_);fill:url(#SVGID_88_);}
	.st104{fill:url(#SVGID_89_);}
	.st105{fill:url(#SVGID_90_);}
	.st106{fill:#CB88A1;stroke:#230131;stroke-width:20;stroke-miterlimit:10;}
	.st107{fill:url(#SVGID_91_);}
	.st108{clip-path:url(#SVGID_85_);fill:url(#SVGID_92_);}
	.st109{fill:url(#SVGID_93_);}
	.st110{fill:url(#SVGID_94_);}
	.st111{fill:url(#SVGID_95_);}
	.st112{fill:url(#SVGID_96_);}
	.st113{fill:url(#SVGID_97_);}
	.st114{fill:url(#SVGID_98_);}
	.st115{fill:url(#SVGID_99_);}
	.st116{fill:url(#SVGID_100_);}
	.st117{fill:url(#SVGID_101_);}
	.st118{fill:url(#SVGID_102_);}
	.st119{fill:url(#SVGID_103_);}
	.st120{clip-path:url(#SVGID_105_);}
	.st121{fill:url(#SVGID_106_);}
	.st122{fill:#CE675A;}
	.st123{fill:#DD4B1A;}
	.st124{fill:#F4971E;}
	.st125{opacity:0.62;clip-path:url(#SVGID_105_);fill:url(#SVGID_107_);}
	.st126{clip-path:url(#SVGID_105_);fill:url(#SVGID_108_);}
	.st127{fill:url(#SVGID_109_);}
	.st128{fill:url(#SVGID_110_);}
	.st129{fill:url(#SVGID_111_);}
	.st130{fill:#C24131;stroke:#230131;stroke-width:20;stroke-miterlimit:10;}
	.st131{clip-path:url(#SVGID_105_);fill:url(#SVGID_112_);}
	.st132{fill:url(#SVGID_113_);}
	.st133{fill:url(#SVGID_114_);}
	.st134{fill:url(#SVGID_115_);}
	.st135{fill:url(#SVGID_116_);}
	.st136{fill:url(#SVGID_117_);}
	.st137{fill:url(#SVGID_118_);}
	.st138{fill:url(#SVGID_119_);}
	.st139{fill:url(#SVGID_120_);}
	.st140{fill:url(#SVGID_121_);}
	.st141{fill:url(#SVGID_122_);}
	.st142{fill:url(#SVGID_123_);}
	.st143{fill:url(#SVGID_124_);}
	.st144{fill:url(#SVGID_125_);}
	.st145{opacity:0.35;}
	.st146{fill:#ECECEC;}
	.st147{fill:url(#SVGID_126_);}
	.st148{clip-path:url(#SVGID_128_);}
	.st149{fill:url(#SVGID_129_);}
	.st150{fill:#FBBA00;}
	.st151{opacity:0.62;fill:url(#SVGID_130_);}
	.st152{fill:url(#SVGID_131_);}
	.st153{fill:url(#SVGID_132_);}
	.st154{fill:url(#SVGID_133_);}
	.st155{fill:url(#SVGID_134_);}
	.st156{fill:url(#SVGID_135_);}
	.st157{fill:url(#SVGID_136_);}
	.st158{fill:url(#SVGID_137_);}
	.st159{fill:url(#SVGID_138_);}
	.st160{fill:url(#SVGID_139_);}
	.st161{fill:url(#SVGID_140_);}
	.st162{fill:url(#SVGID_143_);}
	.st163{fill:url(#SVGID_144_);}
	.st164{fill:url(#SVGID_145_);}
	.st165{fill:url(#SVGID_146_);}
	.st166{fill:url(#SVGID_147_);}
	.st167{fill:url(#SVGID_148_);}
	.st168{fill:url(#SVGID_149_);}
	.st169{fill:url(#SVGID_150_);}
	.st170{fill:url(#SVGID_151_);}
	.st171{fill:url(#SVGID_152_);}
	.st172{fill:url(#SVGID_155_);}
	.st173{fill:url(#SVGID_156_);}
	.st174{fill:url(#SVGID_157_);}
	.st175{fill:url(#SVGID_158_);}
	.st176{fill:url(#SVGID_159_);}
	.st177{fill:url(#SVGID_160_);}
	.st178{fill:url(#SVGID_161_);}
	.st179{fill:url(#SVGID_162_);}
	.st180{fill:url(#SVGID_163_);}
	.st181{fill:url(#SVGID_164_);}
	.st182{fill:url(#SVGID_167_);}
	.st183{fill:url(#SVGID_168_);}
	.st184{fill:url(#SVGID_169_);}
	.st185{fill:url(#SVGID_170_);}
	.st186{fill:url(#SVGID_171_);}
	.st187{fill:url(#SVGID_172_);}
	.st188{fill:url(#SVGID_173_);}
	.st189{fill:url(#SVGID_174_);}
	.st190{fill:url(#SVGID_175_);}
	.st191{fill:url(#SVGID_176_);}
	.st192{clip-path:url(#SVGID_178_);}
	.st193{clip-path:url(#SVGID_180_);}
	.st194{clip-path:url(#SVGID_188_);}
	.st195{clip-path:url(#SVGID_190_);}
	.st196{opacity:0.35;clip-path:url(#SVGID_192_);}
	.st197{clip-path:url(#SVGID_192_);fill:url(#SVGID_193_);}
	.st198{clip-path:url(#SVGID_192_);}
	.st199{clip-path:url(#SVGID_195_);fill:url(#SVGID_196_);}
	.st200{clip-path:url(#SVGID_198_);}
	.st201{opacity:0.62;clip-path:url(#SVGID_192_);fill:url(#SVGID_199_);}
	.st202{fill:url(#SVGID_200_);}
	.st203{fill:url(#SVGID_201_);}
	.st204{fill:url(#SVGID_202_);}
	.st205{fill:url(#SVGID_203_);}
	.st206{fill:url(#SVGID_204_);}
	.st207{fill:url(#SVGID_205_);}
	.st208{fill:url(#SVGID_206_);}
	.st209{fill:url(#SVGID_207_);}
	.st210{fill:url(#SVGID_208_);}
	.st211{fill:url(#SVGID_209_);}
	.st212{fill-rule:evenodd;clip-rule:evenodd;fill:#FFFFFF;}
	.st213{fill:#72BB6F;}
	.st214{fill:#1DBADF;}
	.st215{fill:url(#SVGID_212_);}
	.st216{fill:url(#SVGID_213_);}
	.st217{fill:url(#SVGID_214_);}
	.st218{fill:url(#SVGID_215_);}
	.st219{fill:url(#SVGID_216_);}
	.st220{fill:url(#SVGID_217_);}
	.st221{fill:url(#SVGID_218_);}
	.st222{fill:url(#SVGID_219_);}
	.st223{fill:url(#SVGID_220_);}
	.st224{fill:url(#SVGID_221_);}
	.st225{fill:url(#SVGID_224_);}
	.st226{fill:url(#SVGID_225_);}
	.st227{fill:url(#SVGID_226_);}
	.st228{fill:url(#SVGID_227_);}
	.st229{fill:url(#SVGID_228_);}
	.st230{fill:url(#SVGID_229_);}
	.st231{fill:url(#SVGID_230_);}
	.st232{fill:url(#SVGID_231_);}
	.st233{fill:url(#SVGID_232_);}
	.st234{fill:url(#SVGID_233_);}
	.st235{fill:url(#SVGID_236_);}
	.st236{fill:url(#SVGID_237_);}
	.st237{fill:url(#SVGID_238_);}
	.st238{fill:url(#SVGID_239_);}
	.st239{fill:url(#SVGID_240_);}
	.st240{fill:url(#SVGID_241_);}
	.st241{fill:url(#SVGID_242_);}
	.st242{fill:url(#SVGID_243_);}
	.st243{fill:url(#SVGID_244_);}
	.st244{fill:url(#SVGID_245_);}
	.st245{fill:url(#SVGID_248_);}
	.st246{fill:url(#SVGID_249_);}
	.st247{fill:url(#SVGID_250_);}
	.st248{fill:url(#SVGID_251_);}
	.st249{fill:url(#SVGID_252_);}
	.st250{fill:url(#SVGID_253_);}
	.st251{fill:url(#SVGID_254_);}
	.st252{fill:url(#SVGID_255_);}
	.st253{fill:url(#SVGID_256_);}
	.st254{fill:url(#SVGID_257_);}
	.st255{clip-path:url(#SVGID_259_);}
	.st256{clip-path:url(#SVGID_261_);}
	.st257{clip-path:url(#SVGID_269_);}
	.st258{clip-path:url(#SVGID_271_);}
	.st259{clip-path:url(#SVGID_273_);}
	.st260{clip-path:url(#SVGID_275_);}
	.st261{fill:#230131;stroke:#230131;stroke-miterlimit:10;}
	.st262{fill:#350030;}
	.st263{fill:url(#SVGID_278_);}
	.st264{fill:url(#SVGID_279_);}
	.st265{fill:url(#SVGID_280_);}
	.st266{fill:url(#SVGID_281_);}
	.st267{fill:url(#SVGID_282_);}
	.st268{fill:url(#SVGID_283_);}
	.st269{fill:url(#SVGID_284_);}
	.st270{fill:url(#SVGID_285_);}
	.st271{fill:url(#SVGID_286_);}
	.st272{fill:url(#SVGID_287_);}
	.st273{fill:#FDCC68;}
	.st274{fill:#8CC15C;}
	.st275{fill:url(#SVGID_288_);}
	.st276{fill:url(#SVGID_289_);}
	.st277{fill:url(#SVGID_290_);}
</style>
<g>
	<g>
		<path class="st3" d="M497.5,850.72H60c-33.14,0-60-26.86-60-60V60C0,26.86,26.86,0,60,0l437.5,0c33.14,0,60,26.86,60,60v730.72
			C557.5,823.86,530.63,850.72,497.5,850.72z"/>
	</g>
	<g>
		<path class="st2" d="M238.97,546.04c0,0.32-0.19,0.77-0.56,1.36c-3.15,4.33-6.01,8.9-8.58,13.71c-1.12,2.03-2.22,4.22-3.29,6.57
			c-1.07,2.35-2.06,4.8-2.97,7.33c-0.91,2.54-1.7,5.14-2.36,7.82c-0.67,2.67-1.14,5.37-1.4,8.1c-0.11,0.59-0.21,1.26-0.32,2
			c-0.11,0.64-0.19,1.39-0.24,2.24c-0.05,0.86-0.08,1.76-0.08,2.73c0,2.03,0.23,4.1,0.68,6.21c0.45,2.11,1.38,3.86,2.77,5.25
			c0.16,0.11,0.24,0.29,0.24,0.56c0,0.32-0.13,0.48-0.4,0.48c-1.18,0-2.22-0.4-3.13-1.2c-0.91-0.8-1.68-1.86-2.32-3.17
			c-0.64-1.31-1.14-2.83-1.48-4.57c-0.35-1.74-0.52-3.51-0.52-5.33c0-1.87,0.21-3.91,0.64-6.13c0.43-2.22,0.99-4.5,1.68-6.85
			c0.69-2.35,1.48-4.7,2.36-7.05c0.88-2.35,1.78-4.62,2.69-6.81c2.14-5.13,4.57-10.31,7.29-15.55c0.11-0.16,0.16-0.35,0.16-0.56
			c0-0.16-0.08-0.24-0.24-0.24c-0.16,0-0.29,0.03-0.4,0.08c-0.11,0.05-0.19,0.11-0.24,0.16c-1.76,1.02-3.41,2.11-4.93,3.29
			c-1.52,1.18-2.98,2.38-4.37,3.61c-1.82,1.55-3.49,3.09-5.01,4.61c-1.52,1.52-2.93,2.98-4.21,4.37v1.68c0,4.28-0.51,8.1-1.52,11.46
			c-1.02,3.37-2.26,6.21-3.73,8.54c-1.47,2.32-3.05,4.1-4.73,5.33c-1.68,1.23-3.22,1.84-4.61,1.84c-0.21,0-0.49-0.03-0.84-0.08
			c-0.35-0.05-0.68-0.21-1-0.48c-0.32-0.27-0.59-0.68-0.8-1.24c-0.21-0.56-0.32-1.32-0.32-2.28c0-1.55,0.27-3.13,0.8-4.73
			c0.53-1.6,1.34-3.33,2.41-5.17c1.07-1.84,2.44-3.89,4.13-6.13s3.67-4.81,5.97-7.7c0-2.24-0.08-4.3-0.24-6.17
			c-0.16-1.87-0.37-3.5-0.64-4.89c-0.27-1.66-0.59-3.18-0.96-4.57c-0.16-0.37-0.29-0.56-0.4-0.56c-0.05,0-0.13,0.05-0.24,0.16
			c-0.05,0.05-0.08,0.13-0.08,0.24c-2.08,4.12-4.25,8.2-6.49,12.26c-2.24,4.06-4.56,7.92-6.93,11.58
			c-2.38,3.66-4.82,7.05-7.33,10.18c-2.51,3.13-5.06,5.84-7.66,8.14c-2.59,2.3-5.24,4.09-7.94,5.37c-2.7,1.28-5.41,1.92-8.14,1.92
			c-2.57,0-4.53-0.47-5.89-1.41c-1.36-0.94-2.36-2.02-3.01-3.25c-0.64-1.23-1.01-2.4-1.12-3.5c-0.11-1.1-0.16-1.81-0.16-2.13
			c0-3.16,0.63-6.05,1.88-8.68c1.26-2.63,2.89-4.87,4.89-6.75c2-1.88,4.23-3.33,6.69-4.38c2.46-1.04,4.89-1.57,7.29-1.57
			c2.24,0,4.05,0.41,5.41,1.23s2.04,1.77,2.04,2.86c0,0.11-0.01,0.25-0.04,0.44c-0.03,0.19-0.17,0.28-0.44,0.28
			c-0.32,0-0.63-0.08-0.92-0.24c-0.29-0.16-0.64-0.33-1.04-0.52c-0.4-0.19-0.92-0.36-1.56-0.52c-0.64-0.16-1.47-0.24-2.49-0.24
			c-1.66,0-3.54,0.45-5.65,1.36c-2.11,0.91-4.1,2.19-5.97,3.85c-1.87,1.66-3.45,3.65-4.73,5.97c-1.28,2.32-1.92,4.9-1.92,7.74
			c0,2.03,0.53,3.7,1.6,5.01c1.07,1.31,2.89,1.96,5.45,1.96c1.44,0,3.05-0.28,4.81-0.84c1.76-0.56,3.67-1.59,5.73-3.09
			c2.06-1.5,4.31-3.55,6.77-6.17c2.46-2.62,5.12-5.98,7.98-10.1c2.86-4.11,5.97-9.08,9.34-14.91c3.37-5.82,6.97-12.69,10.82-20.6
			c0-0.11,0.05-0.21,0.16-0.32c0.21-0.21,0.4-0.32,0.56-0.32c0.05,0,0.13,0.03,0.24,0.08c0.16,0.11,0.35,0.32,0.56,0.64
			c0.53,1.82,1.07,3.8,1.6,5.93c0.43,1.87,0.85,4,1.28,6.37c0.43,2.38,0.75,4.93,0.96,7.66c1.39-1.39,2.86-2.82,4.41-4.29
			c1.55-1.47,3.21-2.98,4.97-4.53c2.24-1.92,4.44-3.66,6.57-5.21c0.91-0.64,1.87-1.3,2.89-1.96c1.01-0.67,2.03-1.28,3.05-1.84
			c1.01-0.56,2-1.03,2.97-1.4c0.96-0.37,1.84-0.64,2.65-0.8c0.05-0.05,0.11-0.08,0.16-0.08h0.32c0.16,0,0.32,0.03,0.48,0.08
			C238.89,545.61,238.97,545.77,238.97,546.04z M206.02,574.23c-1.51,1.87-2.86,3.73-4.04,5.58c-1.19,1.85-2.18,3.57-2.99,5.18
			s-1.42,3.04-1.82,4.29c-0.4,1.26-0.61,2.29-0.61,3.09c0,0.75,0.13,1.21,0.4,1.37c0.27,0.16,0.54,0.24,0.81,0.24
			c1.02,0,2.04-0.74,3.03-2.21c1-1.47,1.87-3.24,2.63-5.3c0.75-2.06,1.37-4.21,1.86-6.46C205.78,577.76,206.02,575.83,206.02,574.23
			z"/>
		<path class="st2" d="M257.97,585.4c0,0.27-0.12,0.68-0.36,1.24s-0.55,1.11-0.92,1.64c-0.86,1.28-2.03,2.71-3.53,4.29
			c-1.5,1.58-3.17,3.06-5.01,4.45c-1.84,1.39-3.8,2.57-5.85,3.53c-2.06,0.96-4.1,1.44-6.13,1.44c-0.64,0-1.39-0.07-2.24-0.2
			c-0.86-0.13-1.66-0.44-2.4-0.92c-0.75-0.48-1.39-1.2-1.92-2.16c-0.53-0.96-0.8-2.3-0.8-4.01c0-2.56,0.57-5.09,1.72-7.58
			c1.15-2.48,2.62-4.72,4.41-6.69c1.79-1.98,3.75-3.57,5.89-4.77c2.14-1.2,4.19-1.8,6.17-1.8c1.12,0,2.07,0.27,2.85,0.8
			c0.77,0.54,1.16,1.52,1.16,2.97c0,1.28-0.41,2.69-1.24,4.21c-0.83,1.52-1.99,2.95-3.49,4.29c-1.5,1.34-3.25,2.47-5.25,3.41
			c-2,0.94-4.18,1.46-6.53,1.56c-0.05-0.05-0.11-0.05-0.16,0l-0.16,0.32c-0.43,1.23-0.64,2.38-0.64,3.45c0,0.86,0.12,1.56,0.36,2.12
			c0.24,0.56,0.56,0.99,0.96,1.28c0.4,0.29,0.84,0.49,1.32,0.6c0.48,0.11,0.93,0.16,1.36,0.16c0.96,0,2.06-0.17,3.29-0.52
			c1.23-0.35,2.65-1.04,4.25-2.08c1.6-1.04,3.38-2.5,5.33-4.37c1.95-1.87,4.1-4.36,6.45-7.46c0.05-0.11,0.11-0.19,0.16-0.24
			c0.11-0.11,0.21-0.16,0.32-0.16c0.11,0,0.24,0.09,0.4,0.28C257.89,584.66,257.97,584.97,257.97,585.4z M247.7,577.46
			c0-0.32-0.12-0.6-0.36-0.84c-0.24-0.24-0.57-0.36-1-0.36c-1.02,0-2.12,0.48-3.33,1.44s-2.35,2.1-3.45,3.41
			c-1.1,1.31-2.04,2.66-2.85,4.05c-0.8,1.39-1.34,2.51-1.6,3.37c0,0.11,0.03,0.19,0.08,0.24l0.08,0.08c1.44-0.16,2.9-0.64,4.37-1.44
			c1.47-0.8,2.81-1.74,4.01-2.81c1.2-1.07,2.18-2.24,2.93-3.53C247.33,579.78,247.7,578.58,247.7,577.46z"/>
		<path class="st2" d="M283.06,584.67c-2.24,3.21-4.52,5.48-6.81,6.81c-2.3,1.34-5.1,2-8.42,2c-0.96,1.98-2.14,3.77-3.53,5.37
			c-1.23,1.39-2.74,2.65-4.53,3.77c-1.79,1.12-3.94,1.68-6.45,1.68c-1.39,0-2.41-0.24-3.05-0.72c-0.64-0.48-0.96-1.1-0.96-1.84
			c0-1.34,0.47-2.62,1.4-3.85c0.94-1.23,2.15-2.32,3.65-3.29s3.14-1.75,4.93-2.36c1.79-0.61,3.57-1,5.33-1.16
			c0.8-1.92,1.47-3.73,2-5.41c0.53-1.68,0.99-3.14,1.36-4.37c0.43-1.44,0.75-2.78,0.96-4.01c0-0.27-0.08-0.4-0.24-0.4
			c-0.05,0-0.11,0.03-0.16,0.08c-0.59,0.32-1.26,0.75-2,1.28c-0.75,0.54-1.5,1.12-2.24,1.76c-0.75,0.64-1.46,1.28-2.12,1.92
			c-0.67,0.64-1.24,1.23-1.72,1.76c-0.53,0.59-1.03,1.12-1.48,1.6c-0.45,0.48-0.84,0.94-1.16,1.36c-0.37,0.48-0.72,0.91-1.04,1.28
			c-0.16,0.16-0.32,0.24-0.48,0.24c-0.16,0-0.29-0.08-0.4-0.24c-0.05-0.11-0.11-0.19-0.16-0.24v-0.16c0-0.05-0.01-0.12-0.04-0.2
			c-0.03-0.08-0.04-0.17-0.04-0.28c0-0.53,0.13-1.07,0.4-1.6c0.16-0.27,0.37-0.56,0.64-0.88c0.27-0.27,0.57-0.59,0.92-0.96
			c0.35-0.37,0.73-0.8,1.16-1.28c0.85-0.91,1.92-1.94,3.21-3.09c1.28-1.15,2.7-2.28,4.25-3.41c1.55-1.12,3.22-2.15,5.01-3.09
			c1.79-0.93,3.59-1.62,5.41-2.04c0.27,0,0.67,0.13,1.2,0.4c0.53,0.27,0.8,0.72,0.8,1.36c0,0.05-0.05,0.13-0.16,0.24
			c-0.16,0.16-0.37,0.24-0.64,0.24c-0.75,0.21-1.44,0.51-2.08,0.88c-0.59,0.32-1.12,0.74-1.6,1.24c-0.48,0.51-0.86,1.14-1.12,1.88
			c-0.11,0.32-0.21,0.67-0.32,1.04c-0.11,0.32-0.2,0.65-0.28,1c-0.08,0.35-0.17,0.66-0.28,0.92c-0.37,2.03-0.86,4-1.44,5.89
			c-0.59,1.9-1.18,3.62-1.76,5.17c1.07,0,2.04-0.08,2.93-0.24c0.88-0.16,1.79-0.51,2.73-1.04c0.93-0.53,1.96-1.32,3.09-2.36
			c1.12-1.04,2.4-2.45,3.85-4.21l0.16-0.16c0.05-0.05,0.16-0.08,0.32-0.08c0.21,0,0.4,0.08,0.56,0.24c0.11,0.11,0.21,0.28,0.32,0.52
			C283,583.91,283.06,584.25,283.06,584.67z M263.58,593.65c-0.53,0-1.38,0.17-2.52,0.52c-1.15,0.35-2.31,0.83-3.49,1.44
			c-1.18,0.61-2.2,1.35-3.09,2.2c-0.88,0.86-1.32,1.79-1.32,2.81c0,0.48,0.12,0.79,0.36,0.92c0.24,0.13,0.68,0.25,1.32,0.36
			c1.23,0,2.36-0.43,3.41-1.28c1.04-0.86,1.96-1.82,2.77-2.89C261.97,596.51,262.83,595.15,263.58,593.65z"/>
		<path class="st2" d="M313.92,585.4c0,0.27-0.05,0.59-0.16,0.96c-0.11,0.37-0.37,0.83-0.8,1.36c-2.57,3.37-4.89,6.01-6.97,7.94
			c-2.08,1.92-3.89,3.35-5.41,4.29c-1.52,0.93-2.75,1.52-3.69,1.76c-0.94,0.24-1.51,0.36-1.72,0.36c-1.6,0-2.67-0.41-3.21-1.24
			c-0.53-0.83-0.8-1.75-0.8-2.77c0-1.23,0.16-2.26,0.48-3.09c0.32-0.83,0.48-1.32,0.48-1.48c0-0.11-0.05-0.16-0.16-0.16l-0.16,0.08
			c-0.05,0.05-0.11,0.08-0.16,0.08c-1.34,1.5-2.63,2.67-3.89,3.53c-1.26,0.86-2.41,1.51-3.45,1.96c-1.04,0.45-1.94,0.73-2.69,0.84
			c-0.75,0.11-1.34,0.16-1.76,0.16c-0.8,0-1.47-0.15-2-0.44c-0.53-0.29-0.93-0.67-1.2-1.12c-0.27-0.45-0.45-0.95-0.56-1.48
			c-0.11-0.53-0.16-1.07-0.16-1.6c0-2.08,0.63-4.35,1.88-6.81c1.26-2.46,2.86-4.74,4.81-6.85c1.95-2.11,4.13-3.86,6.53-5.25
			c2.4-1.39,4.73-2.08,6.97-2.08c0.91,0,1.74,0.19,2.49,0.56c0.75,0.37,1.34,1.04,1.76,2c0,0.05,0.03,0.11,0.08,0.16
			c0.11,0.11,0.19,0.16,0.24,0.16c0.05,0,0.16-0.11,0.32-0.32c0.43-0.85,0.96-1.56,1.6-2.12c0.64-0.56,1.34-0.84,2.08-0.84
			c0.32,0,0.75,0.05,1.28,0.16c0.53,0.11,0.8,0.35,0.8,0.72v0.24c0,0.05-0.03,0.08-0.08,0.08c-0.91,1.12-1.84,2.43-2.81,3.93
			c-0.96,1.5-1.82,2.94-2.57,4.33c-0.91,1.6-1.79,3.21-2.65,4.81c-0.59,1.07-1.12,2.08-1.6,3.05c-0.43,0.86-0.8,1.76-1.12,2.73
			c-0.32,0.96-0.48,1.82-0.48,2.56c0,0.53,0.12,1.02,0.36,1.44c0.24,0.43,0.76,0.64,1.56,0.64c0.53,0,1.19-0.19,1.96-0.56
			c0.77-0.37,1.76-1.08,2.97-2.12s2.67-2.5,4.41-4.37c1.74-1.87,3.81-4.27,6.21-7.21c0-0.05,0.03-0.11,0.08-0.16
			c0.05-0.05,0.13-0.08,0.24-0.08c0.05,0,0.17,0.11,0.36,0.32C313.82,584.65,313.92,584.97,313.92,585.4z M298.21,578.98
			c0-0.91-0.21-1.5-0.64-1.76c-0.43-0.27-0.94-0.4-1.52-0.4c-1.28,0-2.82,0.63-4.61,1.88c-1.79,1.26-3.5,2.81-5.13,4.65
			c-1.63,1.84-3.01,3.8-4.13,5.85c-1.12,2.06-1.68,3.86-1.68,5.41c0,0.53,0.12,1.04,0.36,1.52c0.24,0.48,0.76,0.72,1.56,0.72
			c0.96,0,2.08-0.4,3.37-1.2c1.28-0.8,2.61-1.9,3.97-3.29c1.36-1.39,2.73-3.01,4.09-4.85c1.36-1.84,2.58-3.81,3.65-5.89
			c0.27-0.59,0.45-1.09,0.56-1.52C298.15,579.68,298.21,579.3,298.21,578.98z"/>
		<path class="st2" d="M364.1,585.56c0,0.32-0.07,0.7-0.2,1.12c-0.13,0.43-0.41,0.94-0.84,1.52c-2.67,3.47-5.02,6.15-7.05,8.02
			c-2.03,1.87-3.75,3.25-5.17,4.13c-1.42,0.88-2.54,1.4-3.37,1.56c-0.83,0.16-1.38,0.24-1.64,0.24c-1.55,0-2.59-0.48-3.13-1.44
			c-0.53-0.96-0.8-1.98-0.8-3.05c0-1.01,0.11-1.91,0.32-2.69c0.21-0.77,0.35-1.21,0.4-1.32c0-0.16-0.05-0.24-0.16-0.24
			c-0.05,0-0.13,0.05-0.24,0.16c-1.34,1.55-2.66,2.77-3.97,3.65c-1.31,0.88-2.49,1.55-3.53,2c-1.04,0.45-1.92,0.73-2.65,0.84
			c-0.72,0.11-1.14,0.16-1.24,0.16c-0.86,0-1.55-0.15-2.08-0.44c-0.53-0.29-0.95-0.67-1.24-1.12c-0.29-0.45-0.49-0.96-0.6-1.52
			c-0.11-0.56-0.16-1.11-0.16-1.64c0-2.03,0.56-4.25,1.68-6.65c1.12-2.4,2.59-4.65,4.41-6.73c1.82-2.08,3.9-3.83,6.25-5.25
			c2.35-1.42,4.76-2.12,7.21-2.12c0.91,0,1.76,0.17,2.57,0.52c0.8,0.35,1.42,1,1.84,1.96l0.08,0.08c0.11,0.11,0.19,0.16,0.24,0.16
			c0.16,0,0.27-0.08,0.32-0.24c0.96-1.01,1.98-2.4,3.05-4.17c1.07-1.76,2.06-3.61,2.97-5.53c0.91-1.92,1.66-3.77,2.24-5.53
			c0.59-1.76,0.88-3.18,0.88-4.25c0-1.12-0.2-2.04-0.6-2.77c-0.4-0.72-0.92-1.28-1.56-1.68c-0.64-0.4-1.35-0.67-2.12-0.8
			c-0.78-0.13-1.54-0.2-2.28-0.2c-1.71,0-3.31,0.27-4.81,0.8c-1.5,0.54-2.81,1.2-3.93,2c-1.12,0.8-2,1.67-2.65,2.61
			c-0.64,0.94-0.96,1.78-0.96,2.53c0,0.7,0.29,1.26,0.88,1.68c0.59,0.43,1.5,0.64,2.73,0.64c0.64,0,1.4-0.09,2.28-0.28
			c0.88-0.19,1.75-0.43,2.61-0.72c0.85-0.29,1.64-0.64,2.36-1.04c0.72-0.4,1.27-0.81,1.64-1.24c0.27-0.21,0.51-0.32,0.72-0.32
			c0.21,0,0.32,0.13,0.32,0.4c0,0.59-0.33,1.24-1,1.96c-0.67,0.72-1.55,1.4-2.65,2.04c-1.1,0.64-2.31,1.18-3.65,1.6
			c-1.34,0.43-2.7,0.64-4.09,0.64c-1.97,0-3.38-0.37-4.24-1.12c-0.86-0.75-1.29-1.68-1.29-2.81c0-1.12,0.41-2.36,1.24-3.73
			c0.83-1.36,1.96-2.62,3.4-3.77c1.44-1.15,3.16-2.11,5.15-2.89c2-0.77,4.17-1.16,6.51-1.16c3.04,0,5.37,0.76,6.99,2.28
			c1.62,1.52,2.44,3.54,2.44,6.05c0,2.24-0.6,4.73-1.8,7.46c-1.2,2.73-2.61,5.45-4.21,8.18c-1.6,2.73-3.25,5.34-4.93,7.86
			c-1.68,2.51-3.01,4.7-3.97,6.57c-0.53,1.02-1.04,2-1.52,2.97c-0.43,0.86-0.8,1.75-1.12,2.69c-0.32,0.94-0.48,1.8-0.48,2.61
			c0,0.48,0.11,0.96,0.32,1.44c0.21,0.48,0.69,0.72,1.44,0.72c1.5,0,3.47-1.17,5.93-3.53c2.46-2.35,5.72-6.04,9.78-11.06l0.08-0.08
			c0.05-0.05,0.11-0.08,0.16-0.08c0.11,0,0.21,0.12,0.32,0.36C364.04,584.79,364.1,585.13,364.1,585.56z M348.63,579.46
			c-0.11-0.96-0.37-1.6-0.8-1.92c-0.43-0.32-1.02-0.48-1.76-0.48c-1.18,0-2.61,0.61-4.29,1.84c-1.68,1.23-3.31,2.75-4.89,4.57
			c-1.58,1.82-2.93,3.75-4.05,5.81c-1.12,2.06-1.68,3.94-1.68,5.65c0,0.43,0.09,0.86,0.28,1.28c0.19,0.43,0.63,0.64,1.32,0.64
			c1.12,0,2.3-0.36,3.53-1.08c1.23-0.72,2.43-1.63,3.61-2.73c1.17-1.09,2.28-2.32,3.33-3.69c1.04-1.36,1.96-2.69,2.77-3.97
			c0.8-1.28,1.44-2.46,1.92-3.53C348.39,580.8,348.63,580,348.63,579.46z"/>
		<path class="st2" d="M389.19,585.4c0,0.27-0.12,0.68-0.36,1.24s-0.55,1.11-0.92,1.64c-0.86,1.28-2.03,2.71-3.53,4.29
			c-1.5,1.58-3.17,3.06-5.01,4.45c-1.84,1.39-3.8,2.57-5.85,3.53c-2.06,0.96-4.1,1.44-6.13,1.44c-0.64,0-1.39-0.07-2.24-0.2
			c-0.86-0.13-1.66-0.44-2.4-0.92c-0.75-0.48-1.39-1.2-1.92-2.16c-0.53-0.96-0.8-2.3-0.8-4.01c0-2.56,0.57-5.09,1.72-7.58
			c1.15-2.48,2.62-4.72,4.41-6.69c1.79-1.98,3.75-3.57,5.89-4.77c2.14-1.2,4.19-1.8,6.17-1.8c1.12,0,2.07,0.27,2.85,0.8
			c0.77,0.54,1.16,1.52,1.16,2.97c0,1.28-0.41,2.69-1.24,4.21c-0.83,1.52-1.99,2.95-3.49,4.29c-1.5,1.34-3.25,2.47-5.25,3.41
			c-2,0.94-4.18,1.46-6.53,1.56c-0.05-0.05-0.11-0.05-0.16,0l-0.16,0.32c-0.43,1.23-0.64,2.38-0.64,3.45c0,0.86,0.12,1.56,0.36,2.12
			c0.24,0.56,0.56,0.99,0.96,1.28c0.4,0.29,0.84,0.49,1.32,0.6c0.48,0.11,0.93,0.16,1.36,0.16c0.96,0,2.06-0.17,3.29-0.52
			c1.23-0.35,2.65-1.04,4.25-2.08c1.6-1.04,3.38-2.5,5.33-4.37c1.95-1.87,4.1-4.36,6.45-7.46c0.05-0.11,0.11-0.19,0.16-0.24
			c0.11-0.11,0.21-0.16,0.32-0.16c0.11,0,0.24,0.09,0.4,0.28C389.11,584.66,389.19,584.97,389.19,585.4z M378.93,577.46
			c0-0.32-0.12-0.6-0.36-0.84c-0.24-0.24-0.57-0.36-1-0.36c-1.02,0-2.12,0.48-3.33,1.44s-2.35,2.1-3.45,3.41
			c-1.1,1.31-2.04,2.66-2.85,4.05c-0.8,1.39-1.34,2.51-1.6,3.37c0,0.11,0.03,0.19,0.08,0.24l0.08,0.08c1.44-0.16,2.9-0.64,4.37-1.44
			c1.47-0.8,2.81-1.74,4.01-2.81c1.2-1.07,2.18-2.24,2.93-3.53C378.55,579.78,378.93,578.58,378.93,577.46z"/>
		<path class="st2" d="M225.39,635.38c0,4.64-1.1,8.86-3.3,12.66c-2.2,3.8-5.1,7.06-8.7,9.78c-3.6,2.72-7.66,4.8-12.18,6.24
			c-4.52,1.44-9.1,2.16-13.74,2.16c-1.76,0-3.48-0.12-5.16-0.36c-1.28,2.32-2.54,4.58-3.78,6.78c-1.24,2.2-2.46,4.22-3.66,6.06
			c1.68,0.64,3.02,1.46,4.02,2.46c1,1,1.5,2.06,1.5,3.18c0,0.56-0.2,0.84-0.6,0.84c-0.16,0-0.4-0.08-0.72-0.24
			c-0.16-0.08-0.32-0.12-0.48-0.12c-1.92-1.36-3.96-2.28-6.12-2.76c-2.64,3.6-5.38,6.66-8.22,9.18c-2.84,2.52-5.64,4.56-8.4,6.12
			s-5.42,2.68-7.98,3.36c-2.56,0.68-4.92,1.02-7.08,1.02c-6.56,0-9.84-2-9.84-6c0-2.72,1.16-5.22,3.48-7.5
			c2.32-2.28,5.18-4.24,8.58-5.88c3.4-1.64,7.04-2.9,10.92-3.78c3.88-0.88,7.42-1.32,10.62-1.32c0.72,0,1.38,0,1.98,0
			c0.6,0,1.18,0.04,1.74,0.12c1.28-2.14,2.56-4.37,3.84-6.67c1.28-2.3,2.48-4.52,3.6-6.67c-1.12-0.4-2.12-0.91-3-1.55
			c-0.8-0.56-1.52-1.28-2.16-2.16c-0.64-0.88-0.96-1.92-0.96-3.12c0-0.4,0.08-0.76,0.24-1.08c0.32-0.64,0.68-0.96,1.08-0.96
			c0.56,0,1.04,0.28,1.44,0.84c0.24,0.32,0.44,0.64,0.6,0.96c0.96,0.88,1.78,1.52,2.46,1.92c0.68,0.4,1.42,0.8,2.22,1.2
			c2.16-4.48,4.48-8.7,6.96-12.66c2.48-3.96,5-7.46,7.56-10.5c2.56-3.04,5.1-5.44,7.62-7.2c2.52-1.76,4.86-2.64,7.02-2.64
			c0.16,0,0.38,0.02,0.66,0.06c0.28,0.04,0.42,0.22,0.42,0.54c0,0.24-0.24,0.6-0.72,1.08c-0.24,0.24-0.52,0.44-0.84,0.6
			c-2.08,1.44-4.28,3.52-6.6,6.24c-2,2.32-4.3,5.52-6.9,9.6c-2.6,4.08-5.3,9.32-8.1,15.72l-0.48,1.08c0.64,0.16,1.28,0.24,1.92,0.24
			c0.64,0,1.28,0,1.92,0c3.84,0,7.56-0.62,11.16-1.86c3.6-1.24,6.82-3.05,9.66-5.42c2.84-2.37,5.12-5.26,6.84-8.66
			c1.72-3.41,2.58-7.28,2.58-11.61c0-2.65-0.5-4.87-1.5-6.68c-1-1.8-2.28-3.33-3.84-4.57c-1.56-1.24-3.32-2.23-5.28-2.95
			c-1.96-0.72-3.92-1.26-5.88-1.62c-1.96-0.36-3.8-0.6-5.52-0.72c-1.72-0.12-3.14-0.18-4.26-0.18c-6.16,0-11.92,0.74-17.28,2.22
			c-5.36,1.48-10,3.38-13.92,5.7c-3.92,2.32-7,4.9-9.24,7.74c-2.24,2.84-3.36,5.62-3.36,8.34c0,1.84,0.54,3.12,1.62,3.84
			s2.98,1.08,5.7,1.08c1.44,0,3.14-0.26,5.1-0.78c1.96-0.52,3.98-1.3,6.06-2.34c2.08-1.04,4.2-2.36,6.36-3.96
			c2.16-1.6,4.12-3.48,5.88-5.64l0.48-0.48c0.24-0.24,0.52-0.36,0.84-0.36c0.32,0,0.48,0.44,0.48,1.32
			c-0.32,2.08-1.42,4.22-3.3,6.42c-1.88,2.2-4.16,4.18-6.84,5.94c-2.68,1.76-5.58,3.2-8.7,4.32c-3.12,1.12-6.04,1.68-8.76,1.68
			c-3.92,0-6.74-0.78-8.46-2.34c-1.72-1.56-2.58-3.62-2.58-6.18c0-3.84,1.3-7.56,3.9-11.16c2.6-3.6,6.2-6.82,10.8-9.66
			c4.6-2.84,10.1-5.12,16.5-6.84c6.4-1.72,13.36-2.58,20.88-2.58c4.24,0,8.24,0.48,12,1.44c3.76,0.96,7.06,2.34,9.9,4.14
			c2.84,1.8,5.1,4.02,6.78,6.66C224.55,629.14,225.39,632.1,225.39,635.38z M166.11,680.98c-5.52,0-10.06,0.58-13.62,1.74
			c-3.56,1.16-6.38,2.5-8.46,4.02c-2.08,1.52-3.52,3.04-4.32,4.56c-0.8,1.52-1.2,2.6-1.2,3.24c0,1.2,0.48,2,1.44,2.4
			c0.96,0.4,2,0.6,3.12,0.6c3.36,0,6.42-0.86,9.18-2.58c2.76-1.72,5.18-3.62,7.26-5.7C161.91,686.78,164.11,684.03,166.11,680.98z"
			/>
		<path class="st2" d="M261.75,666.46c0,0.4-0.08,0.86-0.24,1.38c-0.16,0.52-0.52,1.14-1.08,1.86c-2,2.56-3.98,4.64-5.94,6.24
			c-1.96,1.6-3.82,2.86-5.58,3.78c-1.76,0.92-3.42,1.54-4.98,1.86c-1.56,0.32-2.98,0.48-4.26,0.48c-0.64,0-1.24,0-1.8,0
			c-0.56,0-1.16-0.04-1.8-0.12c-1.52,2.16-3.32,4.12-5.4,5.88c-1.76,1.52-3.84,2.9-6.24,4.14c-2.4,1.24-5.08,1.86-8.04,1.86
			c-0.96,0-2.02-0.16-3.18-0.48c-1.16-0.32-2.22-0.88-3.18-1.68c-0.96-0.8-1.76-1.88-2.4-3.24c-0.64-1.36-0.96-3.04-0.96-5.04
			c0-3.36,0.84-6.92,2.52-10.68c1.68-3.76,3.84-7.24,6.48-10.44c2.64-3.2,5.58-5.86,8.82-7.98c3.24-2.12,6.42-3.18,9.54-3.18
			c0.56,0,1.18,0.06,1.86,0.18c0.68,0.12,1.3,0.34,1.86,0.66c0.56,0.32,1.04,0.78,1.44,1.38c0.4,0.6,0.6,1.34,0.6,2.22
			c0,0.48-0.12,0.8-0.36,0.96c-0.24,0.16-0.44,0.24-0.6,0.24c-0.48,0-0.92-0.2-1.32-0.6c-0.4-0.4-1.2-0.6-2.4-0.6
			c-2,0-4.26,0.9-6.78,2.71c-2.52,1.81-4.88,4.07-7.08,6.8c-2.2,2.73-4.04,5.72-5.52,8.97c-1.48,3.25-2.22,6.36-2.22,9.33
			c0,2.57,0.6,4.3,1.8,5.18c1.2,0.88,2.48,1.32,3.84,1.32c1.84,0,3.56-0.44,5.16-1.33c1.6-0.88,3-1.89,4.2-3.01
			c1.44-1.28,2.76-2.73,3.96-4.34c-1.52-0.88-2.7-1.77-3.54-2.65c-0.84-0.88-1.26-2.37-1.26-4.46c0-1.85,0.44-3.63,1.32-5.36
			c0.88-1.73,2-3.25,3.36-4.58c1.36-1.33,2.84-2.41,4.44-3.25c1.6-0.84,3.08-1.27,4.44-1.27c0.8,0,1.48,0.24,2.04,0.73
			c0.56,0.48,0.84,1.37,0.84,2.66c0,1.21-0.28,2.66-0.84,4.35c-0.56,1.69-1.16,3.34-1.8,4.95c-0.8,1.85-1.72,3.79-2.76,5.8h2.16
			c1.2,0,2.48-0.18,3.84-0.54c1.36-0.36,2.84-1.03,4.44-2c1.6-0.97,3.3-2.32,5.1-4.06c1.8-1.74,3.74-3.94,5.82-6.6
			c0.08,0,0.16-0.04,0.24-0.12c0.08-0.08,0.2-0.12,0.36-0.12c0.48,0,0.8,0.28,0.96,0.84C261.71,665.82,261.75,666.15,261.75,666.46z
			 M239.67,665.26c0-0.64-0.12-1-0.36-1.08c-0.16-0.08-0.28-0.12-0.36-0.12c-0.48,0-1.1,0.2-1.86,0.6c-0.76,0.4-1.46,0.98-2.1,1.74
			c-0.64,0.76-1.2,1.7-1.68,2.82c-0.48,1.12-0.72,2.36-0.72,3.72c0,1.12,0.24,1.98,0.72,2.58c0.48,0.6,1.12,1.1,1.92,1.5
			c0.88-1.52,1.64-3,2.28-4.44c0.56-1.28,1.06-2.58,1.5-3.9C239.45,667.36,239.67,666.22,239.67,665.26z"/>
		<path class="st2" d="M297.39,667.42c-3.36,4.8-6.76,8.2-10.2,10.2c-3.44,2-7.64,3-12.6,3c-1.44,2.96-3.2,5.64-5.28,8.04
			c-1.84,2.08-4.1,3.96-6.78,5.64c-2.68,1.68-5.9,2.52-9.66,2.52c-2.08,0-3.6-0.36-4.56-1.08s-1.44-1.64-1.44-2.76
			c0-2,0.7-3.92,2.1-5.76c1.4-1.84,3.22-3.48,5.46-4.92c2.24-1.44,4.7-2.62,7.38-3.54c2.68-0.92,5.34-1.5,7.98-1.74
			c1.2-2.88,2.2-5.58,3-8.1c0.8-2.52,1.48-4.7,2.04-6.54c0.64-2.16,1.12-4.16,1.44-6c0-0.4-0.12-0.6-0.36-0.6
			c-0.08,0-0.16,0.04-0.24,0.12c-0.88,0.48-1.88,1.12-3,1.92c-1.12,0.8-2.24,1.68-3.36,2.64c-1.12,0.96-2.18,1.92-3.18,2.88
			c-1,0.96-1.86,1.84-2.58,2.64c-0.8,0.88-1.54,1.68-2.22,2.4c-0.68,0.72-1.26,1.4-1.74,2.04c-0.56,0.72-1.08,1.36-1.56,1.92
			c-0.24,0.24-0.48,0.36-0.72,0.36s-0.44-0.12-0.6-0.36c-0.08-0.16-0.16-0.28-0.24-0.36v-0.24c0-0.08-0.02-0.18-0.06-0.3
			c-0.04-0.12-0.06-0.26-0.06-0.42c0-0.8,0.2-1.6,0.6-2.4c0.24-0.4,0.56-0.84,0.96-1.32c0.4-0.4,0.86-0.88,1.38-1.44
			c0.52-0.56,1.1-1.2,1.74-1.92c1.28-1.36,2.88-2.9,4.8-4.62c1.92-1.72,4.04-3.42,6.36-5.1c2.32-1.68,4.82-3.22,7.5-4.62
			c2.68-1.4,5.38-2.42,8.1-3.06c0.4,0,1,0.2,1.8,0.6c0.8,0.4,1.2,1.08,1.2,2.04c0,0.08-0.08,0.2-0.24,0.36
			c-0.24,0.24-0.56,0.36-0.96,0.36c-1.12,0.32-2.16,0.76-3.12,1.32c-0.88,0.48-1.68,1.1-2.4,1.86c-0.72,0.76-1.28,1.7-1.68,2.82
			c-0.16,0.48-0.32,1-0.48,1.56c-0.16,0.48-0.3,0.98-0.42,1.5c-0.12,0.52-0.26,0.98-0.42,1.38c-0.56,3.04-1.28,5.98-2.16,8.82
			c-0.88,2.84-1.76,5.42-2.64,7.74c1.6,0,3.06-0.12,4.38-0.36c1.32-0.24,2.68-0.76,4.08-1.56c1.4-0.8,2.94-1.98,4.62-3.54
			c1.68-1.56,3.6-3.66,5.76-6.3l0.24-0.24c0.08-0.08,0.24-0.12,0.48-0.12c0.32,0,0.6,0.12,0.84,0.36c0.16,0.16,0.32,0.42,0.48,0.78
			C297.31,666.28,297.39,666.78,297.39,667.42z M268.23,680.86c-0.8,0-2.06,0.26-3.78,0.78c-1.72,0.52-3.46,1.24-5.22,2.16
			c-1.76,0.92-3.3,2.02-4.62,3.3c-1.32,1.28-1.98,2.68-1.98,4.2c0,0.72,0.18,1.18,0.54,1.38c0.36,0.2,1.02,0.38,1.98,0.54
			c1.84,0,3.54-0.64,5.1-1.92c1.56-1.28,2.94-2.72,4.14-4.32C265.83,685.14,267.11,683.1,268.23,680.86z"/>
		<path class="st2" d="M346.83,634.66c0,0.56-0.2,0.84-0.6,0.84c-0.4,0-0.72-0.1-0.96-0.3c-0.24-0.2-0.62-0.44-1.14-0.72
			c-0.52-0.28-1.3-0.52-2.34-0.72c-1.04-0.2-2.6-0.3-4.68-0.3c-1.6,0-3.28,0.08-5.04,0.24c-1.76,0.16-3.46,0.34-5.1,0.54
			c-1.64,0.2-3.18,0.42-4.62,0.66c-1.44,0.24-2.64,0.44-3.6,0.6c-4.72,7.2-8.96,14-12.72,20.4c-1.6,2.72-3.16,5.5-4.68,8.34
			c-1.52,2.84-2.88,5.58-4.08,8.22c-1.2,2.64-2.18,5.08-2.94,7.32c-0.76,2.24-1.14,4.12-1.14,5.64c0,0.88,0.12,1.68,0.36,2.4
			s1.08,1.08,2.52,1.08c0.8,0,1.84-0.32,3.12-0.96c1.28-0.64,2.9-1.78,4.86-3.42c1.96-1.64,4.3-3.88,7.02-6.72
			c2.72-2.84,5.88-6.46,9.48-10.86c0-0.08,0.04-0.16,0.12-0.24c0.08-0.08,0.2-0.12,0.36-0.12c0.08,0,0.26,0.16,0.54,0.48
			c0.28,0.32,0.42,0.8,0.42,1.44c0,0.4-0.08,0.88-0.24,1.44c-0.16,0.56-0.56,1.24-1.2,2.04c-3.84,5.04-7.32,9.02-10.44,11.94
			c-3.12,2.92-5.86,5.1-8.22,6.54c-2.36,1.44-4.3,2.36-5.82,2.76c-1.52,0.4-2.56,0.6-3.12,0.6c-2.32,0-3.9-0.76-4.74-2.28
			c-0.84-1.52-1.26-3.12-1.26-4.8c0-2.16,0.48-4.68,1.44-7.56c0.96-2.88,2.2-5.94,3.72-9.18c1.52-3.24,3.22-6.52,5.1-9.84
			c1.88-3.32,3.7-6.48,5.46-9.48c1.76-3,3.42-5.74,4.98-8.22c1.56-2.48,2.74-4.48,3.54-6c-1.12,0.16-2.22,0.24-3.3,0.24
			c-1.08,0-2.06,0-2.94,0c-3.12,0-5.7-0.2-7.74-0.6c-2.04-0.4-3.64-0.9-4.8-1.5c-1.16-0.6-1.98-1.26-2.46-1.98
			c-0.48-0.72-0.72-1.4-0.72-2.04c0-0.88,0.16-1.52,0.48-1.92c0.32-0.4,0.6-0.6,0.84-0.6c0.48,0,0.88,0.24,1.2,0.72
			c0.56,0.88,1.52,1.68,2.88,2.4c1.12,0.64,2.68,1.2,4.68,1.68c2,0.48,4.6,0.72,7.8,0.72c1.84,0,3.88-0.12,6.12-0.36
			c1.44-2.35,2.82-4.52,4.14-6.52c1.32-2,2.54-3.68,3.66-5.04c0.24-0.4,0.6-0.76,1.08-1.08c0.4-0.24,0.98-0.46,1.74-0.66
			c0.76-0.2,1.7-0.3,2.82-0.3c0.8,0,1.3,0.1,1.5,0.3c0.2,0.2,0.3,0.38,0.3,0.54v0.36c0,0.08-0.04,0.16-0.12,0.24
			c-1.2,1.68-2.42,3.44-3.66,5.28c-1.24,1.84-2.5,3.72-3.78,5.64c1.2-0.25,2.6-0.52,4.2-0.8c1.6-0.29,3.26-0.56,4.98-0.8
			c1.72-0.25,3.4-0.45,5.04-0.62c1.64-0.17,3.1-0.25,4.38-0.25c0.48,0,1.14,0.04,1.98,0.12c0.84,0.08,1.66,0.29,2.46,0.62
			c0.8,0.33,1.48,0.85,2.04,1.55C346.55,632.49,346.83,633.45,346.83,634.66z"/>
		<path class="st2" d="M360.51,667.3c0,0.4-0.1,0.92-0.3,1.56c-0.2,0.64-0.62,1.36-1.26,2.16c-2.88,3.84-5.84,7.22-8.88,10.14
			c-3.04,2.92-5.6,5.14-7.68,6.66c-2.56,1.84-4.6,2.98-6.12,3.42c-1.52,0.44-2.76,0.66-3.72,0.66c-2.48,0-4.12-0.68-4.92-2.04
			c-0.8-1.36-1.2-2.84-1.2-4.44c0-2.4,0.58-5.02,1.74-7.86c1.16-2.84,2.46-5.5,3.9-7.98c1.68-2.88,3.56-5.76,5.64-8.64
			c0.08,0,0.12-0.04,0.12-0.12v-0.24c0-0.16-0.16-0.24-0.48-0.24c-3.44,0.88-6.36,1.4-8.76,1.56c-1.44,2-2.64,3.64-3.6,4.92
			c-0.96,1.28-1.8,2.34-2.52,3.18c-0.72,0.84-1.34,1.52-1.86,2.04c-0.52,0.52-1.06,1.02-1.62,1.5c-0.08,0.08-0.2,0.16-0.36,0.24
			c-0.32,0.16-0.56,0.24-0.72,0.24c-0.32,0-0.52-0.2-0.6-0.6c-0.08-0.4-0.12-0.76-0.12-1.08c0-0.4,0.04-0.74,0.12-1.02
			c0.08-0.28,0.2-0.54,0.36-0.78c0.16-0.32,0.32-0.56,0.48-0.72c1.28-1.44,2.28-2.64,3-3.6s1.3-1.76,1.74-2.4
			c0.44-0.64,0.74-1.14,0.9-1.5c0.16-0.36,0.28-0.62,0.36-0.78c-1.28-0.24-2.26-0.62-2.94-1.14c-0.68-0.52-1.18-1.08-1.5-1.68
			c-0.32-0.6-0.52-1.18-0.6-1.74c-0.08-0.56-0.12-1.04-0.12-1.44c0-1.68,0.54-3.36,1.62-5.04c1.08-1.68,2.4-3.2,3.96-4.56
			c1.56-1.36,3.22-2.46,4.98-3.3c1.76-0.84,3.32-1.26,4.68-1.26c1.12,0,1.82,0.24,2.1,0.72c0.28,0.48,0.42,1,0.42,1.56
			c0,1.12-0.3,2.48-0.9,4.08c-0.6,1.6-1.26,3.2-1.98,4.8c-0.88,1.84-1.84,3.72-2.88,5.64c2.16-0.08,4.16-0.54,6-1.38
			c1.84-0.84,3.44-1.78,4.8-2.82c1.6-1.2,3.04-2.52,4.32-3.96c0.72-0.64,1.64-0.96,2.76-0.96c0.96,0,1.78,0.14,2.46,0.42
			c0.68,0.28,1.02,0.58,1.02,0.9c0,0.24-0.12,0.48-0.36,0.72l-0.36,0.36c-1.68,2.56-3.62,5.32-5.82,8.28
			c-2.2,2.96-4.26,5.92-6.18,8.88c-1.92,2.96-3.54,5.8-4.86,8.52c-1.32,2.72-1.98,5.16-1.98,7.32c0,0.72,0.1,1.38,0.3,1.98
			c0.2,0.6,0.94,0.9,2.22,0.9c0.48,0,1-0.06,1.56-0.18c0.56-0.12,1.22-0.38,1.98-0.78c0.76-0.4,1.66-1.02,2.7-1.86
			c1.04-0.84,2.32-1.98,3.84-3.42c1.6-1.6,3.54-3.62,5.82-6.06c2.28-2.44,4.94-5.58,7.98-9.42c0-0.08,0.04-0.16,0.12-0.24
			c0.08-0.08,0.2-0.12,0.36-0.12l0.24,0.24c0.16,0.08,0.28,0.24,0.36,0.48C360.43,666.46,360.51,666.9,360.51,667.3z M331.47,647.5
			c0-0.64-0.14-1-0.42-1.08c-0.28-0.08-0.54-0.12-0.78-0.12c-0.56,0-1.22,0.3-1.98,0.9c-0.76,0.6-1.48,1.32-2.16,2.16
			c-0.68,0.84-1.24,1.72-1.68,2.64c-0.44,0.92-0.66,1.7-0.66,2.34c0,0.8,0.18,1.42,0.54,1.86c0.36,0.44,0.74,0.78,1.14,1.02
			c0.48,0.32,1,0.52,1.56,0.6c0.88-1.44,1.64-2.84,2.28-4.2c0.56-1.12,1.06-2.26,1.5-3.42C331.25,649.05,331.47,648.15,331.47,647.5
			z"/>
		<path class="st2" d="M396.87,668.5c0,0.4-0.18,1.02-0.54,1.86c-0.36,0.84-0.82,1.66-1.38,2.46c-1.28,1.92-3.04,4.06-5.28,6.42
			c-2.24,2.36-4.74,4.58-7.5,6.66c-2.76,2.08-5.68,3.84-8.76,5.28c-3.08,1.44-6.14,2.16-9.18,2.16c-0.96,0-2.08-0.1-3.36-0.3
			c-1.28-0.2-2.48-0.66-3.6-1.38c-1.12-0.72-2.08-1.8-2.88-3.24c-0.8-1.44-1.2-3.44-1.2-6c0-3.84,0.86-7.62,2.58-11.34
			c1.72-3.72,3.92-7.06,6.6-10.02c2.68-2.96,5.62-5.34,8.82-7.14c3.2-1.8,6.28-2.7,9.24-2.7c1.68,0,3.1,0.4,4.26,1.2
			c1.16,0.8,1.74,2.28,1.74,4.44c0,1.92-0.62,4.02-1.86,6.3c-1.24,2.28-2.98,4.42-5.22,6.42c-2.24,2-4.86,3.7-7.86,5.1
			c-3,1.4-6.26,2.18-9.78,2.34c-0.08-0.08-0.16-0.08-0.24,0l-0.24,0.48c-0.64,1.84-0.96,3.56-0.96,5.16c0,1.28,0.18,2.34,0.54,3.18
			c0.36,0.84,0.84,1.48,1.44,1.92c0.6,0.44,1.26,0.74,1.98,0.9c0.72,0.16,1.4,0.24,2.04,0.24c1.44,0,3.08-0.26,4.92-0.78
			c1.84-0.52,3.96-1.56,6.36-3.12c2.4-1.56,5.06-3.74,7.98-6.54c2.92-2.8,6.14-6.52,9.66-11.16c0.08-0.16,0.16-0.28,0.24-0.36
			c0.16-0.16,0.32-0.24,0.48-0.24c0.16,0,0.36,0.14,0.6,0.42C396.75,667.4,396.87,667.86,396.87,668.5z M381.51,656.62
			c0-0.48-0.18-0.9-0.54-1.26c-0.36-0.36-0.86-0.54-1.5-0.54c-1.52,0-3.18,0.72-4.98,2.16c-1.8,1.44-3.52,3.14-5.16,5.1
			c-1.64,1.96-3.06,3.98-4.26,6.06c-1.2,2.08-2,3.76-2.4,5.04c0,0.16,0.04,0.28,0.12,0.36l0.12,0.12c2.16-0.24,4.34-0.96,6.54-2.16
			c2.2-1.2,4.2-2.6,6-4.2c1.8-1.6,3.26-3.36,4.38-5.28C380.95,660.1,381.51,658.3,381.51,656.62z"/>
		<path class="st2" d="M434.43,667.42c-3.36,4.8-6.76,8.2-10.2,10.2c-3.44,2-7.64,3-12.6,3c-1.44,2.96-3.2,5.64-5.28,8.04
			c-1.84,2.08-4.1,3.96-6.78,5.64c-2.68,1.68-5.9,2.52-9.66,2.52c-2.08,0-3.6-0.36-4.56-1.08s-1.44-1.64-1.44-2.76
			c0-2,0.7-3.92,2.1-5.76c1.4-1.84,3.22-3.48,5.46-4.92c2.24-1.44,4.7-2.62,7.38-3.54c2.68-0.92,5.34-1.5,7.98-1.74
			c1.2-2.88,2.2-5.58,3-8.1c0.8-2.52,1.48-4.7,2.04-6.54c0.64-2.16,1.12-4.16,1.44-6c0-0.4-0.12-0.6-0.36-0.6
			c-0.08,0-0.16,0.04-0.24,0.12c-0.88,0.48-1.88,1.12-3,1.92c-1.12,0.8-2.24,1.68-3.36,2.64c-1.12,0.96-2.18,1.92-3.18,2.88
			c-1,0.96-1.86,1.84-2.58,2.64c-0.8,0.88-1.54,1.68-2.22,2.4c-0.68,0.72-1.26,1.4-1.74,2.04c-0.56,0.72-1.08,1.36-1.56,1.92
			c-0.24,0.24-0.48,0.36-0.72,0.36s-0.44-0.12-0.6-0.36c-0.08-0.16-0.16-0.28-0.24-0.36v-0.24c0-0.08-0.02-0.18-0.06-0.3
			c-0.04-0.12-0.06-0.26-0.06-0.42c0-0.8,0.2-1.6,0.6-2.4c0.24-0.4,0.56-0.84,0.96-1.32c0.4-0.4,0.86-0.88,1.38-1.44
			c0.52-0.56,1.1-1.2,1.74-1.92c1.28-1.36,2.88-2.9,4.8-4.62c1.92-1.72,4.04-3.42,6.36-5.1c2.32-1.68,4.82-3.22,7.5-4.62
			c2.68-1.4,5.38-2.42,8.1-3.06c0.4,0,1,0.2,1.8,0.6c0.8,0.4,1.2,1.08,1.2,2.04c0,0.08-0.08,0.2-0.24,0.36
			c-0.24,0.24-0.56,0.36-0.96,0.36c-1.12,0.32-2.16,0.76-3.12,1.32c-0.88,0.48-1.68,1.1-2.4,1.86c-0.72,0.76-1.28,1.7-1.68,2.82
			c-0.16,0.48-0.32,1-0.48,1.56c-0.16,0.48-0.3,0.98-0.42,1.5c-0.12,0.52-0.26,0.98-0.42,1.38c-0.56,3.04-1.28,5.98-2.16,8.82
			c-0.88,2.84-1.76,5.42-2.64,7.74c1.6,0,3.06-0.12,4.38-0.36c1.32-0.24,2.68-0.76,4.08-1.56c1.4-0.8,2.94-1.98,4.62-3.54
			c1.68-1.56,3.6-3.66,5.76-6.3l0.24-0.24c0.08-0.08,0.24-0.12,0.48-0.12c0.32,0,0.6,0.12,0.84,0.36c0.16,0.16,0.32,0.42,0.48,0.78
			C434.35,666.28,434.43,666.78,434.43,667.42z M405.27,680.86c-0.8,0-2.06,0.26-3.78,0.78c-1.72,0.52-3.46,1.24-5.22,2.16
			c-1.76,0.92-3.3,2.02-4.62,3.3c-1.32,1.28-1.98,2.68-1.98,4.2c0,0.72,0.18,1.18,0.54,1.38c0.36,0.2,1.02,0.38,1.98,0.54
			c1.84,0,3.54-0.64,5.1-1.92c1.56-1.28,2.94-2.72,4.14-4.32C402.87,685.14,404.15,683.1,405.27,680.86z"/>
	</g>
	<g>
		<g>
			
				<rect x="205.47" y="354.81" transform="matrix(0.9942 -0.1072 0.1072 0.9942 -42.5263 26.2933)" class="st1" width="35.67" height="107.79"/>
		</g>
		<g>
			
				<rect x="275.26" y="354.81" transform="matrix(0.9966 0.0823 -0.0823 0.9966 34.6466 -22.7443)" class="st1" width="35.67" height="107.79"/>
		</g>
		<g>
			
				<rect x="349.52" y="343.47" transform="matrix(0.9731 0.2303 -0.2303 0.9731 101.9753 -72.9118)" class="st1" width="27.51" height="113.69"/>
		</g>
		<g>
			<g>
				<path class="st2" d="M329.38,475.47H224.71c-26.52,0-49.34-18.92-54.27-44.98L149.8,321.18c-0.42-2.25,0.17-4.56,1.63-6.32
					c1.46-1.76,3.62-2.78,5.91-2.78h239.41c2.29,0,4.45,1.02,5.91,2.78c1.46,1.76,2.06,4.08,1.63,6.32L383.65,430.5
					C378.72,456.56,355.9,475.47,329.38,475.47z M166.6,327.43l18.93,100.21c3.55,18.82,20.03,32.47,39.18,32.47h104.67
					c19.15,0,35.63-13.66,39.18-32.47l18.93-100.21H166.6z"/>
			</g>
			<g>
				<path class="st3" d="M412.55,310.13c0,26.41-60.67,47.82-135.5,47.82c-74.83,0-135.5-21.41-135.5-47.82
					c0-26.41,60.67-103.74,135.5-103.74C351.88,206.4,412.55,283.72,412.55,310.13z"/>
				<path class="st2" d="M277.05,365.63c-69.41,0-143.18-19.45-143.18-55.5c0-16.78,17.34-44.5,42.16-67.41
					c17.8-16.43,54.6-44,101.02-44s83.21,27.57,101.02,44c24.82,22.91,42.16,50.63,42.16,67.41
					C420.22,346.18,346.46,365.63,277.05,365.63z M277.05,214.07c-73.44,0-127.82,75.98-127.82,96.06
					c0,18.95,54.66,40.15,127.82,40.15s127.82-21.2,127.82-40.15c0-10.47-14.23-34.91-37.22-56.13
					C351.5,239.09,318.24,214.07,277.05,214.07z"/>
			</g>
			<g>
				<path class="st1" d="M359.46,296.51H194.64c-18.89,0-34.2-15.31-34.2-34.2l0,0c0-18.89,15.31-34.2,34.2-34.2h164.82
					c18.89,0,34.2,15.31,34.2,34.2l0,0C393.66,281.2,378.34,296.51,359.46,296.51z"/>
				<path class="st2" d="M359.45,304.19H194.64c-23.09,0-41.88-18.79-41.88-41.88s18.79-41.88,41.88-41.88h164.81
					c23.09,0,41.88,18.79,41.88,41.88S382.55,304.19,359.45,304.19z M194.64,235.79c-14.62,0-26.52,11.9-26.52,26.53
					s11.9,26.53,26.52,26.53h164.81c14.63,0,26.53-11.9,26.53-26.53s-11.9-26.53-26.53-26.53H194.64z"/>
			</g>
			<g>
				<path class="st1" d="M320.08,250.14l-94.57-7.29c-18.83-1.45-32.92-17.9-31.47-36.73l0,0c1.45-18.83,17.9-32.92,36.73-31.47
					l94.57,7.29c18.83,1.45,32.92,17.9,31.47,36.73v0C355.35,237.5,338.91,251.59,320.08,250.14z"/>
				<path class="st2" d="M322.77,257.92c-1.09,0-2.18-0.04-3.28-0.13l-94.57-7.29c-11.15-0.86-21.3-6.01-28.58-14.51
					c-7.28-8.49-10.81-19.31-9.95-30.47c1.77-23.02,21.95-40.3,44.97-38.54l94.57,7.29c11.15,0.86,21.3,6.01,28.58,14.5
					c7.28,8.49,10.81,19.31,9.95,30.47c-0.86,11.15-6.01,21.3-14.5,28.58C342.3,254.4,332.75,257.92,322.77,257.92z M320.67,242.48
					c7.06,0.54,13.92-1.7,19.3-6.31s8.64-11.04,9.19-18.1c1.12-14.58-9.82-27.36-24.41-28.49l-94.57-7.29
					c-14.61-1.13-27.36,9.83-28.49,24.41c-0.54,7.06,1.69,13.92,6.3,19.3c4.61,5.38,11.04,8.64,18.1,9.19L320.67,242.48z"/>
			</g>
			<g>
				<path class="st1" d="M321.23,157.3c0,0-1.58-0.84-4.71-1.44c-0.15-0.03-0.29-0.07-0.44-0.1l-0.64-0.11
					c-22.97-4.92-40.2-25.33-40.2-49.77c-28.12,0-50.92,22.8-50.92,50.92l0.05,10.4c-0.23,11.39,7.84,21.56,19.41,23.59l64.18,11.26
					c12.78,2.24,24.96-6.3,27.2-19.08v0C337.09,171.98,331.06,161.48,321.23,157.3z"/>
				<path class="st2" d="M312.09,210.08c-1.81,0-3.63-0.16-5.45-0.48l-64.18-11.26c-15.23-2.67-26.06-15.84-25.75-31.3l-0.05-10.21
					c0-32.35,26.29-58.63,58.6-58.63h7.68v7.68c0,20.2,14.29,37.94,34,42.23l1.28,0.26c3.17,0.6,5.31,1.51,6.26,1.97
					c13.27,5.76,20.77,19.69,18.27,33.95c-1.44,8.2-5.98,15.35-12.8,20.13C324.62,208.14,318.44,210.08,312.09,210.08z
					 M268.16,114.13c-20.49,3.39-36.16,21.23-36.16,42.66l0.05,10.36c-0.16,8.03,5.33,14.71,13.06,16.06l64.18,11.26
					c4.15,0.73,8.36-0.2,11.82-2.63c3.46-2.43,5.77-6.06,6.5-10.22c1.28-7.28-2.58-14.38-9.38-17.27l-0.47-0.22
					c-0.2-0.09-1.11-0.45-2.68-0.75l-1.23-0.24C289.76,157.99,271.6,138.02,268.16,114.13z"/>
			</g>
			<g>
				<path class="st2" d="M277.05,472.54c-4.24,0-7.68-3.44-7.68-7.68V357.96c0-4.24,3.44-7.68,7.68-7.68c4.24,0,7.68,3.44,7.68,7.68
					v106.91C284.72,469.11,281.29,472.54,277.05,472.54z"/>
			</g>
			<g>
				<path class="st2" d="M245.58,475.47c-3.96,0-7.31-3.04-7.64-7.05l-9.12-111.07c-0.35-4.23,2.8-7.93,7.02-8.28
					c4.21-0.33,7.93,2.8,8.28,7.02l9.12,111.07c0.35,4.23-2.8,7.93-7.02,8.28C246.01,475.47,245.79,475.47,245.58,475.47z"/>
			</g>
			<g>
				<path class="st2" d="M214.72,472.54c-3.72,0-6.99-2.71-7.58-6.5l-18.01-116.21c-0.65-4.19,2.22-8.11,6.41-8.76
					c4.17-0.65,8.11,2.22,8.76,6.41l18.01,116.21c0.65,4.19-2.22,8.11-6.41,8.76C215.51,472.51,215.12,472.54,214.72,472.54z"/>
			</g>
			<g>
				<path class="st2" d="M308.51,475.45c-0.21,0-0.42-0.01-0.63-0.03c-4.23-0.35-7.37-4.05-7.02-8.28l9.12-111.07
					c0.35-4.22,4.07-7.37,8.28-7.02c4.23,0.35,7.37,4.05,7.02,8.28l-9.12,111.07C315.82,472.41,312.47,475.45,308.51,475.45z"/>
			</g>
			<g>
				<path class="st2" d="M339.37,472.52c-0.39,0-0.79-0.03-1.18-0.09c-4.19-0.65-7.06-4.57-6.41-8.76l18.01-116.21
					c0.65-4.19,4.6-7.06,8.76-6.41c4.19,0.65,7.06,4.57,6.41,8.76l-18.01,116.21C346.36,469.81,343.09,472.52,339.37,472.52z"/>
			</g>
		</g>
	</g>
</g>
</svg>
