<?xml version="1.0" encoding="utf-8"?>
<!-- Generator: Adobe Illustrator 23.0.5, SVG Export Plug-In . SVG Version: 6.00 Build 0)  -->
<svg version="1.1" id="Capa_1" xmlns="http://www.w3.org/2000/svg" xmlns:xlink="http://www.w3.org/1999/xlink" x="0px" y="0px"
	 viewBox="0 0 557.5 850.72" style="enable-background:new 0 0 557.5 850.72;" xml:space="preserve">
<style type="text/css">
	.st0{fill:url(#SVGID_1_);}
	.st1{fill:#FFFFFF;}
	.st2{fill:#230131;}
	.st3{fill:#CB88A1;}
	.st4{fill:#C24131;}
	.st5{fill:#BE1622;}
	.st6{fill:#935EA3;}
	.st7{fill:none;}
	.st8{fill:none;stroke:#FFFFFF;stroke-width:2;stroke-miterlimit:10;}
	.st9{fill:#E9B6A3;}
	.st10{opacity:0.9;fill:#230131;}
	.st11{opacity:0.24;fill:url(#SVGID_2_);}
	.st12{fill:#BF1A1B;}
	.st13{fill:#FFEC00;}
	.st14{fill:url(#SVGID_3_);}
	.st15{fill:url(#SVGID_4_);}
	.st16{fill:url(#SVGID_5_);}
	.st17{fill:url(#SVGID_6_);}
	.st18{fill:url(#SVGID_7_);}
	.st19{fill:url(#SVGID_8_);}
	.st20{fill:url(#SVGID_9_);}
	.st21{fill:url(#SVGID_10_);}
	.st22{fill:url(#SVGID_11_);}
	.st23{fill:url(#SVGID_12_);}
	.st24{fill:#E9C064;}
	.st25{fill:#E9C064;stroke:#FFFFFF;stroke-width:20;stroke-miterlimit:10;}
	.st26{clip-path:url(#SVGID_14_);}
	.st27{fill:url(#SVGID_15_);}
	.st28{fill:url(#SVGID_16_);}
	.st29{fill:url(#SVGID_17_);}
	.st30{fill:url(#SVGID_18_);}
	.st31{fill:url(#SVGID_19_);}
	.st32{fill:url(#SVGID_20_);}
	.st33{fill:url(#SVGID_21_);}
	.st34{fill:url(#SVGID_22_);}
	.st35{fill:url(#SVGID_23_);}
	.st36{fill:url(#SVGID_24_);}
	.st37{fill:url(#SVGID_25_);}
	.st38{fill:url(#SVGID_26_);}
	.st39{fill:url(#SVGID_27_);}
	.st40{opacity:0.24;fill:url(#SVGID_28_);}
	.st41{fill:url(#SVGID_29_);}
	.st42{fill:url(#SVGID_30_);}
	.st43{fill:url(#SVGID_31_);}
	.st44{opacity:0.24;fill:url(#SVGID_32_);}
	.st45{fill:url(#SVGID_33_);}
	.st46{fill:url(#SVGID_34_);}
	.st47{fill:url(#SVGID_35_);}
	.st48{opacity:0.24;fill:url(#SVGID_36_);}
	.st49{clip-path:url(#SVGID_38_);}
	.st50{opacity:0.63;clip-path:url(#SVGID_38_);fill:url(#SVGID_41_);}
	.st51{opacity:0;clip-path:url(#SVGID_38_);fill:url(#SVGID_42_);}
	.st52{opacity:0.22;clip-path:url(#SVGID_38_);fill:url(#SVGID_43_);}
	.st53{fill:url(#SVGID_44_);}
	.st54{clip-path:url(#SVGID_46_);}
	.st55{fill:url(#SVGID_47_);}
	.st56{fill:url(#SVGID_48_);}
	.st57{fill:url(#SVGID_49_);}
	.st58{fill:url(#SVGID_50_);}
	.st59{fill:url(#SVGID_51_);}
	.st60{fill:url(#SVGID_52_);}
	.st61{fill:url(#SVGID_53_);}
	.st62{fill:url(#SVGID_54_);}
	.st63{fill:url(#SVGID_55_);}
	.st64{fill:url(#SVGID_56_);}
	.st65{fill:url(#SVGID_57_);}
	.st66{clip-path:url(#SVGID_59_);}
	.st67{fill:#A1C538;}
	.st68{fill:#886FAE;}
	.st69{fill:#E9C063;}
	.st70{fill:url(#SVGID_60_);stroke:#230131;stroke-width:12;stroke-miterlimit:10;}
	.st71{clip-path:url(#SVGID_62_);}
	.st72{fill:url(#SVGID_63_);}
	.st73{opacity:0.5;}
	.st74{fill:#EDCD83;}
	.st75{opacity:0.62;clip-path:url(#SVGID_62_);fill:url(#SVGID_64_);}
	.st76{clip-path:url(#SVGID_62_);fill:url(#SVGID_65_);}
	.st77{fill:url(#SVGID_66_);}
	.st78{fill:#E9C064;stroke:#230131;stroke-width:20;stroke-miterlimit:10;}
	.st79{fill:url(#SVGID_67_);}
	.st80{fill:url(#SVGID_68_);}
	.st81{clip-path:url(#SVGID_62_);fill:url(#SVGID_69_);}
	.st82{fill:url(#SVGID_70_);}
	.st83{fill:url(#SVGID_71_);}
	.st84{opacity:0.34;fill:#230131;}
	.st85{fill:url(#SVGID_72_);}
	.st86{fill:url(#SVGID_73_);}
	.st87{fill:url(#SVGID_74_);}
	.st88{fill:url(#SVGID_75_);}
	.st89{fill:url(#SVGID_76_);}
	.st90{fill:url(#SVGID_77_);}
	.st91{fill:url(#SVGID_78_);}
	.st92{fill:url(#SVGID_79_);}
	.st93{fill:url(#SVGID_80_);}
	.st94{fill:url(#SVGID_81_);}
	.st95{fill:url(#SVGID_82_);}
	.st96{fill:url(#SVGID_83_);}
	.st97{clip-path:url(#SVGID_85_);}
	.st98{fill:url(#SVGID_86_);}
	.st99{fill:#D5A0B4;}
	.st100{fill:#D15F81;}
	.st101{fill:#F09C83;}
	.st102{opacity:0.62;clip-path:url(#SVGID_85_);fill:url(#SVGID_87_);}
	.st103{clip-path:url(#SVGID_85_);fill:url(#SVGID_88_);}
	.st104{fill:url(#SVGID_89_);}
	.st105{fill:url(#SVGID_90_);}
	.st106{fill:#CB88A1;stroke:#230131;stroke-width:20;stroke-miterlimit:10;}
	.st107{fill:url(#SVGID_91_);}
	.st108{clip-path:url(#SVGID_85_);fill:url(#SVGID_92_);}
	.st109{fill:url(#SVGID_93_);}
	.st110{fill:url(#SVGID_94_);}
	.st111{fill:url(#SVGID_95_);}
	.st112{fill:url(#SVGID_96_);}
	.st113{fill:url(#SVGID_97_);}
	.st114{fill:url(#SVGID_98_);}
	.st115{fill:url(#SVGID_99_);}
	.st116{fill:url(#SVGID_100_);}
	.st117{fill:url(#SVGID_101_);}
	.st118{fill:url(#SVGID_102_);}
	.st119{fill:url(#SVGID_103_);}
	.st120{clip-path:url(#SVGID_105_);}
	.st121{fill:url(#SVGID_106_);}
	.st122{fill:#CE675A;}
	.st123{fill:#DD4B1A;}
	.st124{fill:#F4971E;}
	.st125{opacity:0.62;clip-path:url(#SVGID_105_);fill:url(#SVGID_107_);}
	.st126{clip-path:url(#SVGID_105_);fill:url(#SVGID_108_);}
	.st127{fill:url(#SVGID_109_);}
	.st128{fill:url(#SVGID_110_);}
	.st129{fill:url(#SVGID_111_);}
	.st130{fill:#C24131;stroke:#230131;stroke-width:20;stroke-miterlimit:10;}
	.st131{clip-path:url(#SVGID_105_);fill:url(#SVGID_112_);}
	.st132{fill:url(#SVGID_113_);}
	.st133{fill:url(#SVGID_114_);}
	.st134{fill:url(#SVGID_115_);}
	.st135{fill:url(#SVGID_116_);}
	.st136{fill:url(#SVGID_117_);}
	.st137{fill:url(#SVGID_118_);}
	.st138{fill:url(#SVGID_119_);}
	.st139{fill:url(#SVGID_120_);}
	.st140{fill:url(#SVGID_121_);}
	.st141{fill:url(#SVGID_122_);}
	.st142{fill:url(#SVGID_123_);}
	.st143{fill:url(#SVGID_124_);}
	.st144{fill:url(#SVGID_125_);}
	.st145{opacity:0.35;}
	.st146{fill:#ECECEC;}
	.st147{fill:url(#SVGID_126_);}
	.st148{clip-path:url(#SVGID_128_);}
	.st149{fill:url(#SVGID_129_);}
	.st150{fill:#FBBA00;}
	.st151{opacity:0.62;fill:url(#SVGID_130_);}
	.st152{fill:url(#SVGID_131_);}
	.st153{fill:url(#SVGID_132_);}
	.st154{fill:url(#SVGID_133_);}
	.st155{fill:url(#SVGID_134_);}
	.st156{fill:url(#SVGID_135_);}
	.st157{fill:url(#SVGID_136_);}
	.st158{fill:url(#SVGID_137_);}
	.st159{fill:url(#SVGID_138_);}
	.st160{fill:url(#SVGID_139_);}
	.st161{fill:url(#SVGID_140_);}
	.st162{fill:url(#SVGID_143_);}
	.st163{fill:url(#SVGID_144_);}
	.st164{fill:url(#SVGID_145_);}
	.st165{fill:url(#SVGID_146_);}
	.st166{fill:url(#SVGID_147_);}
	.st167{fill:url(#SVGID_148_);}
	.st168{fill:url(#SVGID_149_);}
	.st169{fill:url(#SVGID_150_);}
	.st170{fill:url(#SVGID_151_);}
	.st171{fill:url(#SVGID_152_);}
	.st172{fill:url(#SVGID_155_);}
	.st173{fill:url(#SVGID_156_);}
	.st174{fill:url(#SVGID_157_);}
	.st175{fill:url(#SVGID_158_);}
	.st176{fill:url(#SVGID_159_);}
	.st177{fill:url(#SVGID_160_);}
	.st178{fill:url(#SVGID_161_);}
	.st179{fill:url(#SVGID_162_);}
	.st180{fill:url(#SVGID_163_);}
	.st181{fill:url(#SVGID_164_);}
	.st182{fill:url(#SVGID_167_);}
	.st183{fill:url(#SVGID_168_);}
	.st184{fill:url(#SVGID_169_);}
	.st185{fill:url(#SVGID_170_);}
	.st186{fill:url(#SVGID_171_);}
	.st187{fill:url(#SVGID_172_);}
	.st188{fill:url(#SVGID_173_);}
	.st189{fill:url(#SVGID_174_);}
	.st190{fill:url(#SVGID_175_);}
	.st191{fill:url(#SVGID_176_);}
	.st192{clip-path:url(#SVGID_178_);}
	.st193{clip-path:url(#SVGID_180_);}
	.st194{clip-path:url(#SVGID_188_);}
	.st195{clip-path:url(#SVGID_190_);}
	.st196{opacity:0.35;clip-path:url(#SVGID_192_);}
	.st197{clip-path:url(#SVGID_192_);fill:url(#SVGID_193_);}
	.st198{clip-path:url(#SVGID_192_);}
	.st199{clip-path:url(#SVGID_195_);fill:url(#SVGID_196_);}
	.st200{clip-path:url(#SVGID_198_);}
	.st201{opacity:0.62;clip-path:url(#SVGID_192_);fill:url(#SVGID_199_);}
	.st202{fill:url(#SVGID_200_);}
	.st203{fill:url(#SVGID_201_);}
	.st204{fill:url(#SVGID_202_);}
	.st205{fill:url(#SVGID_203_);}
	.st206{fill:url(#SVGID_204_);}
	.st207{fill:url(#SVGID_205_);}
	.st208{fill:url(#SVGID_206_);}
	.st209{fill:url(#SVGID_207_);}
	.st210{fill:url(#SVGID_208_);}
	.st211{fill:url(#SVGID_209_);}
	.st212{fill-rule:evenodd;clip-rule:evenodd;fill:#FFFFFF;}
	.st213{fill:#72BB6F;}
	.st214{fill:#1DBADF;}
	.st215{fill:url(#SVGID_212_);}
	.st216{fill:url(#SVGID_213_);}
	.st217{fill:url(#SVGID_214_);}
	.st218{fill:url(#SVGID_215_);}
	.st219{fill:url(#SVGID_216_);}
	.st220{fill:url(#SVGID_217_);}
	.st221{fill:url(#SVGID_218_);}
	.st222{fill:url(#SVGID_219_);}
	.st223{fill:url(#SVGID_220_);}
	.st224{fill:url(#SVGID_221_);}
	.st225{fill:url(#SVGID_224_);}
	.st226{fill:url(#SVGID_225_);}
	.st227{fill:url(#SVGID_226_);}
	.st228{fill:url(#SVGID_227_);}
	.st229{fill:url(#SVGID_228_);}
	.st230{fill:url(#SVGID_229_);}
	.st231{fill:url(#SVGID_230_);}
	.st232{fill:url(#SVGID_231_);}
	.st233{fill:url(#SVGID_232_);}
	.st234{fill:url(#SVGID_233_);}
	.st235{fill:url(#SVGID_236_);}
	.st236{fill:url(#SVGID_237_);}
	.st237{fill:url(#SVGID_238_);}
	.st238{fill:url(#SVGID_239_);}
	.st239{fill:url(#SVGID_240_);}
	.st240{fill:url(#SVGID_241_);}
	.st241{fill:url(#SVGID_242_);}
	.st242{fill:url(#SVGID_243_);}
	.st243{fill:url(#SVGID_244_);}
	.st244{fill:url(#SVGID_245_);}
	.st245{fill:url(#SVGID_248_);}
	.st246{fill:url(#SVGID_249_);}
	.st247{fill:url(#SVGID_250_);}
	.st248{fill:url(#SVGID_251_);}
	.st249{fill:url(#SVGID_252_);}
	.st250{fill:url(#SVGID_253_);}
	.st251{fill:url(#SVGID_254_);}
	.st252{fill:url(#SVGID_255_);}
	.st253{fill:url(#SVGID_256_);}
	.st254{fill:url(#SVGID_257_);}
	.st255{clip-path:url(#SVGID_259_);}
	.st256{clip-path:url(#SVGID_261_);}
	.st257{clip-path:url(#SVGID_269_);}
	.st258{clip-path:url(#SVGID_271_);}
	.st259{clip-path:url(#SVGID_273_);}
	.st260{clip-path:url(#SVGID_275_);}
	.st261{fill:#230131;stroke:#230131;stroke-miterlimit:10;}
	.st262{fill:#350030;}
	.st263{fill:url(#SVGID_278_);}
	.st264{fill:url(#SVGID_279_);}
	.st265{fill:url(#SVGID_280_);}
	.st266{fill:url(#SVGID_281_);}
	.st267{fill:url(#SVGID_282_);}
	.st268{fill:url(#SVGID_283_);}
	.st269{fill:url(#SVGID_284_);}
	.st270{fill:url(#SVGID_285_);}
	.st271{fill:url(#SVGID_286_);}
	.st272{fill:url(#SVGID_287_);}
	.st273{fill:#FDCC68;}
	.st274{fill:#8CC15C;}
	.st275{fill:url(#SVGID_288_);}
	.st276{fill:url(#SVGID_289_);}
	.st277{fill:url(#SVGID_290_);}
</style>
<g>
	<g>
		<path class="st24" d="M497.5,850.72H60c-33.14,0-60-26.86-60-60V60C0,26.86,26.86,0,60,0l437.5,0c33.14,0,60,26.86,60,60v730.72
			C557.5,823.86,530.63,850.72,497.5,850.72z"/>
	</g>
	<g>
		<path class="st2" d="M184.94,545.49h0.08c0.26,0,0.46,0.1,0.62,0.31c0.15,0.21,0.26,0.44,0.31,0.69c0,0.05,0,0.1,0,0.15
			c0,0.41-0.13,0.87-0.39,1.39c-0.26,0.51-0.64,1.03-1.16,1.54c-0.26,0.31-0.55,0.62-0.89,0.93c-0.33,0.31-0.68,0.59-1.04,0.85
			c-0.82,0.62-1.71,1.16-2.66,1.62c-0.95,0.46-1.92,0.88-2.89,1.23c-0.87,0.31-1.73,0.54-2.58,0.69c-0.85,0.15-1.63,0.23-2.35,0.23
			c-2.93,0-5.45-1.12-7.56-3.35c-2.11-2.24-3.16-4.9-3.16-7.98c0-3.96,1.68-7.44,5.05-10.45c3.37-3.01,7.31-4.51,11.83-4.51
			c0.2,0,0.42,0,0.66,0c0.23,0,0.45,0,0.66,0c1.8,0.1,3.67,0.44,5.63,1c1.95,0.57,4.21,1.41,6.78,2.54c1.54,0.67,2.8,1.17,3.78,1.5
			c0.98,0.33,1.88,0.55,2.7,0.66c0.31,0,0.6,0.01,0.89,0.04c0.28,0.03,0.58,0.04,0.89,0.04c0.26,0,0.47,0,0.66,0
			c0.18,0,0.37,0,0.58,0c0.1-0.05,0.22-0.08,0.35-0.08c0.13,0,0.27-0.03,0.42-0.08c0.41-0.05,0.77-0.09,1.08-0.12
			c0.31-0.03,0.56-0.04,0.77-0.04c0.72,0,1.27,0.22,1.66,0.66c0.39,0.44,0.58,1.04,0.58,1.81c0,0.1,0,0.19,0,0.27s0,0.17,0,0.27
			c-0.05,0.21-0.13,0.49-0.23,0.85c-0.1,0.36-0.33,1.08-0.69,2.16c-0.15,0.46-0.3,1-0.42,1.62c-0.13,0.62-0.22,1.23-0.27,1.85
			c-0.05,0.41-0.09,0.8-0.12,1.16c-0.03,0.36-0.04,0.72-0.04,1.08c0,0.51,0.03,1.17,0.08,1.97c0.05,0.8,0.1,1.68,0.15,2.66
			c0.05,0.62,0.09,1.16,0.12,1.62c0.03,0.46,0.04,0.9,0.04,1.31c0.05,0.41,0.08,0.82,0.08,1.23c0,0.41,0,0.9,0,1.46
			c0.77-1.49,1.5-2.85,2.2-4.09s1.4-2.39,2.12-3.47c1.03-1.64,2.09-3.12,3.2-4.43c1.1-1.31,2.3-2.58,3.58-3.82
			c0.05-0.05,0.1-0.1,0.15-0.15c0.05-0.05,0.1-0.1,0.15-0.15c0.41-0.41,0.85-0.81,1.31-1.19c0.46-0.39,0.9-0.76,1.31-1.12
			c2.05-1.7,4.06-3.03,6.01-4.01c1.95-0.98,3.6-1.46,4.93-1.46c0.77,0,1.4,0.19,1.89,0.58c0.49,0.39,0.73,0.94,0.73,1.66
			c0,0.1,0,0.19,0,0.27c0,0.08,0,0.17,0,0.27c-0.05,0.31-0.18,0.68-0.39,1.12c-0.21,0.44-0.57,1.09-1.08,1.97
			c-0.31,0.51-0.64,1.13-1,1.85c-0.36,0.72-0.72,1.49-1.08,2.31c-0.15,0.36-0.32,0.75-0.5,1.16c-0.18,0.41-0.35,0.8-0.5,1.16
			c-0.26,0.57-0.49,1.13-0.69,1.7c-0.21,0.57-0.41,1.11-0.62,1.62c-0.77,2.06-1.36,3.93-1.77,5.63c-0.41,1.7-0.69,3.37-0.85,5.01
			c0,0.41-0.01,0.82-0.04,1.23c-0.03,0.41-0.04,0.82-0.04,1.23c0,1.85,0.27,3.33,0.81,4.43c0.54,1.11,1.27,1.68,2.2,1.73
			c0.15,0,0.32-0.03,0.5-0.08c0.18-0.05,0.37-0.13,0.58-0.23c0.31-0.1,0.59-0.19,0.85-0.27c0.26-0.08,0.44-0.12,0.54-0.12
			c0.41,0,0.74,0.18,1,0.54c0.26,0.36,0.39,0.82,0.39,1.39c0,0.26-0.01,0.51-0.04,0.77c-0.03,0.26-0.07,0.51-0.12,0.77
			c-0.41,2.98-1.79,5.71-4.12,8.17c-2.34,2.47-4.87,3.91-7.59,4.32c-0.21,0-0.41,0.01-0.62,0.04c-0.21,0.03-0.41,0.04-0.62,0.04
			c-2.21,0-3.95-0.9-5.2-2.7c-1.26-1.8-1.89-4.29-1.89-7.48c0-0.15,0-0.31,0-0.46s0-0.31,0-0.46c0.1-3.6,0.76-7.25,1.97-10.95
			c1.21-3.7,3.07-7.76,5.59-12.18c-0.31,0.26-0.6,0.5-0.89,0.73c-0.28,0.23-0.53,0.48-0.73,0.73c-0.21,0.15-0.4,0.33-0.58,0.54
			c-0.18,0.21-0.35,0.41-0.5,0.62c-0.26,0.36-0.53,0.75-0.81,1.16c-0.28,0.41-0.6,0.9-0.96,1.46c-0.26,0.36-0.49,0.73-0.69,1.12
			c-0.21,0.39-0.41,0.76-0.62,1.12c-0.15,0.15-0.28,0.33-0.39,0.54c-0.1,0.21-0.21,0.41-0.31,0.62c-0.46,0.77-0.93,1.62-1.39,2.54
			s-0.98,1.98-1.54,3.16c-0.51,1.03-0.96,1.93-1.35,2.7s-0.76,1.52-1.12,2.24c-0.1,0.15-0.21,0.32-0.31,0.5
			c-0.1,0.18-0.21,0.37-0.31,0.58c-0.36,0.62-0.73,1.25-1.12,1.89c-0.39,0.64-0.84,1.38-1.35,2.2c-0.57,0.93-1.09,1.67-1.58,2.24
			c-0.49,0.57-0.96,0.98-1.43,1.23c-0.21,0.15-0.42,0.26-0.66,0.31c-0.23,0.05-0.48,0.08-0.73,0.08c-0.72,0-1.26-0.21-1.62-0.62
			c-0.36-0.41-0.54-1.03-0.54-1.85c0-0.05,0-0.12,0-0.19s0-0.14,0-0.19c0-0.31,0.03-0.64,0.08-1c0.05-0.36,0.13-1,0.23-1.93
			c0.05-0.26,0.1-0.67,0.15-1.23c0.05-0.56,0.1-1.23,0.15-2c0.05-1.18,0.09-2.17,0.12-2.97c0.03-0.8,0.04-1.35,0.04-1.66
			c0-0.62-0.01-1.3-0.04-2.04c-0.03-0.74-0.09-1.61-0.19-2.58c-0.05-1.03-0.1-2.02-0.15-2.97c-0.05-0.95-0.08-1.63-0.08-2.04
			c0-0.31,0-0.59,0-0.85c0-0.26,0-0.51,0-0.77c0.05-0.41,0.1-0.83,0.15-1.27c0.05-0.44,0.1-0.99,0.15-1.66
			c-0.15,0.26-0.28,0.51-0.39,0.77c-0.1,0.26-0.21,0.51-0.31,0.77c-0.1,0.21-0.19,0.41-0.27,0.62c-0.08,0.21-0.17,0.41-0.27,0.62
			c-0.21,0.57-0.41,1.21-0.62,1.93c-0.21,0.72-0.46,1.62-0.77,2.7c-0.72,2.72-1.21,4.55-1.46,5.47c-0.26,0.93-0.49,1.7-0.69,2.31
			c-0.1,0.46-0.24,1.05-0.42,1.77c-0.18,0.72-0.5,1.93-0.96,3.62c-1.95,6.78-5.26,12.05-9.91,15.8c-4.65,3.75-10.16,5.63-16.54,5.63
			c-5.14,0-9.37-1.46-12.68-4.39c-3.32-2.93-4.97-6.66-4.97-11.18c0-5.09,1.91-9.35,5.74-12.8c3.83-3.44,8.54-5.17,14.15-5.17
			c1.8,0,3.22,0.23,4.28,0.69c1.05,0.46,1.58,1.13,1.58,2c0,0.1-0.01,0.21-0.04,0.31c-0.03,0.1-0.07,0.21-0.12,0.31
			c-0.05,0.15-0.15,0.31-0.31,0.46c-0.15,0.15-0.39,0.33-0.69,0.54c-0.31,0.26-0.59,0.57-0.85,0.93c-0.26,0.36-0.46,0.75-0.62,1.16
			c-0.05,0.1-0.09,0.23-0.12,0.39c-0.03,0.15-0.04,0.31-0.04,0.46c0,1.03,0.47,1.92,1.43,2.66c0.95,0.75,2.07,1.12,3.35,1.12
			c1.03,0,1.97-0.18,2.81-0.54c0.85-0.36,1.68-0.95,2.51-1.77c1.03-1.08,2.07-2.56,3.12-4.43c1.05-1.88,2.25-4.3,3.58-7.29
			c1.08-2.36,1.9-4.17,2.47-5.44c0.56-1.26,1.08-2.3,1.54-3.12c0.1-0.2,0.2-0.4,0.31-0.58c0.1-0.18,0.2-0.35,0.31-0.5
			c0.26-0.41,0.55-0.83,0.89-1.27c0.33-0.44,0.73-0.96,1.2-1.58c-1.59-0.46-2.99-0.81-4.2-1.04c-1.21-0.23-2.22-0.35-3.05-0.35
			c-1.23,0-2.27,0.32-3.12,0.96c-0.85,0.64-1.27,1.43-1.27,2.35c0,0.46,0.14,0.89,0.42,1.27c0.28,0.39,0.6,0.58,0.96,0.58h0.08
			L184.94,545.49z"/>
		<path class="st2" d="M242.99,570.69c0,0.98,0.37,1.77,1.12,2.36c0.74,0.59,1.68,0.89,2.81,0.89c0.62,0,1.34-0.09,2.16-0.27
			c0.82-0.18,1.64-0.45,2.47-0.81c0.31-0.1,0.62-0.22,0.93-0.35c0.31-0.13,0.62-0.27,0.93-0.42c0.1-0.05,0.18-0.09,0.23-0.12
			c0.05-0.03,0.1-0.06,0.15-0.12c0.1-0.05,0.32-0.17,0.66-0.35c0.33-0.18,1.19-0.71,2.58-1.58c0.2-0.1,0.41-0.19,0.62-0.27
			c0.2-0.08,0.41-0.14,0.62-0.19c0.1-0.05,0.2-0.08,0.31-0.08c0.1,0,0.2,0,0.31,0c0.51,0,0.94,0.15,1.27,0.46
			c0.33,0.31,0.5,0.75,0.5,1.31c0,0.82-0.36,1.72-1.08,2.7c-0.72,0.98-1.75,2-3.08,3.08c-2.26,1.75-4.56,3.07-6.9,3.97
			c-2.34,0.9-4.69,1.35-7.05,1.35c-3.91,0-7.11-1.16-9.6-3.48c-2.49-2.32-3.74-5.36-3.74-9.12c0-4.89,2.04-9.17,6.13-12.83
			c4.09-3.66,8.85-5.49,14.3-5.49c2.93,0,5.33,0.75,7.21,2.24c1.88,1.5,2.81,3.43,2.81,5.8c0,2.94-1.56,5.43-4.66,7.46
			c-3.11,2.04-7.11,3.19-11.99,3.44V570.69z M248.43,562.07c1-0.57,1.5-1.28,1.5-2.16c0-0.51-0.15-0.94-0.46-1.27
			c-0.31-0.33-0.69-0.5-1.16-0.5c-0.98,0-1.88,0.46-2.7,1.39c-0.82,0.92-1.44,2.21-1.85,3.85
			C245.87,563.07,247.42,562.63,248.43,562.07z"/>
		<path class="st2" d="M283.39,553.36c2.26,1.23,3.39,2.78,3.39,4.63c0,0.98-0.37,1.85-1.12,2.62c-0.75,0.77-1.63,1.16-2.66,1.16
			c-0.15,0-0.32-0.01-0.5-0.04c-0.18-0.03-0.35-0.06-0.5-0.12c-0.51-0.1-1.03-0.35-1.54-0.73c-0.51-0.39-1.16-0.91-1.93-1.58
			c-0.67-0.67-1.23-1.14-1.7-1.43c-0.46-0.28-0.9-0.42-1.31-0.42c-0.41,0-0.77,0.12-1.08,0.35c-0.31,0.23-0.46,0.53-0.46,0.89
			c0,0.36,0.14,0.73,0.42,1.12c0.28,0.39,0.68,0.78,1.2,1.2c0.05,0,0.08,0.03,0.08,0.08c0.05,0,0.22,0.08,0.5,0.23
			c0.28,0.15,1.25,0.69,2.89,1.62c1.95,1.08,3.43,2.29,4.43,3.62c1,1.34,1.5,2.83,1.5,4.47c0,3.29-1.41,5.96-4.24,8.02
			c-2.83,2.06-6.48,3.08-10.95,3.08c-3.6,0-6.55-0.71-8.87-2.12c-2.31-1.41-3.47-3.25-3.47-5.51c0-1.44,0.45-2.63,1.35-3.58
			c0.9-0.95,2.02-1.43,3.35-1.43c0.46,0,0.87,0.03,1.23,0.08c0.36,0.05,0.72,0.15,1.08,0.31c0.56,0.26,1.16,0.68,1.77,1.27
			c0.62,0.59,1.41,1.4,2.39,2.43c0.15,0.21,0.32,0.39,0.5,0.54c0.18,0.15,0.37,0.31,0.58,0.46c0.46,0.36,0.91,0.63,1.35,0.81
			c0.44,0.18,0.83,0.27,1.2,0.27c0.41,0,0.8-0.17,1.16-0.5c0.36-0.33,0.54-0.71,0.54-1.12c0-0.15,0-0.3,0-0.42
			c0-0.13-0.03-0.24-0.08-0.35c-0.15-0.31-0.53-0.68-1.12-1.12c-0.59-0.44-1.68-1.17-3.28-2.2c-1.44-0.93-2.61-1.75-3.51-2.47
			c-0.9-0.72-1.61-1.41-2.12-2.08c-0.46-0.67-0.8-1.35-1-2.04c-0.21-0.69-0.31-1.48-0.31-2.35c0-2.62,1.22-4.86,3.66-6.71
			c2.44-1.85,5.36-2.78,8.75-2.78C278.33,551.5,281.13,552.12,283.39,553.36z"/>
		<path class="st2" d="M317,568.93c-0.15,0.67-0.27,1.22-0.35,1.66c-0.08,0.44-0.12,0.78-0.12,1.04c-0.05,0.51,0.15,0.99,0.62,1.43
			c0.46,0.44,1,0.66,1.62,0.66c0.2,0,0.4-0.01,0.58-0.04c0.18-0.02,0.35-0.06,0.5-0.12c0.1,0,0.19-0.01,0.27-0.04
			c0.08-0.03,0.17-0.06,0.27-0.12c0.41-0.15,0.77-0.27,1.08-0.35s0.56-0.12,0.77-0.12c0.31,0,0.59,0.14,0.85,0.42
			c0.26,0.28,0.39,0.6,0.39,0.96c0,0.41-0.13,0.86-0.39,1.35c-0.26,0.49-0.64,0.96-1.16,1.43c-0.15,0.15-0.3,0.3-0.42,0.42
			c-0.13,0.13-0.27,0.24-0.42,0.35c-0.98,0.87-2.04,1.62-3.2,2.24c-1.16,0.62-2.33,1.08-3.51,1.39c-0.62,0.15-1.25,0.28-1.89,0.39
			c-0.64,0.1-1.27,0.15-1.89,0.15c-1.85,0-3.37-0.58-4.55-1.73c-1.18-1.16-1.77-2.63-1.77-4.43c0-0.26,0-0.53,0-0.81
			c0-0.28,0.03-0.6,0.08-0.96c-0.93,1.13-1.62,1.99-2.08,2.58c-0.46,0.59-0.9,1.09-1.31,1.5c-0.05,0.05-0.12,0.1-0.19,0.15
			c-0.08,0.05-0.14,0.1-0.19,0.15c-0.1,0.15-0.21,0.28-0.31,0.39c-0.1,0.1-0.23,0.21-0.39,0.31c-0.57,0.57-1.18,1.05-1.85,1.46
			c-0.67,0.41-1.36,0.74-2.08,1c-0.51,0.15-1,0.28-1.46,0.39c-0.46,0.1-0.93,0.15-1.39,0.15c-2.26,0-4.14-0.94-5.63-2.81
			c-1.49-1.88-2.24-4.3-2.24-7.29c0-5.19,1.76-9.91,5.28-14.15c3.52-4.24,7.41-6.36,11.68-6.36c1.49,0,2.86,0.27,4.12,0.81
			c1.26,0.54,2.38,1.38,3.35,2.51c1.39-0.98,2.48-1.68,3.28-2.12c0.8-0.44,1.55-0.73,2.27-0.89c0.2-0.05,0.44-0.09,0.69-0.12
			c0.26-0.02,0.51-0.04,0.77-0.04c1.03,0,1.85,0.27,2.47,0.81c0.62,0.54,0.93,1.25,0.93,2.12c0,0.15-0.01,0.36-0.04,0.62
			c-0.03,0.26-0.09,0.54-0.19,0.85L317,568.93z M301.24,561.06c-0.9,1.03-1.35,2.21-1.35,3.55c0,0.88,0.22,1.57,0.66,2.08
			c0.44,0.51,1.07,0.77,1.89,0.77c1.03,0,1.97-0.55,2.81-1.66c0.85-1.1,1.3-2.3,1.35-3.58c0-0.05,0-0.09,0-0.12
			c0-0.02,0-0.06,0-0.12c0-0.72-0.21-1.28-0.62-1.7c-0.41-0.41-1-0.64-1.77-0.69C303.13,559.55,302.14,560.04,301.24,561.06z"/>
		<path class="st2" d="M362.03,542.25c0.05-0.15,0.09-0.31,0.12-0.46c0.03-0.15,0.04-0.28,0.04-0.39c0-0.26,0.01-0.49,0.04-0.69
			c0.03-0.21,0.04-0.41,0.04-0.62c0-0.41-0.04-0.76-0.12-1.04c-0.08-0.28-0.22-0.53-0.42-0.73c-0.15-0.15-0.33-0.31-0.54-0.46
			c-0.21-0.15-0.46-0.33-0.77-0.54c1.64-1.23,3.07-2.17,4.28-2.81c1.21-0.64,2.38-1.07,3.51-1.27c0.41-0.1,0.8-0.17,1.16-0.19
			c0.36-0.02,0.74-0.04,1.16-0.04c1.49,0,2.65,0.36,3.47,1.08c0.82,0.72,1.23,1.75,1.23,3.08c0,0.15,0,0.28,0,0.39
			c0,0.1,0,0.21,0,0.31c-0.05,0.1-0.08,0.19-0.08,0.27s-0.03,0.17-0.08,0.27l-6.78,30.68c0,0.05-0.01,0.13-0.04,0.23
			c-0.03,0.1-0.07,0.18-0.12,0.23c-0.05,0.31-0.09,0.62-0.12,0.92c-0.03,0.31-0.04,0.57-0.04,0.77c0,0.67,0.2,1.22,0.62,1.66
			c0.41,0.44,0.93,0.66,1.54,0.66c0.2,0,0.37-0.01,0.5-0.04c0.13-0.03,0.27-0.04,0.42-0.04c0.1,0,0.2-0.01,0.31-0.04
			c0.1-0.03,0.2-0.06,0.31-0.12c0.46-0.15,0.86-0.28,1.2-0.39c0.33-0.1,0.58-0.15,0.73-0.15c0.31,0,0.59,0.13,0.85,0.39
			c0.26,0.26,0.39,0.57,0.39,0.93c0,0.77-0.33,1.58-1,2.43c-0.67,0.85-1.67,1.71-3.01,2.58c-0.67,0.46-1.39,0.87-2.16,1.23
			c-0.77,0.36-1.52,0.67-2.24,0.93c-0.77,0.2-1.53,0.37-2.27,0.5c-0.75,0.13-1.48,0.19-2.2,0.19c-1.9,0-3.46-0.57-4.66-1.7
			c-1.21-1.13-1.81-2.57-1.81-4.32c0-0.1,0-0.22,0-0.35c0-0.13,0.03-0.27,0.08-0.42c0-0.15,0-0.31,0-0.46s0-0.31,0-0.46
			c-1.34,1.75-2.57,3.17-3.7,4.28c-1.13,1.11-2.26,1.97-3.39,2.58c-0.72,0.26-1.43,0.47-2.12,0.66c-0.69,0.18-1.4,0.27-2.12,0.27
			c-2.36,0-4.24-0.9-5.63-2.7c-1.39-1.8-2.08-4.24-2.08-7.32c0-5.34,1.73-10.09,5.2-14.22c3.47-4.14,7.39-6.21,11.76-6.21
			c1.28,0,2.34,0.1,3.16,0.31c0.82,0.21,1.62,0.59,2.39,1.16c0.1,0.05,0.19,0.12,0.27,0.19c0.08,0.08,0.17,0.14,0.27,0.19
			L362.03,542.25z M352.27,560.91c-0.95,1.18-1.43,2.52-1.43,4.01c0,0.77,0.24,1.41,0.73,1.93c0.49,0.51,1.07,0.77,1.73,0.77
			c1.08,0,2.07-0.54,2.97-1.62c0.9-1.08,1.4-2.26,1.5-3.55c0-0.05,0-0.12,0-0.19s0-0.14,0-0.19c0-0.82-0.22-1.48-0.66-1.97
			c-0.44-0.49-1.02-0.76-1.73-0.81C354.27,559.19,353.22,559.73,352.27,560.91z"/>
		<path class="st2" d="M386,570.69c0,0.98,0.37,1.77,1.12,2.36c0.74,0.59,1.68,0.89,2.81,0.89c0.62,0,1.34-0.09,2.16-0.27
			c0.82-0.18,1.64-0.45,2.47-0.81c0.31-0.1,0.62-0.22,0.93-0.35c0.31-0.13,0.62-0.27,0.93-0.42c0.1-0.05,0.18-0.09,0.23-0.12
			c0.05-0.03,0.1-0.06,0.15-0.12c0.1-0.05,0.32-0.17,0.66-0.35c0.33-0.18,1.19-0.71,2.58-1.58c0.2-0.1,0.41-0.19,0.62-0.27
			c0.2-0.08,0.41-0.14,0.62-0.19c0.1-0.05,0.2-0.08,0.31-0.08c0.1,0,0.2,0,0.31,0c0.51,0,0.94,0.15,1.27,0.46
			c0.33,0.31,0.5,0.75,0.5,1.31c0,0.82-0.36,1.72-1.08,2.7c-0.72,0.98-1.75,2-3.08,3.08c-2.26,1.75-4.56,3.07-6.9,3.97
			c-2.34,0.9-4.69,1.35-7.05,1.35c-3.91,0-7.11-1.16-9.6-3.48c-2.49-2.32-3.74-5.36-3.74-9.12c0-4.89,2.04-9.17,6.13-12.83
			c4.09-3.66,8.85-5.49,14.3-5.49c2.93,0,5.33,0.75,7.21,2.24c1.88,1.5,2.81,3.43,2.81,5.8c0,2.94-1.56,5.43-4.66,7.46
			c-3.11,2.04-7.11,3.19-11.99,3.44V570.69z M391.44,562.07c1-0.57,1.5-1.28,1.5-2.16c0-0.51-0.15-0.94-0.46-1.27
			c-0.31-0.33-0.69-0.5-1.16-0.5c-0.98,0-1.88,0.46-2.7,1.39c-0.82,0.92-1.44,2.21-1.85,3.85
			C388.88,563.07,390.44,562.63,391.44,562.07z"/>
		<path class="st2" d="M193.88,604.38c2.15-1.77,4.29-3.27,6.44-4.48c2.99-1.77,6-3.08,9.03-3.92c3.03-0.84,6.18-1.26,9.45-1.26
			c3.83,0,7.02,1.14,9.59,3.43c2.57,2.29,3.85,5.06,3.85,8.33c0,2.8-0.96,5.23-2.87,7.28c-1.91,2.05-4.18,3.08-6.79,3.08
			c-1.59,0-2.59-0.26-3.01-0.77c-0.42-0.51-0.68-1.75-0.77-3.71c-0.09-0.65-0.58-1.24-1.47-1.75c-0.89-0.51-1.94-0.77-3.15-0.77
			c-1.96,0-4.13,0.65-6.51,1.96c-2.38,1.31-4.92,3.31-7.63,6.02c6.25,5.13,10.8,10.8,13.65,17.01c2.85,6.21,4.27,13.37,4.27,21.49
			c0,13.53-3.94,24.76-11.83,33.67c-7.89,8.91-17.76,13.37-29.61,13.37c-1.03,0-2.01-0.02-2.94-0.07c-0.93-0.05-1.87-0.12-2.8-0.21
			c-2.05-0.28-4.22-0.77-6.51-1.47c-2.29-0.7-5.34-1.8-9.17-3.29c-0.37-0.19-0.91-0.4-1.61-0.63c-0.7-0.23-1.52-0.54-2.45-0.91
			c-4.57,3.83-9.33,6.67-14.28,8.54c-4.95,1.87-10.36,2.8-16.24,2.8c-7.56,0-13.67-1.7-18.34-5.11c-4.67-3.41-7-7.86-7-13.37
			c0-4.85,1.91-8.94,5.74-12.25c3.83-3.31,8.59-4.97,14.28-4.97c0.56,0,1.14,0,1.75,0c0.61,0,1.19,0.05,1.75,0.14
			c3.64,0.19,7.65,0.86,12.04,2.03c4.39,1.17,10.64,3.15,18.76,5.95c0.47-0.65,0.91-1.31,1.33-1.96c0.42-0.65,0.82-1.31,1.19-1.96
			c0.37-0.56,0.72-1.12,1.05-1.68c0.33-0.56,0.63-1.17,0.91-1.82c0.93-1.87,1.96-4.18,3.08-6.93c1.12-2.75,2.57-6.46,4.34-11.13
			c1.21-3.27,2.22-5.88,3.01-7.84c0.79-1.96,1.52-3.69,2.17-5.18c0.09-0.28,0.21-0.58,0.35-0.91c0.14-0.33,0.3-0.63,0.49-0.91
			c0.28-0.56,0.56-1.14,0.84-1.75c0.28-0.61,0.61-1.24,0.98-1.89c-1.21-0.28-2.26-0.49-3.15-0.63c-0.89-0.14-1.7-0.26-2.45-0.35
			c-0.28,0-0.56,0-0.84,0s-0.56,0-0.84,0c-4.57,0-8.47,1.26-11.69,3.78c-3.22,2.52-4.83,5.55-4.83,9.1c0,1.77,0.58,3.13,1.75,4.06
			c1.17,0.93,2.82,1.45,4.97,1.54c1.4,0.09,2.4,0.35,3.01,0.77c0.61,0.42,0.91,1.14,0.91,2.17c0,0.28-0.02,0.54-0.07,0.77
			c-0.05,0.23-0.12,0.44-0.21,0.63c-0.65,2.43-2.87,4.71-6.65,6.86c-3.78,2.15-7.86,3.45-12.25,3.92c-0.56,0-1.1,0.02-1.61,0.07
			c-0.51,0.05-1,0.07-1.47,0.07c-6.63,0-12.09-2.12-16.38-6.37c-4.29-4.25-6.44-9.73-6.44-16.45c0-11.39,5.06-21.12,15.19-29.19
			c10.13-8.07,22.24-12.11,36.33-12.11c3.64,0,7.16,0.3,10.57,0.91c3.41,0.61,6.79,1.52,10.15,2.73c0.65,0.19,1.33,0.42,2.03,0.7
			c0.7,0.28,1.38,0.56,2.03,0.84C189.54,608.16,191.74,606.16,193.88,604.38z M137.25,690.13c-0.89-0.33-1.8-0.63-2.73-0.91
			c-1.87-0.56-3.66-1.05-5.39-1.47c-1.73-0.42-3.01-0.63-3.85-0.63c-1.31,0-2.47,0.42-3.5,1.26c-1.03,0.84-1.54,1.87-1.54,3.08
			c0,1.31,0.65,2.45,1.96,3.43c1.31,0.98,2.85,1.47,4.62,1.47c0.65,0,1.28-0.02,1.89-0.07c0.61-0.05,1.19-0.16,1.75-0.35
			c1.31-0.28,2.66-0.79,4.06-1.54c1.4-0.75,3.13-1.82,5.18-3.22C138.96,690.81,138.14,690.46,137.25,690.13z M166.65,685.79
			c0.98,0.23,1.89,0.4,2.73,0.49c0.28,0,0.54,0,0.77,0c0.23,0,0.49,0,0.77,0c5.51,0,10.29-2.57,14.35-7.7
			c4.06-5.13,6.09-11.15,6.09-18.06c0-3.55-0.7-6.81-2.1-9.8c-1.4-2.99-3.5-5.65-6.3-7.98c-0.47,0.84-0.89,1.56-1.26,2.17
			c-0.37,0.61-0.7,1.24-0.98,1.89c-0.09,0.09-0.19,0.21-0.28,0.35c-0.09,0.14-0.19,0.3-0.28,0.49c-0.28,0.56-0.56,1.17-0.84,1.82
			c-0.28,0.65-0.61,1.45-0.98,2.38c-0.09,0.19-0.16,0.33-0.21,0.42c-0.05,0.09-0.07,0.19-0.07,0.28c-0.09,0.19-0.35,0.84-0.77,1.96
			c-0.42,1.12-1.8,4.62-4.13,10.5c-0.93,2.24-1.77,4.2-2.52,5.88c-0.75,1.68-1.45,3.27-2.1,4.76c-0.47,0.84-0.91,1.63-1.33,2.38
			c-0.42,0.75-0.86,1.49-1.33,2.24c-0.47,0.75-0.93,1.49-1.4,2.24c-0.47,0.75-0.98,1.49-1.54,2.24
			C164.44,685.21,165.67,685.56,166.65,685.79z"/>
		<path class="st2" d="M276.34,679c-0.19,0.93-0.35,1.8-0.49,2.59c-0.14,0.79-0.21,1.38-0.21,1.75c0,1.21,0.37,2.22,1.12,3.01
			c0.75,0.79,1.68,1.19,2.8,1.19c0.47,0,0.93-0.07,1.4-0.21c0.47-0.14,0.98-0.3,1.54-0.49c0.65-0.28,1.26-0.49,1.82-0.63
			c0.56-0.14,1.03-0.21,1.4-0.21c0.56,0,1.07,0.23,1.54,0.7c0.47,0.47,0.7,0.98,0.7,1.54c0,0.75-0.23,1.56-0.7,2.45
			c-0.47,0.89-1.07,1.75-1.82,2.59c-0.56,0.65-1.21,1.31-1.96,1.96c-0.75,0.65-1.54,1.26-2.38,1.82c-1.31,0.93-2.68,1.75-4.13,2.45
			c-1.45,0.7-2.92,1.28-4.41,1.75c-1.49,0.47-2.96,0.82-4.41,1.05c-1.45,0.23-2.82,0.35-4.13,0.35c-3.36,0-6.07-0.84-8.12-2.52
			c-2.05-1.68-3.17-3.97-3.36-6.86c-1.4,1.21-2.85,2.36-4.34,3.43c-1.49,1.07-3.03,1.98-4.62,2.73c-2.05,1.12-4.06,1.94-6.02,2.45
			c-1.96,0.51-3.83,0.77-5.6,0.77c-3.55,0-6.58-1.05-9.1-3.15s-3.78-4.64-3.78-7.63c0-0.47,0.02-0.91,0.07-1.33
			c0.05-0.42,0.12-0.86,0.21-1.33l5.18-24.92c0.19-0.65,0.3-1.28,0.35-1.89c0.05-0.61,0.07-1.14,0.07-1.61
			c0-1.03-0.19-1.89-0.56-2.59c-0.37-0.7-1.03-1.38-1.96-2.03c-0.19-0.09-0.33-0.16-0.42-0.21c-0.09-0.05-0.23-0.12-0.42-0.21
			c0.93-0.75,1.87-1.45,2.8-2.1c0.93-0.65,1.91-1.31,2.94-1.96c2.24-1.31,4.48-2.33,6.72-3.08c2.24-0.75,4.29-1.12,6.16-1.12
			c2.52,0,4.5,0.68,5.95,2.03c1.45,1.35,2.17,3.24,2.17,5.67c0,0.37,0,0.65,0,0.84c0,0.19,0,0.37,0,0.56c0,0.09-0.02,0.16-0.07,0.21
			c-0.05,0.05-0.07,0.12-0.07,0.21l-4.06,19.46c-0.09,0.56-0.19,1.1-0.28,1.61c-0.09,0.51-0.14,0.91-0.14,1.19
			c0,1.12,0.35,2.01,1.05,2.66c0.7,0.65,1.61,0.98,2.73,0.98c1.96,0,3.55-0.68,4.76-2.03c1.21-1.35,2.19-3.52,2.94-6.51l2.38-10.08
			c0-0.09,0.02-0.21,0.07-0.35c0.05-0.14,0.07-0.26,0.07-0.35c0.19-0.56,0.3-1.12,0.35-1.68c0.05-0.56,0.07-1.03,0.07-1.4
			c0-0.93-0.16-1.68-0.49-2.24c-0.33-0.56-0.91-1.12-1.75-1.68c-0.19-0.19-0.42-0.35-0.7-0.49c-0.28-0.14-0.56-0.26-0.84-0.35
			c3.08-2.43,5.93-4.29,8.54-5.6c2.61-1.31,5.18-2.15,7.7-2.52c0.47,0,0.93-0.02,1.4-0.07c0.47-0.05,0.93-0.07,1.4-0.07
			c2.43,0,4.36,0.65,5.81,1.96c1.45,1.31,2.17,3.08,2.17,5.32c0,0.19,0,0.37,0,0.56c0,0.19-0.05,0.37-0.14,0.56
			c0,0.19-0.02,0.37-0.07,0.56c-0.05,0.19-0.07,0.37-0.07,0.56L276.34,679z"/>
		<path class="st2" d="M296.64,630.56c0.09-0.19,0.16-0.37,0.21-0.56c0.05-0.19,0.07-0.37,0.07-0.56c0.09-0.47,0.16-0.98,0.21-1.54
			c0.05-0.56,0.07-1.03,0.07-1.4c0-1.31-0.21-2.26-0.63-2.87c-0.42-0.61-1.24-1.14-2.45-1.61c1.59-1.49,3.29-2.82,5.11-3.99
			c1.82-1.17,3.66-2.12,5.53-2.87c1.31-0.47,2.61-0.84,3.92-1.12c1.31-0.28,2.57-0.42,3.78-0.42c2.61,0,4.69,0.65,6.23,1.96
			c1.54,1.31,2.31,3.03,2.31,5.18c0,0.19,0,0.4,0,0.63c0,0.23-0.05,0.44-0.14,0.63c0,0.28-0.02,0.54-0.07,0.77
			c-0.05,0.23-0.07,0.44-0.07,0.63l-12.74,57.4c0,0.19-0.02,0.35-0.07,0.49c-0.05,0.14-0.07,0.3-0.07,0.49
			c0,0.28-0.02,0.58-0.07,0.91c-0.05,0.33-0.07,0.68-0.07,1.05c0,1.12,0.4,2.03,1.19,2.73c0.79,0.7,1.8,1.05,3.01,1.05
			c0.19,0,0.4,0,0.63,0c0.23,0,0.49-0.05,0.77-0.14c0.19,0,0.4-0.05,0.63-0.14c0.23-0.09,0.44-0.19,0.63-0.28
			c0.75-0.28,1.4-0.51,1.96-0.7c0.56-0.19,0.98-0.28,1.26-0.28c0.65-0.09,1.21,0.12,1.68,0.63c0.47,0.51,0.7,1.1,0.7,1.75v0.14
			c-0.09,0.93-0.51,1.98-1.26,3.15c-0.75,1.17-1.82,2.36-3.22,3.57c-0.37,0.37-0.77,0.72-1.19,1.05c-0.42,0.33-0.86,0.68-1.33,1.05
			c-1.68,1.12-3.45,2.08-5.32,2.87c-1.87,0.79-3.78,1.38-5.74,1.75c-0.93,0.19-1.82,0.33-2.66,0.42c-0.84,0.09-1.68,0.14-2.52,0.14
			c-3.83,0-6.98-1.07-9.45-3.22c-2.47-2.15-3.71-4.95-3.71-8.4c0-0.28,0-0.58,0-0.91c0-0.33,0.05-0.63,0.14-0.91
			c0-0.28,0.02-0.56,0.07-0.84c0.05-0.28,0.12-0.56,0.21-0.84L296.64,630.56z"/>
		<path class="st2" d="M343.47,662.34c-1.73,2.33-2.59,5.27-2.59,8.82c0,3.92,1.12,7.05,3.36,9.38c2.24,2.33,5.27,3.5,9.1,3.5
			c0.65,0,1.19,0,1.61,0c0.42,0,0.86-0.05,1.33-0.14c0.84-0.09,1.82-0.37,2.94-0.84c1.12-0.47,2.99-1.31,5.6-2.52
			c0.28-0.09,0.56-0.19,0.84-0.28c0.28-0.09,0.51-0.19,0.7-0.28c0.47-0.09,0.89-0.16,1.26-0.21c0.37-0.05,0.75-0.07,1.12-0.07
			c1.12,0,1.98,0.3,2.59,0.91c0.61,0.61,0.91,1.52,0.91,2.73c0,1.4-0.58,2.89-1.75,4.48c-1.17,1.59-2.96,3.45-5.39,5.6
			c-2.43,2.05-4.9,3.78-7.42,5.18c-2.52,1.4-5.04,2.47-7.56,3.22c-1.49,0.47-3.01,0.82-4.55,1.05c-1.54,0.23-3.06,0.35-4.55,0.35
			c-7.09,0-13.04-2.26-17.85-6.79c-4.81-4.53-7.21-10.06-7.21-16.59c0-8.77,3.52-16.5,10.57-23.17
			c7.05-6.67,15.24-10.01,24.57-10.01c5.6,0,10.17,1.35,13.72,4.06c3.55,2.71,5.32,6.21,5.32,10.5c0,3.17-1.07,5.83-3.22,7.98
			c-2.15,2.15-4.81,3.22-7.98,3.22c-2.89,0-5.25-0.86-7.07-2.59c-1.82-1.73-2.73-3.9-2.73-6.51c0-0.37,0.02-0.72,0.07-1.05
			c0.05-0.33,0.07-0.68,0.07-1.05c0.19-0.47,0.42-1.03,0.7-1.68c0.28-0.65,0.7-1.49,1.26-2.52
			C347.79,658.24,345.2,660.01,343.47,662.34z"/>
		<path class="st2" d="M392.54,682.06c0,1.78,0.68,3.21,2.03,4.29c1.35,1.08,3.06,1.61,5.11,1.61c1.12,0,2.43-0.16,3.92-0.49
			c1.49-0.33,2.99-0.82,4.48-1.47c0.56-0.19,1.12-0.4,1.68-0.63c0.56-0.23,1.12-0.49,1.68-0.77c0.19-0.09,0.33-0.16,0.42-0.21
			c0.09-0.05,0.19-0.12,0.28-0.21c0.19-0.09,0.58-0.3,1.19-0.63c0.61-0.33,2.17-1.28,4.69-2.87c0.37-0.19,0.75-0.35,1.12-0.49
			c0.37-0.14,0.75-0.26,1.12-0.35c0.19-0.09,0.37-0.14,0.56-0.14c0.19,0,0.37,0,0.56,0c0.93,0,1.7,0.28,2.31,0.84
			c0.61,0.56,0.91,1.35,0.91,2.38c0,1.49-0.65,3.13-1.96,4.9c-1.31,1.77-3.17,3.64-5.6,5.6c-4.11,3.17-8.28,5.58-12.53,7.21
			c-4.25,1.63-8.52,2.45-12.81,2.45c-7.09,0-12.9-2.1-17.43-6.31c-4.53-4.21-6.79-9.73-6.79-16.56c0-8.89,3.71-16.65,11.13-23.3
			c7.42-6.64,16.08-9.97,25.97-9.97c5.32,0,9.68,1.36,13.09,4.08c3.41,2.72,5.11,6.23,5.11,10.54c0,5.34-2.82,9.86-8.47,13.56
			c-5.65,3.7-12.9,5.78-21.77,6.25V682.06z M402.41,666.4c1.82-1.03,2.73-2.33,2.73-3.92c0-0.93-0.28-1.7-0.84-2.31
			c-0.56-0.61-1.26-0.91-2.1-0.91c-1.77,0-3.41,0.84-4.9,2.52c-1.49,1.68-2.61,4.01-3.36,7
			C397.77,668.22,400.59,667.43,402.41,666.4z"/>
		<path class="st2" d="M465.9,650.58c4.11,2.24,6.16,5.04,6.16,8.4c0,1.77-0.68,3.36-2.03,4.76c-1.35,1.4-2.96,2.1-4.83,2.1
			c-0.28,0-0.58-0.02-0.91-0.07c-0.33-0.05-0.63-0.12-0.91-0.21c-0.93-0.19-1.87-0.63-2.8-1.33c-0.93-0.7-2.1-1.66-3.5-2.87
			c-1.21-1.21-2.24-2.08-3.08-2.59c-0.84-0.51-1.63-0.77-2.38-0.77c-0.75,0-1.4,0.21-1.96,0.63c-0.56,0.42-0.84,0.96-0.84,1.61
			c0,0.65,0.26,1.33,0.77,2.03c0.51,0.7,1.24,1.42,2.17,2.17c0.09,0,0.14,0.05,0.14,0.14c0.09,0,0.4,0.14,0.91,0.42
			c0.51,0.28,2.26,1.26,5.25,2.94c3.55,1.96,6.23,4.15,8.05,6.58c1.82,2.43,2.73,5.13,2.73,8.12c0,5.97-2.57,10.83-7.7,14.56
			c-5.13,3.73-11.76,5.6-19.88,5.6c-6.53,0-11.9-1.28-16.1-3.85s-6.3-5.9-6.3-10.01c0-2.61,0.82-4.78,2.45-6.51
			c1.63-1.73,3.66-2.59,6.09-2.59c0.84,0,1.59,0.05,2.24,0.14c0.65,0.09,1.31,0.28,1.96,0.56c1.03,0.47,2.1,1.24,3.22,2.31
			c1.12,1.07,2.57,2.54,4.34,4.41c0.28,0.37,0.58,0.7,0.91,0.98c0.33,0.28,0.68,0.56,1.05,0.84c0.84,0.65,1.66,1.14,2.45,1.47
			c0.79,0.33,1.52,0.49,2.17,0.49c0.75,0,1.45-0.3,2.1-0.91c0.65-0.61,0.98-1.28,0.98-2.03c0-0.28,0-0.54,0-0.77
			c0-0.23-0.05-0.44-0.14-0.63c-0.28-0.56-0.96-1.24-2.03-2.03c-1.07-0.79-3.06-2.12-5.95-3.99c-2.61-1.68-4.74-3.17-6.37-4.48
			c-1.63-1.31-2.92-2.57-3.85-3.78c-0.84-1.21-1.45-2.45-1.82-3.71c-0.37-1.26-0.56-2.68-0.56-4.27c0-4.76,2.22-8.82,6.65-12.18
			c4.43-3.36,9.73-5.04,15.89-5.04C456.71,647.22,461.79,648.34,465.9,650.58z"/>
	</g>
	<g>
		<g>
			<path class="st1" d="M236.75,411.7l-74.68-88.48c-3.09-3.66-2.63-9.13,1.03-12.22l143.31-120.95c3.66-3.09,9.13-2.63,12.22,1.03
				l74.68,88.48c3.09,3.66,2.63,9.13-1.03,12.22l-143.3,120.95C245.31,415.82,239.84,415.36,236.75,411.7z"/>
			<path class="st2" d="M245.04,416.92c-0.85,0-1.71-0.04-2.57-0.11c-7.95-0.67-15.16-4.4-20.3-10.49l-57.25-67.83
				c-5.14-6.1-7.61-13.83-6.93-21.78c0.67-7.95,4.4-15.16,10.5-20.3L291.13,192.9c6.09-5.15,13.83-7.61,21.78-6.94
				c7.95,0.67,15.16,4.4,20.3,10.5l57.25,67.83c5.14,6.1,7.61,13.83,6.93,21.78c-0.67,7.95-4.4,15.16-10.5,20.3L264.25,409.88
				C258.81,414.47,252.07,416.92,245.04,416.92z M310.37,201.2c-3.42,0-6.69,1.19-9.34,3.42L178.38,308.14
				c-2.96,2.5-4.77,6-5.1,9.87s0.87,7.62,3.37,10.58l57.25,67.83c2.5,2.96,6,4.77,9.86,5.1c3.85,0.32,7.62-0.87,10.58-3.37
				L377,294.63c2.96-2.5,4.77-6,5.1-9.86s-0.87-7.62-3.37-10.58l-57.25-67.83c-2.5-2.96-6-4.77-9.86-5.1
				C311.2,201.22,310.78,201.2,310.37,201.2z"/>
		</g>
		<g>
			<polygon class="st24" points="273.67,391.89 217.29,265.26 281.71,210.89 338.09,337.51 			"/>
			<path class="st2" d="M270.81,404.34l-62.88-141.23l76.64-64.68l62.88,141.23L270.81,404.34z M226.65,267.41l49.87,112.02
				l52.21-44.06l-49.87-112.02L226.65,267.41z"/>
		</g>
		<g>
			<g>
				<path class="st1" d="M434.81,228.87c-7.4-8.77-1.79-13.51-9.19-22.28c-7.4-8.77-13.02-4.03-20.42-12.8
					c-7.41-8.78-1.79-13.51-9.2-22.29c-7.41-8.78-13.02-4.04-20.43-12.81"/>
			</g>
			<g>
				<path class="st2" d="M368.76,258.15c-2.22,0-4.38-0.97-5.87-2.72l-25.58-30.31c-2.02-2.39-2.38-5.76-0.92-8.53l32.4-61.48
					c1.19-2.26,3.43-3.78,5.96-4.05c2.53-0.28,5.04,0.73,6.69,2.68c2.25,2.67,3.8,3.15,6.62,4.02c3.65,1.13,8.66,2.68,13.81,8.79
					c5.15,6.1,5.84,11.3,6.34,15.09c0.39,2.92,0.6,4.53,2.86,7.2c2.25,2.67,3.8,3.15,6.61,4.02c3.65,1.13,8.66,2.68,13.81,8.78
					c5.15,6.1,5.84,11.29,6.34,15.08c0.39,2.92,0.6,4.53,2.85,7.2c1.65,1.95,2.21,4.59,1.52,7.05c-0.7,2.46-2.57,4.4-5,5.2
					l-66.05,21.61C370.36,258.03,369.56,258.15,368.76,258.15z M352.38,219.17l18.91,22.41l52.42-17.15
					c-0.64-2.13-0.89-4.04-1.11-5.69c-0.39-2.92-0.6-4.53-2.85-7.2c-2.25-2.67-3.8-3.15-6.61-4.02c-3.65-1.13-8.66-2.68-13.81-8.78
					c-5.15-6.1-5.84-11.29-6.34-15.09c-0.39-2.92-0.6-4.53-2.86-7.2c-2.26-2.67-3.81-3.15-6.62-4.03c-1.59-0.49-3.43-1.06-5.42-2.05
					L352.38,219.17z"/>
			</g>
		</g>
		<g>
			<g>
				<path class="st1" d="M120.57,373.91c7.4,8.77,1.79,13.51,9.19,22.28c7.4,8.77,13.02,4.03,20.42,12.8
					c7.41,8.78,1.79,13.51,9.2,22.29c7.41,8.78,13.02,4.04,20.43,12.81"/>
			</g>
			<g>
				<path class="st2" d="M179.81,451.77c-2.25,0-4.4-0.99-5.87-2.72c-2.25-2.67-3.81-3.15-6.62-4.03
					c-3.65-1.13-8.66-2.68-13.81-8.79c-5.15-6.1-5.84-11.3-6.34-15.09c-0.39-2.92-0.6-4.53-2.86-7.2c-2.25-2.67-3.8-3.15-6.61-4.02
					c-3.65-1.13-8.66-2.68-13.81-8.78c-5.15-6.1-5.84-11.3-6.34-15.09c-0.39-2.92-0.6-4.53-2.85-7.2c-1.65-1.95-2.21-4.59-1.52-7.05
					c0.7-2.46,2.57-4.4,5-5.2L184.23,345c2.97-0.97,6.23-0.05,8.25,2.34l25.58,30.31c2.02,2.39,2.38,5.76,0.92,8.53l-32.4,61.48
					c-1.19,2.26-3.43,3.78-5.96,4.05C180.36,451.75,180.08,451.77,179.81,451.77z M131.67,378.35c0.64,2.13,0.89,4.04,1.11,5.69
					c0.39,2.92,0.6,4.53,2.85,7.2c2.25,2.67,3.8,3.15,6.61,4.02c3.65,1.13,8.66,2.68,13.81,8.78c5.15,6.11,5.84,11.3,6.34,15.09
					c0.39,2.92,0.6,4.53,2.86,7.2c2.25,2.67,3.81,3.15,6.62,4.03c1.59,0.49,3.43,1.06,5.42,2.05L203,383.61l-18.91-22.41
					L131.67,378.35z"/>
			</g>
		</g>
	</g>
</g>
</svg>
