<?xml version="1.0" encoding="utf-8"?>
<!-- Generator: Adobe Illustrator 23.0.5, SVG Export Plug-In . SVG Version: 6.00 Build 0)  -->
<svg version="1.1" id="Capa_1" xmlns="http://www.w3.org/2000/svg" xmlns:xlink="http://www.w3.org/1999/xlink" x="0px" y="0px"
	 viewBox="0 0 1439.41 1136.32" style="enable-background:new 0 0 1439.41 1136.32;" xml:space="preserve">
<style type="text/css">
	.st0{fill:#230131;}
	.st1{fill:#FFFFFF;}
	.st2{fill:url(#SVGID_1_);}
	.st3{fill:url(#SVGID_2_);}
	.st4{fill:url(#SVGID_3_);}
	.st5{fill:url(#SVGID_4_);}
	.st6{fill:url(#SVGID_5_);}
	.st7{fill:url(#SVGID_6_);}
	.st8{fill:url(#SVGID_7_);}
	.st9{fill:url(#SVGID_8_);}
	.st10{fill:url(#SVGID_9_);}
	.st11{fill:url(#SVGID_10_);}
	.st12{fill:#350030;}
	.st13{fill:url(#SVGID_11_);}
	.st14{fill:url(#SVGID_12_);}
	.st15{fill:url(#SVGID_13_);}
	.st16{fill:url(#SVGID_14_);}
	.st17{fill:url(#SVGID_15_);}
	.st18{fill:url(#SVGID_16_);}
	.st19{fill:url(#SVGID_17_);}
	.st20{fill:url(#SVGID_18_);}
	.st21{fill:url(#SVGID_19_);}
	.st22{fill:url(#SVGID_20_);}
	.st23{fill:#FDCC68;}
	.st24{fill:#935EA3;}
	.st25{fill:#8CC15C;}
	.st26{fill:#C24131;}
	.st27{fill:#1D1D1B;}
	.st28{fill:#BE1622;}
	.st29{fill:#CB88A1;}
	.st30{fill:#E9C064;}
	.st31{fill:url(#SVGID_21_);}
	.st32{clip-path:url(#SVGID_23_);fill:url(#SVGID_24_);}
	.st33{clip-path:url(#SVGID_23_);fill:url(#SVGID_25_);}
	.st34{clip-path:url(#SVGID_23_);}
	.st35{fill:url(#SVGID_26_);}
	.st36{fill:url(#SVGID_27_);}
	.st37{fill:url(#SVGID_28_);}
	.st38{fill:url(#SVGID_29_);}
	.st39{fill:url(#SVGID_30_);}
	.st40{fill:url(#SVGID_31_);}
	.st41{fill:url(#SVGID_32_);}
	.st42{fill:url(#SVGID_33_);}
	.st43{fill:url(#SVGID_34_);}
	.st44{fill:url(#SVGID_35_);}
	.st45{fill:url(#SVGID_36_);}
	.st46{fill:url(#SVGID_37_);}
	.st47{fill:url(#SVGID_38_);}
	.st48{fill:url(#SVGID_39_);}
	.st49{clip-path:url(#SVGID_41_);}
	.st50{clip-path:url(#SVGID_43_);fill:url(#SVGID_44_);}
	.st51{clip-path:url(#SVGID_43_);fill:url(#SVGID_45_);}
	.st52{clip-path:url(#SVGID_43_);}
	.st53{fill:url(#SVGID_46_);}
	.st54{fill:url(#SVGID_47_);}
	.st55{fill:url(#SVGID_48_);}
	.st56{fill:url(#SVGID_49_);}
	.st57{fill:url(#SVGID_50_);}
	.st58{fill:url(#SVGID_51_);}
	.st59{fill:url(#SVGID_52_);}
	.st60{fill:url(#SVGID_53_);}
	.st61{fill:url(#SVGID_54_);}
	.st62{fill:url(#SVGID_55_);}
	.st63{fill:url(#SVGID_56_);}
	.st64{fill:url(#SVGID_57_);}
	.st65{fill:url(#SVGID_58_);}
	.st66{fill:url(#SVGID_59_);}
	.st67{clip-path:url(#SVGID_61_);}
	.st68{fill:none;}
	.st69{fill:none;stroke:#FFFFFF;stroke-width:2;stroke-miterlimit:10;}
	.st70{fill:#E9B6A3;}
	.st71{opacity:0.9;fill:#230131;}
	.st72{fill:url(#SVGID_62_);}
	.st73{opacity:0.5;}
	.st74{fill:#EDCD83;}
	.st75{opacity:0.63;fill:url(#SVGID_63_);}
	.st76{opacity:0;fill:url(#SVGID_64_);}
	.st77{fill:url(#SVGID_65_);}
	.st78{fill:url(#SVGID_66_);}
	.st79{fill:url(#SVGID_67_);}
	.st80{fill:url(#SVGID_68_);}
	.st81{fill:url(#SVGID_69_);}
	.st82{fill:url(#SVGID_70_);}
	.st83{fill:url(#SVGID_71_);}
	.st84{fill:url(#SVGID_72_);}
	.st85{fill:url(#SVGID_73_);}
	.st86{fill:url(#SVGID_74_);}
	.st87{fill:url(#SVGID_75_);}
	.st88{fill:url(#SVGID_76_);}
	.st89{fill:url(#SVGID_77_);}
	.st90{opacity:0.24;fill:url(#SVGID_78_);}
	.st91{fill:url(#SVGID_79_);}
	.st92{fill:url(#SVGID_80_);}
	.st93{fill:url(#SVGID_81_);}
	.st94{opacity:0.24;fill:url(#SVGID_82_);}
	.st95{fill:url(#SVGID_83_);}
	.st96{fill:url(#SVGID_84_);}
	.st97{fill:url(#SVGID_85_);}
	.st98{opacity:0.24;fill:url(#SVGID_86_);}
	.st99{opacity:0.22;fill:url(#SVGID_87_);}
	.st100{fill:url(#SVGID_88_);}
	.st101{fill:url(#SVGID_89_);}
	.st102{fill:#E9C064;stroke:#FFFFFF;stroke-width:20;stroke-miterlimit:10;}
	.st103{fill:url(#SVGID_90_);}
	.st104{fill:url(#SVGID_91_);}
	.st105{fill:url(#SVGID_92_);}
	.st106{clip-path:url(#SVGID_94_);}
	.st107{fill:#BF1A1B;}
	.st108{fill:#FFEC00;}
	.st109{opacity:0.24;fill:url(#SVGID_95_);}
	.st110{opacity:0.24;fill:url(#SVGID_96_);}
	.st111{fill:url(#SVGID_97_);}
	.st112{opacity:0.63;fill:url(#SVGID_98_);}
	.st113{opacity:0;fill:url(#SVGID_99_);}
	.st114{fill:url(#SVGID_100_);}
	.st115{fill:url(#SVGID_101_);}
	.st116{fill:url(#SVGID_102_);}
	.st117{fill:url(#SVGID_103_);}
	.st118{fill:url(#SVGID_104_);}
	.st119{fill:url(#SVGID_105_);}
	.st120{fill:url(#SVGID_106_);}
	.st121{fill:url(#SVGID_107_);}
	.st122{fill:url(#SVGID_108_);}
	.st123{fill:url(#SVGID_109_);}
	.st124{fill:url(#SVGID_110_);}
	.st125{fill:url(#SVGID_111_);}
	.st126{fill:url(#SVGID_112_);}
	.st127{opacity:0.24;fill:url(#SVGID_113_);}
	.st128{fill:url(#SVGID_114_);}
	.st129{fill:url(#SVGID_115_);}
	.st130{fill:url(#SVGID_116_);}
	.st131{opacity:0.24;fill:url(#SVGID_117_);}
	.st132{fill:url(#SVGID_118_);}
	.st133{fill:url(#SVGID_119_);}
	.st134{fill:url(#SVGID_120_);}
	.st135{opacity:0.24;fill:url(#SVGID_121_);}
	.st136{opacity:0.22;fill:url(#SVGID_122_);}
	.st137{fill:url(#SVGID_123_);}
	.st138{fill:url(#SVGID_124_);}
	.st139{fill:url(#SVGID_125_);}
	.st140{fill:url(#SVGID_126_);}
	.st141{fill:url(#SVGID_127_);}
	.st142{clip-path:url(#SVGID_129_);}
	.st143{clip-path:url(#SVGID_131_);}
	.st144{fill:url(#SVGID_132_);}
	.st145{fill:url(#SVGID_133_);}
	.st146{fill:url(#SVGID_134_);}
	.st147{fill:url(#SVGID_135_);}
	.st148{fill:url(#SVGID_136_);}
	.st149{fill:url(#SVGID_137_);}
	.st150{fill:url(#SVGID_138_);}
	.st151{fill:url(#SVGID_139_);}
	.st152{fill:url(#SVGID_140_);}
	.st153{fill:url(#SVGID_141_);}
</style>
<g>
	<g>
		<path class="st0" d="M1396.31,823.36c17.64-8.09,30.92-24.04,36.07-44.67c7.91-31.7-6.21-86.93-53.29-108.19
			c-37.77-17.05-81.1-15.91-115.91,3.06c-29.92,16.3-49.87,44.27-54.75,76.73c-0.72,4.78-1.07,9.41-1.12,13.91
			c-3.03-0.32-6.08-0.47-9.11-0.42c-4.59,0.1-9.02,0.66-13.24,1.63c-0.56-4.22-1.64-8.56-3.27-12.98
			c-8.23-22.24-30.28-45.84-61.02-48.42c-19.1-1.61-29.33,3.17-40.17,8.22c-11.76,5.48-31.45,14.65-87.11,27.09
			c-8.63,1.92-17.33,0.26-25.75-1.34c-9.32-1.78-22.17-4.21-34.28,0.71c-4.08-3.09-8.62-5.6-13.67-7.45
			c-9.25-3.38-22.2-5.27-34.77-5.11c-19.96,0.29-33.67,5.73-41.85,16.61c-27.87-21.35-56.8-19.27-74.43-14.78
			c-2.68,0.68-7.05,1.8-11.8,3.98c-9.96-18.69-34.54-24.5-54.11-20.47c-2.14,0.44-4.19,1.03-6.2,1.69
			c1.43-11.78-0.1-23.81-10.06-33.92c-7.05-7.16-20-14.49-41.65-8.73c-29.7,7.9-50.59,21.97-60.39,40.68
			c-2.98,5.69-4.86,11.74-5.63,17.92c-8.68-8.16-20.02-12.58-32.54-12.58c-0.13,0-0.27,0-0.41,0c-16.09,0.12-48.35,0.38-59.98,23.6
			c-4.73,0.91-9.86,2.45-15.42,4.82c-1.46,0.62-6.45,2.84-12.58,6.55c-0.87-1.82-1.75-3.63-2.69-5.43
			c-19.27-36.97-45.61-58.31-56.04-65.76h0c-47.51-33.97-101.07-30.15-159.18,11.35c-19,13.57-44.93,30.68-69.36,45.76
			c-34.02,21-53.83,16.99-74.41,10.08c-7.51-2.52-15.55-7.46-22.65-11.82c-14.56-8.93-32.68-20.06-52.58-9.48
			C7.97,733.14,0.94,746.46,0.1,765.78c-1.1,25.41,6.59,60.23,31.46,81.78c13.18,11.43,36.48,23.62,72.57,16.84
			c32.06-6.02,56.62-13.66,77.17-22.71c-3.21,47.99-15.82,142.58-29.68,173.4c-5.07,11.28-3.22,24.19,4.84,33.7
			c6.77,7.99,18.66,16.15,55.42,16.15c0.22,0,0.45,0,0.67,0c23.39-0.06,50.01-3.72,74.93-10.29c34.07-8.99,82.81-28.05,122.45-67.87
			c1.3,3.25,3.02,6.35,5.23,9.25c7.43,9.77,18.8,15.13,31.46,15.13c2.9,0,5.86-0.28,8.86-0.85c17.27-3.29,34.44-7.94,45.78-18.75
			c5.07,2.19,11.28,3.7,18.86,3.7c2.41,0,4.95-0.15,7.63-0.48c7.29-0.89,15.69-3.35,24.67-7.19c3.22,5.84,7.24,11.15,10.91,15.96
			c9.53,12.49,30.76,25.12,52.32,25.12c1,0,1.99-0.03,2.99-0.08c16.94-0.94,31.73-9.92,40.58-24.65c1.26-2.1,2.38-4.39,9.54-19.32
			c3.39-7.07,7.51-15.65,11.93-24.75c-0.86,35.68,13.74,52.79,26.78,60.93c5.71,3.57,11.97,5.86,18.6,6.96
			c-12.43,27.43-6.64,59.4,3.2,80.59c7.9,17.03,19.24,26.38,33.7,27.79c1.27,0.12,2.5,0.18,3.71,0.18c19.76,0,31.38-15.97,40-27.82
			c4.7-6.47,9.57-13.15,14.94-17.82c14.82-12.87,29.98-23.05,65.73-17.22c11.2,1.83,24.1,4.93,37.77,8.22
			c28.73,6.92,61.26,14.75,94.07,14.75c0.25,0,0.51,0,0.76,0c44.67-0.17,92.77-20.8,116.97-50.18
			c13.32-16.17,22.73-30.31,29.89-43.24c24.38,35.14,65.15,54.88,113.75,54.88c1.68,0,3.36-0.02,5.06-0.07
			c72.17-2.01,128.7-39.48,147.51-97.79C1448.78,911.59,1434.66,860.78,1396.31,823.36z"/>
	</g>
	<g>
		<path class="st1" d="M605.81,888.14c26.28-38.93,43.62-79.92,43.36-141.42c-0.12-27.74,25.38-65.26-4.6-57.28
			c-29.98,7.98-50.03,24.05-42.72,44.35c8.72,24.2,10.98,125.68-56.97,158.56c-16.61,8.04,44.79-156.27-6.74-155.87
			c-53.38,0.41-29.46,17.76-24.42,21.26c12.28,8.55,22.27,54.42,3.79,132.33c-2.77,11.68-7.02,29.16-15.43,43.78
			c-4.69,8.15-6.27,23.76,14.09,21.28C536.52,952.64,579.53,927.07,605.81,888.14z"/>
		<path class="st1" d="M752.92,980.08c23.87-14.64-15.78-22.12-14.84-58.29c2.02-77,6.96-139.62-15.45-185.6
			c-4.16-8.54-38.83-11.76-40.19,16.78c-1.34,28.15-8.72,70.06-53.04,143.03c-43.21,71.12-80.08,40.37-50.26,79.46
			c6.43,8.42,34.18,23.59,46.48,3.12c1.43-2.39,15.9-33.3,30.21-62.13c14.87-1.5,49.28-12.68,49.79-11.19
			c2.98,8.75-0.91,20.94-2.5,37.41C698.7,988.32,723.07,998.38,752.92,980.08z M711.07,858.77c-0.46,2.89-12.14,12.95-34.77,17.39
			c18.01-38.39,28.4-82.89,30.18-91.29C708.95,773.24,712.26,851.37,711.07,858.77z"/>
		<path class="st1" d="M775.35,955.11c13.3,19.43,23.53,11.98,26.99,5.81c21.54-38.34-9.09-162.95-8.2-162.9
			c37.98,2.11,62.65,157.44,78.3,168.95c33.84,24.88,58.93-55.17,47.86-181.35c-1.75-19.93-7.34-32.07-18.83-36.27
			c-14.97-5.47-51.92-4.94-41.4,7.76c42.44,51.24,32.23,145.34,21.46,141.56c-10.78-3.78-24.47-174.37-113.46-151.71
			c-23.17,5.9-6.85,9.68-2.23,81.82C773.24,944.42,750.16,918.31,775.35,955.11z"/>
		<path class="st1" d="M984.16,790.96c16.89-6.29,15.82,11.13,12.12,23.58c-3.71,12.45-58.16,135.41-32.62,160.34
			c14.33,13.99,44.08,9.48,39.83-22.5c-3.06-23.01,6.41-69.67,18.66-125.95c12.8-58.85,82.79-67.49,111.9-57.17
			c27.26,9.66,10.03-42.57-23.83-45.41c-25.95-2.18-15.02,11.62-118.26,34.7c-40.97,9.16-69.12-26.66-58.53,30
			C936.91,807.17,970.57,796.02,984.16,790.96z"/>
		<path class="st1" d="M1202.95,823.9c17.87-16.18,32.86-13.79,20.48-27.57c-11.19-12.44-40.56-18.83-52.62-4.22
			c-17.24,20.88-38.33,103.93-44.62,110.21c-7.86,7.85-31.47,3.32-21.58-29.22c9.9-32.54,13.82-43.17,17.72-51.91
			c3.9-8.74,19.57-43.81-28.41-34.98c-62.19,11.45-53.44,35.03-29.97,32.34c52.91-6.06-16.53,97.97,8.08,123.37
			c10.12,10.45,23.42,13.37,44.18-1.2c3.71-2.6-32.25,107.31-145.29,80.46c-72.03-17.11-100.73-36.19-187.63-18.06
			c-51.97,10.84-45.9,58.86-34.85,82.66c13.24,28.53,21.98-7.13,45.62-27.66c18.2-15.81,41.91-32.02,90.15-24.16
			c36.42,5.93,83.18,22.74,127.68,22.57c36.47-0.14,75.95-17.38,94-39.29c30.43-36.93,37.91-61.65,48.2-88.56
			C1172.53,880.44,1182.74,842.19,1202.95,823.9z"/>
		<path class="st1" d="M1354.72,823.81c-19.56-14.94-77.54-38.13-78.09-67.57c-0.46-24.32,16.13-42.86,44.57-42.15
			c27.9,0.69,39.8,27.18,31.13,34.41c-11.96,9.96-37.29-4.23-31.01,12.98c12.61,34.57,64.17,39.69,74.07,0
			c4.71-18.86-4.4-59.17-36.58-73.69c-55.26-24.94-120.52,1.98-128.78,56.97c-8.43,56.13,56.39,87.86,77.12,102.87
			c29.42,21.3,46.42,53.41,22.47,89.39c-15.6,23.42-72.21,59.68-114.06,21.65c-16.03-14.57-18.62-37.86-10.46-50.33
			c9.09-13.9,32.39-31.61,65,13.76c8,11.13,45.4-28.75,30.94-41.94c-14.43-13.17-32.66-21.55-62.4-19.86
			c-22.33,1.27-41.71,11.3-57.1,32.39c-10.16,13.92-17.27,51.44-1.76,77.61c21.28,35.92,60.69,48.67,97.07,47.66
			C1402.87,1014.44,1441.33,889.94,1354.72,823.81z"/>
		<path class="st1" d="M373.82,694.67c-32.21-23.03-70.62-27.06-124.4,11.36c-19.65,14.04-46.06,31.46-71.03,46.87
			c-44.78,27.64-75.02,21.24-99.63,12.98C46.8,755.16,23.46,723.27,22,757.1c-1.22,28.23,12.46,78.5,68.63,67.94
			c85.31-16.03,110.23-42.89,162.53-82.61c31.34-19.46,61.85-31.93,85.28-14.75c52.23,38.3,62.26,121.34-2.02,208.82
			c-38.26,52.07-123.04,65.22-120.65,41.21c1.45-14.56,19.46-132.46,33.01-156.19c5.83-10.2,27.63-17.6,39.23-13.4
			c15.62,5.66,37.49,39.28-10.84,67.29c-11.86,6.87,24.17,47.99,38.72,34.89c14.52-13.08,24.64-30.4,25.86-60.17
			c0.92-22.35-7.17-42.61-26.65-59.99c-12.86-11.47-49.5-22.22-77.06-9.34c-8.77,4.1-16.37,9.31-22.94,15.32
			c0.03,0.01,0.05,0.03,0.08,0.05c-6.69,5.61-11.2,11.24-11.16,15.13c0.32,33.08-13.96,163.55-33.1,206.09
			c-7.43,16.52,227.88,23.77,264.29-168.36C450.12,770.31,402.16,714.93,373.82,694.67z"/>
		<path class="st1" d="M497.87,762.4c-13.69-14.45-63.29,21.58-46.31,26.98c42.1,13.4-0.47,107.43-12.09,130.96
			s-18.53,54.61,2.44,50.62c40.19-7.66,34.63-16.49,32.15-27.38c-2.47-10.88-7.02-32.1,20.13-85.96
			C519.74,806.92,502.27,767.05,497.87,762.4z"/>
	</g>
	<g>
		<linearGradient id="SVGID_1_" gradientUnits="userSpaceOnUse" x1="583.1169" y1="963.3642" x2="583.1169" y2="696.3217">
			<stop  offset="0" style="stop-color:#FBBA00"/>
			<stop  offset="0.5056" style="stop-color:#72BB6F"/>
			<stop  offset="1" style="stop-color:#1DBADF"/>
		</linearGradient>
		<path class="st2" d="M609.8,896.11c26.28-38.93,43.62-79.92,43.36-141.42c-0.12-27.74,25.38-65.26-4.6-57.28
			s-50.03,24.05-42.72,44.35c8.72,24.2,10.98,125.68-56.97,158.56c-16.61,8.04,44.79-156.27-6.74-155.87
			c-53.38,0.41-29.46,17.76-24.42,21.26c12.28,8.55,22.27,54.42,3.79,132.33c-2.77,11.68-7.02,29.16-15.43,43.78
			c-4.69,8.15-6.27,23.76,14.09,21.28C540.5,960.61,583.52,935.04,609.8,896.11z"/>
		<linearGradient id="SVGID_2_" gradientUnits="userSpaceOnUse" x1="668.4427" y1="996.7767" x2="668.4427" y2="738.1523">
			<stop  offset="0" style="stop-color:#FBBA00"/>
			<stop  offset="0.5056" style="stop-color:#72BB6F"/>
			<stop  offset="1" style="stop-color:#1DBADF"/>
		</linearGradient>
		<path class="st3" d="M756.9,988.05c23.87-14.64-15.78-22.12-14.84-58.29c2.02-77,6.96-139.62-15.45-185.6
			c-4.16-8.54-38.83-11.76-40.19,16.78c-1.34,28.15-8.72,70.06-53.04,143.03c-43.21,71.12-80.08,40.37-50.26,79.46
			c6.43,8.42,34.18,23.59,46.48,3.12c1.43-2.39,15.9-33.3,30.21-62.13c14.87-1.5,49.28-12.68,49.79-11.19
			c2.98,8.75-0.91,20.94-2.5,37.41C702.68,996.3,727.06,1006.35,756.9,988.05z M715.06,866.74c-0.46,2.89-12.14,12.95-34.77,17.39
			c18.01-38.39,28.4-82.89,30.18-91.29C712.94,781.21,716.25,859.34,715.06,866.74z"/>
		<linearGradient id="SVGID_3_" gradientUnits="userSpaceOnUse" x1="843.4348" y1="979.4751" x2="843.4348" y2="752.8742">
			<stop  offset="0" style="stop-color:#FBBA00"/>
			<stop  offset="0.5056" style="stop-color:#72BB6F"/>
			<stop  offset="1" style="stop-color:#1DBADF"/>
		</linearGradient>
		<path class="st4" d="M779.33,963.08c13.3,19.43,23.53,11.98,26.99,5.81c21.54-38.34-9.09-162.95-8.2-162.9
			c37.98,2.11,62.65,157.44,78.3,168.95c33.84,24.88,58.93-55.17,47.86-181.35c-1.75-19.93-7.34-32.07-18.83-36.27
			c-14.97-5.47-51.92-4.94-41.4,7.76c42.44,51.24,32.23,145.34,21.46,141.56c-10.78-3.78-24.47-174.37-113.46-151.71
			c-23.17,5.9-6.85,9.68-2.23,81.82C777.22,952.39,754.15,926.28,779.33,963.08z"/>
		<linearGradient id="SVGID_4_" gradientUnits="userSpaceOnUse" x1="1043.3375" y1="990.358" x2="1043.3375" y2="731.5893">
			<stop  offset="0" style="stop-color:#FBBA00"/>
			<stop  offset="0.5056" style="stop-color:#72BB6F"/>
			<stop  offset="1" style="stop-color:#1DBADF"/>
		</linearGradient>
		<path class="st5" d="M988.15,798.93c16.89-6.29,15.82,11.13,12.12,23.58c-3.71,12.45-58.16,135.41-32.62,160.34
			c14.33,13.99,44.08,9.48,39.83-22.5c-3.06-23.01,6.41-69.67,18.66-125.95c12.8-58.85,82.79-67.49,111.9-57.17
			c27.26,9.66,10.03-42.57-23.83-45.41c-25.95-2.18-15.02,11.62-118.26,34.7c-40.97,9.16-69.12-26.66-58.53,30
			C940.89,815.14,974.56,804,988.15,798.93z"/>
		<linearGradient id="SVGID_5_" gradientUnits="userSpaceOnUse" x1="988.4173" y1="1104.4044" x2="988.4173" y2="791.6768">
			<stop  offset="0" style="stop-color:#FBBA00"/>
			<stop  offset="0.5056" style="stop-color:#72BB6F"/>
			<stop  offset="1" style="stop-color:#1DBADF"/>
		</linearGradient>
		<path class="st6" d="M1206.93,831.88c17.87-16.18,32.86-13.79,20.48-27.57c-11.19-12.44-40.56-18.83-52.62-4.22
			c-17.24,20.88-38.33,103.93-44.62,110.21c-7.86,7.85-31.47,3.32-21.58-29.22c9.9-32.54,13.82-43.17,17.72-51.91
			s19.57-43.81-28.41-34.98c-62.19,11.45-53.44,35.03-29.97,32.34c52.91-6.06-16.53,97.97,8.08,123.37
			c10.12,10.45,23.42,13.37,44.18-1.2c3.71-2.6-32.25,107.31-145.29,80.46c-72.03-17.11-100.73-36.19-187.63-18.06
			c-51.97,10.84-45.9,58.86-34.85,82.66c13.24,28.53,21.98-7.13,45.62-27.66c18.2-15.81,41.91-32.02,90.15-24.16
			c36.42,5.93,83.18,22.74,127.68,22.57c36.47-0.14,75.95-17.38,94-39.29c30.43-36.93,37.91-61.65,48.2-88.56
			C1176.52,888.42,1186.73,850.16,1206.93,831.88z"/>
		<linearGradient id="SVGID_6_" gradientUnits="userSpaceOnUse" x1="1290.0569" y1="1025.9741" x2="1290.0569" y2="686.4069">
			<stop  offset="0" style="stop-color:#FBBA00"/>
			<stop  offset="0.5056" style="stop-color:#72BB6F"/>
			<stop  offset="1" style="stop-color:#1DBADF"/>
		</linearGradient>
		<path class="st7" d="M1358.71,831.79c-19.56-14.94-77.54-38.13-78.09-67.57c-0.46-24.32,16.13-42.86,44.57-42.15
			c27.9,0.69,39.8,27.18,31.13,34.41c-11.96,9.96-37.29-4.23-31.01,12.98c12.61,34.57,64.17,39.69,74.07,0
			c4.71-18.86-4.4-59.17-36.58-73.69c-55.26-24.94-120.52,1.98-128.78,56.97c-8.43,56.13,56.39,87.86,77.12,102.87
			c29.42,21.3,46.42,53.41,22.47,89.39c-15.6,23.42-72.21,59.68-114.06,21.65c-16.03-14.57-18.62-37.86-10.46-50.33
			c9.09-13.9,32.39-31.61,65,13.76c8,11.13,45.4-28.75,30.94-41.94c-14.43-13.17-32.66-21.55-62.4-19.86
			c-22.33,1.27-41.71,11.3-57.1,32.39c-10.16,13.92-17.27,51.44-1.76,77.61c21.28,35.92,60.69,48.67,97.07,47.66
			C1406.86,1022.41,1445.31,897.92,1358.71,831.79z"/>
		<linearGradient id="SVGID_7_" gradientUnits="userSpaceOnUse" x1="233.9574" y1="1033.0414" x2="233.9574" y2="685.197">
			<stop  offset="0" style="stop-color:#FBBA00"/>
			<stop  offset="0.5056" style="stop-color:#72BB6F"/>
			<stop  offset="1" style="stop-color:#1DBADF"/>
		</linearGradient>
		<path class="st8" d="M377.81,702.64c-32.21-23.03-70.62-27.06-124.4,11.36c-19.65,14.04-46.06,31.46-71.03,46.87
			c-44.78,27.64-75.02,21.24-99.63,12.98c-31.95-10.72-55.29-42.61-56.75-8.78c-1.22,28.23,12.46,78.5,68.63,67.94
			c85.31-16.03,110.23-42.89,162.53-82.61c31.34-19.46,61.85-31.93,85.28-14.75c52.23,38.3,62.26,121.34-2.02,208.82
			c-38.26,52.07-123.04,65.22-120.65,41.21c1.45-14.56,19.46-132.46,33.01-156.19c5.83-10.2,27.63-17.6,39.23-13.4
			c15.62,5.66,37.49,39.28-10.84,67.29c-11.86,6.87,24.17,47.99,38.72,34.89c14.52-13.08,24.64-30.4,25.86-60.17
			c0.92-22.35-7.17-42.61-26.65-59.99c-12.86-11.47-49.5-22.22-77.06-9.34c-8.77,4.1-16.37,9.31-22.94,15.32
			c0.03,0.01,0.05,0.03,0.08,0.05c-6.69,5.61-11.2,11.24-11.16,15.13c0.32,33.08-13.96,163.55-33.1,206.09
			c-7.43,16.52,227.88,23.77,264.29-168.36C454.11,778.28,406.15,722.91,377.81,702.64z"/>
		<linearGradient id="SVGID_8_" gradientUnits="userSpaceOnUse" x1="472.0898" y1="979.2819" x2="472.0898" y2="766.9814">
			<stop  offset="0" style="stop-color:#FBBA00"/>
			<stop  offset="0.5056" style="stop-color:#72BB6F"/>
			<stop  offset="1" style="stop-color:#1DBADF"/>
		</linearGradient>
		<path class="st9" d="M501.86,770.38c-13.69-14.45-63.29,21.58-46.31,26.98c42.1,13.4-0.47,107.43-12.09,130.96
			c-11.62,23.53-18.53,54.61,2.44,50.62c40.19-7.66,34.63-16.49,32.15-27.38c-2.47-10.88-7.02-32.1,20.13-85.96
			C523.73,814.89,506.26,775.02,501.86,770.38z"/>
	</g>
	<g>
		<circle class="st0" cx="767.38" cy="333.58" r="333.58"/>
		<g>
			<linearGradient id="SVGID_9_" gradientUnits="userSpaceOnUse" x1="767.3757" y1="629.3318" x2="767.3757" y2="37.8238">
				<stop  offset="0" style="stop-color:#FBBA00"/>
				<stop  offset="0.5056" style="stop-color:#72BB6F"/>
				<stop  offset="1" style="stop-color:#1DBADF"/>
			</linearGradient>
			<path class="st10" d="M767.38,629.33c-163.08,0-295.75-132.67-295.75-295.75S604.3,37.82,767.38,37.82
				s295.75,132.68,295.75,295.75S930.45,629.33,767.38,629.33z M767.38,61.73c-149.9,0-271.84,121.95-271.84,271.85
				s121.95,271.84,271.84,271.84s271.84-121.95,271.84-271.84S917.27,61.73,767.38,61.73z"/>
		</g>
		<g>
			<path class="st1" d="M963.22,144.96c-45.3-32.39-99.32-38.05-174.96,15.98c-27.64,19.74-64.78,44.24-99.9,65.92
				c-62.98,38.87-105.51,29.87-140.12,18.26c-44.93-15.08-77.76-59.93-79.81-12.35c-1.71,39.7,17.52,110.4,96.52,95.56
				C684.92,305.78,719.97,268,793.52,212.14c44.08-27.37,86.99-44.91,119.94-20.75c73.45,53.87,87.56,170.66-2.85,293.68
				c-53.82,73.23-173.05,91.72-169.69,57.96c2.04-20.48,27.36-186.3,46.43-219.67c8.2-14.35,38.86-24.75,55.18-18.84
				c21.96,7.95,52.73,55.24-15.25,94.64c-16.68,9.66,34,67.5,54.46,49.07c20.42-18.39,34.65-42.75,36.37-84.62
				c1.29-31.44-10.08-59.93-37.49-84.38c-18.08-16.13-69.62-31.24-108.39-13.14c-12.34,5.76-23.02,13.09-32.26,21.54
				c0.04,0.02,0.07,0.04,0.11,0.06c-9.4,7.89-15.75,15.8-15.7,21.28c0.45,46.53-19.63,230.01-46.55,289.85
				c-10.45,23.23,320.49,33.44,371.7-236.78C1070.53,251.34,1003.08,173.46,963.22,144.96z"/>
			<linearGradient id="SVGID_10_" gradientUnits="userSpaceOnUse" x1="766.5153" y1="620.8546" x2="766.5153" y2="131.6413">
				<stop  offset="0" style="stop-color:#FBBA00"/>
				<stop  offset="0.5056" style="stop-color:#72BB6F"/>
				<stop  offset="1" style="stop-color:#1DBADF"/>
			</linearGradient>
			<path class="st11" d="M968.83,156.18c-45.3-32.39-99.32-38.05-174.96,15.98c-27.64,19.74-64.78,44.24-99.9,65.92
				c-62.98,38.87-105.51,29.87-140.12,18.26c-44.93-15.08-77.76-59.93-79.81-12.35c-1.71,39.7,17.52,110.4,96.52,95.56
				c119.98-22.54,155.03-60.32,228.58-116.18c44.08-27.37,86.99-44.91,119.94-20.75c73.45,53.87,87.56,170.66-2.85,293.68
				c-53.82,73.23-173.05,91.72-169.69,57.96c2.04-20.48,27.36-186.3,46.43-219.67c8.2-14.35,38.86-24.75,55.18-18.84
				c21.96,7.95,52.73,55.24-15.25,94.64c-16.68,9.66,34,67.5,54.46,49.07c20.42-18.39,34.65-42.75,36.37-84.62
				c1.29-31.44-10.08-59.93-37.49-84.38c-18.08-16.13-69.62-31.24-108.39-13.14c-12.34,5.76-23.02,13.09-32.26,21.54
				c0.04,0.02,0.07,0.04,0.11,0.06c-9.4,7.89-15.75,15.8-15.7,21.28c0.45,46.53-19.63,230.01-46.55,289.85
				c-10.45,23.23,320.49,33.44,371.7-236.78C1076.13,262.56,1008.69,184.68,968.83,156.18z"/>
		</g>
	</g>
</g>
</svg>
