<?xml version="1.0" encoding="utf-8"?>
<!-- Generator: Adobe Illustrator 23.0.5, SVG Export Plug-In . SVG Version: 6.00 Build 0)  -->
<svg version="1.1" id="Capa_1" xmlns="http://www.w3.org/2000/svg" xmlns:xlink="http://www.w3.org/1999/xlink" x="0px" y="0px"
	 viewBox="0 0 584.72 194.55" style="enable-background:new 0 0 584.72 194.55;" xml:space="preserve">
<style type="text/css">
	.st0{fill:url(#SVGID_1_);}
	.st1{fill:#FFFFFF;}
	.st2{fill:#230131;}
	.st3{fill:#CB88A1;}
	.st4{fill:#C24131;}
	.st5{fill:#BE1622;}
	.st6{fill:#935EA3;}
	.st7{fill:none;}
	.st8{fill:none;stroke:#FFFFFF;stroke-width:2;stroke-miterlimit:10;}
	.st9{fill:#E9B6A3;}
	.st10{opacity:0.9;fill:#230131;}
	.st11{opacity:0.24;fill:url(#SVGID_2_);}
	.st12{fill:#BF1A1B;}
	.st13{fill:#FFEC00;}
	.st14{fill:url(#SVGID_3_);}
	.st15{fill:url(#SVGID_4_);}
	.st16{fill:url(#SVGID_5_);}
	.st17{fill:url(#SVGID_6_);}
	.st18{fill:url(#SVGID_7_);}
	.st19{fill:url(#SVGID_8_);}
	.st20{fill:url(#SVGID_9_);}
	.st21{fill:url(#SVGID_10_);}
	.st22{fill:url(#SVGID_11_);}
	.st23{fill:url(#SVGID_12_);}
	.st24{fill:#E9C064;}
	.st25{fill:#E9C064;stroke:#FFFFFF;stroke-width:20;stroke-miterlimit:10;}
	.st26{clip-path:url(#SVGID_14_);}
	.st27{fill:url(#SVGID_15_);}
	.st28{fill:url(#SVGID_16_);}
	.st29{fill:url(#SVGID_17_);}
	.st30{fill:url(#SVGID_18_);}
	.st31{fill:url(#SVGID_19_);}
	.st32{fill:url(#SVGID_20_);}
	.st33{fill:url(#SVGID_21_);}
	.st34{fill:url(#SVGID_22_);}
	.st35{fill:url(#SVGID_23_);}
	.st36{fill:url(#SVGID_24_);}
	.st37{fill:url(#SVGID_25_);}
	.st38{fill:url(#SVGID_26_);}
	.st39{fill:url(#SVGID_27_);}
	.st40{opacity:0.24;fill:url(#SVGID_28_);}
	.st41{fill:url(#SVGID_29_);}
	.st42{fill:url(#SVGID_30_);}
	.st43{fill:url(#SVGID_31_);}
	.st44{opacity:0.24;fill:url(#SVGID_32_);}
	.st45{fill:url(#SVGID_33_);}
	.st46{fill:url(#SVGID_34_);}
	.st47{fill:url(#SVGID_35_);}
	.st48{opacity:0.24;fill:url(#SVGID_36_);}
	.st49{clip-path:url(#SVGID_38_);}
	.st50{opacity:0.63;clip-path:url(#SVGID_38_);fill:url(#SVGID_41_);}
	.st51{opacity:0;clip-path:url(#SVGID_38_);fill:url(#SVGID_42_);}
	.st52{opacity:0.22;clip-path:url(#SVGID_38_);fill:url(#SVGID_43_);}
	.st53{fill:url(#SVGID_44_);}
	.st54{clip-path:url(#SVGID_46_);}
	.st55{fill:url(#SVGID_47_);}
	.st56{fill:url(#SVGID_48_);}
	.st57{fill:url(#SVGID_49_);}
	.st58{fill:url(#SVGID_50_);}
	.st59{fill:url(#SVGID_51_);}
	.st60{fill:url(#SVGID_52_);}
	.st61{fill:url(#SVGID_53_);}
	.st62{fill:url(#SVGID_54_);}
	.st63{fill:url(#SVGID_55_);}
	.st64{fill:url(#SVGID_56_);}
	.st65{fill:url(#SVGID_57_);}
	.st66{clip-path:url(#SVGID_59_);}
	.st67{fill:#A1C538;}
	.st68{fill:#886FAE;}
	.st69{fill:#E9C063;}
	.st70{fill:url(#SVGID_60_);stroke:#230131;stroke-width:12;stroke-miterlimit:10;}
	.st71{clip-path:url(#SVGID_62_);}
	.st72{fill:url(#SVGID_63_);}
	.st73{opacity:0.5;}
	.st74{fill:#EDCD83;}
	.st75{opacity:0.62;clip-path:url(#SVGID_62_);fill:url(#SVGID_64_);}
	.st76{clip-path:url(#SVGID_62_);fill:url(#SVGID_65_);}
	.st77{fill:url(#SVGID_66_);}
	.st78{fill:#E9C064;stroke:#230131;stroke-width:20;stroke-miterlimit:10;}
	.st79{fill:url(#SVGID_67_);}
	.st80{fill:url(#SVGID_68_);}
	.st81{clip-path:url(#SVGID_62_);fill:url(#SVGID_69_);}
	.st82{fill:url(#SVGID_70_);}
	.st83{fill:url(#SVGID_71_);}
	.st84{opacity:0.34;fill:#230131;}
	.st85{fill:url(#SVGID_72_);}
	.st86{fill:url(#SVGID_73_);}
	.st87{fill:url(#SVGID_74_);}
	.st88{fill:url(#SVGID_75_);}
	.st89{fill:url(#SVGID_76_);}
	.st90{fill:url(#SVGID_77_);}
	.st91{fill:url(#SVGID_78_);}
	.st92{fill:url(#SVGID_79_);}
	.st93{fill:url(#SVGID_80_);}
	.st94{fill:url(#SVGID_81_);}
	.st95{fill:url(#SVGID_82_);}
	.st96{fill:url(#SVGID_83_);}
	.st97{clip-path:url(#SVGID_85_);}
	.st98{fill:url(#SVGID_86_);}
	.st99{fill:#D5A0B4;}
	.st100{fill:#D15F81;}
	.st101{fill:#F09C83;}
	.st102{opacity:0.62;clip-path:url(#SVGID_85_);fill:url(#SVGID_87_);}
	.st103{clip-path:url(#SVGID_85_);fill:url(#SVGID_88_);}
	.st104{fill:url(#SVGID_89_);}
	.st105{fill:url(#SVGID_90_);}
	.st106{fill:#CB88A1;stroke:#230131;stroke-width:20;stroke-miterlimit:10;}
	.st107{fill:url(#SVGID_91_);}
	.st108{clip-path:url(#SVGID_85_);fill:url(#SVGID_92_);}
	.st109{fill:url(#SVGID_93_);}
	.st110{fill:url(#SVGID_94_);}
	.st111{fill:url(#SVGID_95_);}
	.st112{fill:url(#SVGID_96_);}
	.st113{fill:url(#SVGID_97_);}
	.st114{fill:url(#SVGID_98_);}
	.st115{fill:url(#SVGID_99_);}
	.st116{fill:url(#SVGID_100_);}
	.st117{fill:url(#SVGID_101_);}
	.st118{fill:url(#SVGID_102_);}
	.st119{fill:url(#SVGID_103_);}
	.st120{clip-path:url(#SVGID_105_);}
	.st121{fill:url(#SVGID_106_);}
	.st122{fill:#CE675A;}
	.st123{fill:#DD4B1A;}
	.st124{fill:#F4971E;}
	.st125{opacity:0.62;clip-path:url(#SVGID_105_);fill:url(#SVGID_107_);}
	.st126{clip-path:url(#SVGID_105_);fill:url(#SVGID_108_);}
	.st127{fill:url(#SVGID_109_);}
	.st128{fill:url(#SVGID_110_);}
	.st129{fill:url(#SVGID_111_);}
	.st130{fill:#C24131;stroke:#230131;stroke-width:20;stroke-miterlimit:10;}
	.st131{clip-path:url(#SVGID_105_);fill:url(#SVGID_112_);}
	.st132{fill:url(#SVGID_113_);}
	.st133{fill:url(#SVGID_114_);}
	.st134{fill:url(#SVGID_115_);}
	.st135{fill:url(#SVGID_116_);}
	.st136{fill:url(#SVGID_117_);}
	.st137{fill:url(#SVGID_118_);}
	.st138{fill:url(#SVGID_119_);}
	.st139{fill:url(#SVGID_120_);}
	.st140{fill:url(#SVGID_121_);}
	.st141{fill:url(#SVGID_122_);}
	.st142{fill:url(#SVGID_123_);}
	.st143{fill:url(#SVGID_124_);}
	.st144{fill:url(#SVGID_125_);}
	.st145{opacity:0.35;}
	.st146{fill:#ECECEC;}
	.st147{fill:url(#SVGID_126_);}
	.st148{clip-path:url(#SVGID_128_);}
	.st149{fill:url(#SVGID_129_);}
	.st150{fill:#FBBA00;}
	.st151{opacity:0.62;fill:url(#SVGID_130_);}
	.st152{fill:url(#SVGID_131_);}
	.st153{fill:url(#SVGID_132_);}
	.st154{fill:url(#SVGID_133_);}
	.st155{fill:url(#SVGID_134_);}
	.st156{fill:url(#SVGID_135_);}
	.st157{fill:url(#SVGID_136_);}
	.st158{fill:url(#SVGID_137_);}
	.st159{fill:url(#SVGID_138_);}
	.st160{fill:url(#SVGID_139_);}
	.st161{fill:url(#SVGID_140_);}
	.st162{fill:url(#SVGID_143_);}
	.st163{fill:url(#SVGID_144_);}
	.st164{fill:url(#SVGID_145_);}
	.st165{fill:url(#SVGID_146_);}
	.st166{fill:url(#SVGID_147_);}
	.st167{fill:url(#SVGID_148_);}
	.st168{fill:url(#SVGID_149_);}
	.st169{fill:url(#SVGID_150_);}
	.st170{fill:url(#SVGID_151_);}
	.st171{fill:url(#SVGID_152_);}
	.st172{fill:url(#SVGID_155_);}
	.st173{fill:url(#SVGID_156_);}
	.st174{fill:url(#SVGID_157_);}
	.st175{fill:url(#SVGID_158_);}
	.st176{fill:url(#SVGID_159_);}
	.st177{fill:url(#SVGID_160_);}
	.st178{fill:url(#SVGID_161_);}
	.st179{fill:url(#SVGID_162_);}
	.st180{fill:url(#SVGID_163_);}
	.st181{fill:url(#SVGID_164_);}
	.st182{fill:url(#SVGID_167_);}
	.st183{fill:url(#SVGID_168_);}
	.st184{fill:url(#SVGID_169_);}
	.st185{fill:url(#SVGID_170_);}
	.st186{fill:url(#SVGID_171_);}
	.st187{fill:url(#SVGID_172_);}
	.st188{fill:url(#SVGID_173_);}
	.st189{fill:url(#SVGID_174_);}
	.st190{fill:url(#SVGID_175_);}
	.st191{fill:url(#SVGID_176_);}
	.st192{clip-path:url(#SVGID_178_);}
	.st193{clip-path:url(#SVGID_180_);}
	.st194{clip-path:url(#SVGID_188_);}
	.st195{clip-path:url(#SVGID_190_);}
	.st196{opacity:0.35;clip-path:url(#SVGID_192_);}
	.st197{clip-path:url(#SVGID_192_);fill:url(#SVGID_193_);}
	.st198{clip-path:url(#SVGID_192_);}
	.st199{clip-path:url(#SVGID_195_);fill:url(#SVGID_196_);}
	.st200{clip-path:url(#SVGID_198_);}
	.st201{opacity:0.62;clip-path:url(#SVGID_192_);fill:url(#SVGID_199_);}
	.st202{fill:url(#SVGID_200_);}
	.st203{fill:url(#SVGID_201_);}
	.st204{fill:url(#SVGID_202_);}
	.st205{fill:url(#SVGID_203_);}
	.st206{fill:url(#SVGID_204_);}
	.st207{fill:url(#SVGID_205_);}
	.st208{fill:url(#SVGID_206_);}
	.st209{fill:url(#SVGID_207_);}
	.st210{fill:url(#SVGID_208_);}
	.st211{fill:url(#SVGID_209_);}
	.st212{fill-rule:evenodd;clip-rule:evenodd;fill:#FFFFFF;}
	.st213{fill:#72BB6F;}
	.st214{fill:#1DBADF;}
	.st215{fill:url(#SVGID_212_);}
	.st216{fill:url(#SVGID_213_);}
	.st217{fill:url(#SVGID_214_);}
	.st218{fill:url(#SVGID_215_);}
	.st219{fill:url(#SVGID_216_);}
	.st220{fill:url(#SVGID_217_);}
	.st221{fill:url(#SVGID_218_);}
	.st222{fill:url(#SVGID_219_);}
	.st223{fill:url(#SVGID_220_);}
	.st224{fill:url(#SVGID_221_);}
	.st225{fill:url(#SVGID_224_);}
	.st226{fill:url(#SVGID_225_);}
	.st227{fill:url(#SVGID_226_);}
	.st228{fill:url(#SVGID_227_);}
	.st229{fill:url(#SVGID_228_);}
	.st230{fill:url(#SVGID_229_);}
	.st231{fill:url(#SVGID_230_);}
	.st232{fill:url(#SVGID_231_);}
	.st233{fill:url(#SVGID_232_);}
	.st234{fill:url(#SVGID_233_);}
	.st235{fill:url(#SVGID_236_);}
	.st236{fill:url(#SVGID_237_);}
	.st237{fill:url(#SVGID_238_);}
	.st238{fill:url(#SVGID_239_);}
	.st239{fill:url(#SVGID_240_);}
	.st240{fill:url(#SVGID_241_);}
	.st241{fill:url(#SVGID_242_);}
	.st242{fill:url(#SVGID_243_);}
	.st243{fill:url(#SVGID_244_);}
	.st244{fill:url(#SVGID_245_);}
	.st245{fill:url(#SVGID_248_);}
	.st246{fill:url(#SVGID_249_);}
	.st247{fill:url(#SVGID_250_);}
	.st248{fill:url(#SVGID_251_);}
	.st249{fill:url(#SVGID_252_);}
	.st250{fill:url(#SVGID_253_);}
	.st251{fill:url(#SVGID_254_);}
	.st252{fill:url(#SVGID_255_);}
	.st253{fill:url(#SVGID_256_);}
	.st254{fill:url(#SVGID_257_);}
	.st255{clip-path:url(#SVGID_259_);}
	.st256{clip-path:url(#SVGID_261_);}
	.st257{clip-path:url(#SVGID_269_);}
	.st258{clip-path:url(#SVGID_271_);}
	.st259{clip-path:url(#SVGID_273_);}
	.st260{fill:#230131;stroke:#230131;stroke-miterlimit:10;}
	.st261{fill:#350030;}
	.st262{fill:url(#SVGID_276_);}
	.st263{fill:url(#SVGID_277_);}
	.st264{fill:url(#SVGID_278_);}
	.st265{fill:url(#SVGID_279_);}
	.st266{fill:url(#SVGID_280_);}
	.st267{fill:url(#SVGID_281_);}
	.st268{fill:url(#SVGID_282_);}
	.st269{fill:url(#SVGID_283_);}
	.st270{fill:url(#SVGID_284_);}
	.st271{fill:url(#SVGID_285_);}
	.st272{fill:#FDCC68;}
	.st273{fill:#8CC15C;}
	.st274{fill:url(#SVGID_286_);}
	.st275{fill:url(#SVGID_287_);}
	.st276{fill:url(#SVGID_288_);}
	.st277{fill:url(#SVGID_289_);}
	.st278{fill:url(#SVGID_290_);}
	.st279{fill:url(#SVGID_291_);}
	.st280{fill:url(#SVGID_292_);}
	.st281{fill:url(#SVGID_293_);}
	.st282{fill:url(#SVGID_294_);}
	.st283{fill:url(#SVGID_295_);}
	.st284{fill:url(#SVGID_296_);}
</style>
<g>
</g>
<g>
	<g>
		<path class="st2" d="M567.21,67.42c7.17-3.29,12.56-9.77,14.65-18.15c3.21-12.88-2.52-35.31-21.65-43.95
			c-15.34-6.93-32.94-6.46-47.08,1.24c-12.15,6.62-20.26,17.98-22.24,31.17c-0.29,1.94-0.44,3.82-0.45,5.65
			c-1.23-0.13-2.47-0.19-3.7-0.17c-1.87,0.04-3.66,0.27-5.38,0.66c-0.23-1.71-0.66-3.48-1.33-5.27
			c-3.34-9.04-12.3-18.62-24.79-19.67c-7.76-0.65-11.91,1.29-16.32,3.34c-4.78,2.23-12.78,5.95-35.38,11.01
			c-3.51,0.78-7.04,0.11-10.46-0.54c-3.79-0.72-9.01-1.71-13.92,0.29c-1.66-1.26-3.5-2.28-5.55-3.03
			c-3.76-1.37-9.02-2.14-14.13-2.07c-8.11,0.12-13.68,2.33-17,6.75c-11.32-8.67-23.07-7.83-30.23-6c-1.09,0.28-2.86,0.73-4.79,1.62
			c-4.04-7.59-14.03-9.95-21.98-8.31c-0.87,0.18-1.7,0.42-2.52,0.68c0.58-4.79-0.04-9.67-4.09-13.78
			c-2.86-2.91-8.12-5.89-16.92-3.55c-12.07,3.21-20.55,8.93-24.53,16.53c-1.21,2.31-1.98,4.77-2.29,7.28
			c-3.52-3.32-8.13-5.11-13.22-5.11c-0.05,0-0.11,0-0.17,0c-6.54,0.05-19.64,0.16-24.36,9.59c-1.92,0.37-4.01,1-6.26,1.96
			c-0.59,0.25-2.62,1.15-5.11,2.66c-0.35-0.74-0.71-1.47-1.09-2.2C177.09,21,166.39,12.34,162.16,9.31h0
			c-19.3-13.8-41.06-12.25-64.66,4.61c-7.72,5.51-18.25,12.46-28.18,18.59c-13.82,8.53-21.86,6.9-30.23,4.1
			c-3.05-1.02-6.32-3.03-9.2-4.8c-5.91-3.63-13.27-8.15-21.36-3.85c-5.3,2.82-8.16,8.22-8.49,16.07
			C-0.4,54.35,2.72,68.49,12.82,77.25c5.36,4.64,14.82,9.59,29.48,6.84c13.02-2.45,23-5.55,31.35-9.23
			c-1.31,19.5-6.43,57.92-12.06,70.44c-2.06,4.58-1.31,9.83,1.97,13.69c2.75,3.25,7.58,6.56,22.51,6.56c0.09,0,0.18,0,0.27,0
			c9.5-0.03,20.31-1.51,30.44-4.18c13.84-3.65,33.64-11.39,49.74-27.57c0.53,1.32,1.23,2.58,2.12,3.76
			c3.02,3.97,7.64,6.15,12.78,6.14c1.18,0,2.38-0.11,3.6-0.35c7.01-1.34,13.99-3.23,18.6-7.62c2.06,0.89,4.58,1.5,7.66,1.5
			c0.98,0,2.01-0.06,3.1-0.19c2.96-0.36,6.38-1.36,10.02-2.92c1.31,2.37,2.94,4.53,4.43,6.48c3.87,5.07,12.49,10.2,21.25,10.2
			c0.4,0,0.81-0.01,1.22-0.03c6.88-0.38,12.89-4.03,16.48-10.02c0.51-0.85,0.96-1.78,3.88-7.85c1.38-2.87,3.05-6.36,4.85-10.05
			c-0.35,14.5,5.58,21.44,10.88,24.75c2.32,1.45,4.86,2.38,7.56,2.83c-5.05,11.14-2.7,24.13,1.3,32.74
			c3.21,6.92,7.82,10.72,13.69,11.29c0.52,0.05,1.02,0.08,1.51,0.08c8.03,0,12.75-6.49,16.25-11.3c1.91-2.63,3.89-5.34,6.07-7.24
			c6.02-5.23,12.18-9.36,26.7-7c4.55,0.74,9.79,2,15.34,3.34c11.67,2.81,24.88,5.99,38.21,5.99c0.1,0,0.21,0,0.31,0
			c18.14-0.07,37.68-8.45,47.52-20.39c5.41-6.57,9.23-12.31,12.14-17.57c9.9,14.27,26.47,22.29,46.21,22.29
			c0.68,0,1.37-0.01,2.06-0.03c29.32-0.82,52.28-16.04,59.92-39.72C588.52,103.26,582.79,82.62,567.21,67.42z"/>
	</g>
	<g>
		<path class="st1" d="M246.09,93.73c10.67-15.81,17.72-32.47,17.61-57.45c-0.05-11.27,10.31-26.51-1.87-23.27
			s-20.32,9.77-17.35,18.01c3.54,9.83,4.46,51.05-23.14,64.41c-6.75,3.26,18.19-63.48-2.74-63.32c-21.68,0.17-11.97,7.21-9.92,8.64
			c4.99,3.47,9.05,22.11,1.54,53.76c-1.13,4.74-2.85,11.84-6.27,17.79c-1.9,3.31-2.55,9.65,5.72,8.64
			C217.94,119.93,235.42,109.54,246.09,93.73z"/>
		<path class="st1" d="M305.85,131.08c9.7-5.95-6.41-8.98-6.03-23.68c0.82-31.28,2.83-56.72-6.28-75.4
			c-1.69-3.47-15.77-4.78-16.32,6.82c-0.54,11.44-3.54,28.46-21.55,58.1c-17.55,28.89-32.53,16.4-20.42,32.28
			c2.61,3.42,13.88,9.58,18.88,1.27c0.58-0.97,6.46-13.53,12.27-25.24c6.04-0.61,20.02-5.15,20.22-4.55
			c1.21,3.56-0.37,8.51-1.02,15.2C283.82,134.43,293.73,138.51,305.85,131.08z M288.85,81.8c-0.19,1.17-4.93,5.26-14.12,7.07
			c7.32-15.59,11.54-33.67,12.26-37.08C287.99,47.06,289.33,78.8,288.85,81.8z"/>
		<path class="st1" d="M314.96,120.93c5.4,7.89,9.56,4.86,10.96,2.36c8.75-15.57-3.69-66.19-3.33-66.17
			c15.43,0.86,25.45,63.96,31.81,68.63c13.75,10.11,23.94-22.41,19.44-73.67c-0.71-8.1-2.98-13.03-7.65-14.73
			c-6.08-2.22-21.09-2.01-16.82,3.15c17.24,20.81,13.09,59.04,8.72,57.5c-4.38-1.54-9.94-70.83-46.09-61.63
			c-9.41,2.4-2.78,3.93-0.91,33.24C314.1,116.59,304.73,105.99,314.96,120.93z"/>
		<path class="st1" d="M399.78,54.25c6.86-2.56,6.43,4.52,4.92,9.58c-1.51,5.06-23.63,55.01-13.25,65.13
			c5.82,5.68,17.91,3.85,16.18-9.14c-1.24-9.35,2.6-28.3,7.58-51.16c5.2-23.91,33.63-27.42,45.46-23.22
			c11.07,3.92,4.08-17.29-9.68-18.45c-10.54-0.88-6.1,4.72-48.04,14.1c-16.64,3.72-28.08-10.83-23.78,12.19
			C380.59,60.84,394.26,56.31,399.78,54.25z"/>
		<path class="st1" d="M488.66,67.64c7.26-6.57,13.35-5.6,8.32-11.2c-4.55-5.05-16.48-7.65-21.38-1.72
			c-7,8.48-15.57,42.22-18.12,44.77c-3.19,3.19-12.78,1.35-8.77-11.87c4.02-13.22,5.61-17.54,7.2-21.09
			c1.58-3.55,7.95-17.8-11.54-14.21c-25.26,4.65-21.71,14.23-12.17,13.14c21.49-2.46-6.71,39.8,3.28,50.12
			c4.11,4.25,9.51,5.43,17.95-0.49c1.51-1.06-13.1,43.59-59.02,32.68c-29.26-6.95-40.92-14.7-76.22-7.34
			c-21.11,4.41-18.65,23.91-14.16,33.58c5.38,11.59,8.93-2.9,18.53-11.23c7.39-6.42,17.02-13.01,36.62-9.81
			c14.79,2.41,33.79,9.24,51.87,9.17c14.81-0.06,30.85-7.06,38.19-15.96c12.36-15,15.4-25.04,19.58-35.97
			C476.3,90.6,480.45,75.07,488.66,67.64z"/>
		<path class="st1" d="M550.31,67.6c-7.95-6.07-31.5-15.49-31.72-27.45c-0.19-9.88,6.55-17.41,18.11-17.12
			c11.33,0.28,16.17,11.04,12.64,13.98c-4.86,4.05-15.15-1.72-12.6,5.27c5.12,14.04,26.07,16.12,30.09,0
			c1.91-7.66-1.79-24.03-14.86-29.93c-22.45-10.13-48.96,0.81-52.31,23.14c-3.42,22.8,22.9,35.69,31.33,41.79
			c11.95,8.65,18.86,21.7,9.13,36.31c-6.34,9.51-29.33,24.24-46.33,8.79c-6.51-5.92-7.56-15.38-4.25-20.45
			c3.69-5.65,13.16-12.84,26.4,5.59c3.25,4.52,18.44-11.68,12.57-17.04c-5.86-5.35-13.27-8.75-25.35-8.07
			c-9.07,0.52-16.94,4.59-23.2,13.16c-4.13,5.65-7.02,20.89-0.72,31.53c8.65,14.59,24.65,19.77,39.43,19.36
			C569.87,145.04,585.49,94.46,550.31,67.6z"/>
		<path class="st1" d="M151.85,15.14c-13.08-9.35-28.69-10.99-50.54,4.62c-7.98,5.7-18.71,12.78-28.86,19.04
			c-18.19,11.23-30.48,8.63-40.47,5.27C19.01,39.71,9.53,26.76,8.94,40.5C8.44,51.97,14,72.39,36.82,68.1
			c34.65-6.51,44.78-17.42,66.02-33.56c12.73-7.9,25.13-12.97,34.64-5.99c21.22,15.56,25.29,49.29-0.82,84.82
			c-15.54,21.15-49.98,26.49-49.01,16.74c0.59-5.92,7.9-53.81,13.41-63.45c2.37-4.14,11.23-7.15,15.94-5.44
			c6.34,2.3,15.23,15.96-4.4,27.33c-4.82,2.79,9.82,19.5,15.73,14.17c5.9-5.31,10.01-12.35,10.5-24.44
			c0.37-9.08-2.91-17.31-10.83-24.37c-5.22-4.66-20.11-9.02-31.31-3.79c-3.56,1.66-6.65,3.78-9.32,6.22
			c0.01,0.01,0.02,0.01,0.03,0.02c-2.72,2.28-4.55,4.56-4.53,6.15c0.13,13.44-5.67,66.44-13.44,83.72
			c-3.02,6.71,92.57,9.66,107.36-68.39C182.85,45.87,163.37,23.37,151.85,15.14z"/>
		<path class="st1" d="M202.24,42.65c-5.56-5.87-25.71,8.77-18.81,10.96c17.1,5.44-0.19,43.64-4.91,53.2
			c-4.72,9.56-7.53,22.18,0.99,20.56c16.33-3.11,14.07-6.7,13.06-11.12c-1-4.42-2.85-13.04,8.18-34.92
			C211.13,60.74,204.03,44.54,202.24,42.65z"/>
	</g>
	<g>
		<linearGradient id="SVGID_1_" gradientUnits="userSpaceOnUse" x1="236.8726" y1="124.2892" x2="236.8726" y2="15.8117">
			<stop  offset="0" style="stop-color:#E9C063"/>
			<stop  offset="0.0824" style="stop-color:#D5AF72"/>
			<stop  offset="0.2503" style="stop-color:#A2849A"/>
			<stop  offset="0.3268" style="stop-color:#886FAE"/>
			<stop  offset="0.3535" style="stop-color:#8C73B0"/>
			<stop  offset="0.3816" style="stop-color:#9680B8"/>
			<stop  offset="0.4104" style="stop-color:#A795C3"/>
			<stop  offset="0.4397" style="stop-color:#C0B3D4"/>
			<stop  offset="0.469" style="stop-color:#DFD8E9"/>
			<stop  offset="0.4944" style="stop-color:#FFFFFF"/>
			<stop  offset="0.5184" style="stop-color:#FEFDF3"/>
			<stop  offset="0.5619" style="stop-color:#FBF9D3"/>
			<stop  offset="0.6199" style="stop-color:#F7F29F"/>
			<stop  offset="0.6844" style="stop-color:#F2E95E"/>
			<stop  offset="0.7447" style="stop-color:#ECE65B"/>
			<stop  offset="0.8288" style="stop-color:#DADE53"/>
			<stop  offset="0.9263" style="stop-color:#BCD145"/>
			<stop  offset="1" style="stop-color:#A1C538"/>
		</linearGradient>
		<path class="st0" d="M247.71,96.97c10.67-15.81,17.72-32.47,17.61-57.45c-0.05-11.27,10.31-26.51-1.87-23.27
			c-12.18,3.24-20.32,9.77-17.35,18.01c3.54,9.83,4.46,51.05-23.14,64.41c-6.75,3.26,18.19-63.48-2.74-63.32
			c-21.68,0.17-11.97,7.21-9.92,8.64c4.99,3.47,9.05,22.11,1.54,53.76c-1.13,4.74-2.85,11.84-6.27,17.79
			c-1.9,3.31-2.55,9.65,5.72,8.64C219.56,123.17,237.04,112.78,247.71,96.97z"/>
		<linearGradient id="SVGID_2_" gradientUnits="userSpaceOnUse" x1="271.5335" y1="137.8619" x2="271.5335" y2="32.804">
			<stop  offset="0" style="stop-color:#E9C063"/>
			<stop  offset="0.0824" style="stop-color:#D5AF72"/>
			<stop  offset="0.2503" style="stop-color:#A2849A"/>
			<stop  offset="0.3268" style="stop-color:#886FAE"/>
			<stop  offset="0.3535" style="stop-color:#8C73B0"/>
			<stop  offset="0.3816" style="stop-color:#9680B8"/>
			<stop  offset="0.4104" style="stop-color:#A795C3"/>
			<stop  offset="0.4397" style="stop-color:#C0B3D4"/>
			<stop  offset="0.469" style="stop-color:#DFD8E9"/>
			<stop  offset="0.4944" style="stop-color:#FFFFFF"/>
			<stop  offset="0.5184" style="stop-color:#FEFDF3"/>
			<stop  offset="0.5619" style="stop-color:#FBF9D3"/>
			<stop  offset="0.6199" style="stop-color:#F7F29F"/>
			<stop  offset="0.6844" style="stop-color:#F2E95E"/>
			<stop  offset="0.7447" style="stop-color:#ECE65B"/>
			<stop  offset="0.8288" style="stop-color:#DADE53"/>
			<stop  offset="0.9263" style="stop-color:#BCD145"/>
			<stop  offset="1" style="stop-color:#A1C538"/>
		</linearGradient>
		<path style="fill:url(#SVGID_2_);" d="M307.47,134.32c9.7-5.95-6.41-8.98-6.03-23.68c0.82-31.28,2.83-56.72-6.28-75.4
			c-1.69-3.47-15.77-4.78-16.32,6.82c-0.54,11.44-3.54,28.46-21.55,58.1c-17.55,28.89-32.53,16.4-20.42,32.28
			c2.61,3.42,13.88,9.58,18.88,1.27c0.58-0.97,6.46-13.53,12.27-25.24c6.04-0.61,20.02-5.15,20.22-4.55
			c1.21,3.56-0.37,8.51-1.02,15.2C285.44,137.67,295.35,141.75,307.47,134.32z M290.47,85.04c-0.19,1.17-4.93,5.26-14.12,7.07
			c7.32-15.59,11.54-33.67,12.26-37.08C289.61,50.3,290.95,82.03,290.47,85.04z"/>
		<linearGradient id="SVGID_3_" gradientUnits="userSpaceOnUse" x1="342.6184" y1="130.8337" x2="342.6184" y2="38.7843">
			<stop  offset="0" style="stop-color:#E9C063"/>
			<stop  offset="0.0824" style="stop-color:#D5AF72"/>
			<stop  offset="0.2503" style="stop-color:#A2849A"/>
			<stop  offset="0.3268" style="stop-color:#886FAE"/>
			<stop  offset="0.3535" style="stop-color:#8C73B0"/>
			<stop  offset="0.3816" style="stop-color:#9680B8"/>
			<stop  offset="0.4104" style="stop-color:#A795C3"/>
			<stop  offset="0.4397" style="stop-color:#C0B3D4"/>
			<stop  offset="0.469" style="stop-color:#DFD8E9"/>
			<stop  offset="0.4944" style="stop-color:#FFFFFF"/>
			<stop  offset="0.5184" style="stop-color:#FEFDF3"/>
			<stop  offset="0.5619" style="stop-color:#FBF9D3"/>
			<stop  offset="0.6199" style="stop-color:#F7F29F"/>
			<stop  offset="0.6844" style="stop-color:#F2E95E"/>
			<stop  offset="0.7447" style="stop-color:#ECE65B"/>
			<stop  offset="0.8288" style="stop-color:#DADE53"/>
			<stop  offset="0.9263" style="stop-color:#BCD145"/>
			<stop  offset="1" style="stop-color:#A1C538"/>
		</linearGradient>
		<path class="st14" d="M316.58,124.17c5.4,7.89,9.56,4.86,10.96,2.36c8.75-15.57-3.69-66.19-3.33-66.17
			c15.43,0.86,25.45,63.96,31.81,68.63c13.75,10.11,23.94-22.41,19.44-73.67c-0.71-8.1-2.98-13.03-7.65-14.73
			c-6.08-2.22-21.09-2.01-16.82,3.15c17.24,20.81,13.09,59.04,8.72,57.5c-4.38-1.54-9.94-70.83-46.09-61.63
			c-9.41,2.4-2.78,3.93-0.91,33.24C315.72,119.83,306.35,109.23,316.58,124.17z"/>
		<linearGradient id="SVGID_4_" gradientUnits="userSpaceOnUse" x1="423.8225" y1="135.2545" x2="423.8225" y2="30.138">
			<stop  offset="0" style="stop-color:#E9C063"/>
			<stop  offset="0.0824" style="stop-color:#D5AF72"/>
			<stop  offset="0.2503" style="stop-color:#A2849A"/>
			<stop  offset="0.3268" style="stop-color:#886FAE"/>
			<stop  offset="0.3535" style="stop-color:#8C73B0"/>
			<stop  offset="0.3816" style="stop-color:#9680B8"/>
			<stop  offset="0.4104" style="stop-color:#A795C3"/>
			<stop  offset="0.4397" style="stop-color:#C0B3D4"/>
			<stop  offset="0.469" style="stop-color:#DFD8E9"/>
			<stop  offset="0.4944" style="stop-color:#FFFFFF"/>
			<stop  offset="0.5184" style="stop-color:#FEFDF3"/>
			<stop  offset="0.5619" style="stop-color:#FBF9D3"/>
			<stop  offset="0.6199" style="stop-color:#F7F29F"/>
			<stop  offset="0.6844" style="stop-color:#F2E95E"/>
			<stop  offset="0.7447" style="stop-color:#ECE65B"/>
			<stop  offset="0.8288" style="stop-color:#DADE53"/>
			<stop  offset="0.9263" style="stop-color:#BCD145"/>
			<stop  offset="1" style="stop-color:#A1C538"/>
		</linearGradient>
		<path class="st15" d="M401.4,57.49c6.86-2.56,6.43,4.52,4.92,9.58c-1.51,5.06-23.63,55.01-13.25,65.13
			c5.82,5.68,17.91,3.85,16.18-9.14c-1.24-9.35,2.6-28.3,7.58-51.16c5.2-23.91,33.63-27.42,45.46-23.22
			c11.07,3.92,4.08-17.29-9.68-18.45c-10.54-0.88-6.1,4.72-48.04,14.1c-16.64,3.72-28.08-10.83-23.78,12.19
			C382.21,64.08,395.88,59.55,401.4,57.49z"/>
		<linearGradient id="SVGID_5_" gradientUnits="userSpaceOnUse" x1="401.513" y1="181.5823" x2="401.513" y2="54.5466">
			<stop  offset="0" style="stop-color:#E9C063"/>
			<stop  offset="0.0824" style="stop-color:#D5AF72"/>
			<stop  offset="0.2503" style="stop-color:#A2849A"/>
			<stop  offset="0.3268" style="stop-color:#886FAE"/>
			<stop  offset="0.3535" style="stop-color:#8C73B0"/>
			<stop  offset="0.3816" style="stop-color:#9680B8"/>
			<stop  offset="0.4104" style="stop-color:#A795C3"/>
			<stop  offset="0.4397" style="stop-color:#C0B3D4"/>
			<stop  offset="0.469" style="stop-color:#DFD8E9"/>
			<stop  offset="0.4944" style="stop-color:#FFFFFF"/>
			<stop  offset="0.5184" style="stop-color:#FEFDF3"/>
			<stop  offset="0.5619" style="stop-color:#FBF9D3"/>
			<stop  offset="0.6199" style="stop-color:#F7F29F"/>
			<stop  offset="0.6844" style="stop-color:#F2E95E"/>
			<stop  offset="0.7447" style="stop-color:#ECE65B"/>
			<stop  offset="0.8288" style="stop-color:#DADE53"/>
			<stop  offset="0.9263" style="stop-color:#BCD145"/>
			<stop  offset="1" style="stop-color:#A1C538"/>
		</linearGradient>
		<path class="st16" d="M490.28,70.88c7.26-6.57,13.35-5.6,8.32-11.2c-4.55-5.05-16.48-7.65-21.38-1.72
			c-7,8.48-15.57,42.22-18.12,44.77c-3.19,3.19-12.78,1.35-8.77-11.87c4.02-13.22,5.61-17.54,7.2-21.09
			c1.58-3.55,7.95-17.8-11.54-14.21c-25.26,4.65-21.71,14.23-12.17,13.14c21.49-2.46-6.71,39.8,3.28,50.12
			c4.11,4.25,9.51,5.43,17.95-0.49c1.51-1.06-13.1,43.59-59.02,32.68c-29.26-6.95-40.92-14.7-76.22-7.34
			c-21.11,4.41-18.65,23.91-14.16,33.58c5.38,11.59,8.93-2.9,18.53-11.23c7.39-6.42,17.02-13.01,36.62-9.81
			c14.79,2.41,33.79,9.24,51.87,9.17c14.81-0.06,30.85-7.06,38.19-15.96c12.36-15,15.4-25.04,19.58-35.97
			C477.92,93.84,482.07,78.3,490.28,70.88z"/>
		<linearGradient id="SVGID_6_" gradientUnits="userSpaceOnUse" x1="524.0444" y1="149.7225" x2="524.0444" y2="11.7841">
			<stop  offset="0" style="stop-color:#E9C063"/>
			<stop  offset="0.0824" style="stop-color:#D5AF72"/>
			<stop  offset="0.2503" style="stop-color:#A2849A"/>
			<stop  offset="0.3268" style="stop-color:#886FAE"/>
			<stop  offset="0.3535" style="stop-color:#8C73B0"/>
			<stop  offset="0.3816" style="stop-color:#9680B8"/>
			<stop  offset="0.4104" style="stop-color:#A795C3"/>
			<stop  offset="0.4397" style="stop-color:#C0B3D4"/>
			<stop  offset="0.469" style="stop-color:#DFD8E9"/>
			<stop  offset="0.4944" style="stop-color:#FFFFFF"/>
			<stop  offset="0.5184" style="stop-color:#FEFDF3"/>
			<stop  offset="0.5619" style="stop-color:#FBF9D3"/>
			<stop  offset="0.6199" style="stop-color:#F7F29F"/>
			<stop  offset="0.6844" style="stop-color:#F2E95E"/>
			<stop  offset="0.7447" style="stop-color:#ECE65B"/>
			<stop  offset="0.8288" style="stop-color:#DADE53"/>
			<stop  offset="0.9263" style="stop-color:#BCD145"/>
			<stop  offset="1" style="stop-color:#A1C538"/>
		</linearGradient>
		<path class="st17" d="M551.93,70.84c-7.95-6.07-31.5-15.49-31.72-27.45c-0.19-9.88,6.55-17.41,18.11-17.12
			c11.33,0.28,16.17,11.04,12.64,13.98c-4.86,4.05-15.15-1.72-12.6,5.27c5.12,14.04,26.07,16.12,30.09,0
			c1.91-7.66-1.79-24.03-14.86-29.93c-22.45-10.13-48.96,0.81-52.31,23.14c-3.42,22.8,22.9,35.69,31.33,41.79
			c11.95,8.65,18.86,21.7,9.13,36.31c-6.34,9.51-29.33,24.24-46.33,8.79c-6.51-5.92-7.56-15.38-4.25-20.45
			c3.69-5.65,13.16-12.84,26.4,5.59c3.25,4.52,18.44-11.68,12.57-17.04c-5.86-5.35-13.27-8.75-25.35-8.07
			c-9.07,0.52-16.94,4.59-23.2,13.16c-4.13,5.65-7.02,20.89-0.72,31.53c8.65,14.59,24.65,19.77,39.43,19.36
			C571.49,148.27,587.11,97.7,551.93,70.84z"/>
		<linearGradient id="SVGID_7_" gradientUnits="userSpaceOnUse" x1="95.0377" y1="152.5933" x2="95.0377" y2="11.2926">
			<stop  offset="0" style="stop-color:#E9C063"/>
			<stop  offset="0.0824" style="stop-color:#D5AF72"/>
			<stop  offset="0.2503" style="stop-color:#A2849A"/>
			<stop  offset="0.3268" style="stop-color:#886FAE"/>
			<stop  offset="0.3535" style="stop-color:#8C73B0"/>
			<stop  offset="0.3816" style="stop-color:#9680B8"/>
			<stop  offset="0.4104" style="stop-color:#A795C3"/>
			<stop  offset="0.4397" style="stop-color:#C0B3D4"/>
			<stop  offset="0.469" style="stop-color:#DFD8E9"/>
			<stop  offset="0.4944" style="stop-color:#FFFFFF"/>
			<stop  offset="0.5184" style="stop-color:#FEFDF3"/>
			<stop  offset="0.5619" style="stop-color:#FBF9D3"/>
			<stop  offset="0.6199" style="stop-color:#F7F29F"/>
			<stop  offset="0.6844" style="stop-color:#F2E95E"/>
			<stop  offset="0.7447" style="stop-color:#ECE65B"/>
			<stop  offset="0.8288" style="stop-color:#DADE53"/>
			<stop  offset="0.9263" style="stop-color:#BCD145"/>
			<stop  offset="1" style="stop-color:#A1C538"/>
		</linearGradient>
		<path class="st18" d="M153.47,18.38c-13.08-9.35-28.69-10.99-50.54,4.62c-7.98,5.7-18.71,12.78-28.86,19.04
			c-18.19,11.23-30.48,8.63-40.47,5.27C20.63,42.95,11.15,30,10.56,43.74c-0.5,11.47,5.06,31.89,27.88,27.6
			c34.65-6.51,44.78-17.42,66.02-33.56c12.73-7.9,25.13-12.97,34.64-5.99c21.22,15.56,25.29,49.29-0.82,84.82
			c-15.54,21.15-49.98,26.49-49.01,16.74c0.59-5.92,7.9-53.81,13.41-63.45c2.37-4.14,11.23-7.15,15.94-5.44
			c6.34,2.3,15.23,15.96-4.4,27.33c-4.82,2.79,9.82,19.5,15.73,14.17c5.9-5.31,10.01-12.35,10.5-24.44
			c0.37-9.08-2.91-17.31-10.83-24.37c-5.22-4.66-20.11-9.02-31.31-3.79c-3.56,1.66-6.65,3.78-9.32,6.22
			c0.01,0.01,0.02,0.01,0.03,0.02c-2.72,2.28-4.55,4.56-4.53,6.15c0.13,13.44-5.67,66.44-13.44,83.72
			c-3.02,6.71,92.57,9.66,107.36-68.39C184.47,49.11,164.99,26.61,153.47,18.38z"/>
		<linearGradient id="SVGID_8_" gradientUnits="userSpaceOnUse" x1="191.7714" y1="130.7552" x2="191.7714" y2="44.5149">
			<stop  offset="0" style="stop-color:#E9C063"/>
			<stop  offset="0.0824" style="stop-color:#D5AF72"/>
			<stop  offset="0.2503" style="stop-color:#A2849A"/>
			<stop  offset="0.3268" style="stop-color:#886FAE"/>
			<stop  offset="0.3535" style="stop-color:#8C73B0"/>
			<stop  offset="0.3816" style="stop-color:#9680B8"/>
			<stop  offset="0.4104" style="stop-color:#A795C3"/>
			<stop  offset="0.4397" style="stop-color:#C0B3D4"/>
			<stop  offset="0.469" style="stop-color:#DFD8E9"/>
			<stop  offset="0.4944" style="stop-color:#FFFFFF"/>
			<stop  offset="0.5184" style="stop-color:#FEFDF3"/>
			<stop  offset="0.5619" style="stop-color:#FBF9D3"/>
			<stop  offset="0.6199" style="stop-color:#F7F29F"/>
			<stop  offset="0.6844" style="stop-color:#F2E95E"/>
			<stop  offset="0.7447" style="stop-color:#ECE65B"/>
			<stop  offset="0.8288" style="stop-color:#DADE53"/>
			<stop  offset="0.9263" style="stop-color:#BCD145"/>
			<stop  offset="1" style="stop-color:#A1C538"/>
		</linearGradient>
		<path class="st19" d="M203.86,45.89c-5.56-5.87-25.71,8.77-18.81,10.96c17.1,5.44-0.19,43.64-4.91,53.2s-7.53,22.18,0.99,20.56
			c16.33-3.11,14.07-6.7,13.06-11.12c-1-4.42-2.85-13.04,8.18-34.92C212.75,63.98,205.65,47.78,203.86,45.89z"/>
	</g>
</g>
</svg>
