<?xml version="1.0" encoding="utf-8"?>
<!-- Generator: Adobe Illustrator 23.0.5, SVG Export Plug-In . SVG Version: 6.00 Build 0)  -->
<svg version="1.1" id="Capa_1" xmlns="http://www.w3.org/2000/svg" xmlns:xlink="http://www.w3.org/1999/xlink" x="0px" y="0px"
	 viewBox="0 0 322.17 169.8" style="enable-background:new 0 0 322.17 169.8;" xml:space="preserve">
<style type="text/css">
	.st0{fill:#230131;}
	.st1{fill:#FFFFFF;}
	.st2{fill:url(#SVGID_1_);}
	.st3{fill:url(#SVGID_2_);}
	.st4{fill:url(#SVGID_3_);}
	.st5{fill:url(#SVGID_4_);}
	.st6{fill:url(#SVGID_5_);}
	.st7{fill:url(#SVGID_6_);}
	.st8{fill:url(#SVGID_7_);}
	.st9{fill:url(#SVGID_8_);}
	.st10{fill:url(#SVGID_9_);}
	.st11{fill:url(#SVGID_10_);}
	.st12{fill:#350030;}
	.st13{fill:url(#SVGID_11_);}
	.st14{fill:url(#SVGID_12_);}
	.st15{fill:url(#SVGID_13_);}
	.st16{fill:url(#SVGID_14_);}
	.st17{fill:url(#SVGID_15_);}
	.st18{fill:url(#SVGID_16_);}
	.st19{fill:url(#SVGID_17_);}
	.st20{fill:url(#SVGID_18_);}
	.st21{fill:url(#SVGID_19_);}
	.st22{fill:url(#SVGID_20_);}
	.st23{fill:#FDCC68;}
	.st24{fill:#935EA3;}
	.st25{fill:#8CC15C;}
	.st26{fill:#C24131;}
	.st27{fill:#1D1D1B;}
	.st28{fill:#BE1622;}
	.st29{fill:#CB88A1;}
	.st30{fill:#E9C064;}
	.st31{fill:url(#SVGID_21_);}
	.st32{clip-path:url(#SVGID_23_);fill:url(#SVGID_24_);}
	.st33{clip-path:url(#SVGID_23_);fill:url(#SVGID_25_);}
	.st34{clip-path:url(#SVGID_23_);}
	.st35{fill:url(#SVGID_26_);}
	.st36{fill:url(#SVGID_27_);}
	.st37{fill:url(#SVGID_28_);}
	.st38{fill:url(#SVGID_29_);}
	.st39{fill:url(#SVGID_30_);}
	.st40{fill:url(#SVGID_31_);}
	.st41{fill:url(#SVGID_32_);}
	.st42{fill:url(#SVGID_33_);}
	.st43{fill:url(#SVGID_34_);}
	.st44{fill:url(#SVGID_35_);}
	.st45{fill:url(#SVGID_36_);}
	.st46{fill:url(#SVGID_37_);}
	.st47{fill:url(#SVGID_38_);}
	.st48{fill:url(#SVGID_39_);}
	.st49{clip-path:url(#SVGID_41_);}
	.st50{clip-path:url(#SVGID_43_);fill:url(#SVGID_44_);}
	.st51{clip-path:url(#SVGID_43_);fill:url(#SVGID_45_);}
	.st52{clip-path:url(#SVGID_43_);}
	.st53{fill:url(#SVGID_46_);}
	.st54{fill:url(#SVGID_47_);}
	.st55{fill:url(#SVGID_48_);}
	.st56{fill:url(#SVGID_49_);}
	.st57{fill:url(#SVGID_50_);}
	.st58{fill:url(#SVGID_51_);}
	.st59{fill:url(#SVGID_52_);}
	.st60{fill:url(#SVGID_53_);}
	.st61{fill:url(#SVGID_54_);}
	.st62{fill:url(#SVGID_55_);}
	.st63{fill:url(#SVGID_56_);}
	.st64{fill:url(#SVGID_57_);}
	.st65{fill:url(#SVGID_58_);}
	.st66{fill:url(#SVGID_59_);}
	.st67{clip-path:url(#SVGID_61_);}
	.st68{fill:none;}
	.st69{fill:none;stroke:#FFFFFF;stroke-width:2;stroke-miterlimit:10;}
	.st70{fill:#E9B6A3;}
	.st71{opacity:0.9;fill:#230131;}
	.st72{fill:url(#SVGID_62_);}
	.st73{opacity:0.5;}
	.st74{fill:#EDCD83;}
	.st75{opacity:0.63;fill:url(#SVGID_63_);}
	.st76{opacity:0;fill:url(#SVGID_64_);}
	.st77{fill:url(#SVGID_65_);}
	.st78{fill:url(#SVGID_66_);}
	.st79{fill:url(#SVGID_67_);}
	.st80{fill:url(#SVGID_68_);}
	.st81{fill:url(#SVGID_69_);}
	.st82{fill:url(#SVGID_70_);}
	.st83{fill:url(#SVGID_71_);}
	.st84{fill:url(#SVGID_72_);}
	.st85{fill:url(#SVGID_73_);}
	.st86{fill:url(#SVGID_74_);}
	.st87{fill:url(#SVGID_75_);}
	.st88{fill:url(#SVGID_76_);}
	.st89{fill:url(#SVGID_77_);}
	.st90{opacity:0.24;fill:url(#SVGID_78_);}
	.st91{fill:url(#SVGID_79_);}
	.st92{fill:url(#SVGID_80_);}
	.st93{fill:url(#SVGID_81_);}
	.st94{opacity:0.24;fill:url(#SVGID_82_);}
	.st95{fill:url(#SVGID_83_);}
	.st96{fill:url(#SVGID_84_);}
	.st97{fill:url(#SVGID_85_);}
	.st98{opacity:0.24;fill:url(#SVGID_86_);}
	.st99{opacity:0.22;fill:url(#SVGID_87_);}
	.st100{fill:url(#SVGID_88_);}
	.st101{fill:url(#SVGID_89_);}
	.st102{fill:#E9C064;stroke:#FFFFFF;stroke-width:20;stroke-miterlimit:10;}
	.st103{fill:url(#SVGID_90_);}
	.st104{fill:url(#SVGID_91_);}
	.st105{fill:url(#SVGID_92_);}
	.st106{clip-path:url(#SVGID_94_);}
	.st107{fill:#BF1A1B;}
	.st108{fill:#FFEC00;}
	.st109{opacity:0.24;fill:url(#SVGID_95_);}
	.st110{opacity:0.24;fill:url(#SVGID_96_);}
	.st111{fill:url(#SVGID_97_);}
	.st112{opacity:0.63;fill:url(#SVGID_98_);}
	.st113{opacity:0;fill:url(#SVGID_99_);}
	.st114{fill:url(#SVGID_100_);}
	.st115{fill:url(#SVGID_101_);}
	.st116{fill:url(#SVGID_102_);}
	.st117{fill:url(#SVGID_103_);}
	.st118{fill:url(#SVGID_104_);}
	.st119{fill:url(#SVGID_105_);}
	.st120{fill:url(#SVGID_106_);}
	.st121{fill:url(#SVGID_107_);}
	.st122{fill:url(#SVGID_108_);}
	.st123{fill:url(#SVGID_109_);}
	.st124{fill:url(#SVGID_110_);}
	.st125{fill:url(#SVGID_111_);}
	.st126{fill:url(#SVGID_112_);}
	.st127{opacity:0.24;fill:url(#SVGID_113_);}
	.st128{fill:url(#SVGID_114_);}
	.st129{fill:url(#SVGID_115_);}
	.st130{fill:url(#SVGID_116_);}
	.st131{opacity:0.24;fill:url(#SVGID_117_);}
	.st132{fill:url(#SVGID_118_);}
	.st133{fill:url(#SVGID_119_);}
	.st134{fill:url(#SVGID_120_);}
	.st135{opacity:0.24;fill:url(#SVGID_121_);}
	.st136{opacity:0.22;fill:url(#SVGID_122_);}
	.st137{fill:url(#SVGID_123_);}
	.st138{fill:url(#SVGID_124_);}
	.st139{fill:url(#SVGID_125_);}
	.st140{fill:url(#SVGID_126_);}
	.st141{fill:url(#SVGID_127_);}
	.st142{clip-path:url(#SVGID_129_);}
	.st143{clip-path:url(#SVGID_131_);}
</style>
<g>
	<g>
		<g>
			<path class="st27" d="M68.55,169.8H56.74c-12.22,0-22.17-9.94-22.17-22.17V51.85c0-12.22,9.94-22.17,22.17-22.17h11.81
				c12.22,0,22.17,9.95,22.17,22.17v95.78C90.72,159.86,80.77,169.8,68.55,169.8z M56.74,42.42c-5.2,0-9.43,4.23-9.43,9.43v95.78
				c0,5.2,4.23,9.43,9.43,9.43h11.81c5.2,0,9.43-4.23,9.43-9.43V51.85c0-5.2-4.23-9.43-9.43-9.43H56.74z"/>
		</g>
		<g>
			<path class="st27" d="M265.44,169.8h-11.81c-12.22,0-22.17-9.94-22.17-22.17V51.85c0-12.22,9.95-22.17,22.17-22.17h11.81
				c12.22,0,22.17,9.95,22.17,22.17v95.78C287.61,159.86,277.66,169.8,265.44,169.8z M253.63,42.42c-5.2,0-9.43,4.23-9.43,9.43
				v95.78c0,5.2,4.23,9.43,9.43,9.43h11.81c5.2,0,9.43-4.23,9.43-9.43V51.85c0-5.2-4.23-9.43-9.43-9.43H253.63z"/>
		</g>
	</g>
	<g>
		<path class="st1" d="M315.8,36.05v35.81c0,8.85-6.32,16.56-15.06,18c-24.49,4.02-29.43,17.44-62.31,17.44
			c-38.68,0-38.68-18.57-77.36-18.57c-38.68,0-38.68,18.57-77.35,18.57c-32.88,0-37.81-13.41-62.3-17.44
			c-8.74-1.44-15.06-9.14-15.06-18V36.05l0,0c0-16.39,13.29-29.68,29.68-29.68h250.07C302.51,6.37,315.8,19.66,315.8,36.05
			L315.8,36.05L315.8,36.05z"/>
		<path class="st27" d="M238.44,113.66c-20.79,0-31.29-5.04-41.44-9.91c-9.27-4.45-18.03-8.66-35.92-8.66
			c-17.89,0-26.65,4.2-35.92,8.66c-10.15,4.87-20.64,9.91-41.43,9.91s-31.28-5.04-41.43-9.91c-6.54-3.14-12.71-6.1-21.9-7.61
			C8.58,94.2,0,83.99,0,71.86V36.05C0,16.17,16.17,0,36.05,0h250.07c19.88,0,36.05,16.17,36.05,36.05v35.81
			c0,12.13-8.58,22.34-20.39,24.28c-9.19,1.51-15.36,4.47-21.9,7.61C269.73,108.63,259.23,113.66,238.44,113.66z M161.08,82.36
			c20.79,0,31.28,5.04,41.44,9.91c9.27,4.45,18.03,8.66,35.93,8.66s26.65-4.2,35.93-8.66c7.06-3.39,14.36-6.89,25.35-8.7
			c5.54-0.91,9.72-5.95,9.72-11.71V36.05c0-12.85-10.46-23.31-23.31-23.31H36.05c-12.86,0-23.31,10.46-23.31,23.31v35.81
			c0,5.77,4.18,10.8,9.72,11.71c10.99,1.81,18.29,5.31,25.35,8.7c9.27,4.45,18.03,8.66,35.92,8.66s26.65-4.2,35.92-8.66
			C129.79,87.4,140.29,82.36,161.08,82.36z"/>
	</g>
</g>
</svg>
