<svg width="30" height="30" viewBox="0 0 30 30" fill="none" xmlns="http://www.w3.org/2000/svg">
<rect width="30" height="30" rx="15" fill="#FBBA00"/>
<path d="M9.40106 24V20.811C8.38232 20.064 7.55243 19.089 6.9777 17.964C6.40297 16.8391 6.09934 15.5953 6.09106 14.332C6.09006 9.738 10.0901 6 15.0001 6C19.9101 6 23.9101 9.738 23.9101 14.332C23.9111 18.926 19.9101 22.662 15.0001 22.662C14.1351 22.6632 13.2741 22.5457 12.4411 22.313L9.40306 24H9.40106ZM14.0611 12.069L9.19506 17.232L13.6331 14.778L15.9331 17.172L20.8001 12.01L16.3661 14.464L14.0611 12.069Z" fill="white"/>
</svg>
