<svg width="30" height="30" viewBox="0 0 30 30" fill="none" xmlns="http://www.w3.org/2000/svg">
<rect width="30" height="30" rx="15" fill="#73BB71"/>
<path fill-rule="evenodd" clip-rule="evenodd" d="M21.403 8.63303C20.5714 7.79591 19.5819 7.13214 18.4919 6.68018C17.4019 6.22821 16.233 5.99703 15.053 6.00003C10.105 6.00003 6.077 10.027 6.075 14.977C6.075 16.559 6.488 18.103 7.273 19.465L6 24.116L10.759 22.867C12.0754 23.5836 13.5502 23.9594 15.049 23.96H15.053C20 23.96 24.028 19.933 24.03 14.983C24.0334 13.8035 23.803 12.635 23.3521 11.5451C22.9012 10.4552 22.2387 9.4654 21.403 8.63303V8.63303ZM15.053 22.445H15.05C13.7135 22.4452 12.4016 22.0856 11.252 21.404L10.98 21.242L8.156 21.983L8.909 19.23L8.732 18.948C7.98479 17.7585 7.58923 16.3818 7.591 14.977C7.593 10.863 10.94 7.51603 15.056 7.51603C16.0363 7.51385 17.0072 7.70611 17.9127 8.08168C18.8181 8.45725 19.6401 9.00867 20.331 9.70403C21.0256 10.3961 21.5762 11.2189 21.9509 12.125C22.3256 13.0311 22.517 14.0025 22.514 14.983C22.512 19.097 19.165 22.445 15.053 22.445ZM19.146 16.856C18.921 16.743 17.819 16.201 17.613 16.126C17.408 16.051 17.259 16.014 17.109 16.238C16.959 16.462 16.529 16.967 16.398 17.117C16.267 17.267 16.136 17.285 15.912 17.173C15.688 17.061 14.965 16.824 14.108 16.06C13.441 15.465 12.991 14.731 12.86 14.506C12.729 14.281 12.846 14.16 12.959 14.048C13.06 13.948 13.183 13.786 13.295 13.655C13.407 13.524 13.444 13.431 13.519 13.281C13.594 13.131 13.557 13 13.5 12.888C13.444 12.775 12.995 11.671 12.808 11.222C12.627 10.787 12.442 10.845 12.304 10.839C12.1611 10.8332 12.018 10.8305 11.875 10.831C11.7613 10.8339 11.6493 10.8603 11.5463 10.9085C11.4432 10.9567 11.3512 11.0256 11.276 11.111C11.07 11.336 10.491 11.878 10.491 12.982C10.491 14.086 11.295 15.153 11.407 15.303C11.519 15.453 12.989 17.718 15.239 18.69C15.775 18.921 16.193 19.059 16.518 19.163C17.055 19.334 17.544 19.309 17.931 19.252C18.362 19.188 19.258 18.71 19.445 18.186C19.632 17.662 19.632 17.213 19.576 17.119C19.52 17.025 19.369 16.968 19.146 16.856" fill="white"/>
</svg>
