<?xml version="1.0" encoding="utf-8"?>
<!-- Generator: Adobe Illustrator 23.0.5, SVG Export Plug-In . SVG Version: 6.00 Build 0)  -->
<svg version="1.1" id="Capa_1" xmlns="http://www.w3.org/2000/svg" xmlns:xlink="http://www.w3.org/1999/xlink" x="0px" y="0px"
	 viewBox="0 0 367.88 352.84" style="enable-background:new 0 0 367.88 352.84;" xml:space="preserve">
<style type="text/css">
	.st0{fill:#230131;}
	.st1{fill:#FFFFFF;}
	.st2{fill:url(#SVGID_1_);}
	.st3{fill:url(#SVGID_2_);}
	.st4{fill:url(#SVGID_3_);}
	.st5{fill:url(#SVGID_4_);}
	.st6{fill:url(#SVGID_5_);}
	.st7{fill:url(#SVGID_6_);}
	.st8{fill:url(#SVGID_7_);}
	.st9{fill:url(#SVGID_8_);}
	.st10{fill:url(#SVGID_9_);}
	.st11{fill:url(#SVGID_10_);}
	.st12{fill:#350030;}
	.st13{fill:url(#SVGID_11_);}
	.st14{fill:url(#SVGID_12_);}
	.st15{fill:url(#SVGID_13_);}
	.st16{fill:url(#SVGID_14_);}
	.st17{fill:url(#SVGID_15_);}
	.st18{fill:url(#SVGID_16_);}
	.st19{fill:url(#SVGID_17_);}
	.st20{fill:url(#SVGID_18_);}
	.st21{fill:url(#SVGID_19_);}
	.st22{fill:url(#SVGID_20_);}
	.st23{fill:#FDCC68;}
	.st24{fill:#935EA3;}
	.st25{fill:#8CC15C;}
	.st26{fill:#C24131;}
	.st27{fill:#1D1D1B;}
	.st28{fill:#BE1622;}
	.st29{fill:#CB88A1;}
	.st30{fill:#E9C064;}
	.st31{fill:url(#SVGID_21_);}
	.st32{clip-path:url(#SVGID_23_);fill:url(#SVGID_24_);}
	.st33{clip-path:url(#SVGID_23_);fill:url(#SVGID_25_);}
	.st34{clip-path:url(#SVGID_23_);}
	.st35{fill:url(#SVGID_26_);}
	.st36{fill:url(#SVGID_27_);}
	.st37{fill:url(#SVGID_28_);}
	.st38{fill:url(#SVGID_29_);}
	.st39{fill:url(#SVGID_30_);}
	.st40{fill:url(#SVGID_31_);}
	.st41{fill:url(#SVGID_32_);}
	.st42{fill:url(#SVGID_33_);}
	.st43{fill:url(#SVGID_34_);}
	.st44{fill:url(#SVGID_35_);}
	.st45{fill:url(#SVGID_36_);}
	.st46{fill:url(#SVGID_37_);}
	.st47{fill:url(#SVGID_38_);}
	.st48{fill:url(#SVGID_39_);}
	.st49{clip-path:url(#SVGID_41_);}
	.st50{clip-path:url(#SVGID_43_);fill:url(#SVGID_44_);}
	.st51{clip-path:url(#SVGID_43_);fill:url(#SVGID_45_);}
	.st52{clip-path:url(#SVGID_43_);}
	.st53{fill:url(#SVGID_46_);}
	.st54{fill:url(#SVGID_47_);}
	.st55{fill:url(#SVGID_48_);}
	.st56{fill:url(#SVGID_49_);}
	.st57{fill:url(#SVGID_50_);}
	.st58{fill:url(#SVGID_51_);}
	.st59{fill:url(#SVGID_52_);}
	.st60{fill:url(#SVGID_53_);}
	.st61{fill:url(#SVGID_54_);}
	.st62{fill:url(#SVGID_55_);}
	.st63{fill:url(#SVGID_56_);}
	.st64{fill:url(#SVGID_57_);}
	.st65{fill:url(#SVGID_58_);}
	.st66{fill:url(#SVGID_59_);}
	.st67{clip-path:url(#SVGID_61_);}
	.st68{fill:none;}
	.st69{fill:none;stroke:#FFFFFF;stroke-width:2;stroke-miterlimit:10;}
	.st70{fill:#E9B6A3;}
	.st71{opacity:0.9;fill:#230131;}
	.st72{fill:url(#SVGID_62_);}
	.st73{opacity:0.5;}
	.st74{fill:#EDCD83;}
	.st75{opacity:0.63;fill:url(#SVGID_63_);}
	.st76{opacity:0;fill:url(#SVGID_64_);}
	.st77{fill:url(#SVGID_65_);}
	.st78{fill:url(#SVGID_66_);}
	.st79{fill:url(#SVGID_67_);}
	.st80{fill:url(#SVGID_68_);}
	.st81{fill:url(#SVGID_69_);}
	.st82{fill:url(#SVGID_70_);}
	.st83{fill:url(#SVGID_71_);}
	.st84{fill:url(#SVGID_72_);}
	.st85{fill:url(#SVGID_73_);}
	.st86{fill:url(#SVGID_74_);}
	.st87{fill:url(#SVGID_75_);}
	.st88{fill:url(#SVGID_76_);}
	.st89{fill:url(#SVGID_77_);}
	.st90{opacity:0.24;fill:url(#SVGID_78_);}
	.st91{fill:url(#SVGID_79_);}
	.st92{fill:url(#SVGID_80_);}
	.st93{fill:url(#SVGID_81_);}
	.st94{opacity:0.24;fill:url(#SVGID_82_);}
	.st95{fill:url(#SVGID_83_);}
	.st96{fill:url(#SVGID_84_);}
	.st97{fill:url(#SVGID_85_);}
	.st98{opacity:0.24;fill:url(#SVGID_86_);}
	.st99{opacity:0.22;fill:url(#SVGID_87_);}
	.st100{fill:url(#SVGID_88_);}
	.st101{fill:url(#SVGID_89_);}
	.st102{fill:#E9C064;stroke:#FFFFFF;stroke-width:20;stroke-miterlimit:10;}
	.st103{fill:url(#SVGID_90_);}
	.st104{fill:url(#SVGID_91_);}
	.st105{fill:url(#SVGID_92_);}
	.st106{clip-path:url(#SVGID_94_);}
	.st107{fill:#BF1A1B;}
	.st108{fill:#FFEC00;}
	.st109{opacity:0.24;fill:url(#SVGID_95_);}
	.st110{opacity:0.24;fill:url(#SVGID_96_);}
	.st111{fill:url(#SVGID_97_);}
	.st112{opacity:0.63;fill:url(#SVGID_98_);}
	.st113{opacity:0;fill:url(#SVGID_99_);}
	.st114{fill:url(#SVGID_100_);}
	.st115{fill:url(#SVGID_101_);}
	.st116{fill:url(#SVGID_102_);}
	.st117{fill:url(#SVGID_103_);}
	.st118{fill:url(#SVGID_104_);}
	.st119{fill:url(#SVGID_105_);}
	.st120{fill:url(#SVGID_106_);}
	.st121{fill:url(#SVGID_107_);}
	.st122{fill:url(#SVGID_108_);}
	.st123{fill:url(#SVGID_109_);}
	.st124{fill:url(#SVGID_110_);}
	.st125{fill:url(#SVGID_111_);}
	.st126{fill:url(#SVGID_112_);}
	.st127{opacity:0.24;fill:url(#SVGID_113_);}
	.st128{fill:url(#SVGID_114_);}
	.st129{fill:url(#SVGID_115_);}
	.st130{fill:url(#SVGID_116_);}
	.st131{opacity:0.24;fill:url(#SVGID_117_);}
	.st132{fill:url(#SVGID_118_);}
	.st133{fill:url(#SVGID_119_);}
	.st134{fill:url(#SVGID_120_);}
	.st135{opacity:0.24;fill:url(#SVGID_121_);}
	.st136{opacity:0.22;fill:url(#SVGID_122_);}
	.st137{fill:url(#SVGID_123_);}
	.st138{fill:url(#SVGID_124_);}
	.st139{fill:url(#SVGID_125_);}
	.st140{fill:url(#SVGID_126_);}
	.st141{fill:url(#SVGID_127_);}
	.st142{clip-path:url(#SVGID_129_);}
	.st143{clip-path:url(#SVGID_131_);}
</style>
<g>
	<g>
		<defs>
			<circle id="SVGID_130_" cx="183.94" cy="176.42" r="140.53"/>
		</defs>
		<clipPath id="SVGID_1_">
			<use xlink:href="#SVGID_130_"  style="overflow:visible;"/>
		</clipPath>
		<g style="clip-path:url(#SVGID_1_);">
			<path class="st29" d="M135.73,37.42C212.49,10.8,296.3,51.44,322.92,128.2c8.78,25.32,10.24,51.41,5.5,75.95l-144.49-27.75
				L135.73,37.42z"/>
			<path class="st30" d="M328.41,204.15c-15.32,79.79-92.43,132.04-172.21,116.72c-26.32-5.05-49.64-16.83-68.53-33.21l96.28-111.25
				L328.41,204.15z"/>
			<path class="st26" d="M135.73,37.42C58.97,64.05,18.33,147.85,44.95,224.61c8.78,25.32,23.79,46.71,42.71,63.05l96.28-111.25
				L135.73,37.42z"/>
		</g>
	</g>
	<g>
		<polygon class="st30" points="193.47,266.16 175.63,270.9 185.51,287.16 191.81,293.89 201.55,280.12 197.6,269.04 		"/>
		<path class="st30" d="M262.3,204.38l-7.83,17.13l7.36,14.54l19.46-9.81c0,0-5.04-7.81-6.12-8.7s-9.99-13.16-9.99-13.16H262.3z"/>
		<g>
			<path class="st1" d="M253.05,203.86h-64.46c-5.31,0-9.75-4.04-10.25-9.32l-3.48-36.52c-0.58-6.05,4.18-11.28,10.25-11.28h71.43
				c6.08,0,10.83,5.23,10.25,11.28l-3.48,36.52C262.8,199.83,258.36,203.86,253.05,203.86z"/>
			<polygon class="st29" points="195.38,168.38 200.45,203.86 220.82,202.05 222.73,169.02 			"/>
			<path class="st29" d="M242.87,169.54l-1.19,32.52c0,0,15.33-1.33,16.3-1.1s5.1-12.14,5.92-12.8c0.82-0.66-0.74-26.2-0.74-26.2
				L242.87,169.54z"/>
			<path class="st27" d="M253.05,208.39h-64.46c-7.69,0-14.03-5.77-14.76-13.42l-3.48-36.52c-0.4-4.15,0.99-8.3,3.79-11.39
				c2.81-3.08,6.81-4.85,10.97-4.85h71.43c4.17,0,8.17,1.77,10.98,4.86c2.8,3.09,4.19,7.24,3.79,11.39l-3.48,36.52
				C267.08,202.62,260.73,208.39,253.05,208.39z M185.11,151.27c-1.64,0-3.16,0.67-4.27,1.89c-1.11,1.22-1.63,2.79-1.48,4.43
				l3.48,36.52c0.28,2.98,2.75,5.22,5.74,5.22h64.46c2.99,0,5.46-2.24,5.74-5.22l3.48-36.52c0.16-1.64-0.37-3.21-1.47-4.43
				c-1.11-1.22-2.62-1.89-4.27-1.89H185.11z"/>
			<g>
				<path class="st29" d="M279.14,145.86c0,13.08-26.11,23.68-58.32,23.68s-58.32-10.6-58.32-23.68c0-13.08,26.11-41.48,58.32-41.48
					S279.14,132.78,279.14,145.86z"/>
				<path class="st27" d="M220.82,174.07c-30.47,0-62.85-9.89-62.85-28.21c0-15.55,28.45-46.01,62.85-46.01s62.85,30.47,62.85,46.01
					C283.67,164.18,251.29,174.07,220.82,174.07z M220.82,108.91c-29.93,0-53.78,26.54-53.78,36.95c0,9.04,23,19.15,53.78,19.15
					s53.78-10.11,53.78-19.15C274.6,135.44,250.75,108.91,220.82,108.91z"/>
			</g>
			<g>
				<path class="st1" d="M261.32,133.47h-81.01c-3.52,0-6.38-2.86-6.38-6.38v-10.43c0-3.52,2.86-6.38,6.38-6.38h81.01
					c3.52,0,6.38,2.86,6.38,6.38v10.43C267.7,130.61,264.85,133.47,261.32,133.47z"/>
				<path class="st27" d="M258.07,138h-74.5c-7.81,0-14.17-6.36-14.17-14.17v-3.91c0-7.81,6.36-14.17,14.17-14.17h74.5
					c7.81,0,14.17,6.36,14.17,14.17v3.91C272.23,131.64,265.88,138,258.07,138z M183.57,114.82c-2.81,0-5.1,2.29-5.1,5.1v3.91
					c0,2.81,2.29,5.1,5.1,5.1h74.5c2.81,0,5.1-2.29,5.1-5.1v-3.91c0-2.81-2.29-5.1-5.1-5.1H183.57z"/>
			</g>
			<g>
				<path class="st1" d="M245.08,92.18c0,0-0.93-0.5-2.76-0.85c-0.09-0.02-0.17-0.04-0.26-0.06l-0.37-0.07
					c-13.47-2.89-23.57-14.85-23.57-29.18c-16.49,0-29.85,13.36-29.85,29.85l0.03,6.1c-0.13,6.67,4.6,12.64,11.38,13.83l37.63,6.6
					c7.49,1.31,14.63-3.69,15.95-11.19v0C254.37,100.79,250.84,94.63,245.08,92.18z"/>
				<path class="st27" d="M239.72,123.15c-1.06,0-2.13-0.09-3.2-0.28l-37.63-6.6c-8.94-1.57-15.3-9.3-15.12-18.38l-0.03-5.99
					c0-18.98,15.42-34.4,34.38-34.4h4.53v4.53c0,11.83,8.37,22.21,19.91,24.73l0.74,0.15c1.87,0.36,3.13,0.89,3.68,1.16
					c7.79,3.38,12.2,11.56,10.73,19.94c-0.84,4.82-3.51,9.01-7.52,11.82C247.08,122.01,243.45,123.15,239.72,123.15z M213.94,66.91
					c-11.98,2-21.14,12.44-21.14,24.97l0.03,6.08c-0.09,4.69,3.12,8.59,7.63,9.39l37.63,6.6c2.43,0.43,4.88-0.12,6.9-1.54
					c2.02-1.42,3.37-3.54,3.79-5.97c0.75-4.25-1.51-8.4-5.48-10.09l-0.28-0.13c-0.12-0.05-0.65-0.26-1.56-0.44l-0.73-0.14
					C226.62,92.61,215.97,80.92,213.94,66.91z"/>
			</g>
			<g>
				<g>
					
						<rect x="193.85" y="168.15" transform="matrix(0.9933 -0.1154 0.1154 0.9933 -20.1479 24.1383)" class="st27" width="9.06" height="35.83"/>
				</g>
				<g>
					
						<rect x="225.34" y="181.53" transform="matrix(0.1154 -0.9933 0.9933 0.1154 30.3563 406.2193)" class="st27" width="35.83" height="9.06"/>
				</g>
				<g>
					<rect x="216.29" y="169.54" class="st27" width="9.06" height="34.33"/>
				</g>
			</g>
		</g>
		<g>
			<g>
				<path class="st1" d="M103.35,86.41L103.35,86.41c-4.32,1.34-7.02,5.03-6.03,8.25l22.15,71.63c0.99,3.22,5.31,4.74,9.63,3.4l0,0
					c4.32-1.34,7.02-5.03,6.03-8.25l-22.15-71.63C111.98,86.59,107.67,85.07,103.35,86.41z"/>
				<path class="st27" d="M126.46,174.7c-5.3,0.2-9.91-2.51-11.33-7.08L92.99,95.99c-1.76-5.7,2.2-11.81,9.02-13.92
					c6.82-2.1,13.54,0.7,15.3,6.4l22.15,71.63c1.76,5.7-2.2,11.81-9.02,13.92C129.09,174.43,127.76,174.65,126.46,174.7z
					 M106.26,90.46c-0.47,0.02-1,0.1-1.58,0.28l0,0c-2.33,0.72-3.12,2.29-3.04,2.58l22.15,71.62c0.09,0.29,1.63,1.14,3.96,0.41
					c2.33-0.72,3.13-2.29,3.04-2.58l-22.15-71.62C108.58,90.93,107.69,90.4,106.26,90.46z"/>
			</g>
			<path class="st26" d="M181.55,181.81c9.44,30.53-5.95,55.25-31.88,63.27c-25.93,8.02-52.59-3.7-62.03-34.23
				c-9.44-30.53,10.75-39.73,36.68-47.75C150.25,155.08,172.11,151.28,181.55,181.81z"/>
			<polygon class="st1" points="138.73,161.95 157.97,189.48 164.47,221.52 179.82,220.98 183.01,197.58 174.75,167.75 
				158.71,156.29 139.87,158.84 			"/>
			<path class="st27" d="M135.99,252.01c-9.03,0.35-17.8-1.52-25.61-5.57c-12.84-6.65-22.2-18.5-27.07-34.26
				c-11.61-37.56,19.25-47.1,39.67-53.42c14.71-4.55,26.62-7.18,36.98-5.22c12.57,2.37,21.05,11.18,25.92,26.92
				c4.87,15.76,3.83,30.82-3.01,43.56c-6.45,12.01-17.77,21.02-31.86,25.38C146,250.95,140.95,251.82,135.99,252.01z M151.02,161.98
				c-7.13,0.28-15.51,2.4-25.37,5.45c-28.88,8.93-41.29,17.5-33.69,42.08c4.14,13.39,11.95,23.38,22.58,28.89
				c9.98,5.17,21.97,6.01,33.78,2.35c11.81-3.65,21.24-11.11,26.55-21.01c5.67-10.55,6.48-23.21,2.34-36.59l0,0
				c-5.04-16.3-13.22-19.62-18.94-20.69C156.02,162.03,153.6,161.88,151.02,161.98z"/>
			<g>
				<path class="st27" d="M154.71,247.81c-1.35,0.05-2.71-0.5-3.65-1.62c-1.61-1.92-1.36-4.78,0.56-6.38
					c8.52-7.15,9.35-19.95,2.69-41.51c-5.97-19.31-16.24-32.16-22.33-32.99c-2.48-0.34-4.22-2.62-3.88-5.1
					c0.34-2.48,2.62-4.22,5.1-3.88c12.71,1.72,24.11,20.97,29.77,39.29c5.32,17.19,9.49,38.54-5.52,51.13
					C156.64,247.43,155.68,247.78,154.71,247.81z"/>
			</g>
			<g>
				<circle class="st27" cx="105.65" cy="206.71" r="5.75"/>
			</g>
			<g>
				<circle class="st27" cx="123.99" cy="200.6" r="5.75"/>
			</g>
			<g>
				<circle class="st27" cx="108.85" cy="186.66" r="5.75"/>
			</g>
			<g>
				<g>
					<path class="st1" d="M207.72,217.55l-81.42,7.92c1.74,17.86,21.37,30.57,43.86,28.38S209.46,235.41,207.72,217.55z"/>
					<path class="st27" d="M165.18,258.63c-22.62,0-41.56-13.88-43.39-32.72l-0.44-4.51l90.44-8.8l0.44,4.51
						c1.98,20.32-16.7,38.83-41.64,41.25C168.77,258.54,166.96,258.63,165.18,258.63z M131.73,229.5
						c4.09,12.94,20.01,21.59,37.99,19.85c17.96-1.75,31.93-13.31,33.46-26.8L131.73,229.5z"/>
				</g>
			</g>
		</g>
		<g>
			<g>
				<path class="st1" d="M209.62,280.98l-16.57-21.79c-2.9-3.81-2.16-9.25,1.65-12.15l40.91-31.13c3.81-2.9,9.25-2.16,12.15,1.65
					l16.57,21.79c2.9,3.81,2.16,9.25-1.65,12.15l-40.91,31.13C217.96,285.53,212.52,284.79,209.62,280.98z"/>
				<path class="st27" d="M217.4,287.16c-0.8,0-1.61-0.05-2.41-0.16c-4.67-0.64-8.81-3.05-11.66-6.8l-11.21-14.74
					c-5.88-7.74-4.38-18.82,3.36-24.7l33.86-25.77c3.75-2.85,8.38-4.07,13.05-3.44c4.67,0.64,8.81,3.05,11.66,6.8l11.21,14.74
					c5.88,7.73,4.37,18.82-3.36,24.7l-33.86,25.77C224.94,285.91,221.23,287.16,217.4,287.16z M240,220.45
					c-1.86,0-3.66,0.6-5.17,1.75l-33.86,25.77c-3.76,2.86-4.49,8.24-1.63,12l11.21,14.74c1.39,1.82,3.4,3,5.67,3.3
					c2.27,0.31,4.52-0.29,6.34-1.67l33.86-25.77c3.76-2.86,4.49-8.24,1.63-12l-11.21-14.74c-1.39-1.82-3.4-3-5.67-3.3
					C240.78,220.47,240.39,220.45,240,220.45z"/>
			</g>
			<g>
				<polygon class="st30" points="225.82,279.55 209.06,236.12 231.57,218.98 248.33,262.42 				"/>
				<path class="st27" d="M225.82,284.09c-0.41,0-0.83-0.06-1.23-0.17c-1.37-0.39-2.48-1.4-2.99-2.73l-16.76-43.44
					c-0.73-1.88-0.12-4.02,1.48-5.24l22.51-17.13c1.13-0.86,2.61-1.14,3.98-0.75c1.37,0.39,2.48,1.4,2.99,2.73l16.76,43.44
					c0.73,1.88,0.12,4.02-1.48,5.24l-22.51,17.13C227.76,283.77,226.8,284.09,225.82,284.09z M214.51,237.66l13.36,34.63l15-11.42
					l-13.36-34.63L214.51,237.66z"/>
			</g>
			<g>
				<g>
					<path class="st1" d="M282.58,227.64c-2.33-3.07-0.37-4.56-2.7-7.63c-2.33-3.07-4.29-1.58-6.63-4.64
						c-2.33-3.07-0.37-4.56-2.71-7.63c-2.33-3.07-4.3-1.58-6.63-4.65"/>
				</g>
				<g>
					<path class="st27" d="M260.08,238.29c-1.39,0-2.74-0.64-3.61-1.79l-8.06-10.61c-1.12-1.47-1.23-3.47-0.29-5.05l11.9-20.07
						c0.77-1.3,2.13-2.13,3.64-2.21c1.52-0.09,2.96,0.58,3.87,1.78c0.37,0.48,0.43,0.51,1.27,0.81c1.35,0.5,3.39,1.25,5.36,3.84
						c1.97,2.59,2.15,4.76,2.26,6.19c0.07,0.89,0.08,0.96,0.44,1.44c0.36,0.48,0.43,0.51,1.27,0.81c1.35,0.49,3.39,1.24,5.36,3.83
						c1.97,2.59,2.15,4.76,2.26,6.19c0.07,0.89,0.08,0.96,0.44,1.44c0.91,1.2,1.17,2.77,0.68,4.2c-0.49,1.43-1.65,2.52-3.1,2.91
						l-22.5,6.11C260.87,238.24,260.47,238.29,260.08,238.29z M257.47,222.84l4.37,5.74l14.9-4.05c-0.01-0.12-0.02-0.23-0.03-0.34
						c-0.07-0.89-0.08-0.96-0.44-1.44c-0.36-0.48-0.43-0.5-1.27-0.81c-1.35-0.5-3.39-1.24-5.36-3.83c-1.97-2.59-2.15-4.76-2.26-6.19
						c-0.07-0.89-0.08-0.96-0.44-1.44c-0.36-0.48-0.43-0.51-1.27-0.81c-0.1-0.04-0.21-0.08-0.32-0.12L257.47,222.84z"/>
				</g>
			</g>
			<g>
				<g>
					<path class="st1" d="M174.81,270.9c2.33,3.07,0.37,4.56,2.7,7.63c2.33,3.07,4.29,1.58,6.63,4.64c2.33,3.07,0.37,4.56,2.71,7.63
						c2.33,3.07,4.3,1.58,6.63,4.65"/>
				</g>
				<g>
					<path class="st27" d="M193.47,299.99c-1.41,0-2.75-0.66-3.61-1.79c-0.36-0.48-0.43-0.51-1.27-0.81
						c-1.35-0.5-3.39-1.25-5.36-3.84c-1.97-2.59-2.15-4.76-2.26-6.19c-0.07-0.89-0.08-0.96-0.44-1.44c-0.36-0.48-0.43-0.5-1.27-0.81
						c-1.35-0.49-3.39-1.24-5.36-3.83c-1.97-2.59-2.15-4.76-2.26-6.19c-0.07-0.89-0.08-0.96-0.44-1.44c-0.91-1.2-1.17-2.78-0.68-4.2
						c0.49-1.43,1.65-2.52,3.1-2.91l22.5-6.11c1.77-0.48,3.68,0.16,4.79,1.63l8.06,10.61c1.12,1.47,1.23,3.47,0.29,5.05l-11.9,20.07
						c-0.77,1.3-2.13,2.13-3.64,2.21C193.65,299.98,193.56,299.99,193.47,299.99z M180.65,274.01c0.01,0.12,0.02,0.23,0.03,0.34
						c0.07,0.89,0.08,0.96,0.44,1.44c0.36,0.48,0.43,0.5,1.27,0.81c1.35,0.5,3.39,1.24,5.36,3.83c1.97,2.59,2.15,4.76,2.26,6.19
						c0.07,0.89,0.08,0.96,0.44,1.44c0.37,0.48,0.43,0.51,1.27,0.81c0.1,0.04,0.21,0.08,0.32,0.12l7.88-13.29l-4.37-5.74
						L180.65,274.01z"/>
				</g>
			</g>
		</g>
	</g>
</g>
</svg>
