<?xml version="1.0" encoding="utf-8"?>
<!-- Generator: Adobe Illustrator 23.0.5, SVG Export Plug-In . SVG Version: 6.00 Build 0)  -->
<svg version="1.1" id="Capa_1" xmlns="http://www.w3.org/2000/svg" xmlns:xlink="http://www.w3.org/1999/xlink" x="0px" y="0px"
	 viewBox="0 0 367.88 352.84" style="enable-background:new 0 0 367.88 352.84;" xml:space="preserve">
<style type="text/css">
	.st0{fill:#230131;}
	.st1{fill:#FFFFFF;}
	.st2{fill:url(#SVGID_1_);}
	.st3{fill:url(#SVGID_2_);}
	.st4{fill:url(#SVGID_3_);}
	.st5{fill:url(#SVGID_4_);}
	.st6{fill:url(#SVGID_5_);}
	.st7{fill:url(#SVGID_6_);}
	.st8{fill:url(#SVGID_7_);}
	.st9{fill:url(#SVGID_8_);}
	.st10{fill:url(#SVGID_9_);}
	.st11{fill:url(#SVGID_10_);}
	.st12{fill:#350030;}
	.st13{fill:url(#SVGID_11_);}
	.st14{fill:url(#SVGID_12_);}
	.st15{fill:url(#SVGID_13_);}
	.st16{fill:url(#SVGID_14_);}
	.st17{fill:url(#SVGID_15_);}
	.st18{fill:url(#SVGID_16_);}
	.st19{fill:url(#SVGID_17_);}
	.st20{fill:url(#SVGID_18_);}
	.st21{fill:url(#SVGID_19_);}
	.st22{fill:url(#SVGID_20_);}
	.st23{fill:#FDCC68;}
	.st24{fill:#935EA3;}
	.st25{fill:#8CC15C;}
	.st26{fill:#C24131;}
	.st27{fill:#1D1D1B;}
	.st28{fill:#BE1622;}
	.st29{fill:#CB88A1;}
	.st30{fill:#E9C064;}
	.st31{fill:url(#SVGID_21_);}
	.st32{clip-path:url(#SVGID_23_);fill:url(#SVGID_24_);}
	.st33{clip-path:url(#SVGID_23_);fill:url(#SVGID_25_);}
	.st34{clip-path:url(#SVGID_23_);}
	.st35{fill:url(#SVGID_26_);}
	.st36{fill:url(#SVGID_27_);}
	.st37{fill:url(#SVGID_28_);}
	.st38{fill:url(#SVGID_29_);}
	.st39{fill:url(#SVGID_30_);}
	.st40{fill:url(#SVGID_31_);}
	.st41{fill:url(#SVGID_32_);}
	.st42{fill:url(#SVGID_33_);}
	.st43{fill:url(#SVGID_34_);}
	.st44{fill:url(#SVGID_35_);}
	.st45{fill:url(#SVGID_36_);}
	.st46{fill:url(#SVGID_37_);}
	.st47{fill:url(#SVGID_38_);}
	.st48{fill:url(#SVGID_39_);}
	.st49{clip-path:url(#SVGID_41_);}
	.st50{clip-path:url(#SVGID_43_);fill:url(#SVGID_44_);}
	.st51{clip-path:url(#SVGID_43_);fill:url(#SVGID_45_);}
	.st52{clip-path:url(#SVGID_43_);}
	.st53{fill:url(#SVGID_46_);}
	.st54{fill:url(#SVGID_47_);}
	.st55{fill:url(#SVGID_48_);}
	.st56{fill:url(#SVGID_49_);}
	.st57{fill:url(#SVGID_50_);}
	.st58{fill:url(#SVGID_51_);}
	.st59{fill:url(#SVGID_52_);}
	.st60{fill:url(#SVGID_53_);}
	.st61{fill:url(#SVGID_54_);}
	.st62{fill:url(#SVGID_55_);}
	.st63{fill:url(#SVGID_56_);}
	.st64{fill:url(#SVGID_57_);}
	.st65{fill:url(#SVGID_58_);}
	.st66{fill:url(#SVGID_59_);}
	.st67{clip-path:url(#SVGID_61_);}
	.st68{fill:none;}
	.st69{fill:none;stroke:#FFFFFF;stroke-width:2;stroke-miterlimit:10;}
	.st70{fill:#E9B6A3;}
	.st71{opacity:0.9;fill:#230131;}
	.st72{fill:url(#SVGID_62_);}
	.st73{opacity:0.5;}
	.st74{fill:#EDCD83;}
	.st75{opacity:0.63;fill:url(#SVGID_63_);}
	.st76{opacity:0;fill:url(#SVGID_64_);}
	.st77{fill:url(#SVGID_65_);}
	.st78{fill:url(#SVGID_66_);}
	.st79{fill:url(#SVGID_67_);}
	.st80{fill:url(#SVGID_68_);}
	.st81{fill:url(#SVGID_69_);}
	.st82{fill:url(#SVGID_70_);}
	.st83{fill:url(#SVGID_71_);}
	.st84{fill:url(#SVGID_72_);}
	.st85{fill:url(#SVGID_73_);}
	.st86{fill:url(#SVGID_74_);}
	.st87{fill:url(#SVGID_75_);}
	.st88{fill:url(#SVGID_76_);}
	.st89{fill:url(#SVGID_77_);}
	.st90{opacity:0.24;fill:url(#SVGID_78_);}
	.st91{fill:url(#SVGID_79_);}
	.st92{fill:url(#SVGID_80_);}
	.st93{fill:url(#SVGID_81_);}
	.st94{opacity:0.24;fill:url(#SVGID_82_);}
	.st95{fill:url(#SVGID_83_);}
	.st96{fill:url(#SVGID_84_);}
	.st97{fill:url(#SVGID_85_);}
	.st98{opacity:0.24;fill:url(#SVGID_86_);}
	.st99{opacity:0.22;fill:url(#SVGID_87_);}
	.st100{fill:url(#SVGID_88_);}
	.st101{fill:url(#SVGID_89_);}
	.st102{fill:#E9C064;stroke:#FFFFFF;stroke-width:20;stroke-miterlimit:10;}
	.st103{fill:url(#SVGID_90_);}
	.st104{fill:url(#SVGID_91_);}
	.st105{fill:url(#SVGID_92_);}
	.st106{clip-path:url(#SVGID_94_);}
	.st107{fill:#BF1A1B;}
	.st108{fill:#FFEC00;}
	.st109{opacity:0.24;fill:url(#SVGID_95_);}
	.st110{opacity:0.24;fill:url(#SVGID_96_);}
	.st111{fill:url(#SVGID_97_);}
	.st112{opacity:0.63;fill:url(#SVGID_98_);}
	.st113{opacity:0;fill:url(#SVGID_99_);}
	.st114{fill:url(#SVGID_100_);}
	.st115{fill:url(#SVGID_101_);}
	.st116{fill:url(#SVGID_102_);}
	.st117{fill:url(#SVGID_103_);}
	.st118{fill:url(#SVGID_104_);}
	.st119{fill:url(#SVGID_105_);}
	.st120{fill:url(#SVGID_106_);}
	.st121{fill:url(#SVGID_107_);}
	.st122{fill:url(#SVGID_108_);}
	.st123{fill:url(#SVGID_109_);}
	.st124{fill:url(#SVGID_110_);}
	.st125{fill:url(#SVGID_111_);}
	.st126{fill:url(#SVGID_112_);}
	.st127{opacity:0.24;fill:url(#SVGID_113_);}
	.st128{fill:url(#SVGID_114_);}
	.st129{fill:url(#SVGID_115_);}
	.st130{fill:url(#SVGID_116_);}
	.st131{opacity:0.24;fill:url(#SVGID_117_);}
	.st132{fill:url(#SVGID_118_);}
	.st133{fill:url(#SVGID_119_);}
	.st134{fill:url(#SVGID_120_);}
	.st135{opacity:0.24;fill:url(#SVGID_121_);}
	.st136{opacity:0.22;fill:url(#SVGID_122_);}
	.st137{fill:url(#SVGID_123_);}
	.st138{fill:url(#SVGID_124_);}
	.st139{fill:url(#SVGID_125_);}
	.st140{fill:url(#SVGID_126_);}
	.st141{fill:url(#SVGID_127_);}
	.st142{clip-path:url(#SVGID_129_);}
	.st143{clip-path:url(#SVGID_131_);}
</style>
<g>
	<g>
		<circle class="st30" cx="183.94" cy="176.42" r="140.53"/>
	</g>
	<g>
		<g>
			<path class="st1" d="M158.06,236.9l-38.09-45.13c-3.09-3.66-2.63-9.13,1.03-12.22l76.59-64.65c3.66-3.09,9.13-2.63,12.22,1.03
				l38.09,45.13c3.09,3.66,2.63,9.13-1.03,12.22l-76.59,64.65C166.62,241.02,161.15,240.56,158.06,236.9z"/>
			<path class="st27" d="M165.2,242.72c-0.49,0-0.98-0.02-1.47-0.06c-4.56-0.39-8.7-2.52-11.65-6.02l-32.85-38.92
				c-2.95-3.5-4.36-7.94-3.98-12.5c0.39-4.56,2.53-8.7,6.02-11.65l70.39-59.41c3.5-2.95,7.94-4.37,12.5-3.98
				c4.56,0.39,8.7,2.53,11.65,6.02l32.85,38.92c2.95,3.5,4.36,7.94,3.98,12.5c-0.39,4.56-2.53,8.7-6.02,11.65l-70.38,59.41
				C173.11,241.31,169.24,242.72,165.2,242.72z M202.69,118.93c-1.96,0-3.84,0.68-5.36,1.96l-70.39,59.41
				c-1.7,1.43-2.74,3.45-2.93,5.66c-0.19,2.22,0.5,4.37,1.93,6.07l32.85,38.92c1.43,1.7,3.44,2.74,5.66,2.93
				c2.21,0.18,4.37-0.5,6.07-1.93l70.38-59.41c1.7-1.43,2.74-3.45,2.93-5.66c0.19-2.22-0.5-4.37-1.93-6.07l-32.85-38.92
				c-1.43-1.7-3.44-2.74-5.66-2.93C203.17,118.94,202.93,118.93,202.69,118.93z"/>
		</g>
		<g>
			<polygon class="st30" points="181.63,228.35 149.28,155.69 186.25,124.48 218.6,197.15 			"/>
			<path class="st27" d="M179.99,235.5l-36.08-81.05l43.98-37.12l36.08,81.05L179.99,235.5z M154.65,156.92l28.62,64.29l29.96-25.29
				l-28.62-64.29L154.65,156.92z"/>
		</g>
		<g>
			<g>
				<path class="st1" d="M274.11,134.8c-4.25-5.03-1.03-7.75-5.28-12.79c-4.25-5.03-7.47-2.31-11.72-7.35
					c-4.25-5.04-1.03-7.76-5.28-12.79c-4.25-5.04-7.47-2.32-11.72-7.35"/>
			</g>
			<g>
				<path class="st27" d="M236.2,151.61c-1.27,0-2.51-0.55-3.37-1.56l-14.68-17.4c-1.16-1.37-1.37-3.31-0.53-4.89l18.59-35.28
					c0.68-1.3,1.97-2.17,3.42-2.33c1.45-0.16,2.89,0.42,3.84,1.54c1.29,1.53,2.18,1.81,3.8,2.31c2.1,0.65,4.97,1.54,7.92,5.04
					c2.96,3.5,3.35,6.48,3.64,8.66c0.22,1.68,0.35,2.6,1.64,4.13c1.29,1.53,2.18,1.81,3.8,2.31c2.1,0.65,4.97,1.54,7.92,5.04
					c2.96,3.5,3.35,6.48,3.64,8.66c0.22,1.68,0.34,2.6,1.64,4.13c0.94,1.12,1.27,2.64,0.87,4.05s-1.48,2.53-2.87,2.98l-37.9,12.4
					C237.12,151.54,236.66,151.61,236.2,151.61z M226.8,129.23l10.85,12.86l30.08-9.84c-0.37-1.22-0.51-2.32-0.64-3.26
					c-0.22-1.68-0.34-2.6-1.64-4.13c-1.29-1.53-2.18-1.81-3.79-2.31c-2.1-0.65-4.97-1.54-7.92-5.04c-2.96-3.5-3.35-6.48-3.64-8.66
					c-0.22-1.68-0.35-2.6-1.64-4.13c-1.29-1.53-2.19-1.81-3.8-2.31c-0.91-0.28-1.97-0.61-3.11-1.18L226.8,129.23z"/>
			</g>
		</g>
		<g>
			<g>
				<path class="st1" d="M93.77,218.04c4.25,5.03,1.03,7.75,5.28,12.79c4.25,5.03,7.47,2.31,11.72,7.35
					c4.25,5.04,1.03,7.76,5.28,12.79c4.25,5.04,7.47,2.32,11.72,7.35"/>
			</g>
			<g>
				<path class="st27" d="M127.77,262.72c-1.29,0-2.53-0.57-3.37-1.56c-1.29-1.53-2.18-1.81-3.8-2.31c-2.1-0.65-4.97-1.54-7.92-5.04
					c-2.96-3.5-3.35-6.48-3.64-8.66c-0.22-1.68-0.34-2.6-1.64-4.13c-1.29-1.53-2.18-1.81-3.8-2.31c-2.1-0.65-4.97-1.54-7.92-5.04
					c-2.96-3.5-3.35-6.48-3.64-8.66c-0.22-1.68-0.34-2.6-1.64-4.13c-0.94-1.12-1.27-2.64-0.87-4.05s1.48-2.53,2.87-2.98l37.9-12.4
					c1.7-0.56,3.58-0.03,4.74,1.35l14.68,17.4c1.16,1.37,1.37,3.31,0.53,4.89l-18.59,35.28c-0.68,1.3-1.97,2.17-3.42,2.33
					C128.08,262.71,127.92,262.72,127.77,262.72z M100.14,220.59c0.37,1.22,0.51,2.32,0.64,3.26c0.22,1.68,0.34,2.6,1.64,4.13
					c1.29,1.53,2.18,1.81,3.79,2.31c2.1,0.65,4.97,1.54,7.92,5.04c2.96,3.5,3.35,6.48,3.64,8.66c0.22,1.68,0.34,2.6,1.64,4.13
					c1.29,1.53,2.18,1.81,3.8,2.31c0.91,0.28,1.97,0.61,3.11,1.18l14.76-28l-10.85-12.86L100.14,220.59z"/>
			</g>
		</g>
	</g>
</g>
</svg>
