<?xml version="1.0" encoding="utf-8"?>
<!-- Generator: Adobe Illustrator 23.0.5, SVG Export Plug-In . SVG Version: 6.00 Build 0)  -->
<svg version="1.1" id="Capa_1" xmlns="http://www.w3.org/2000/svg" xmlns:xlink="http://www.w3.org/1999/xlink" x="0px" y="0px"
	 viewBox="0 0 367.88 352.84" style="enable-background:new 0 0 367.88 352.84;" xml:space="preserve">
<style type="text/css">
	.st0{fill:#230131;}
	.st1{fill:#FFFFFF;}
	.st2{fill:url(#SVGID_1_);}
	.st3{fill:url(#SVGID_2_);}
	.st4{fill:url(#SVGID_3_);}
	.st5{fill:url(#SVGID_4_);}
	.st6{fill:url(#SVGID_5_);}
	.st7{fill:url(#SVGID_6_);}
	.st8{fill:url(#SVGID_7_);}
	.st9{fill:url(#SVGID_8_);}
	.st10{fill:url(#SVGID_9_);}
	.st11{fill:url(#SVGID_10_);}
	.st12{fill:#350030;}
	.st13{fill:url(#SVGID_11_);}
	.st14{fill:url(#SVGID_12_);}
	.st15{fill:url(#SVGID_13_);}
	.st16{fill:url(#SVGID_14_);}
	.st17{fill:url(#SVGID_15_);}
	.st18{fill:url(#SVGID_16_);}
	.st19{fill:url(#SVGID_17_);}
	.st20{fill:url(#SVGID_18_);}
	.st21{fill:url(#SVGID_19_);}
	.st22{fill:url(#SVGID_20_);}
	.st23{fill:#FDCC68;}
	.st24{fill:#935EA3;}
	.st25{fill:#8CC15C;}
	.st26{fill:#C24131;}
	.st27{fill:#1D1D1B;}
	.st28{fill:#BE1622;}
	.st29{fill:#CB88A1;}
	.st30{fill:#E9C064;}
	.st31{fill:url(#SVGID_21_);}
	.st32{clip-path:url(#SVGID_23_);fill:url(#SVGID_24_);}
	.st33{clip-path:url(#SVGID_23_);fill:url(#SVGID_25_);}
	.st34{clip-path:url(#SVGID_23_);}
	.st35{fill:url(#SVGID_26_);}
	.st36{fill:url(#SVGID_27_);}
	.st37{fill:url(#SVGID_28_);}
	.st38{fill:url(#SVGID_29_);}
	.st39{fill:url(#SVGID_30_);}
	.st40{fill:url(#SVGID_31_);}
	.st41{fill:url(#SVGID_32_);}
	.st42{fill:url(#SVGID_33_);}
	.st43{fill:url(#SVGID_34_);}
	.st44{fill:url(#SVGID_35_);}
	.st45{fill:url(#SVGID_36_);}
	.st46{fill:url(#SVGID_37_);}
	.st47{fill:url(#SVGID_38_);}
	.st48{fill:url(#SVGID_39_);}
	.st49{clip-path:url(#SVGID_41_);}
	.st50{clip-path:url(#SVGID_43_);fill:url(#SVGID_44_);}
	.st51{clip-path:url(#SVGID_43_);fill:url(#SVGID_45_);}
	.st52{clip-path:url(#SVGID_43_);}
	.st53{fill:url(#SVGID_46_);}
	.st54{fill:url(#SVGID_47_);}
	.st55{fill:url(#SVGID_48_);}
	.st56{fill:url(#SVGID_49_);}
	.st57{fill:url(#SVGID_50_);}
	.st58{fill:url(#SVGID_51_);}
	.st59{fill:url(#SVGID_52_);}
	.st60{fill:url(#SVGID_53_);}
	.st61{fill:url(#SVGID_54_);}
	.st62{fill:url(#SVGID_55_);}
	.st63{fill:url(#SVGID_56_);}
	.st64{fill:url(#SVGID_57_);}
	.st65{fill:url(#SVGID_58_);}
	.st66{fill:url(#SVGID_59_);}
	.st67{clip-path:url(#SVGID_61_);}
	.st68{fill:none;}
	.st69{fill:none;stroke:#FFFFFF;stroke-width:2;stroke-miterlimit:10;}
	.st70{fill:#E9B6A3;}
	.st71{opacity:0.9;fill:#230131;}
	.st72{fill:url(#SVGID_62_);}
	.st73{opacity:0.5;}
	.st74{fill:#EDCD83;}
	.st75{opacity:0.63;fill:url(#SVGID_63_);}
	.st76{opacity:0;fill:url(#SVGID_64_);}
	.st77{fill:url(#SVGID_65_);}
	.st78{fill:url(#SVGID_66_);}
	.st79{fill:url(#SVGID_67_);}
	.st80{fill:url(#SVGID_68_);}
	.st81{fill:url(#SVGID_69_);}
	.st82{fill:url(#SVGID_70_);}
	.st83{fill:url(#SVGID_71_);}
	.st84{fill:url(#SVGID_72_);}
	.st85{fill:url(#SVGID_73_);}
	.st86{fill:url(#SVGID_74_);}
	.st87{fill:url(#SVGID_75_);}
	.st88{fill:url(#SVGID_76_);}
	.st89{fill:url(#SVGID_77_);}
	.st90{opacity:0.24;fill:url(#SVGID_78_);}
	.st91{fill:url(#SVGID_79_);}
	.st92{fill:url(#SVGID_80_);}
	.st93{fill:url(#SVGID_81_);}
	.st94{opacity:0.24;fill:url(#SVGID_82_);}
	.st95{fill:url(#SVGID_83_);}
	.st96{fill:url(#SVGID_84_);}
	.st97{fill:url(#SVGID_85_);}
	.st98{opacity:0.24;fill:url(#SVGID_86_);}
	.st99{opacity:0.22;fill:url(#SVGID_87_);}
	.st100{fill:url(#SVGID_88_);}
	.st101{fill:url(#SVGID_89_);}
	.st102{fill:#E9C064;stroke:#FFFFFF;stroke-width:20;stroke-miterlimit:10;}
	.st103{fill:url(#SVGID_90_);}
	.st104{fill:url(#SVGID_91_);}
	.st105{fill:url(#SVGID_92_);}
	.st106{clip-path:url(#SVGID_94_);}
	.st107{fill:#BF1A1B;}
	.st108{fill:#FFEC00;}
	.st109{opacity:0.24;fill:url(#SVGID_95_);}
	.st110{opacity:0.24;fill:url(#SVGID_96_);}
	.st111{fill:url(#SVGID_97_);}
	.st112{opacity:0.63;fill:url(#SVGID_98_);}
	.st113{opacity:0;fill:url(#SVGID_99_);}
	.st114{fill:url(#SVGID_100_);}
	.st115{fill:url(#SVGID_101_);}
	.st116{fill:url(#SVGID_102_);}
	.st117{fill:url(#SVGID_103_);}
	.st118{fill:url(#SVGID_104_);}
	.st119{fill:url(#SVGID_105_);}
	.st120{fill:url(#SVGID_106_);}
	.st121{fill:url(#SVGID_107_);}
	.st122{fill:url(#SVGID_108_);}
	.st123{fill:url(#SVGID_109_);}
	.st124{fill:url(#SVGID_110_);}
	.st125{fill:url(#SVGID_111_);}
	.st126{fill:url(#SVGID_112_);}
	.st127{opacity:0.24;fill:url(#SVGID_113_);}
	.st128{fill:url(#SVGID_114_);}
	.st129{fill:url(#SVGID_115_);}
	.st130{fill:url(#SVGID_116_);}
	.st131{opacity:0.24;fill:url(#SVGID_117_);}
	.st132{fill:url(#SVGID_118_);}
	.st133{fill:url(#SVGID_119_);}
	.st134{fill:url(#SVGID_120_);}
	.st135{opacity:0.24;fill:url(#SVGID_121_);}
	.st136{opacity:0.22;fill:url(#SVGID_122_);}
	.st137{fill:url(#SVGID_123_);}
	.st138{fill:url(#SVGID_124_);}
	.st139{fill:url(#SVGID_125_);}
	.st140{fill:url(#SVGID_126_);}
	.st141{fill:url(#SVGID_127_);}
	.st142{clip-path:url(#SVGID_129_);}
	.st143{clip-path:url(#SVGID_131_);}
</style>
<g>
	<g>
		<circle class="st29" cx="183.94" cy="176.42" r="140.53"/>
	</g>
	<g>
		<g>
			
				<rect x="142.86" y="209.21" transform="matrix(0.9942 -0.1072 0.1072 0.9942 -24.8601 17.7957)" class="st1" width="20.47" height="61.86"/>
		</g>
		<g>
			
				<rect x="182.91" y="209.21" transform="matrix(0.9966 0.0823 -0.0823 0.9966 20.4277 -15.0876)" class="st1" width="20.47" height="61.86"/>
		</g>
		<g>
			
				<rect x="225.53" y="202.7" transform="matrix(0.9731 0.2303 -0.2303 0.9731 60.4792 -47.4387)" class="st1" width="15.79" height="65.24"/>
		</g>
		<g>
			<g>
				<path class="st27" d="M213.97,278.45h-60.07c-15.22,0-28.32-10.86-31.14-25.81l-11.85-62.73c-0.24-1.29,0.1-2.62,0.94-3.63
					c0.84-1.01,2.08-1.59,3.39-1.59h137.39c1.31,0,2.56,0.58,3.39,1.59c0.84,1.01,1.18,2.34,0.94,3.63l-11.85,62.73
					C242.29,267.6,229.19,278.45,213.97,278.45z M120.56,193.49l10.86,57.51c2.04,10.8,11.5,18.64,22.49,18.64h60.07
					c10.99,0,20.45-7.84,22.48-18.64l10.86-57.51H120.56z"/>
			</g>
			<g>
				<path class="st29" d="M261.7,183.57c0,15.16-34.81,27.44-77.76,27.44c-42.95,0-77.76-12.29-77.76-27.44
					c0-15.16,34.81-59.53,77.76-59.53C226.89,124.03,261.7,168.41,261.7,183.57z"/>
				<path class="st27" d="M183.94,215.42c-39.83,0-82.17-11.16-82.17-31.85c0-9.63,9.95-25.54,24.19-38.69
					c10.22-9.43,31.33-25.25,57.97-25.25s47.76,15.82,57.97,25.25c14.24,13.15,24.19,29.06,24.19,38.69
					C266.11,204.25,223.77,215.42,183.94,215.42z M183.94,128.44c-42.15,0-73.36,43.6-73.36,55.13c0,10.88,31.37,23.04,73.36,23.04
					s73.36-12.16,73.36-23.04c0-6.01-8.17-20.04-21.36-32.21C226.67,142.8,207.58,128.44,183.94,128.44z"/>
			</g>
			<g>
				<path class="st1" d="M231.23,175.75h-94.58c-10.84,0-19.63-8.79-19.63-19.63l0,0c0-10.84,8.79-19.63,19.63-19.63h94.58
					c10.84,0,19.63,8.79,19.63,19.63l0,0C250.86,166.96,242.07,175.75,231.23,175.75z"/>
				<path class="st27" d="M231.23,180.15h-94.58c-13.25,0-24.03-10.78-24.03-24.03c0-13.25,10.78-24.03,24.03-24.03h94.58
					c13.25,0,24.03,10.78,24.03,24.03C255.26,169.37,244.48,180.15,231.23,180.15z M136.65,140.9c-8.39,0-15.22,6.83-15.22,15.22
					c0,8.39,6.83,15.22,15.22,15.22h94.58c8.39,0,15.22-6.83,15.22-15.22c0-8.39-6.83-15.22-15.22-15.22H136.65z"/>
			</g>
			<g>
				<path class="st1" d="M208.63,149.13l-54.27-4.18c-10.81-0.83-18.89-10.27-18.06-21.08l0,0c0.83-10.81,10.27-18.89,21.08-18.06
					l54.27,4.18c10.81,0.83,18.89,10.27,18.06,21.08v0C228.88,141.88,219.44,149.97,208.63,149.13z"/>
				<path class="st27" d="M210.18,153.6c-0.63,0-1.25-0.02-1.88-0.07l-54.27-4.18c-6.4-0.49-12.23-3.45-16.4-8.32
					c-4.18-4.87-6.21-11.08-5.71-17.48c1.02-13.21,12.6-23.13,25.81-22.12l54.27,4.18c6.4,0.49,12.23,3.45,16.4,8.32
					c4.18,4.87,6.21,11.08,5.71,17.48c-0.49,6.4-3.45,12.23-8.32,16.4C221.38,151.58,215.91,153.6,210.18,153.6z M208.97,144.74
					c4.05,0.31,7.99-0.97,11.07-3.62c3.09-2.65,4.96-6.33,5.27-10.39c0.65-8.37-5.64-15.7-14.01-16.35l-54.27-4.18
					c-8.38-0.65-15.7,5.64-16.35,14.01c-0.31,4.05,0.97,7.99,3.62,11.07c2.65,3.09,6.34,4.96,10.39,5.27L208.97,144.74z"/>
			</g>
			<g>
				<path class="st1" d="M209.29,95.86c0,0-0.91-0.48-2.7-0.83c-0.08-0.02-0.17-0.04-0.25-0.06l-0.37-0.06
					c-13.18-2.83-23.07-14.53-23.07-28.56c-16.14,0-29.22,13.08-29.22,29.22l0.03,5.97c-0.13,6.53,4.5,12.37,11.14,13.54l36.83,6.46
					c7.34,1.29,14.32-3.62,15.61-10.95v0C218.4,104.28,214.93,98.25,209.29,95.86z"/>
				<path class="st27" d="M204.05,126.14c-1.04,0-2.08-0.09-3.13-0.27l-36.83-6.46c-8.74-1.53-14.96-9.09-14.78-17.96l-0.03-5.86
					c0-18.56,15.09-33.65,33.63-33.65h4.41v4.41c0,11.59,8.2,21.77,19.51,24.24l0.73,0.15c1.82,0.35,3.05,0.87,3.59,1.13
					c7.61,3.31,11.92,11.3,10.49,19.48c-0.83,4.71-3.43,8.81-7.35,11.55C211.24,125.03,207.69,126.14,204.05,126.14z M178.84,71.08
					c-11.76,1.95-20.75,12.18-20.75,24.48l0.03,5.95c-0.09,4.61,3.06,8.44,7.49,9.22l36.83,6.46c2.38,0.42,4.8-0.12,6.78-1.51
					c1.99-1.39,3.31-3.48,3.73-5.86c0.73-4.18-1.48-8.25-5.38-9.91l-0.27-0.12c-0.12-0.05-0.64-0.26-1.54-0.43l-0.71-0.14
					C191.23,96.25,180.81,84.8,178.84,71.08z"/>
			</g>
			<g>
				<path class="st27" d="M183.94,276.77c-2.43,0-4.41-1.97-4.41-4.41v-61.35c0-2.43,1.97-4.41,4.41-4.41s4.41,1.97,4.41,4.41v61.35
					C188.34,274.8,186.37,276.77,183.94,276.77z"/>
			</g>
			<g>
				<path class="st27" d="M165.88,278.45c-2.27,0-4.2-1.74-4.39-4.04l-5.23-63.74c-0.2-2.42,1.61-4.55,4.03-4.75
					c2.42-0.19,4.55,1.61,4.75,4.03l5.23,63.74c0.2,2.42-1.61,4.55-4.03,4.75C166.12,278.45,166,278.45,165.88,278.45z"/>
			</g>
			<g>
				<path class="st27" d="M148.17,276.77c-2.14,0-4.01-1.56-4.35-3.73l-10.33-66.69c-0.37-2.4,1.27-4.66,3.68-5.03
					c2.39-0.37,4.66,1.27,5.03,3.68l10.33,66.69c0.37,2.4-1.27,4.66-3.68,5.03C148.62,276.75,148.4,276.77,148.17,276.77z"/>
			</g>
			<g>
				<path class="st27" d="M202,278.44c-0.12,0-0.24-0.01-0.36-0.02c-2.42-0.2-4.23-2.33-4.03-4.75l5.23-63.74
					c0.2-2.42,2.34-4.23,4.75-4.03c2.42,0.2,4.23,2.33,4.03,4.75l-5.23,63.74C206.19,276.69,204.27,278.44,202,278.44z"/>
			</g>
			<g>
				<path class="st27" d="M219.71,276.76c-0.23,0-0.45-0.02-0.68-0.05c-2.4-0.37-4.05-2.62-3.68-5.03l10.33-66.69
					c0.37-2.4,2.64-4.05,5.03-3.68c2.4,0.37,4.05,2.62,3.68,5.03l-10.33,66.69C223.72,275.2,221.84,276.76,219.71,276.76z"/>
			</g>
		</g>
	</g>
</g>
</svg>
