<svg width="150" height="75" viewBox="0 0 150 75" fill="none" xmlns="http://www.w3.org/2000/svg">
<path d="M150 75C150 55.1088 142.098 36.0322 128.033 21.967C113.968 7.90176 94.8912 1.50175e-06 75 0C55.1088 -1.50175e-06 36.0322 7.90176 21.967 21.967C7.90177 36.0322 3.00349e-06 55.1088 0 75L75 75H150Z" fill="#935EA4"/>
<path d="M150 75C150 55.1088 142.098 36.0322 128.033 21.967C113.968 7.90176 94.8912 1.50175e-06 75 0C55.1088 -1.50175e-06 36.0322 7.90176 21.967 21.967C7.90177 36.0322 3.00349e-06 55.1088 0 75L75 75H150Z" fill="#935EA4"/>
</svg>
