<?xml version="1.0" encoding="utf-8"?>
<!-- Generator: Adobe Illustrator 23.0.5, SVG Export Plug-In . SVG Version: 6.00 Build 0)  -->
<svg version="1.1" id="Capa_1" xmlns="http://www.w3.org/2000/svg" xmlns:xlink="http://www.w3.org/1999/xlink" x="0px" y="0px"
	 viewBox="0 0 347.68 317.27" style="enable-background:new 0 0 347.68 317.27;" xml:space="preserve">
<style type="text/css">
	.st0{fill:#230131;}
	.st1{fill:#FFFFFF;}
	.st2{fill:url(#SVGID_1_);}
	.st3{fill:url(#SVGID_2_);}
	.st4{fill:url(#SVGID_3_);}
	.st5{fill:url(#SVGID_4_);}
	.st6{fill:url(#SVGID_5_);}
	.st7{fill:url(#SVGID_6_);}
	.st8{fill:url(#SVGID_7_);}
	.st9{fill:url(#SVGID_8_);}
	.st10{fill:url(#SVGID_9_);}
	.st11{fill:url(#SVGID_10_);}
	.st12{fill:#350030;}
	.st13{fill:url(#SVGID_11_);}
	.st14{fill:url(#SVGID_12_);}
	.st15{fill:url(#SVGID_13_);}
	.st16{fill:url(#SVGID_14_);}
	.st17{fill:url(#SVGID_15_);}
	.st18{fill:url(#SVGID_16_);}
	.st19{fill:url(#SVGID_17_);}
	.st20{fill:url(#SVGID_18_);}
	.st21{fill:url(#SVGID_19_);}
	.st22{fill:url(#SVGID_20_);}
	.st23{fill:#FDCC68;}
	.st24{fill:#935EA3;}
	.st25{fill:#8CC15C;}
	.st26{fill:#C24131;}
	.st27{fill:#1D1D1B;}
	.st28{fill:#BE1622;}
	.st29{fill:#CB88A1;}
	.st30{fill:#E9C064;}
	.st31{fill:url(#SVGID_21_);}
	.st32{clip-path:url(#SVGID_23_);fill:url(#SVGID_24_);}
	.st33{clip-path:url(#SVGID_23_);fill:url(#SVGID_25_);}
	.st34{clip-path:url(#SVGID_23_);}
	.st35{fill:url(#SVGID_26_);}
	.st36{fill:url(#SVGID_27_);}
	.st37{fill:url(#SVGID_28_);}
	.st38{fill:url(#SVGID_29_);}
	.st39{fill:url(#SVGID_30_);}
	.st40{fill:url(#SVGID_31_);}
	.st41{fill:url(#SVGID_32_);}
	.st42{fill:url(#SVGID_33_);}
	.st43{fill:url(#SVGID_34_);}
	.st44{fill:url(#SVGID_35_);}
	.st45{fill:url(#SVGID_36_);}
	.st46{fill:url(#SVGID_37_);}
	.st47{fill:url(#SVGID_38_);}
	.st48{fill:url(#SVGID_39_);}
	.st49{clip-path:url(#SVGID_41_);}
	.st50{clip-path:url(#SVGID_43_);fill:url(#SVGID_44_);}
	.st51{clip-path:url(#SVGID_43_);fill:url(#SVGID_45_);}
	.st52{clip-path:url(#SVGID_43_);}
	.st53{fill:url(#SVGID_46_);}
	.st54{fill:url(#SVGID_47_);}
	.st55{fill:url(#SVGID_48_);}
	.st56{fill:url(#SVGID_49_);}
	.st57{fill:url(#SVGID_50_);}
	.st58{fill:url(#SVGID_51_);}
	.st59{fill:url(#SVGID_52_);}
	.st60{fill:url(#SVGID_53_);}
	.st61{fill:url(#SVGID_54_);}
	.st62{fill:url(#SVGID_55_);}
	.st63{fill:url(#SVGID_56_);}
	.st64{fill:url(#SVGID_57_);}
	.st65{fill:url(#SVGID_58_);}
	.st66{fill:url(#SVGID_59_);}
	.st67{clip-path:url(#SVGID_61_);}
	.st68{fill:none;}
	.st69{fill:none;stroke:#FFFFFF;stroke-width:2;stroke-miterlimit:10;}
	.st70{fill:#E9B6A3;}
	.st71{opacity:0.9;fill:#230131;}
	.st72{fill:url(#SVGID_62_);}
	.st73{opacity:0.5;}
	.st74{fill:#EDCD83;}
	.st75{opacity:0.63;fill:url(#SVGID_63_);}
	.st76{opacity:0;fill:url(#SVGID_64_);}
	.st77{fill:url(#SVGID_65_);}
	.st78{fill:url(#SVGID_66_);}
	.st79{fill:url(#SVGID_67_);}
	.st80{fill:url(#SVGID_68_);}
	.st81{fill:url(#SVGID_69_);}
	.st82{fill:url(#SVGID_70_);}
	.st83{fill:url(#SVGID_71_);}
	.st84{fill:url(#SVGID_72_);}
	.st85{fill:url(#SVGID_73_);}
	.st86{fill:url(#SVGID_74_);}
	.st87{fill:url(#SVGID_75_);}
	.st88{fill:url(#SVGID_76_);}
	.st89{fill:url(#SVGID_77_);}
	.st90{opacity:0.24;fill:url(#SVGID_78_);}
	.st91{fill:url(#SVGID_79_);}
	.st92{fill:url(#SVGID_80_);}
	.st93{fill:url(#SVGID_81_);}
	.st94{opacity:0.24;fill:url(#SVGID_82_);}
	.st95{fill:url(#SVGID_83_);}
	.st96{fill:url(#SVGID_84_);}
	.st97{fill:url(#SVGID_85_);}
	.st98{opacity:0.24;fill:url(#SVGID_86_);}
	.st99{opacity:0.22;fill:url(#SVGID_87_);}
	.st100{fill:url(#SVGID_88_);}
	.st101{fill:url(#SVGID_89_);}
	.st102{fill:#E9C064;stroke:#FFFFFF;stroke-width:20;stroke-miterlimit:10;}
	.st103{fill:url(#SVGID_90_);}
	.st104{fill:url(#SVGID_91_);}
	.st105{fill:url(#SVGID_92_);}
	.st106{clip-path:url(#SVGID_94_);}
	.st107{fill:#BF1A1B;}
	.st108{fill:#FFEC00;}
	.st109{opacity:0.24;fill:url(#SVGID_95_);}
	.st110{opacity:0.24;fill:url(#SVGID_96_);}
	.st111{fill:url(#SVGID_97_);}
	.st112{opacity:0.63;fill:url(#SVGID_98_);}
	.st113{opacity:0;fill:url(#SVGID_99_);}
	.st114{fill:url(#SVGID_100_);}
	.st115{fill:url(#SVGID_101_);}
	.st116{fill:url(#SVGID_102_);}
	.st117{fill:url(#SVGID_103_);}
	.st118{fill:url(#SVGID_104_);}
	.st119{fill:url(#SVGID_105_);}
	.st120{fill:url(#SVGID_106_);}
	.st121{fill:url(#SVGID_107_);}
	.st122{fill:url(#SVGID_108_);}
	.st123{fill:url(#SVGID_109_);}
	.st124{fill:url(#SVGID_110_);}
	.st125{fill:url(#SVGID_111_);}
	.st126{fill:url(#SVGID_112_);}
	.st127{opacity:0.24;fill:url(#SVGID_113_);}
	.st128{fill:url(#SVGID_114_);}
	.st129{fill:url(#SVGID_115_);}
	.st130{fill:url(#SVGID_116_);}
	.st131{opacity:0.24;fill:url(#SVGID_117_);}
	.st132{fill:url(#SVGID_118_);}
	.st133{fill:url(#SVGID_119_);}
	.st134{fill:url(#SVGID_120_);}
	.st135{opacity:0.24;fill:url(#SVGID_121_);}
	.st136{opacity:0.22;fill:url(#SVGID_122_);}
	.st137{fill:url(#SVGID_123_);}
	.st138{fill:url(#SVGID_124_);}
	.st139{fill:url(#SVGID_125_);}
	.st140{fill:url(#SVGID_126_);}
	.st141{fill:url(#SVGID_127_);}
	.st142{clip-path:url(#SVGID_129_);}
	.st143{clip-path:url(#SVGID_131_);}
</style>
<g>
	<path class="st1" d="M296.11,135.97l-79.39-94.07c-3.09-3.66-8.56-4.12-12.22-1.03l-70.22,59.26l43.8-36.97l59.47,133.58
		L169.6,254.1l-59.47-133.58L52.6,169.07c-3.66,3.09-4.12,8.56-1.03,12.22l79.39,94.07c3.09,3.66,8.56,4.12,12.22,1.03l151.9-128.2
		C298.74,145.1,299.2,139.63,296.11,135.97z"/>
	<path class="st27" d="M139.4,280.51c-0.9,0-1.8-0.04-2.71-0.12c-8.38-0.71-15.99-4.64-21.42-11.07l-60.39-71.55
		c-5.43-6.43-8.02-14.59-7.31-22.97c0.71-8.38,4.64-15.99,11.07-21.42l129.38-109.2c6.43-5.43,14.59-8.03,22.97-7.32
		c8.38,0.71,15.99,4.64,21.42,11.07l60.39,71.55c5.43,6.43,8.02,14.59,7.31,22.97s-4.64,15.99-11.07,21.42l-129.38,109.2
		C153.93,277.92,146.82,280.51,139.4,280.51z M208.31,52.95c-3.61,0-7.06,1.26-9.85,3.61L69.08,165.76
		c-3.12,2.64-5.03,6.33-5.38,10.41c-0.35,4.07,0.92,8.04,3.56,11.16l60.39,71.55c2.64,3.12,6.33,5.03,10.4,5.38
		c4.06,0.34,8.04-0.92,11.17-3.55l129.38-109.2c3.12-2.64,5.03-6.33,5.38-10.41c0.35-4.07-0.92-8.04-3.55-11.16l-60.39-71.55
		c-2.64-3.12-6.33-5.03-10.4-5.38C209.19,52.97,208.75,52.95,208.31,52.95z"/>
	<path class="st27" d="M166.58,267.24l-66.33-148.98l80.84-68.23l66.33,148.98L166.58,267.24z M120,122.79l52.61,118.17l55.07-46.48
		L175.07,76.31L120,122.79z"/>
	<g>
		<g>
			<path class="st1" d="M339.58,82.13c-7.81-9.25-1.89-14.25-9.7-23.51c-7.81-9.25-13.73-4.25-21.54-13.5
				c-7.81-9.26-1.89-14.26-9.7-23.51c-7.81-9.26-13.74-4.26-21.55-13.51"/>
		</g>
		<g>
			<path class="st27" d="M269.91,113.02c-2.34,0-4.62-1.02-6.19-2.87l-26.99-31.98c-2.13-2.52-2.51-6.08-0.98-9l34.17-64.85
				c1.26-2.38,3.61-3.99,6.29-4.28c2.67-0.29,5.32,0.77,7.06,2.83c2.38,2.82,4.01,3.33,6.98,4.25c3.85,1.19,9.13,2.83,14.57,9.27
				c5.44,6.44,6.16,11.92,6.69,15.92c0.41,3.08,0.64,4.78,3.01,7.6c2.38,2.82,4.01,3.32,6.98,4.24c3.85,1.19,9.13,2.83,14.56,9.27
				c5.43,6.44,6.16,11.91,6.69,15.91c0.41,3.08,0.63,4.78,3.01,7.59c1.74,2.06,2.34,4.84,1.6,7.44s-2.71,4.65-5.27,5.48
				l-69.67,22.79C271.6,112.89,270.75,113.02,269.91,113.02z M252.63,71.9l19.95,23.64l55.3-18.09c-0.67-2.25-0.94-4.26-1.17-6
				c-0.41-3.08-0.63-4.78-3.01-7.59c-2.37-2.82-4.01-3.32-6.97-4.24c-3.85-1.19-9.13-2.83-14.56-9.27
				c-5.44-6.44-6.16-11.91-6.69-15.91c-0.41-3.08-0.64-4.78-3.01-7.6c-2.38-2.82-4.02-3.33-6.99-4.25
				c-1.67-0.52-3.61-1.12-5.72-2.16L252.63,71.9z"/>
		</g>
	</g>
	<g>
		<g>
			<path class="st1" d="M8.1,235.13c7.81,9.25,1.89,14.25,9.7,23.51c7.81,9.25,13.73,4.25,21.54,13.5
				c7.81,9.26,1.89,14.26,9.7,23.51c7.81,9.26,13.74,4.26,21.55,13.51"/>
		</g>
		<g>
			<path class="st27" d="M70.59,317.27c-2.37,0-4.64-1.04-6.19-2.87c-2.38-2.82-4.01-3.33-6.98-4.25
				c-3.85-1.19-9.13-2.83-14.57-9.27c-5.43-6.44-6.16-11.92-6.69-15.92c-0.41-3.08-0.63-4.78-3.01-7.6
				c-2.37-2.81-4.01-3.32-6.98-4.24c-3.85-1.19-9.13-2.83-14.56-9.26c-5.43-6.44-6.16-11.92-6.69-15.91
				c-0.41-3.08-0.63-4.78-3.01-7.59c-1.74-2.06-2.34-4.84-1.6-7.44c0.74-2.59,2.71-4.65,5.27-5.48l69.67-22.79
				c3.13-1.03,6.57-0.05,8.71,2.47l26.99,31.98c2.13,2.52,2.51,6.08,0.98,9l-34.17,64.85c-1.26,2.38-3.61,3.99-6.29,4.28
				C71.17,317.25,70.88,317.27,70.59,317.27z M19.8,239.82c0.67,2.25,0.94,4.26,1.17,6c0.41,3.08,0.63,4.78,3.01,7.59
				c2.37,2.81,4.01,3.32,6.97,4.24c3.85,1.19,9.13,2.83,14.56,9.26c5.44,6.44,6.16,11.92,6.69,15.92c0.41,3.08,0.63,4.78,3.01,7.6
				c2.38,2.82,4.01,3.33,6.98,4.25c1.67,0.52,3.61,1.12,5.72,2.16l27.12-51.47L75.1,221.73L19.8,239.82z"/>
		</g>
	</g>
</g>
</svg>
