<?xml version="1.0" encoding="utf-8"?>
<!-- Generator: Adobe Illustrator 23.0.5, SVG Export Plug-In . SVG Version: 6.00 Build 0)  -->
<svg version="1.1" id="Capa_1" xmlns="http://www.w3.org/2000/svg" xmlns:xlink="http://www.w3.org/1999/xlink" x="0px" y="0px"
	 viewBox="0 0 335.48 335.48" style="enable-background:new 0 0 335.48 335.48;" xml:space="preserve">
<style type="text/css">
	.st0{fill:#230131;}
	.st1{fill:#FFFFFF;}
	.st2{fill:url(#SVGID_1_);}
	.st3{fill:url(#SVGID_2_);}
	.st4{fill:url(#SVGID_3_);}
	.st5{fill:url(#SVGID_4_);}
	.st6{fill:url(#SVGID_5_);}
	.st7{fill:url(#SVGID_6_);}
	.st8{fill:url(#SVGID_7_);}
	.st9{fill:url(#SVGID_8_);}
	.st10{fill:url(#SVGID_9_);}
	.st11{fill:url(#SVGID_10_);}
	.st12{fill:#350030;}
	.st13{fill:url(#SVGID_11_);}
	.st14{fill:url(#SVGID_12_);}
	.st15{fill:url(#SVGID_13_);}
	.st16{fill:url(#SVGID_14_);}
	.st17{fill:url(#SVGID_15_);}
	.st18{fill:url(#SVGID_16_);}
	.st19{fill:url(#SVGID_17_);}
	.st20{fill:url(#SVGID_18_);}
	.st21{fill:url(#SVGID_19_);}
	.st22{fill:url(#SVGID_20_);}
	.st23{fill:#FDCC68;}
	.st24{fill:#935EA3;}
	.st25{fill:#8CC15C;}
	.st26{fill:#C24131;}
	.st27{fill:#1D1D1B;}
	.st28{fill:#BE1622;}
	.st29{fill:#CB88A1;}
	.st30{fill:#E9C064;}
	.st31{fill:url(#SVGID_21_);}
	.st32{clip-path:url(#SVGID_23_);fill:url(#SVGID_24_);}
	.st33{clip-path:url(#SVGID_23_);fill:url(#SVGID_25_);}
	.st34{clip-path:url(#SVGID_23_);}
	.st35{fill:url(#SVGID_26_);}
	.st36{fill:url(#SVGID_27_);}
	.st37{fill:url(#SVGID_28_);}
	.st38{fill:url(#SVGID_29_);}
	.st39{fill:url(#SVGID_30_);}
	.st40{fill:url(#SVGID_31_);}
	.st41{fill:url(#SVGID_32_);}
	.st42{fill:url(#SVGID_33_);}
	.st43{fill:url(#SVGID_34_);}
	.st44{fill:url(#SVGID_35_);}
	.st45{fill:url(#SVGID_36_);}
	.st46{fill:url(#SVGID_37_);}
	.st47{fill:url(#SVGID_38_);}
	.st48{fill:url(#SVGID_39_);}
	.st49{clip-path:url(#SVGID_41_);}
	.st50{clip-path:url(#SVGID_43_);fill:url(#SVGID_44_);}
	.st51{clip-path:url(#SVGID_43_);fill:url(#SVGID_45_);}
	.st52{clip-path:url(#SVGID_43_);}
	.st53{fill:url(#SVGID_46_);}
	.st54{fill:url(#SVGID_47_);}
	.st55{fill:url(#SVGID_48_);}
	.st56{fill:url(#SVGID_49_);}
	.st57{fill:url(#SVGID_50_);}
	.st58{fill:url(#SVGID_51_);}
	.st59{fill:url(#SVGID_52_);}
	.st60{fill:url(#SVGID_53_);}
	.st61{fill:url(#SVGID_54_);}
	.st62{fill:url(#SVGID_55_);}
	.st63{fill:url(#SVGID_56_);}
	.st64{fill:url(#SVGID_57_);}
	.st65{fill:url(#SVGID_58_);}
	.st66{fill:url(#SVGID_59_);}
	.st67{clip-path:url(#SVGID_61_);}
	.st68{fill:none;}
	.st69{fill:none;stroke:#FFFFFF;stroke-width:2;stroke-miterlimit:10;}
	.st70{fill:#E9B6A3;}
	.st71{opacity:0.9;fill:#230131;}
	.st72{fill:url(#SVGID_62_);}
	.st73{opacity:0.5;}
	.st74{fill:#EDCD83;}
	.st75{opacity:0.63;fill:url(#SVGID_63_);}
	.st76{opacity:0;fill:url(#SVGID_64_);}
	.st77{fill:url(#SVGID_65_);}
	.st78{fill:url(#SVGID_66_);}
	.st79{fill:url(#SVGID_67_);}
	.st80{fill:url(#SVGID_68_);}
	.st81{fill:url(#SVGID_69_);}
	.st82{fill:url(#SVGID_70_);}
	.st83{fill:url(#SVGID_71_);}
	.st84{fill:url(#SVGID_72_);}
	.st85{fill:url(#SVGID_73_);}
	.st86{fill:url(#SVGID_74_);}
	.st87{fill:url(#SVGID_75_);}
	.st88{fill:url(#SVGID_76_);}
	.st89{fill:url(#SVGID_77_);}
	.st90{opacity:0.24;fill:url(#SVGID_78_);}
	.st91{fill:url(#SVGID_79_);}
	.st92{fill:url(#SVGID_80_);}
	.st93{fill:url(#SVGID_81_);}
	.st94{opacity:0.24;fill:url(#SVGID_82_);}
	.st95{fill:url(#SVGID_83_);}
	.st96{fill:url(#SVGID_84_);}
	.st97{fill:url(#SVGID_85_);}
	.st98{opacity:0.24;fill:url(#SVGID_86_);}
	.st99{opacity:0.22;fill:url(#SVGID_87_);}
	.st100{fill:url(#SVGID_88_);}
	.st101{fill:url(#SVGID_89_);}
	.st102{fill:#E9C064;stroke:#FFFFFF;stroke-width:20;stroke-miterlimit:10;}
	.st103{fill:url(#SVGID_90_);}
	.st104{fill:url(#SVGID_91_);}
	.st105{fill:url(#SVGID_92_);}
	.st106{clip-path:url(#SVGID_94_);}
	.st107{fill:#BF1A1B;}
	.st108{fill:#FFEC00;}
	.st109{opacity:0.24;fill:url(#SVGID_95_);}
	.st110{opacity:0.24;fill:url(#SVGID_96_);}
	.st111{fill:url(#SVGID_97_);}
	.st112{opacity:0.63;fill:url(#SVGID_98_);}
	.st113{opacity:0;fill:url(#SVGID_99_);}
	.st114{fill:url(#SVGID_100_);}
	.st115{fill:url(#SVGID_101_);}
	.st116{fill:url(#SVGID_102_);}
	.st117{fill:url(#SVGID_103_);}
	.st118{fill:url(#SVGID_104_);}
	.st119{fill:url(#SVGID_105_);}
	.st120{fill:url(#SVGID_106_);}
	.st121{fill:url(#SVGID_107_);}
	.st122{fill:url(#SVGID_108_);}
	.st123{fill:url(#SVGID_109_);}
	.st124{fill:url(#SVGID_110_);}
	.st125{fill:url(#SVGID_111_);}
	.st126{fill:url(#SVGID_112_);}
	.st127{opacity:0.24;fill:url(#SVGID_113_);}
	.st128{fill:url(#SVGID_114_);}
	.st129{fill:url(#SVGID_115_);}
	.st130{fill:url(#SVGID_116_);}
	.st131{opacity:0.24;fill:url(#SVGID_117_);}
	.st132{fill:url(#SVGID_118_);}
	.st133{fill:url(#SVGID_119_);}
	.st134{fill:url(#SVGID_120_);}
	.st135{opacity:0.24;fill:url(#SVGID_121_);}
	.st136{opacity:0.22;fill:url(#SVGID_122_);}
	.st137{fill:url(#SVGID_123_);}
	.st138{fill:url(#SVGID_124_);}
	.st139{fill:url(#SVGID_125_);}
	.st140{fill:url(#SVGID_126_);}
	.st141{fill:url(#SVGID_127_);}
	.st142{clip-path:url(#SVGID_129_);}
	.st143{clip-path:url(#SVGID_131_);}
</style>
<g>
	<polygon class="st107" points="167.74,14.89 194.31,0 214.97,22.37 244.84,16.42 257.58,44.08 287.83,47.65 291.39,77.9 
		319.06,90.64 313.11,120.51 335.48,141.17 320.59,167.74 335.48,194.31 313.11,214.97 319.06,244.84 291.39,257.58 287.83,287.83 
		257.58,291.39 244.84,319.06 214.97,313.11 194.31,335.48 167.74,320.59 141.17,335.48 120.51,313.11 90.64,319.06 77.9,291.39 
		47.65,287.83 44.08,257.58 16.42,244.84 22.37,214.97 0,194.31 14.89,167.74 0,141.17 22.37,120.51 16.42,90.64 44.08,77.9 
		47.65,47.65 77.9,44.08 90.64,16.42 120.51,22.37 141.17,0 	"/>
	<g>
		<path class="st108" d="M51.23,207.47c-0.66,1.62-1.8,2.76-3.41,3.44c-1.61,0.68-3.23,0.68-4.84,0.02
			c-1.62-0.66-2.76-1.8-3.44-3.41c-0.68-1.61-0.68-3.23-0.02-4.84c0.66-1.62,1.8-2.76,3.41-3.44c1.61-0.68,3.23-0.68,4.84-0.02
			c1.62,0.66,2.76,1.8,3.44,3.41C51.89,204.24,51.89,205.86,51.23,207.47z M53.63,240.52c-0.3-0.71-0.67-1.87-1.12-3.46l-4.78-17.57
			c-0.28-1.06-0.24-1.88,0.1-2.47c0.34-0.59,0.98-1.08,1.93-1.48c0.95-0.4,1.75-0.51,2.41-0.34c0.66,0.17,1.27,0.72,1.83,1.66
			l9.19,15.72c0.83,1.44,1.39,2.51,1.69,3.22l3.46,8.25c1.53,3.65,0.42,6.26-3.32,7.84c-3.75,1.57-6.39,0.53-7.92-3.12L53.63,240.52
			z"/>
		<path class="st108" d="M54.84,185.55c-1.01-2.42-1.15-4.41-0.41-5.98s2.36-2.87,4.88-3.93c2.66-1.11,5.03-0.91,7.12,0.61
			l34.23,24.38l0.14-0.06L88.06,170.2c-1.57-3.75-0.48-6.41,3.26-7.98c3.75-1.57,6.41-0.48,7.98,3.26l16.86,40.2
			c0.99,2.37,1.2,4.4,0.63,6.09c-0.57,1.69-2.07,3.04-4.49,4.06c-1.8,0.76-3.22,1.1-4.25,1.03c-1.03-0.07-2.19-0.56-3.46-1.48
			l-33.7-23.51l-0.14,0.06l12.38,29.53c1.57,3.75,0.48,6.41-3.26,7.98s-6.41,0.48-7.98-3.26L54.84,185.55z"/>
		<path class="st108" d="M160.13,189.67c0.68,1.61,0.82,3.04,0.42,4.3c-0.39,1.25-1.38,2.21-2.94,2.86s-2.93,0.69-4.1,0.09
			c-1.17-0.6-2.09-1.7-2.77-3.31l-0.57-1.35l-0.14,0.06c-0.69,2.74-1.82,5.11-3.38,7.11c-1.56,1.99-3.72,3.57-6.47,4.72
			c-1.66,0.7-3.36,1.14-5.09,1.34c-1.73,0.2-3.45,0.02-5.15-0.52c-1.71-0.54-3.3-1.55-4.78-3.02c-1.48-1.47-2.75-3.46-3.8-5.98
			l-8.47-20.21c-0.66-1.57-0.79-2.99-0.41-4.26c0.39-1.28,1.53-2.31,3.42-3.11c1.9-0.79,3.44-0.88,4.62-0.26
			c1.18,0.62,2.1,1.71,2.75,3.28l7.61,18.14c0.92,2.18,2.19,3.7,3.83,4.54c1.64,0.85,3.55,0.81,5.73-0.1
			c1.99-0.84,3.49-2.34,4.5-4.52c1.01-2.18,1-4.5-0.04-6.97l-7.19-17.15c-0.66-1.57-0.79-2.99-0.41-4.26
			c0.38-1.28,1.53-2.31,3.42-3.11c1.9-0.8,3.44-0.88,4.62-0.26c1.18,0.62,2.1,1.71,2.75,3.28L160.13,189.67z"/>
		<path class="st108" d="M170.59,170.72c1.17,2.8,2.98,4.72,5.42,5.76c2.44,1.04,5.16,0.93,8.15-0.32c1.99-0.83,3.43-1.76,4.32-2.77
			c0.89-1.01,1.69-2.25,2.41-3.73c0.43-0.96,0.86-1.73,1.29-2.3c0.43-0.57,1.05-1.02,1.85-1.36c1.18-0.5,2.37-0.49,3.56,0.01
			c1.19,0.51,1.99,1.26,2.41,2.25c0.62,1.47,0.65,3.01,0.09,4.6c-0.56,1.6-1.51,3.14-2.87,4.63s-2.89,2.82-4.6,3.98
			c-1.71,1.17-3.4,2.1-5.06,2.79c-3.46,1.45-6.7,2.18-9.71,2.19c-3.01,0.01-5.7-0.55-8.07-1.68c-2.37-1.13-4.4-2.64-6.09-4.56
			c-1.69-1.91-3.04-4.05-4.03-6.42c-2.57-6.12-2.86-11.75-0.9-16.9s5.99-8.99,12.06-11.54c2.89-1.21,5.71-1.85,8.44-1.91
			s5.26,0.39,7.59,1.34c2.32,0.95,4.32,2.26,6,3.93c1.67,1.67,2.97,3.59,3.88,5.77c0.74,1.75,0.91,3.08,0.53,3.96
			c-0.38,0.88-1.45,1.7-3.21,2.43L170.59,170.72z M186.3,157.11c-1.3-2.3-3.09-3.88-5.37-4.73c-2.28-0.85-4.56-0.8-6.84,0.15
			c-2.51,1.05-4.28,2.64-5.28,4.77c-1.01,2.12-1.25,4.61-0.72,7.46L186.3,157.11z"/>
		<path class="st108" d="M195.26,144.57c-0.41-0.44-0.77-0.88-1.09-1.3c-0.32-0.42-0.54-0.78-0.66-1.06
			c-0.74-1.75-0.8-3.3-0.19-4.65s1.6-2.3,2.98-2.88c0.9-0.38,1.75-0.54,2.56-0.49c0.8,0.05,1.49,0.23,2.06,0.52
			c0.57,0.29,1.05,0.64,1.44,1.03s0.71,0.76,0.96,1.1l16.82,20.56l0.14-0.06l-2.87-26.4c-0.06-0.42-0.1-0.89-0.09-1.43
			c0-0.53,0.1-1.12,0.31-1.76c0.2-0.64,0.56-1.26,1.06-1.87c0.5-0.6,1.2-1.09,2.1-1.47c1.38-0.58,2.75-0.61,4.14-0.11
			c1.38,0.51,2.44,1.64,3.18,3.39c0.12,0.28,0.22,0.69,0.3,1.21c0.08,0.52,0.13,1.09,0.16,1.69l1.64,31.44
			c0.11,1.74-0.12,3.01-0.7,3.81c-0.58,0.8-2.11,1.72-4.58,2.75c-2.47,1.03-4.19,1.48-5.17,1.33c-0.98-0.15-2.05-0.87-3.21-2.17
			L195.26,144.57z"/>
		<path class="st108" d="M233.65,132.87c-0.15-2.7,0.21-5.26,1.08-7.69c1.89-5.2,5.87-9.07,11.94-11.62
			c6.07-2.55,11.62-2.67,16.66-0.38c2.35,1.08,4.43,2.62,6.24,4.62c1.81,2,3.31,4.4,4.48,7.2c1.13,2.7,1.84,5.38,2.11,8.02
			c0.27,2.65,0.04,5.17-0.71,7.58c-0.75,2.4-2.15,4.65-4.2,6.74s-4.79,3.85-8.2,5.28s-6.57,2.15-9.46,2.17
			c-2.89,0.02-5.48-0.56-7.75-1.73c-2.27-1.17-4.26-2.77-5.96-4.82c-1.7-2.05-3.11-4.43-4.24-7.13
			C234.47,138.31,233.8,135.56,233.65,132.87z M251.8,144.33c2.41,1.64,5.09,1.84,8.03,0.61c2.94-1.23,4.67-3.28,5.2-6.15
			c0.53-2.87,0.07-6.01-1.36-9.43c-1.49-3.56-3.44-6.1-5.84-7.63c-2.4-1.53-5.05-1.69-7.94-0.48c-2.89,1.21-4.63,3.21-5.22,6
			c-0.59,2.79-0.14,5.96,1.35,9.51C247.46,140.17,249.38,142.69,251.8,144.33z"/>
		<path class="st108" d="M283.77,97.67c0.3,0.71,0.67,1.87,1.12,3.46l4.78,17.57c0.28,1.06,0.24,1.88-0.1,2.47s-0.98,1.08-1.93,1.48
			c-0.95,0.4-1.75,0.51-2.41,0.34c-0.66-0.17-1.27-0.72-1.83-1.66l-9.19-15.72c-0.83-1.44-1.39-2.51-1.69-3.22l-3.46-8.25
			c-1.53-3.65-0.42-6.26,3.32-7.84c3.75-1.57,6.39-0.53,7.92,3.12L283.77,97.67z M286.16,130.71c0.66-1.62,1.8-2.76,3.41-3.44
			c1.61-0.68,3.23-0.68,4.84-0.02c1.62,0.66,2.76,1.8,3.44,3.41c0.68,1.61,0.68,3.23,0.02,4.84s-1.8,2.76-3.41,3.44
			c-1.61,0.68-3.23,0.68-4.84,0.02c-1.62-0.66-2.76-1.8-3.44-3.41C285.51,133.95,285.5,132.33,286.16,130.71z"/>
	</g>
</g>
</svg>
