<?xml version="1.0" encoding="utf-8"?>
<!-- Generator: Adobe Illustrator 23.0.5, SVG Export Plug-In . SVG Version: 6.00 Build 0)  -->
<svg version="1.1" id="Capa_1" xmlns="http://www.w3.org/2000/svg" xmlns:xlink="http://www.w3.org/1999/xlink" x="0px" y="0px"
	 viewBox="0 0 367.88 352.84" style="enable-background:new 0 0 367.88 352.84;" xml:space="preserve">
<style type="text/css">
	.st0{fill:#230131;}
	.st1{fill:#FFFFFF;}
	.st2{fill:url(#SVGID_1_);}
	.st3{fill:url(#SVGID_2_);}
	.st4{fill:url(#SVGID_3_);}
	.st5{fill:url(#SVGID_4_);}
	.st6{fill:url(#SVGID_5_);}
	.st7{fill:url(#SVGID_6_);}
	.st8{fill:url(#SVGID_7_);}
	.st9{fill:url(#SVGID_8_);}
	.st10{fill:url(#SVGID_9_);}
	.st11{fill:url(#SVGID_10_);}
	.st12{fill:#350030;}
	.st13{fill:url(#SVGID_11_);}
	.st14{fill:url(#SVGID_12_);}
	.st15{fill:url(#SVGID_13_);}
	.st16{fill:url(#SVGID_14_);}
	.st17{fill:url(#SVGID_15_);}
	.st18{fill:url(#SVGID_16_);}
	.st19{fill:url(#SVGID_17_);}
	.st20{fill:url(#SVGID_18_);}
	.st21{fill:url(#SVGID_19_);}
	.st22{fill:url(#SVGID_20_);}
	.st23{fill:#FDCC68;}
	.st24{fill:#935EA3;}
	.st25{fill:#8CC15C;}
	.st26{fill:#C24131;}
	.st27{fill:#1D1D1B;}
	.st28{fill:#BE1622;}
	.st29{fill:#CB88A1;}
	.st30{fill:#E9C064;}
	.st31{fill:url(#SVGID_21_);}
	.st32{clip-path:url(#SVGID_23_);fill:url(#SVGID_24_);}
	.st33{clip-path:url(#SVGID_23_);fill:url(#SVGID_25_);}
	.st34{clip-path:url(#SVGID_23_);}
	.st35{fill:url(#SVGID_26_);}
	.st36{fill:url(#SVGID_27_);}
	.st37{fill:url(#SVGID_28_);}
	.st38{fill:url(#SVGID_29_);}
	.st39{fill:url(#SVGID_30_);}
	.st40{fill:url(#SVGID_31_);}
	.st41{fill:url(#SVGID_32_);}
	.st42{fill:url(#SVGID_33_);}
	.st43{fill:url(#SVGID_34_);}
	.st44{fill:url(#SVGID_35_);}
	.st45{fill:url(#SVGID_36_);}
	.st46{fill:url(#SVGID_37_);}
	.st47{fill:url(#SVGID_38_);}
	.st48{fill:url(#SVGID_39_);}
	.st49{clip-path:url(#SVGID_41_);}
	.st50{clip-path:url(#SVGID_43_);fill:url(#SVGID_44_);}
	.st51{clip-path:url(#SVGID_43_);fill:url(#SVGID_45_);}
	.st52{clip-path:url(#SVGID_43_);}
	.st53{fill:url(#SVGID_46_);}
	.st54{fill:url(#SVGID_47_);}
	.st55{fill:url(#SVGID_48_);}
	.st56{fill:url(#SVGID_49_);}
	.st57{fill:url(#SVGID_50_);}
	.st58{fill:url(#SVGID_51_);}
	.st59{fill:url(#SVGID_52_);}
	.st60{fill:url(#SVGID_53_);}
	.st61{fill:url(#SVGID_54_);}
	.st62{fill:url(#SVGID_55_);}
	.st63{fill:url(#SVGID_56_);}
	.st64{fill:url(#SVGID_57_);}
	.st65{fill:url(#SVGID_58_);}
	.st66{fill:url(#SVGID_59_);}
	.st67{clip-path:url(#SVGID_61_);}
	.st68{fill:none;}
	.st69{fill:none;stroke:#FFFFFF;stroke-width:2;stroke-miterlimit:10;}
	.st70{fill:#E9B6A3;}
	.st71{opacity:0.9;fill:#230131;}
	.st72{fill:url(#SVGID_62_);}
	.st73{opacity:0.5;}
	.st74{fill:#EDCD83;}
	.st75{opacity:0.63;fill:url(#SVGID_63_);}
	.st76{opacity:0;fill:url(#SVGID_64_);}
	.st77{fill:url(#SVGID_65_);}
	.st78{fill:url(#SVGID_66_);}
	.st79{fill:url(#SVGID_67_);}
	.st80{fill:url(#SVGID_68_);}
	.st81{fill:url(#SVGID_69_);}
	.st82{fill:url(#SVGID_70_);}
	.st83{fill:url(#SVGID_71_);}
	.st84{fill:url(#SVGID_72_);}
	.st85{fill:url(#SVGID_73_);}
	.st86{fill:url(#SVGID_74_);}
	.st87{fill:url(#SVGID_75_);}
	.st88{fill:url(#SVGID_76_);}
	.st89{fill:url(#SVGID_77_);}
	.st90{opacity:0.24;fill:url(#SVGID_78_);}
	.st91{fill:url(#SVGID_79_);}
	.st92{fill:url(#SVGID_80_);}
	.st93{fill:url(#SVGID_81_);}
	.st94{opacity:0.24;fill:url(#SVGID_82_);}
	.st95{fill:url(#SVGID_83_);}
	.st96{fill:url(#SVGID_84_);}
	.st97{fill:url(#SVGID_85_);}
	.st98{opacity:0.24;fill:url(#SVGID_86_);}
	.st99{opacity:0.22;fill:url(#SVGID_87_);}
	.st100{fill:url(#SVGID_88_);}
	.st101{fill:url(#SVGID_89_);}
	.st102{fill:#E9C064;stroke:#FFFFFF;stroke-width:20;stroke-miterlimit:10;}
	.st103{fill:url(#SVGID_90_);}
	.st104{fill:url(#SVGID_91_);}
	.st105{fill:url(#SVGID_92_);}
	.st106{clip-path:url(#SVGID_94_);}
	.st107{fill:#BF1A1B;}
	.st108{fill:#FFEC00;}
	.st109{opacity:0.24;fill:url(#SVGID_95_);}
	.st110{opacity:0.24;fill:url(#SVGID_96_);}
	.st111{fill:url(#SVGID_97_);}
	.st112{opacity:0.63;fill:url(#SVGID_98_);}
	.st113{opacity:0;fill:url(#SVGID_99_);}
	.st114{fill:url(#SVGID_100_);}
	.st115{fill:url(#SVGID_101_);}
	.st116{fill:url(#SVGID_102_);}
	.st117{fill:url(#SVGID_103_);}
	.st118{fill:url(#SVGID_104_);}
	.st119{fill:url(#SVGID_105_);}
	.st120{fill:url(#SVGID_106_);}
	.st121{fill:url(#SVGID_107_);}
	.st122{fill:url(#SVGID_108_);}
	.st123{fill:url(#SVGID_109_);}
	.st124{fill:url(#SVGID_110_);}
	.st125{fill:url(#SVGID_111_);}
	.st126{fill:url(#SVGID_112_);}
	.st127{opacity:0.24;fill:url(#SVGID_113_);}
	.st128{fill:url(#SVGID_114_);}
	.st129{fill:url(#SVGID_115_);}
	.st130{fill:url(#SVGID_116_);}
	.st131{opacity:0.24;fill:url(#SVGID_117_);}
	.st132{fill:url(#SVGID_118_);}
	.st133{fill:url(#SVGID_119_);}
	.st134{fill:url(#SVGID_120_);}
	.st135{opacity:0.24;fill:url(#SVGID_121_);}
	.st136{opacity:0.22;fill:url(#SVGID_122_);}
	.st137{fill:url(#SVGID_123_);}
	.st138{fill:url(#SVGID_124_);}
	.st139{fill:url(#SVGID_125_);}
	.st140{fill:url(#SVGID_126_);}
	.st141{fill:url(#SVGID_127_);}
	.st142{clip-path:url(#SVGID_129_);}
	.st143{clip-path:url(#SVGID_131_);}
</style>
<g>
	<g>
		<circle class="st26" cx="183.94" cy="176.42" r="140.53"/>
	</g>
	<g>
		<g>
			<path class="st1" d="M133.65,62.95L133.65,62.95c-3.83,1.14-6.02,5.17-4.88,9l25.32,85.34c1.14,3.83,5.17,6.02,9,4.88l0,0
				c3.83-1.14,6.02-5.17,4.88-9l-25.32-85.34C141.51,64,137.48,61.81,133.65,62.95z"/>
			<path class="st27" d="M161.02,166.89c-1.91,0-3.81-0.48-5.54-1.41c-2.73-1.48-4.73-3.94-5.61-6.92l-25.32-85.34
				c-0.88-2.98-0.55-6.13,0.93-8.86c1.48-2.73,3.94-4.73,6.92-5.61c2.98-0.89,6.13-0.56,8.86,0.93c2.73,1.48,4.73,3.94,5.61,6.92
				l25.32,85.34c1.83,6.16-1.7,12.65-7.85,14.48C163.25,166.72,162.13,166.89,161.02,166.89z M135.71,67.06
				c-0.27,0-0.54,0.04-0.81,0.12l0,0c-0.73,0.22-1.32,0.7-1.68,1.37c-0.36,0.67-0.44,1.43-0.23,2.16l25.32,85.34
				c0.22,0.73,0.7,1.32,1.37,1.68c0.67,0.36,1.43,0.44,2.16,0.23c1.5-0.44,2.36-2.03,1.91-3.53l-25.32-85.34
				c-0.22-0.73-0.7-1.32-1.37-1.69C136.64,67.17,136.18,67.06,135.71,67.06z"/>
		</g>
		<g>
			<path class="st26" d="M236.15,179.95c12.7,42.78-9.19,77.06-45.53,87.85s-73.38-6.01-86.08-48.79
				c-12.7-42.78,15.64-55.31,51.99-66.09C192.87,142.12,223.45,137.16,236.15,179.95z"/>
			<path class="st27" d="M169.03,275.44c-31.73,0-58.43-20.55-68.71-55.19c-6.33-21.32-3.47-37.5,8.75-49.45
				c10.23-10.01,25.87-16.09,46.21-22.12c20.34-6.03,36.76-9.48,50.8-6.67c16.75,3.36,27.98,15.35,34.3,36.67l0,0
				c12.67,42.71-7.27,81.09-48.5,93.32C184.08,274.33,176.42,275.44,169.03,275.44z M195.41,149.97c-10.34,0-22.78,2.75-37.63,7.16
				c-40.85,12.12-59.64,24.82-49.02,60.62c11.2,37.74,44.35,56.58,80.6,45.82c36.26-10.76,53.76-44.63,42.56-82.37l0,0
				C225.17,158.42,213.52,149.97,195.41,149.97z"/>
		</g>
		<g>
			<path class="st27" d="M197.45,269.77c-1.27,0-2.54-0.55-3.41-1.61c-1.54-1.88-1.27-4.66,0.62-6.2
				c12.7-10.41,14.25-28.9,5.04-59.96c-8.36-28.17-22.95-46.41-32.23-47.78c-2.41-0.35-4.07-2.59-3.72-5c0.35-2.41,2.59-4.07,5-3.72
				c14.39,2.12,30.58,24.32,39.39,53.99c10.37,34.94,7.93,56.31-7.9,69.28C199.42,269.44,198.43,269.77,197.45,269.77z"/>
		</g>
		<g>
			<g>
				<path class="st1" d="M225.99,184.88c-8.06-27.16-24.73-31.34-45.57-27.85c8.97,8.73,17.82,24.59,23.49,43.71
					c5.89,19.85,7.7,35.34,4.62,47.14C225.76,234.28,233.91,211.56,225.99,184.88z"/>
				<path class="st27" d="M200.95,259.48l3.31-12.7c2.74-10.51,1.24-25.16-4.58-44.78c-5.24-17.66-13.59-33.29-22.35-41.8
					l-6.23-6.06l8.57-1.44c16.9-2.83,40.54-2.71,50.52,30.94l0,0c7.94,26.76,0.86,52.08-18.95,67.71L200.95,259.48z M189.31,160.47
					c7.57,9.82,14.24,23.56,18.82,39.02c4.3,14.49,6.37,26.35,6.29,36.31c10.27-13.16,12.98-30.67,7.34-49.66l0,0
					C216.24,167.52,206.56,159.69,189.31,160.47z"/>
			</g>
		</g>
		<g>
			<path class="st27" d="M130.47,178.26c0.76,2.55-0.7,5.23-3.25,5.98c-2.55,0.76-5.23-0.7-5.98-3.25s0.7-5.23,3.25-5.98
				C127.03,174.26,129.71,175.72,130.47,178.26z"/>
		</g>
		<g>
			<path class="st27" d="M123.35,198.69c0.76,2.55-0.7,5.23-3.25,5.98s-5.23-0.7-5.98-3.25c-0.76-2.55,0.7-5.23,3.25-5.98
				C119.92,194.69,122.6,196.14,123.35,198.69z"/>
		</g>
		<g>
			<path class="st27" d="M143.96,202.62c0.76,2.55-0.7,5.23-3.25,5.98c-2.55,0.76-5.23-0.7-5.98-3.25c-0.76-2.55,0.7-5.23,3.25-5.98
				S143.2,200.07,143.96,202.62z"/>
		</g>
		<g>
			<path class="st27" d="M171.22,224.64c0.76,2.55-0.7,5.23-3.25,5.98c-2.55,0.76-5.23-0.7-5.98-3.25c-0.76-2.55,0.7-5.23,3.25-5.98
				C167.79,220.64,170.47,222.1,171.22,224.64z"/>
		</g>
		<g>
			<path class="st27" d="M127.62,220.94c0.76,2.55-0.7,5.23-3.25,5.98c-2.55,0.76-5.23-0.7-5.98-3.25c-0.76-2.55,0.7-5.23,3.25-5.98
				S126.87,218.39,127.62,220.94z"/>
		</g>
		<g>
			<path class="st27" d="M149.23,224.57c0.76,2.55-0.7,5.23-3.25,5.98s-5.23-0.7-5.98-3.25c-0.76-2.55,0.7-5.23,3.25-5.98
				C145.79,220.57,148.47,222.02,149.23,224.57z"/>
		</g>
		<g>
			<g>
				<path class="st26" d="M285.37,220.38l-111,27.04c5.93,24.35,35.59,38.04,66.24,30.58C271.26,270.53,291.3,244.73,285.37,220.38z
					"/>
				<path class="st27" d="M223.8,284.45c-9.7,0-19.08-1.96-27.43-5.81c-13.76-6.35-23.09-17.07-26.28-30.18l-1.04-4.28l119.57-29.12
					l1.04,4.28c3.19,13.11-0.17,26.92-9.46,38.89c-9.06,11.66-22.75,20.21-38.54,24.05C235.69,283.73,229.68,284.45,223.8,284.45z
					 M179.98,250.58c3.37,8.55,10.37,15.57,20.08,20.06c11.61,5.36,25.64,6.45,39.5,3.08c13.86-3.38,25.82-10.8,33.67-20.9
					c6.56-8.45,9.54-17.9,8.61-27.04L179.98,250.58z"/>
			</g>
			<g>
				<path class="st1" d="M274.07,223.13l-88.4,21.53c4.39,18.01,27.73,27.78,52.14,21.84C262.22,260.56,278.45,241.14,274.07,223.13
					z"/>
				<path class="st27" d="M223.51,272.65c-7.44,0-14.6-1.35-20.98-4.03c-11.17-4.68-18.68-12.82-21.14-22.92l-1.04-4.28l96.96-23.62
					l1.04,4.28c2.46,10.1-0.46,20.78-8.23,30.08c-7.45,8.91-18.55,15.52-31.27,18.62C233.71,272.03,228.55,272.65,223.51,272.65z
					 M191.45,247.79c2.63,5.42,7.64,9.85,14.48,12.71c8.99,3.76,19.94,4.37,30.84,1.72c10.9-2.65,20.34-8.23,26.59-15.71
					c4.76-5.69,7.17-11.93,7.01-17.95L191.45,247.79z"/>
			</g>
			<g>
				<path class="st28" d="M232.56,244.95c-5.93,1.44-11.33,0.14-12.07-2.91c-0.74-3.05,3.46-6.69,9.38-8.14
					c5.93-1.44,11.33-0.14,12.07,2.91C242.68,239.86,238.48,243.51,232.56,244.95z"/>
				<path class="st27" d="M227.84,249.94c-1.52,0-2.97-0.16-4.3-0.48c-3.91-0.94-6.58-3.27-7.34-6.38
					c-1.38-5.68,3.92-11.34,12.62-13.46c3.53-0.86,7.11-0.94,10.06-0.23c3.91,0.94,6.58,3.27,7.34,6.38
					c0.76,3.11-0.55,6.41-3.58,9.04c-2.29,1.99-5.5,3.56-9.04,4.42C231.66,249.7,229.7,249.94,227.84,249.94z M225.4,240.84
					c1.16,0.32,3.28,0.52,6.12-0.17c2.83-0.69,4.63-1.85,5.51-2.66c-1.15-0.32-3.28-0.52-6.12,0.17
					C228.07,238.87,226.28,240.03,225.4,240.84z"/>
			</g>
		</g>
	</g>
</g>
</svg>
