<?xml version="1.0" encoding="utf-8"?>
<!-- Generator: Adobe Illustrator 23.0.5, SVG Export Plug-In . SVG Version: 6.00 Build 0)  -->
<svg version="1.1" id="Capa_1" xmlns="http://www.w3.org/2000/svg" xmlns:xlink="http://www.w3.org/1999/xlink" x="0px" y="0px"
	 viewBox="0 0 345.44 345.44" style="enable-background:new 0 0 345.44 345.44;" xml:space="preserve">
<style type="text/css">
	.st0{fill:url(#SVGID_1_);}
	.st1{fill:url(#SVGID_2_);}
	.st2{fill:#FFFFFF;}
	.st3{fill:none;stroke:#000000;stroke-width:7;stroke-miterlimit:10;}
	.st4{fill:url(#SVGID_3_);}
	.st5{fill:url(#SVGID_4_);}
	.st6{fill:url(#SVGID_5_);}
	.st7{fill:url(#SVGID_6_);}
	.st8{fill:url(#SVGID_7_);}
	.st9{fill:url(#SVGID_8_);}
	.st10{fill:url(#SVGID_9_);}
	.st11{fill:url(#SVGID_10_);}
	.st12{fill:url(#SVGID_11_);}
	.st13{fill:url(#SVGID_12_);}
	.st14{fill:none;}
	.st15{fill:#575756;}
	.st16{fill:#57061A;}
	.st17{fill:#D4722B;}
	.st18{fill:#E8366B;}
	.st19{fill:#F18620;}
	.st20{fill:#75391C;}
	.st21{fill:#75BC6D;}
	.st22{fill:url(#SVGID_13_);}
	.st23{fill:#3C3C3B;}
	.st24{fill:#E0E371;}
	.st25{fill:#F9C8BC;}
	.st26{fill:#EA5543;}
	.st27{fill:#F9B233;}
	.st28{fill:#FCEA10;}
	.st29{clip-path:url(#SVGID_15_);fill:#E71D73;}
	.st30{fill:#350030;}
	.st31{fill:url(#SVGID_16_);}
	.st32{fill:url(#SVGID_17_);}
	.st33{fill:url(#SVGID_18_);}
	.st34{fill:url(#SVGID_19_);}
	.st35{fill:url(#SVGID_20_);}
	.st36{fill:url(#SVGID_21_);}
	.st37{fill:url(#SVGID_22_);}
	.st38{fill:url(#SVGID_23_);}
	.st39{fill:url(#SVGID_24_);}
	.st40{fill:url(#SVGID_25_);}
	.st41{fill:url(#SVGID_26_);}
	.st42{fill:url(#SVGID_27_);}
	.st43{fill:url(#SVGID_28_);}
	.st44{fill:url(#SVGID_29_);}
	.st45{fill:url(#SVGID_30_);}
	.st46{fill:url(#SVGID_31_);}
	.st47{fill:url(#SVGID_32_);}
	.st48{fill:url(#SVGID_33_);}
	.st49{fill:#230131;}
	.st50{fill:url(#SVGID_34_);}
	.st51{fill:url(#SVGID_35_);}
	.st52{fill:url(#SVGID_36_);}
	.st53{fill:url(#SVGID_37_);}
	.st54{fill:url(#SVGID_38_);}
	.st55{fill:url(#SVGID_39_);}
	.st56{fill:url(#SVGID_40_);}
	.st57{fill:url(#SVGID_41_);}
	.st58{fill:url(#SVGID_42_);}
	.st59{fill:url(#SVGID_43_);}
	.st60{fill:url(#SVGID_44_);}
	.st61{fill:url(#SVGID_45_);}
	.st62{fill:url(#SVGID_46_);}
	.st63{fill:url(#SVGID_47_);}
	.st64{fill:url(#SVGID_48_);}
	.st65{fill:url(#SVGID_49_);}
	.st66{fill:url(#SVGID_50_);}
	.st67{fill:url(#SVGID_51_);}
	.st68{fill:url(#SVGID_52_);}
	.st69{fill:url(#SVGID_53_);}
	.st70{fill:url(#SVGID_54_);}
	.st71{fill:url(#SVGID_55_);}
	.st72{fill:url(#SVGID_56_);}
	.st73{fill:url(#SVGID_57_);}
	.st74{fill:url(#SVGID_58_);}
	.st75{fill:url(#SVGID_59_);}
	.st76{fill:url(#SVGID_60_);}
	.st77{fill:url(#SVGID_61_);}
	.st78{fill:url(#SVGID_62_);}
	.st79{fill:url(#SVGID_63_);}
	.st80{fill:url(#SVGID_64_);}
	.st81{fill:url(#SVGID_65_);}
	.st82{fill:url(#SVGID_66_);}
	.st83{fill:url(#SVGID_67_);}
	.st84{fill:url(#SVGID_68_);}
	.st85{fill:url(#SVGID_69_);}
	.st86{fill:url(#SVGID_70_);}
	.st87{fill:url(#SVGID_71_);}
	.st88{fill:url(#SVGID_72_);}
	.st89{fill:url(#SVGID_73_);}
	.st90{fill:url(#SVGID_74_);}
	.st91{fill:url(#SVGID_75_);}
	.st92{fill:url(#SVGID_76_);}
	.st93{fill:url(#SVGID_77_);}
	.st94{fill:url(#SVGID_78_);}
	.st95{fill:url(#SVGID_79_);}
	.st96{fill:url(#SVGID_80_);}
	.st97{fill:url(#SVGID_81_);}
	.st98{fill:url(#SVGID_82_);}
	.st99{fill:url(#SVGID_83_);}
	.st100{fill:url(#SVGID_84_);}
	.st101{fill:url(#SVGID_85_);}
	.st102{fill:url(#SVGID_86_);}
	.st103{fill:url(#SVGID_87_);}
	.st104{fill:url(#SVGID_88_);}
	.st105{fill:url(#SVGID_89_);}
	.st106{fill:url(#SVGID_90_);}
	.st107{fill:url(#SVGID_91_);}
	.st108{fill:url(#SVGID_92_);}
	.st109{fill:url(#SVGID_93_);}
	.st110{fill:url(#SVGID_94_);}
	.st111{fill:url(#SVGID_95_);}
	.st112{fill:url(#SVGID_96_);}
	.st113{fill:url(#SVGID_97_);}
	.st114{fill:url(#SVGID_98_);}
	.st115{fill:url(#SVGID_99_);}
	.st116{fill:url(#SVGID_100_);}
	.st117{fill:url(#SVGID_101_);}
	.st118{fill:url(#SVGID_102_);}
	.st119{fill:url(#SVGID_103_);}
	.st120{fill:url(#SVGID_104_);}
	.st121{fill:url(#SVGID_105_);}
	.st122{fill:url(#SVGID_106_);}
	.st123{fill:url(#SVGID_107_);}
	.st124{fill:url(#SVGID_108_);}
	.st125{fill:url(#SVGID_109_);}
	.st126{fill:url(#SVGID_110_);}
	.st127{fill:url(#SVGID_111_);}
	.st128{fill:url(#SVGID_112_);}
	.st129{fill:url(#SVGID_113_);}
	.st130{fill:url(#SVGID_114_);}
	.st131{fill:url(#SVGID_115_);}
	.st132{fill:url(#SVGID_116_);}
	.st133{fill:url(#SVGID_117_);}
	.st134{fill:url(#SVGID_118_);}
	.st135{fill:url(#SVGID_119_);}
	.st136{fill:url(#SVGID_120_);}
	.st137{fill:url(#SVGID_121_);}
	.st138{fill:url(#SVGID_122_);}
	.st139{fill:url(#SVGID_123_);}
	.st140{fill:url(#SVGID_124_);}
	.st141{fill:url(#SVGID_125_);}
	.st142{fill:url(#SVGID_126_);}
	.st143{fill:url(#SVGID_127_);}
	.st144{clip-path:url(#SVGID_129_);}
	.st145{fill:#EEF1EE;}
	.st146{fill:#5CBDAF;}
	.st147{fill:#EEF0B9;}
	.st148{fill:#7ACBE2;}
	.st149{fill:#CC90BF;}
	.st150{fill:#F2BBD7;}
	.st151{fill:#6DA3D8;}
	.st152{fill:#FFFFFF;stroke:#FFFFFF;stroke-width:3;stroke-linecap:round;stroke-linejoin:round;stroke-miterlimit:10;}
	.st153{fill:url(#SVGID_130_);}
	.st154{fill:url(#SVGID_131_);}
	.st155{fill:url(#SVGID_132_);}
	.st156{fill:url(#SVGID_133_);}
	.st157{fill:url(#SVGID_134_);}
	.st158{fill:url(#SVGID_135_);}
	.st159{fill:url(#SVGID_136_);}
	.st160{fill:url(#SVGID_137_);}
	.st161{fill:#350030;stroke:#350030;stroke-width:3;stroke-linecap:round;stroke-linejoin:round;stroke-miterlimit:10;}
</style>
<g>
	<circle class="st49" cx="172.72" cy="172.72" r="167.33"/>
	<g>
		<linearGradient id="SVGID_1_" gradientUnits="userSpaceOnUse" x1="172.7199" y1="321.0747" x2="172.7199" y2="24.3647">
			<stop  offset="0" style="stop-color:#FBBA00"/>
			<stop  offset="0.5056" style="stop-color:#72BB6F"/>
			<stop  offset="1" style="stop-color:#1DBADF"/>
		</linearGradient>
		<path class="st0" d="M172.72,321.07c-81.8,0-148.35-66.55-148.35-148.35S90.92,24.36,172.72,24.36s148.35,66.55,148.35,148.36
			S254.52,321.07,172.72,321.07z M172.72,36.36c-75.19,0-136.36,61.17-136.36,136.36s61.17,136.36,136.36,136.36
			s136.36-61.17,136.36-136.36S247.91,36.36,172.72,36.36z"/>
	</g>
	<g>
		<path class="st2" d="M270.96,78.11c-22.72-16.25-49.82-19.09-87.76,8.02c-13.86,9.9-32.5,22.19-50.11,33.07
			c-31.59,19.5-52.93,14.98-70.29,9.16c-22.54-7.56-39-30.06-40.04-6.2c-0.86,19.91,8.79,55.38,48.42,47.93
			c60.18-11.31,77.76-30.26,114.66-58.28c22.11-13.73,43.64-22.53,60.16-10.41c36.85,27.02,43.92,85.6-1.43,147.32
			c-26.99,36.73-86.8,46.01-85.12,29.07c1.02-10.27,13.73-93.45,23.29-110.19c4.11-7.2,19.5-12.41,27.68-9.45
			c11.02,3.99,26.45,27.71-7.65,47.47c-8.37,4.85,17.05,33.86,27.32,24.61c10.24-9.23,17.38-21.45,18.24-42.45
			c0.65-15.77-5.06-30.06-18.8-42.32c-9.07-8.09-34.92-15.67-54.37-6.59c-6.19,2.89-11.55,6.57-16.18,10.81
			c0.02,0.01,0.04,0.02,0.05,0.03c-4.72,3.96-7.9,7.93-7.87,10.67c0.22,23.34-9.85,115.38-23.35,145.39
			c-5.24,11.65,160.76,16.77,186.45-118.77C324.79,131.47,290.95,92.4,270.96,78.11z"/>
		<linearGradient id="SVGID_2_" gradientUnits="userSpaceOnUse" x1="172.2883" y1="316.8224" x2="172.2883" y2="71.4251">
			<stop  offset="0" style="stop-color:#FBBA00"/>
			<stop  offset="0.5056" style="stop-color:#72BB6F"/>
			<stop  offset="1" style="stop-color:#1DBADF"/>
		</linearGradient>
		<path class="st1" d="M273.77,83.73c-22.72-16.25-49.82-19.09-87.76,8.02c-13.86,9.9-32.5,22.19-50.11,33.07
			c-31.59,19.5-52.93,14.98-70.29,9.16c-22.54-7.56-39-30.06-40.04-6.2c-0.86,19.91,8.79,55.38,48.42,47.93
			c60.18-11.31,77.76-30.26,114.66-58.28c22.11-13.73,43.64-22.53,60.16-10.41c36.85,27.02,43.92,85.6-1.43,147.32
			c-26.99,36.73-86.8,46.01-85.12,29.07c1.02-10.27,13.73-93.45,23.29-110.19c4.11-7.2,19.5-12.41,27.68-9.45
			c11.02,3.99,26.45,27.71-7.65,47.47c-8.37,4.85,17.05,33.86,27.32,24.61c10.24-9.23,17.38-21.45,18.24-42.45
			c0.65-15.77-5.06-30.06-18.8-42.32c-9.07-8.09-34.92-15.67-54.37-6.59c-6.19,2.89-11.55,6.57-16.18,10.81
			c0.02,0.01,0.04,0.02,0.05,0.03c-4.72,3.96-7.9,7.93-7.87,10.67c0.22,23.34-9.85,115.38-23.35,145.39
			c-5.24,11.65,160.76,16.77,186.45-118.77C327.6,137.1,293.77,98.03,273.77,83.73z"/>
	</g>
</g>
</svg>
