<?xml version="1.0" encoding="utf-8"?>
<!-- Generator: Adobe Illustrator 23.0.5, SVG Export Plug-In . SVG Version: 6.00 Build 0)  -->
<svg version="1.1" id="Capa_1" xmlns="http://www.w3.org/2000/svg" xmlns:xlink="http://www.w3.org/1999/xlink" x="0px" y="0px"
	 viewBox="0 0 600.5 474.06" style="enable-background:new 0 0 600.5 474.06;" xml:space="preserve">
<style type="text/css">
	.st0{fill:#230131;}
	.st1{fill:#FFFFFF;}
	.st2{fill:url(#SVGID_1_);}
	.st3{fill:url(#SVGID_2_);}
	.st4{fill:url(#SVGID_3_);}
	.st5{fill:url(#SVGID_4_);}
	.st6{fill:url(#SVGID_5_);}
	.st7{fill:url(#SVGID_6_);}
	.st8{fill:url(#SVGID_7_);}
	.st9{fill:url(#SVGID_8_);}
	.st10{fill:url(#SVGID_9_);}
	.st11{fill:url(#SVGID_10_);}
	.st12{fill:#350030;}
	.st13{fill:url(#SVGID_11_);}
	.st14{fill:url(#SVGID_12_);}
	.st15{fill:url(#SVGID_13_);}
	.st16{fill:url(#SVGID_14_);}
	.st17{fill:url(#SVGID_15_);}
	.st18{fill:url(#SVGID_16_);}
	.st19{fill:url(#SVGID_17_);}
	.st20{fill:url(#SVGID_18_);}
	.st21{fill:url(#SVGID_19_);}
	.st22{fill:url(#SVGID_20_);}
	.st23{fill:#FDCC68;}
	.st24{fill:#935EA3;}
	.st25{fill:#8CC15C;}
	.st26{fill:#C24131;}
	.st27{fill:#1D1D1B;}
	.st28{fill:#BE1622;}
	.st29{fill:#CB88A1;}
	.st30{fill:#E9C064;}
	.st31{fill:url(#SVGID_21_);}
	.st32{clip-path:url(#SVGID_23_);fill:url(#SVGID_24_);}
	.st33{clip-path:url(#SVGID_23_);fill:url(#SVGID_25_);}
	.st34{clip-path:url(#SVGID_23_);}
	.st35{fill:url(#SVGID_26_);}
	.st36{fill:url(#SVGID_27_);}
	.st37{fill:url(#SVGID_28_);}
	.st38{fill:url(#SVGID_29_);}
	.st39{fill:url(#SVGID_30_);}
	.st40{fill:url(#SVGID_31_);}
	.st41{fill:url(#SVGID_32_);}
	.st42{fill:url(#SVGID_33_);}
	.st43{fill:url(#SVGID_34_);}
	.st44{fill:url(#SVGID_35_);}
	.st45{fill:url(#SVGID_36_);}
	.st46{fill:url(#SVGID_37_);}
	.st47{fill:url(#SVGID_38_);}
	.st48{fill:url(#SVGID_39_);}
	.st49{clip-path:url(#SVGID_41_);}
	.st50{clip-path:url(#SVGID_43_);fill:url(#SVGID_44_);}
	.st51{clip-path:url(#SVGID_43_);fill:url(#SVGID_45_);}
	.st52{clip-path:url(#SVGID_43_);}
	.st53{fill:url(#SVGID_46_);}
	.st54{fill:url(#SVGID_47_);}
	.st55{fill:url(#SVGID_48_);}
	.st56{fill:url(#SVGID_49_);}
	.st57{fill:url(#SVGID_50_);}
	.st58{fill:url(#SVGID_51_);}
	.st59{fill:url(#SVGID_52_);}
	.st60{fill:url(#SVGID_53_);}
	.st61{fill:url(#SVGID_54_);}
	.st62{fill:url(#SVGID_55_);}
	.st63{fill:url(#SVGID_56_);}
	.st64{fill:url(#SVGID_57_);}
	.st65{fill:url(#SVGID_58_);}
	.st66{fill:url(#SVGID_59_);}
	.st67{clip-path:url(#SVGID_61_);}
	.st68{fill:none;}
	.st69{fill:none;stroke:#FFFFFF;stroke-width:2;stroke-miterlimit:10;}
	.st70{fill:#E9B6A3;}
	.st71{opacity:0.9;fill:#230131;}
	.st72{fill:url(#SVGID_62_);}
	.st73{opacity:0.5;}
	.st74{fill:#EDCD83;}
	.st75{opacity:0.63;fill:url(#SVGID_63_);}
	.st76{opacity:0;fill:url(#SVGID_64_);}
	.st77{fill:url(#SVGID_65_);}
	.st78{fill:url(#SVGID_66_);}
	.st79{fill:url(#SVGID_67_);}
	.st80{fill:url(#SVGID_68_);}
	.st81{fill:url(#SVGID_69_);}
	.st82{fill:url(#SVGID_70_);}
	.st83{fill:url(#SVGID_71_);}
	.st84{fill:url(#SVGID_72_);}
	.st85{fill:url(#SVGID_73_);}
	.st86{fill:url(#SVGID_74_);}
	.st87{fill:url(#SVGID_75_);}
	.st88{fill:url(#SVGID_76_);}
	.st89{fill:url(#SVGID_77_);}
	.st90{opacity:0.24;fill:url(#SVGID_78_);}
	.st91{fill:url(#SVGID_79_);}
	.st92{fill:url(#SVGID_80_);}
	.st93{fill:url(#SVGID_81_);}
	.st94{opacity:0.24;fill:url(#SVGID_82_);}
	.st95{fill:url(#SVGID_83_);}
	.st96{fill:url(#SVGID_84_);}
	.st97{fill:url(#SVGID_85_);}
	.st98{opacity:0.24;fill:url(#SVGID_86_);}
	.st99{opacity:0.22;fill:url(#SVGID_87_);}
	.st100{fill:url(#SVGID_88_);}
	.st101{fill:url(#SVGID_89_);}
	.st102{fill:#E9C064;stroke:#FFFFFF;stroke-width:20;stroke-miterlimit:10;}
	.st103{fill:url(#SVGID_90_);}
	.st104{fill:url(#SVGID_91_);}
	.st105{fill:url(#SVGID_92_);}
	.st106{clip-path:url(#SVGID_94_);}
	.st107{fill:#BF1A1B;}
	.st108{fill:#FFEC00;}
	.st109{opacity:0.24;fill:url(#SVGID_95_);}
	.st110{opacity:0.24;fill:url(#SVGID_96_);}
	.st111{fill:url(#SVGID_97_);}
	.st112{opacity:0.63;fill:url(#SVGID_98_);}
	.st113{opacity:0;fill:url(#SVGID_99_);}
	.st114{fill:url(#SVGID_100_);}
	.st115{fill:url(#SVGID_101_);}
	.st116{fill:url(#SVGID_102_);}
	.st117{fill:url(#SVGID_103_);}
	.st118{fill:url(#SVGID_104_);}
	.st119{fill:url(#SVGID_105_);}
	.st120{fill:url(#SVGID_106_);}
	.st121{fill:url(#SVGID_107_);}
	.st122{fill:url(#SVGID_108_);}
	.st123{fill:url(#SVGID_109_);}
	.st124{fill:url(#SVGID_110_);}
	.st125{fill:url(#SVGID_111_);}
	.st126{fill:url(#SVGID_112_);}
	.st127{fill:url(#SVGID_113_);}
	.st128{fill:url(#SVGID_114_);}
	.st129{fill:url(#SVGID_115_);}
	.st130{fill:url(#SVGID_116_);}
	.st131{fill:url(#SVGID_117_);}
	.st132{fill:url(#SVGID_118_);}
	.st133{fill:url(#SVGID_119_);}
	.st134{fill:url(#SVGID_120_);}
	.st135{fill:url(#SVGID_121_);}
	.st136{fill:url(#SVGID_122_);}
	.st137{opacity:0.24;fill:url(#SVGID_123_);}
	.st138{fill:url(#SVGID_124_);}
	.st139{fill:url(#SVGID_125_);}
	.st140{fill:url(#SVGID_126_);}
	.st141{opacity:0.24;fill:url(#SVGID_127_);}
	.st142{fill:url(#SVGID_128_);}
	.st143{fill:url(#SVGID_129_);}
	.st144{fill:url(#SVGID_130_);}
	.st145{opacity:0.24;fill:url(#SVGID_131_);}
	.st146{opacity:0.22;fill:url(#SVGID_132_);}
	.st147{fill:url(#SVGID_133_);}
	.st148{fill:url(#SVGID_134_);}
	.st149{fill:url(#SVGID_135_);}
	.st150{fill:url(#SVGID_136_);}
	.st151{fill:url(#SVGID_137_);}
	.st152{clip-path:url(#SVGID_139_);}
	.st153{clip-path:url(#SVGID_141_);}
	.st154{fill:url(#SVGID_142_);}
	.st155{fill:url(#SVGID_143_);}
	.st156{fill:url(#SVGID_144_);}
	.st157{fill:url(#SVGID_145_);}
	.st158{fill:url(#SVGID_146_);}
	.st159{fill:url(#SVGID_147_);}
	.st160{fill:url(#SVGID_148_);}
	.st161{fill:url(#SVGID_149_);}
	.st162{fill:url(#SVGID_150_);}
	.st163{fill:url(#SVGID_151_);}
</style>
<g>
	<g>
		<path class="st0" d="M582.52,343.49c7.36-3.38,12.9-10.03,15.05-18.64c3.3-13.22-2.59-36.27-22.23-45.13
			c-15.76-7.11-33.83-6.64-48.35,1.28c-12.48,6.8-20.81,18.47-22.84,32.01c-0.3,1.99-0.45,3.93-0.47,5.8
			c-1.27-0.13-2.54-0.2-3.8-0.17c-1.92,0.04-3.76,0.27-5.52,0.68c-0.23-1.76-0.68-3.57-1.36-5.42c-3.43-9.28-12.63-19.12-25.45-20.2
			c-7.97-0.67-12.24,1.32-16.76,3.43c-4.91,2.29-13.12,6.11-36.34,11.3c-3.6,0.8-7.23,0.11-10.74-0.56
			c-3.89-0.74-9.25-1.76-14.3,0.29c-1.7-1.29-3.6-2.34-5.7-3.11c-3.86-1.41-9.26-2.2-14.51-2.13c-8.33,0.12-14.05,2.39-17.46,6.93
			c-11.63-8.91-23.7-8.04-31.05-6.17c-1.12,0.28-2.94,0.75-4.92,1.66c-4.15-7.8-14.41-10.22-22.57-8.54
			c-0.89,0.18-1.75,0.43-2.59,0.7c0.6-4.92-0.04-9.93-4.2-14.15c-2.94-2.99-8.34-6.05-17.38-3.64c-12.39,3.3-21.1,9.17-25.19,16.97
			c-1.24,2.38-2.03,4.9-2.35,7.48c-3.62-3.41-8.35-5.25-13.58-5.25c-0.06,0-0.11,0-0.17,0c-6.71,0.05-20.17,0.16-25.02,9.84
			c-1.97,0.38-4.11,1.02-6.43,2.01c-0.61,0.26-2.69,1.18-5.25,2.73c-0.36-0.76-0.73-1.51-1.12-2.26
			c-8.04-15.43-19.03-24.32-23.38-27.43h0c-19.82-14.17-42.16-12.58-66.41,4.74c-7.93,5.66-18.74,12.8-28.94,19.09
			c-14.19,8.76-22.46,7.09-31.04,4.21c-3.13-1.05-6.49-3.11-9.45-4.93c-6.07-3.73-13.63-8.37-21.93-3.95
			c-5.44,2.89-8.38,8.45-8.72,16.51c-0.46,10.6,2.75,25.13,13.12,34.12c5.5,4.77,15.22,9.85,30.27,7.03
			c13.37-2.51,23.62-5.7,32.19-9.47c-1.34,20.02-6.6,59.48-12.38,72.34c-2.12,4.71-1.34,10.09,2.02,14.06
			c2.83,3.33,7.78,6.74,23.12,6.74c0.09,0,0.19,0,0.28,0c9.76-0.03,20.86-1.55,31.26-4.29c14.21-3.75,34.55-11.7,51.09-28.31
			c0.54,1.35,1.26,2.65,2.18,3.86c3.1,4.08,7.84,6.31,13.13,6.31c1.21,0,2.45-0.12,3.7-0.35c7.2-1.37,14.37-3.31,19.1-7.82
			c2.12,0.91,4.71,1.54,7.87,1.54c1,0,2.07-0.06,3.18-0.2c3.04-0.37,6.55-1.4,10.29-3c1.34,2.44,3.02,4.65,4.55,6.66
			c3.98,5.21,12.83,10.48,21.83,10.48c0.42,0,0.83-0.01,1.25-0.03c7.07-0.39,13.24-4.14,16.93-10.29c0.53-0.88,0.99-1.83,3.98-8.06
			c1.41-2.95,3.13-6.53,4.98-10.33c-0.36,14.89,5.73,22.02,11.17,25.42c2.38,1.49,4.99,2.45,7.76,2.9
			c-5.19,11.44-2.77,24.78,1.33,33.62c3.3,7.1,8.03,11,14.06,11.59c0.53,0.05,1.04,0.08,1.55,0.08c8.24,0,13.09-6.66,16.69-11.61
			c1.96-2.7,3.99-5.49,6.23-7.43c6.18-5.37,12.51-9.62,27.42-7.19c4.67,0.76,10.06,2.06,15.76,3.43
			c11.98,2.88,25.55,6.15,39.25,6.15c0.11,0,0.21,0,0.32,0c18.63-0.07,38.7-8.68,48.8-20.94c5.56-6.75,9.48-12.65,12.47-18.04
			c10.17,14.66,27.18,22.89,47.45,22.89c0.7,0,1.4-0.01,2.11-0.03c30.11-0.84,53.69-16.47,61.54-40.8
			C604.41,380.3,598.52,359.11,582.52,343.49z"/>
	</g>
	<g>
		<path class="st1" d="M252.73,370.52c10.96-16.24,18.2-33.34,18.09-59c-0.05-11.57,10.59-27.22-1.92-23.9
			c-12.51,3.33-20.87,10.03-17.82,18.5c3.64,10.1,4.58,52.43-23.77,66.15c-6.93,3.35,18.69-65.19-2.81-65.03
			c-22.27,0.17-12.29,7.41-10.19,8.87c5.12,3.57,9.29,22.7,1.58,55.21c-1.16,4.87-2.93,12.16-6.44,18.27
			c-1.96,3.4-2.61,9.91,5.88,8.88C223.83,397.43,241.77,386.76,252.73,370.52z"/>
		<path class="st1" d="M314.11,408.87c9.96-6.11-6.58-9.23-6.19-24.32c0.84-32.12,2.9-58.25-6.44-77.43
			c-1.74-3.56-16.2-4.91-16.77,7c-0.56,11.75-3.64,29.23-22.13,59.67c-18.02,29.67-33.41,16.84-20.97,33.15
			c2.68,3.51,14.26,9.84,19.39,1.3c0.6-1,6.63-13.89,12.61-25.92c6.2-0.63,20.56-5.29,20.77-4.67c1.24,3.65-0.38,8.74-1.04,15.61
			C291.49,412.31,301.66,416.51,314.11,408.87z M296.65,358.26c-0.19,1.21-5.06,5.4-14.5,7.26c7.51-16.01,11.85-34.58,12.59-38.08
			C295.77,322.58,297.15,355.18,296.65,358.26z"/>
		<path class="st1" d="M323.46,398.46c5.55,8.1,9.82,5,11.26,2.43c8.99-15.99-3.79-67.98-3.42-67.96
			c15.84,0.88,26.14,65.68,32.67,70.49c14.12,10.38,24.59-23.02,19.97-75.66c-0.73-8.31-3.06-13.38-7.86-15.13
			c-6.24-2.28-21.66-2.06-17.27,3.24c17.7,21.38,13.45,60.63,8.95,59.06c-4.5-1.58-10.21-72.74-47.33-63.29
			c-9.67,2.46-2.86,4.04-0.93,34.13C322.58,394,312.96,383.11,323.46,398.46z"/>
		<path class="st1" d="M410.58,329.98c7.05-2.63,6.6,4.64,5.06,9.84c-1.55,5.2-24.26,56.49-13.61,66.89
			c5.98,5.84,18.39,3.96,16.62-9.39c-1.28-9.6,2.67-29.06,7.78-52.55c5.34-24.55,34.54-28.16,46.68-23.85
			c11.37,4.03,4.19-17.76-9.94-18.94c-10.83-0.91-6.27,4.85-49.33,14.48c-17.09,3.82-28.83-11.12-24.42,12.52
			C390.86,336.74,404.91,332.09,410.58,329.98z"/>
		<path class="st1" d="M501.85,343.72c7.46-6.75,13.71-5.75,8.54-11.5c-4.67-5.19-16.92-7.86-21.95-1.76
			c-7.19,8.71-15.99,43.36-18.61,45.98c-3.28,3.27-13.13,1.38-9-12.19c4.13-13.58,5.77-18.01,7.39-21.66
			c1.63-3.65,8.16-18.28-11.85-14.59c-25.94,4.78-22.29,14.62-12.5,13.49c22.07-2.53-6.89,40.87,3.37,51.47
			c4.22,4.36,9.77,5.58,18.43-0.5c1.55-1.09-13.45,44.77-60.61,33.57c-30.05-7.14-42.02-15.1-78.28-7.53
			c-21.68,4.52-19.15,24.55-14.54,34.49c5.52,11.9,9.17-2.97,19.03-11.54c7.59-6.6,17.48-13.36,37.61-10.08
			c15.19,2.48,34.7,9.49,53.27,9.42c15.21-0.06,31.68-7.25,39.22-16.39c12.69-15.41,15.82-25.72,20.11-36.94
			C489.16,367.31,493.42,351.35,501.85,343.72z"/>
		<path class="st1" d="M565.17,343.68c-8.16-6.23-32.35-15.91-32.58-28.19c-0.19-10.15,6.73-17.88,18.6-17.58
			c11.64,0.29,16.6,11.34,12.99,14.35c-4.99,4.16-15.56-1.77-12.94,5.42c5.26,14.42,26.77,16.56,30.9,0
			c1.96-7.87-1.84-24.68-15.26-30.74c-23.05-10.41-50.28,0.83-53.73,23.77c-3.52,23.42,23.52,36.66,32.17,42.92
			c12.27,8.88,19.37,22.28,9.37,37.29c-6.51,9.77-30.12,24.9-47.58,9.03c-6.69-6.08-7.77-15.8-4.36-21
			c3.79-5.8,13.51-13.19,27.12,5.74c3.34,4.64,18.94-11.99,12.91-17.5c-6.02-5.49-13.63-8.99-26.03-8.28
			c-9.32,0.53-17.4,4.71-23.82,13.51c-4.24,5.81-7.21,21.46-0.74,32.38c8.88,14.99,25.32,20.3,40.5,19.88
			C585.26,423.21,601.3,371.27,565.17,343.68z"/>
		<path class="st1" d="M155.95,289.81c-13.44-9.61-29.46-11.29-51.9,4.74c-8.2,5.86-19.22,13.12-29.63,19.55
			c-18.68,11.53-31.3,8.86-41.56,5.42c-13.33-4.47-23.07-17.78-23.67-3.66c-0.51,11.78,5.2,32.75,28.63,28.34
			c35.59-6.69,45.99-17.89,67.81-34.46c13.08-8.12,25.8-13.32,35.58-6.15c21.79,15.98,25.97,50.62-0.84,87.11
			c-15.96,21.72-51.33,27.21-50.33,17.19c0.61-6.08,8.12-55.26,13.77-65.16c2.43-4.26,11.53-7.34,16.37-5.59
			c6.52,2.36,15.64,16.39-4.52,28.07c-4.95,2.87,10.08,20.02,16.15,14.56c6.06-5.46,10.28-12.68,10.79-25.1
			c0.38-9.32-2.99-17.78-11.12-25.03c-5.36-4.78-20.65-9.27-32.15-3.9c-3.66,1.71-6.83,3.88-9.57,6.39
			c0.01,0.01,0.02,0.01,0.03,0.02c-2.79,2.34-4.67,4.69-4.66,6.31c0.13,13.8-5.82,68.23-13.81,85.98
			c-3.1,6.89,95.07,9.92,110.26-70.24C187.78,321.36,167.78,298.26,155.95,289.81z"/>
		<path class="st1" d="M207.7,318.06c-5.71-6.03-26.41,9-19.32,11.26c17.57,5.59-0.2,44.82-5.04,54.63
			c-4.85,9.81-7.73,22.78,1.02,21.12c16.77-3.19,14.45-6.88,13.41-11.42c-1.03-4.54-2.93-13.39,8.4-35.86
			C216.83,336.63,209.54,320,207.7,318.06z"/>
	</g>
	<g>
		<linearGradient id="SVGID_1_" gradientUnits="userSpaceOnUse" x1="243.2678" y1="401.9013" x2="243.2678" y2="290.4951">
			<stop  offset="0" style="stop-color:#E9C063"/>
			<stop  offset="0.0824" style="stop-color:#D5AF72"/>
			<stop  offset="0.2503" style="stop-color:#A2849A"/>
			<stop  offset="0.3268" style="stop-color:#886FAE"/>
			<stop  offset="0.3535" style="stop-color:#8C73B0"/>
			<stop  offset="0.3816" style="stop-color:#9680B8"/>
			<stop  offset="0.4104" style="stop-color:#A795C3"/>
			<stop  offset="0.4397" style="stop-color:#C0B3D4"/>
			<stop  offset="0.469" style="stop-color:#DFD8E9"/>
			<stop  offset="0.4944" style="stop-color:#FFFFFF"/>
			<stop  offset="0.5184" style="stop-color:#FEFDF3"/>
			<stop  offset="0.5619" style="stop-color:#FBF9D3"/>
			<stop  offset="0.6199" style="stop-color:#F7F29F"/>
			<stop  offset="0.6844" style="stop-color:#F2E95E"/>
			<stop  offset="0.7447" style="stop-color:#ECE65B"/>
			<stop  offset="0.8288" style="stop-color:#DADE53"/>
			<stop  offset="0.9263" style="stop-color:#BCD145"/>
			<stop  offset="1" style="stop-color:#A1C538"/>
		</linearGradient>
		<path class="st2" d="M254.4,373.85c10.96-16.24,18.2-33.34,18.09-59c-0.05-11.57,10.59-27.22-1.92-23.9
			c-12.51,3.33-20.87,10.03-17.82,18.5c3.64,10.1,4.58,52.43-23.77,66.15c-6.93,3.35,18.69-65.19-2.81-65.03
			c-22.27,0.17-12.29,7.41-10.19,8.87c5.12,3.57,9.29,22.7,1.58,55.21c-1.16,4.87-2.93,12.16-6.44,18.27
			c-1.96,3.4-2.61,9.91,5.88,8.88C225.49,400.75,243.44,390.08,254.4,373.85z"/>
		<linearGradient id="SVGID_2_" gradientUnits="userSpaceOnUse" x1="278.8644" y1="415.8405" x2="278.8644" y2="307.9463">
			<stop  offset="0" style="stop-color:#E9C063"/>
			<stop  offset="0.0824" style="stop-color:#D5AF72"/>
			<stop  offset="0.2503" style="stop-color:#A2849A"/>
			<stop  offset="0.3268" style="stop-color:#886FAE"/>
			<stop  offset="0.3535" style="stop-color:#8C73B0"/>
			<stop  offset="0.3816" style="stop-color:#9680B8"/>
			<stop  offset="0.4104" style="stop-color:#A795C3"/>
			<stop  offset="0.4397" style="stop-color:#C0B3D4"/>
			<stop  offset="0.469" style="stop-color:#DFD8E9"/>
			<stop  offset="0.4944" style="stop-color:#FFFFFF"/>
			<stop  offset="0.5184" style="stop-color:#FEFDF3"/>
			<stop  offset="0.5619" style="stop-color:#FBF9D3"/>
			<stop  offset="0.6199" style="stop-color:#F7F29F"/>
			<stop  offset="0.6844" style="stop-color:#F2E95E"/>
			<stop  offset="0.7447" style="stop-color:#ECE65B"/>
			<stop  offset="0.8288" style="stop-color:#DADE53"/>
			<stop  offset="0.9263" style="stop-color:#BCD145"/>
			<stop  offset="1" style="stop-color:#A1C538"/>
		</linearGradient>
		<path class="st3" d="M315.77,412.2c9.96-6.11-6.58-9.23-6.19-24.32c0.84-32.12,2.9-58.25-6.44-77.43c-1.74-3.56-16.2-4.91-16.77,7
			c-0.56,11.75-3.64,29.23-22.13,59.67c-18.02,29.67-33.41,16.84-20.97,33.15c2.68,3.51,14.26,9.84,19.39,1.3
			c0.6-1,6.63-13.89,12.61-25.92c6.2-0.63,20.56-5.29,20.77-4.67c1.24,3.65-0.38,8.74-1.04,15.61
			C293.15,415.64,303.32,419.84,315.77,412.2z M298.31,361.59c-0.19,1.21-5.06,5.4-14.5,7.26c7.51-16.01,11.85-34.58,12.59-38.08
			C297.43,325.91,298.81,358.51,298.31,361.59z"/>
		<linearGradient id="SVGID_3_" gradientUnits="userSpaceOnUse" x1="351.8685" y1="408.6225" x2="351.8685" y2="314.088">
			<stop  offset="0" style="stop-color:#E9C063"/>
			<stop  offset="0.0824" style="stop-color:#D5AF72"/>
			<stop  offset="0.2503" style="stop-color:#A2849A"/>
			<stop  offset="0.3268" style="stop-color:#886FAE"/>
			<stop  offset="0.3535" style="stop-color:#8C73B0"/>
			<stop  offset="0.3816" style="stop-color:#9680B8"/>
			<stop  offset="0.4104" style="stop-color:#A795C3"/>
			<stop  offset="0.4397" style="stop-color:#C0B3D4"/>
			<stop  offset="0.469" style="stop-color:#DFD8E9"/>
			<stop  offset="0.4944" style="stop-color:#FFFFFF"/>
			<stop  offset="0.5184" style="stop-color:#FEFDF3"/>
			<stop  offset="0.5619" style="stop-color:#FBF9D3"/>
			<stop  offset="0.6199" style="stop-color:#F7F29F"/>
			<stop  offset="0.6844" style="stop-color:#F2E95E"/>
			<stop  offset="0.7447" style="stop-color:#ECE65B"/>
			<stop  offset="0.8288" style="stop-color:#DADE53"/>
			<stop  offset="0.9263" style="stop-color:#BCD145"/>
			<stop  offset="1" style="stop-color:#A1C538"/>
		</linearGradient>
		<path class="st4" d="M325.13,401.78c5.55,8.1,9.82,5,11.26,2.43c8.99-15.99-3.79-67.98-3.42-67.96
			c15.84,0.88,26.14,65.68,32.67,70.49c14.12,10.38,24.59-23.02,19.97-75.66c-0.73-8.31-3.06-13.38-7.86-15.13
			c-6.24-2.28-21.66-2.06-17.27,3.24c17.7,21.38,13.45,60.63,8.95,59.06c-4.5-1.58-10.21-72.74-47.33-63.29
			c-9.67,2.46-2.86,4.04-0.93,34.13C324.25,397.32,314.62,386.43,325.13,401.78z"/>
		<linearGradient id="SVGID_4_" gradientUnits="userSpaceOnUse" x1="435.265" y1="413.1627" x2="435.265" y2="305.2083">
			<stop  offset="0" style="stop-color:#E9C063"/>
			<stop  offset="0.0824" style="stop-color:#D5AF72"/>
			<stop  offset="0.2503" style="stop-color:#A2849A"/>
			<stop  offset="0.3268" style="stop-color:#886FAE"/>
			<stop  offset="0.3535" style="stop-color:#8C73B0"/>
			<stop  offset="0.3816" style="stop-color:#9680B8"/>
			<stop  offset="0.4104" style="stop-color:#A795C3"/>
			<stop  offset="0.4397" style="stop-color:#C0B3D4"/>
			<stop  offset="0.469" style="stop-color:#DFD8E9"/>
			<stop  offset="0.4944" style="stop-color:#FFFFFF"/>
			<stop  offset="0.5184" style="stop-color:#FEFDF3"/>
			<stop  offset="0.5619" style="stop-color:#FBF9D3"/>
			<stop  offset="0.6199" style="stop-color:#F7F29F"/>
			<stop  offset="0.6844" style="stop-color:#F2E95E"/>
			<stop  offset="0.7447" style="stop-color:#ECE65B"/>
			<stop  offset="0.8288" style="stop-color:#DADE53"/>
			<stop  offset="0.9263" style="stop-color:#BCD145"/>
			<stop  offset="1" style="stop-color:#A1C538"/>
		</linearGradient>
		<path class="st5" d="M412.24,333.3c7.05-2.63,6.6,4.64,5.06,9.84c-1.55,5.2-24.26,56.49-13.61,66.89
			c5.98,5.84,18.39,3.96,16.62-9.39c-1.28-9.6,2.67-29.06,7.78-52.55c5.34-24.55,34.54-28.16,46.68-23.85
			c11.37,4.03,4.19-17.76-9.94-18.94c-10.83-0.91-6.27,4.85-49.33,14.48c-17.09,3.82-28.83-11.12-24.42,12.52
			C392.53,340.07,406.57,335.41,412.24,333.3z"/>
		<linearGradient id="SVGID_5_" gradientUnits="userSpaceOnUse" x1="412.3531" y1="460.7412" x2="412.3531" y2="330.2758">
			<stop  offset="0" style="stop-color:#E9C063"/>
			<stop  offset="0.0824" style="stop-color:#D5AF72"/>
			<stop  offset="0.2503" style="stop-color:#A2849A"/>
			<stop  offset="0.3268" style="stop-color:#886FAE"/>
			<stop  offset="0.3535" style="stop-color:#8C73B0"/>
			<stop  offset="0.3816" style="stop-color:#9680B8"/>
			<stop  offset="0.4104" style="stop-color:#A795C3"/>
			<stop  offset="0.4397" style="stop-color:#C0B3D4"/>
			<stop  offset="0.469" style="stop-color:#DFD8E9"/>
			<stop  offset="0.4944" style="stop-color:#FFFFFF"/>
			<stop  offset="0.5184" style="stop-color:#FEFDF3"/>
			<stop  offset="0.5619" style="stop-color:#FBF9D3"/>
			<stop  offset="0.6199" style="stop-color:#F7F29F"/>
			<stop  offset="0.6844" style="stop-color:#F2E95E"/>
			<stop  offset="0.7447" style="stop-color:#ECE65B"/>
			<stop  offset="0.8288" style="stop-color:#DADE53"/>
			<stop  offset="0.9263" style="stop-color:#BCD145"/>
			<stop  offset="1" style="stop-color:#A1C538"/>
		</linearGradient>
		<path class="st6" d="M503.52,347.05c7.46-6.75,13.71-5.75,8.54-11.5c-4.67-5.19-16.92-7.86-21.95-1.76
			c-7.19,8.71-15.99,43.36-18.61,45.98c-3.28,3.27-13.13,1.38-9-12.19c4.13-13.58,5.77-18.01,7.39-21.66
			c1.63-3.65,8.16-18.28-11.85-14.59c-25.94,4.78-22.29,14.62-12.5,13.49c22.07-2.53-6.89,40.87,3.37,51.47
			c4.22,4.36,9.77,5.58,18.43-0.5c1.55-1.09-13.45,44.77-60.61,33.57c-30.05-7.14-42.02-15.1-78.28-7.53
			c-21.68,4.52-19.15,24.55-14.54,34.49c5.52,11.9,9.17-2.97,19.03-11.54c7.59-6.6,17.48-13.36,37.61-10.08
			c15.19,2.48,34.7,9.49,53.27,9.42c15.21-0.06,31.68-7.25,39.22-16.39c12.69-15.41,15.82-25.72,20.11-36.94
			C490.83,370.63,495.09,354.67,503.52,347.05z"/>
		<linearGradient id="SVGID_6_" gradientUnits="userSpaceOnUse" x1="538.1927" y1="428.0213" x2="538.1927" y2="286.3588">
			<stop  offset="0" style="stop-color:#E9C063"/>
			<stop  offset="0.0824" style="stop-color:#D5AF72"/>
			<stop  offset="0.2503" style="stop-color:#A2849A"/>
			<stop  offset="0.3268" style="stop-color:#886FAE"/>
			<stop  offset="0.3535" style="stop-color:#8C73B0"/>
			<stop  offset="0.3816" style="stop-color:#9680B8"/>
			<stop  offset="0.4104" style="stop-color:#A795C3"/>
			<stop  offset="0.4397" style="stop-color:#C0B3D4"/>
			<stop  offset="0.469" style="stop-color:#DFD8E9"/>
			<stop  offset="0.4944" style="stop-color:#FFFFFF"/>
			<stop  offset="0.5184" style="stop-color:#FEFDF3"/>
			<stop  offset="0.5619" style="stop-color:#FBF9D3"/>
			<stop  offset="0.6199" style="stop-color:#F7F29F"/>
			<stop  offset="0.6844" style="stop-color:#F2E95E"/>
			<stop  offset="0.7447" style="stop-color:#ECE65B"/>
			<stop  offset="0.8288" style="stop-color:#DADE53"/>
			<stop  offset="0.9263" style="stop-color:#BCD145"/>
			<stop  offset="1" style="stop-color:#A1C538"/>
		</linearGradient>
		<path class="st7" d="M566.83,347.01c-8.16-6.23-32.35-15.91-32.58-28.19c-0.19-10.15,6.73-17.88,18.6-17.58
			c11.64,0.29,16.6,11.34,12.99,14.35c-4.99,4.16-15.56-1.77-12.94,5.42c5.26,14.42,26.77,16.56,30.9,0
			c1.96-7.87-1.84-24.68-15.26-30.74c-23.05-10.41-50.28,0.83-53.73,23.77c-3.52,23.42,23.52,36.66,32.17,42.92
			c12.27,8.88,19.37,22.28,9.37,37.29c-6.51,9.77-30.12,24.9-47.58,9.03c-6.69-6.08-7.77-15.8-4.36-21
			c3.79-5.8,13.51-13.19,27.12,5.74c3.34,4.64,18.94-11.99,12.91-17.5c-6.02-5.49-13.63-8.99-26.03-8.28
			c-9.32,0.53-17.4,4.71-23.82,13.51c-4.24,5.81-7.21,21.46-0.74,32.38c8.88,14.99,25.32,20.3,40.5,19.88
			C586.92,426.53,602.96,374.6,566.83,347.01z"/>
		<linearGradient id="SVGID_7_" gradientUnits="userSpaceOnUse" x1="97.6036" y1="430.9696" x2="97.6036" y2="285.8541">
			<stop  offset="0" style="stop-color:#E9C063"/>
			<stop  offset="0.0824" style="stop-color:#D5AF72"/>
			<stop  offset="0.2503" style="stop-color:#A2849A"/>
			<stop  offset="0.3268" style="stop-color:#886FAE"/>
			<stop  offset="0.3535" style="stop-color:#8C73B0"/>
			<stop  offset="0.3816" style="stop-color:#9680B8"/>
			<stop  offset="0.4104" style="stop-color:#A795C3"/>
			<stop  offset="0.4397" style="stop-color:#C0B3D4"/>
			<stop  offset="0.469" style="stop-color:#DFD8E9"/>
			<stop  offset="0.4944" style="stop-color:#FFFFFF"/>
			<stop  offset="0.5184" style="stop-color:#FEFDF3"/>
			<stop  offset="0.5619" style="stop-color:#FBF9D3"/>
			<stop  offset="0.6199" style="stop-color:#F7F29F"/>
			<stop  offset="0.6844" style="stop-color:#F2E95E"/>
			<stop  offset="0.7447" style="stop-color:#ECE65B"/>
			<stop  offset="0.8288" style="stop-color:#DADE53"/>
			<stop  offset="0.9263" style="stop-color:#BCD145"/>
			<stop  offset="1" style="stop-color:#A1C538"/>
		</linearGradient>
		<path class="st8" d="M157.61,293.13c-13.44-9.61-29.46-11.29-51.9,4.74c-8.2,5.86-19.22,13.12-29.63,19.55
			c-18.68,11.53-31.3,8.86-41.56,5.42c-13.33-4.47-23.07-17.78-23.67-3.66c-0.51,11.78,5.2,32.75,28.63,28.34
			c35.59-6.69,45.99-17.89,67.81-34.46c13.08-8.12,25.8-13.32,35.58-6.15c21.79,15.98,25.97,50.62-0.84,87.11
			c-15.96,21.72-51.33,27.21-50.33,17.19c0.61-6.08,8.12-55.26,13.77-65.16c2.43-4.26,11.53-7.34,16.37-5.59
			c6.52,2.36,15.64,16.39-4.52,28.07c-4.95,2.87,10.08,20.02,16.15,14.56c6.06-5.46,10.28-12.68,10.79-25.1
			c0.38-9.32-2.99-17.78-11.12-25.03c-5.36-4.78-20.65-9.27-32.15-3.9c-3.66,1.71-6.83,3.88-9.57,6.39
			c0.01,0.01,0.02,0.01,0.03,0.02c-2.79,2.34-4.67,4.69-4.66,6.31c0.13,13.8-5.82,68.23-13.81,85.98
			c-3.1,6.89,95.07,9.92,110.26-70.24C189.45,324.69,169.44,301.59,157.61,293.13z"/>
		<linearGradient id="SVGID_8_" gradientUnits="userSpaceOnUse" x1="196.9489" y1="408.5419" x2="196.9489" y2="319.9733">
			<stop  offset="0" style="stop-color:#E9C063"/>
			<stop  offset="0.0824" style="stop-color:#D5AF72"/>
			<stop  offset="0.2503" style="stop-color:#A2849A"/>
			<stop  offset="0.3268" style="stop-color:#886FAE"/>
			<stop  offset="0.3535" style="stop-color:#8C73B0"/>
			<stop  offset="0.3816" style="stop-color:#9680B8"/>
			<stop  offset="0.4104" style="stop-color:#A795C3"/>
			<stop  offset="0.4397" style="stop-color:#C0B3D4"/>
			<stop  offset="0.469" style="stop-color:#DFD8E9"/>
			<stop  offset="0.4944" style="stop-color:#FFFFFF"/>
			<stop  offset="0.5184" style="stop-color:#FEFDF3"/>
			<stop  offset="0.5619" style="stop-color:#FBF9D3"/>
			<stop  offset="0.6199" style="stop-color:#F7F29F"/>
			<stop  offset="0.6844" style="stop-color:#F2E95E"/>
			<stop  offset="0.7447" style="stop-color:#ECE65B"/>
			<stop  offset="0.8288" style="stop-color:#DADE53"/>
			<stop  offset="0.9263" style="stop-color:#BCD145"/>
			<stop  offset="1" style="stop-color:#A1C538"/>
		</linearGradient>
		<path class="st9" d="M209.37,321.39c-5.71-6.03-26.41,9-19.32,11.26c17.57,5.59-0.2,44.82-5.04,54.63
			c-4.85,9.81-7.73,22.78,1.02,21.12c16.77-3.19,14.45-6.88,13.41-11.42c-1.03-4.54-2.93-13.39,8.4-35.86
			C218.49,339.96,211.2,323.33,209.37,321.39z"/>
	</g>
	<g>
		<circle class="st0" cx="320.14" cy="139.16" r="139.16"/>
		<g>
			<linearGradient id="SVGID_9_" gradientUnits="userSpaceOnUse" x1="320.1378" y1="262.5479" x2="320.1378" y2="15.7795">
				<stop  offset="0" style="stop-color:#E9C063"/>
				<stop  offset="0.0824" style="stop-color:#D5AF72"/>
				<stop  offset="0.2503" style="stop-color:#A2849A"/>
				<stop  offset="0.3268" style="stop-color:#886FAE"/>
				<stop  offset="0.3535" style="stop-color:#8C73B0"/>
				<stop  offset="0.3816" style="stop-color:#9680B8"/>
				<stop  offset="0.4104" style="stop-color:#A795C3"/>
				<stop  offset="0.4397" style="stop-color:#C0B3D4"/>
				<stop  offset="0.469" style="stop-color:#DFD8E9"/>
				<stop  offset="0.4944" style="stop-color:#FFFFFF"/>
				<stop  offset="0.5184" style="stop-color:#FEFDF3"/>
				<stop  offset="0.5619" style="stop-color:#FBF9D3"/>
				<stop  offset="0.6199" style="stop-color:#F7F29F"/>
				<stop  offset="0.6844" style="stop-color:#F2E95E"/>
				<stop  offset="0.7447" style="stop-color:#ECE65B"/>
				<stop  offset="0.8288" style="stop-color:#DADE53"/>
				<stop  offset="0.9263" style="stop-color:#BCD145"/>
				<stop  offset="1" style="stop-color:#A1C538"/>
			</linearGradient>
			<path class="st10" d="M320.14,262.55c-68.03,0-123.38-55.35-123.38-123.38S252.1,15.78,320.14,15.78s123.38,55.35,123.38,123.38
				S388.17,262.55,320.14,262.55z M320.14,25.75c-62.53,0-113.41,50.88-113.41,113.41s50.88,113.41,113.41,113.41
				s113.41-50.88,113.41-113.41S382.67,25.75,320.14,25.75z"/>
		</g>
		<g>
			<path class="st1" d="M401.84,60.48c-18.9-13.51-41.43-15.88-72.99,6.67c-11.53,8.24-27.03,18.46-41.68,27.5
				c-26.27,16.22-44.02,12.46-58.46,7.62c-18.75-6.29-32.44-25-33.3-5.15c-0.72,16.56,7.31,46.06,40.27,39.86
				c50.05-9.4,64.68-25.17,95.36-48.47c18.39-11.42,36.29-18.74,50.04-8.66c30.64,22.47,36.53,71.2-1.19,122.52
				c-22.45,30.55-72.19,38.27-70.79,24.18c0.85-8.55,11.42-77.72,19.37-91.64c3.42-5.99,16.21-10.33,23.02-7.86
				c9.16,3.32,22,23.05-6.36,39.48c-6.96,4.03,14.18,28.16,22.72,20.47c8.52-7.67,14.46-17.84,15.17-35.3
				c0.54-13.11-4.21-25-15.64-35.2c-7.54-6.73-29.04-13.03-45.22-5.48c-5.15,2.4-9.6,5.46-13.46,8.99c0.02,0.01,0.03,0.02,0.04,0.03
				c-3.92,3.29-6.57,6.59-6.55,8.88c0.19,19.41-8.19,95.96-19.42,120.92c-4.36,9.69,133.7,13.95,155.07-98.78
				C446.61,104.86,418.47,72.37,401.84,60.48z"/>
			<linearGradient id="SVGID_10_" gradientUnits="userSpaceOnUse" x1="319.7789" y1="259.0114" x2="319.7789" y2="54.9188">
				<stop  offset="0" style="stop-color:#E9C063"/>
				<stop  offset="0.0824" style="stop-color:#D5AF72"/>
				<stop  offset="0.2503" style="stop-color:#A2849A"/>
				<stop  offset="0.3268" style="stop-color:#886FAE"/>
				<stop  offset="0.3535" style="stop-color:#8C73B0"/>
				<stop  offset="0.3816" style="stop-color:#9680B8"/>
				<stop  offset="0.4104" style="stop-color:#A795C3"/>
				<stop  offset="0.4397" style="stop-color:#C0B3D4"/>
				<stop  offset="0.469" style="stop-color:#DFD8E9"/>
				<stop  offset="0.4944" style="stop-color:#FFFFFF"/>
				<stop  offset="0.5184" style="stop-color:#FEFDF3"/>
				<stop  offset="0.5619" style="stop-color:#FBF9D3"/>
				<stop  offset="0.6199" style="stop-color:#F7F29F"/>
				<stop  offset="0.6844" style="stop-color:#F2E95E"/>
				<stop  offset="0.7447" style="stop-color:#ECE65B"/>
				<stop  offset="0.8288" style="stop-color:#DADE53"/>
				<stop  offset="0.9263" style="stop-color:#BCD145"/>
				<stop  offset="1" style="stop-color:#A1C538"/>
			</linearGradient>
			<path class="st11" d="M404.18,65.15c-18.9-13.51-41.43-15.88-72.99,6.67c-11.53,8.24-27.03,18.46-41.68,27.5
				c-26.27,16.22-44.02,12.46-58.46,7.62c-18.75-6.29-32.44-25-33.3-5.15c-0.72,16.56,7.31,46.06,40.27,39.86
				c50.05-9.4,64.68-25.17,95.36-48.47c18.39-11.42,36.29-18.74,50.04-8.66c30.64,22.47,36.53,71.2-1.19,122.52
				c-22.45,30.55-72.19,38.27-70.79,24.18c0.85-8.55,11.42-77.72,19.37-91.64c3.42-5.99,16.21-10.33,23.02-7.86
				c9.16,3.32,22,23.05-6.36,39.48c-6.96,4.03,14.18,28.16,22.72,20.47c8.52-7.67,14.46-17.84,15.17-35.3
				c0.54-13.11-4.21-25-15.64-35.2c-7.54-6.73-29.04-13.03-45.22-5.48c-5.15,2.4-9.6,5.46-13.46,8.99c0.02,0.01,0.03,0.02,0.04,0.03
				c-3.92,3.29-6.57,6.59-6.55,8.88c0.19,19.41-8.19,95.96-19.42,120.92c-4.36,9.69,133.7,13.95,155.07-98.78
				C448.95,109.54,420.81,77.04,404.18,65.15z"/>
		</g>
	</g>
</g>
</svg>
